<?xml version="1.0" encoding="utf-8" standalone="no"?>
<!DOCTYPE svg PUBLIC "-//W3C//DTD SVG 1.1//EN"
  "http://www.w3.org/Graphics/SVG/1.1/DTD/svg11.dtd">
<svg xmlns:xlink="http://www.w3.org/1999/xlink" width="223.025909pt" height="125.649599pt" viewBox="0 0 223.025909 125.649599" xmlns="http://www.w3.org/2000/svg" version="1.1">
 <metadata>
  <rdf:RDF xmlns:dc="http://purl.org/dc/elements/1.1/" xmlns:cc="http://creativecommons.org/ns#" xmlns:rdf="http://www.w3.org/1999/02/22-rdf-syntax-ns#">
   <cc:Work>
    <dc:type rdf:resource="http://purl.org/dc/dcmitype/StillImage"/>
    <dc:date>2025-02-18T17:06:16.135609</dc:date>
    <dc:format>image/svg+xml</dc:format>
    <dc:creator>
     <cc:Agent>
      <dc:title>Matplotlib v3.9.1, https://matplotlib.org/</dc:title>
     </cc:Agent>
    </dc:creator>
   </cc:Work>
  </rdf:RDF>
 </metadata>
 <defs>
  <style type="text/css">*{stroke-linejoin: round; stroke-linecap: butt}</style>
 </defs>
 <g id="figure_1">
  <g id="patch_1">
   <path d="M 0 125.649599 
L 223.025909 125.649599 
L 223.025909 0 
L 0 0 
z
" style="fill: #ffffff"/>
  </g>
  <g id="axes_1">
   <g id="line2d_1">
    <path d="M 67.493111 44.2832 
L 211.190509 44.2832 
" clip-path="url(#p81d3952a50)" style="fill: none; stroke: #000000; stroke-width: 2; stroke-linecap: square"/>
   </g>
   <g id="line2d_2">
    <path d="M 76.76391 95.272599 
L 81.39931 86.001799 
" clip-path="url(#p81d3952a50)" style="fill: none; stroke: #778899; stroke-width: 1.5; stroke-linecap: square"/>
   </g>
   <g id="line2d_3">
    <path d="M 67.493111 89.130694 
L 211.190509 89.130694 
" clip-path="url(#p81d3952a50)" style="fill: none; stroke: #778899; stroke-width: 2; stroke-linecap: square"/>
   </g>
   <g id="line2d_4">
    <path d="M 67.493111 92.143704 
L 211.190509 92.143704 
" clip-path="url(#p81d3952a50)" style="fill: none; stroke: #778899; stroke-width: 2; stroke-linecap: square"/>
   </g>
   <g id="patch_2">
    <path d="M 132.85225 80.091664 
L 144.90429 80.091664 
L 138.87827 88.783039 
z
" clip-path="url(#p81d3952a50)" style="fill: #778899"/>
   </g>
   <g id="patch_3">
    <path d="M 62.857711 21.1062 
L -1095.992274 21.1062 
L -1095.992274 160.168198 
L 62.857711 160.168198 
z
" clip-path="url(#p81d3952a50)" style="fill: #ffffff; stroke: #ffffff; stroke-width: 1.5; stroke-linejoin: miter"/>
   </g>
   <g id="line2d_5">
    <path d="M 140.384775 44.2832 
L 140.384775 80.091664 
" clip-path="url(#p81d3952a50)" style="fill: none; stroke: #778899; stroke-width: 2; stroke-linecap: square"/>
   </g>
   <g id="line2d_6">
    <path d="M 137.371765 44.2832 
L 137.371765 80.091664 
" clip-path="url(#p81d3952a50)" style="fill: none; stroke: #778899; stroke-width: 2; stroke-linecap: square"/>
   </g>
   <g id="patch_4">
    <path d="M 77.45922 59.348249 
L 107.58932 59.348249 
L 107.58932 29.21815 
L 77.45922 29.21815 
z
" clip-path="url(#p81d3952a50)" style="fill: #002d9c; stroke: #002d9c; stroke-width: 1.5; stroke-linejoin: miter"/>
   </g>
   <g id="patch_5">
    <path d="M 123.81322 59.348249 
L 153.943319 59.348249 
L 153.943319 29.21815 
L 123.81322 29.21815 
z
" clip-path="url(#p81d3952a50)" style="fill: #a8a8a8; stroke: #a8a8a8; stroke-width: 1.5; stroke-linejoin: miter"/>
   </g>
   <g id="patch_6">
    <path d="M 149.423804 48.802714 
C 149.423804 46.006937 148.312002 43.322808 146.335089 41.345895 
C 144.358176 39.368982 141.674047 38.25718 138.87827 38.25718 
C 136.082493 38.25718 133.398363 39.368982 131.42145 41.345895 
C 129.444537 43.322808 128.332735 46.006937 128.332735 48.802714 
" clip-path="url(#p81d3952a50)" style="fill: none; stroke: #000000; stroke-width: 2; stroke-linejoin: miter"/>
   </g>
   <g id="line2d_7">
    <path d="M 138.87827 48.802714 
L 149.423804 38.25718 
" clip-path="url(#p81d3952a50)" style="fill: none; stroke: #000000; stroke-width: 2; stroke-linecap: square"/>
   </g>
   <g id="patch_7">
    <path d="M 170.167219 59.348249 
L 200.297319 59.348249 
L 200.297319 29.21815 
L 170.167219 29.21815 
z
" clip-path="url(#p81d3952a50)" style="fill: #a8a8a8; stroke: #a8a8a8; stroke-width: 1.5; stroke-linejoin: miter"/>
   </g>
   <g id="text_1">
    <g clip-path="url(#p81d3952a50)">
     <!-- ${q}$ -->
     <g transform="translate(47.822311 48.734176) scale(0.1625 -0.1625)">
      <defs>
       <path id="DejaVuSans-Oblique-71" d="M 2669 525 
Q 2438 222 2123 65 
Q 1809 -91 1428 -91 
Q 897 -91 595 267 
Q 294 625 294 1253 
Q 294 1759 480 2231 
Q 666 2703 1013 3078 
Q 1238 3322 1530 3453 
Q 1822 3584 2144 3584 
Q 2531 3584 2781 3431 
Q 3031 3278 3144 2969 
L 3244 3494 
L 3822 3494 
L 2888 -1319 
L 2309 -1319 
L 2669 525 
z
M 891 1338 
Q 891 875 1084 633 
Q 1278 391 1644 391 
Q 2188 391 2572 911 
Q 2956 1431 2956 2175 
Q 2956 2625 2757 2864 
Q 2559 3103 2188 3103 
Q 1916 3103 1684 2976 
Q 1453 2850 1281 2606 
Q 1100 2350 995 2006 
Q 891 1663 891 1338 
z
" transform="scale(0.015625)"/>
      </defs>
      <use xlink:href="#DejaVuSans-Oblique-71"/>
     </g>
    </g>
   </g>
   <g id="text_2">
    <g clip-path="url(#p81d3952a50)">
     <!-- 1 -->
     <g transform="translate(72.12851 83.838924) scale(0.104 -0.104)">
      <defs>
       <path id="DejaVuSans-31" d="M 794 531 
L 1825 531 
L 1825 4091 
L 703 3866 
L 703 4441 
L 1819 4666 
L 2450 4666 
L 2450 531 
L 3481 531 
L 3481 0 
L 794 0 
L 794 531 
z
" transform="scale(0.015625)"/>
      </defs>
      <use xlink:href="#DejaVuSans-31"/>
     </g>
    </g>
   </g>
   <g id="text_3">
    <g clip-path="url(#p81d3952a50)">
     <!-- err -->
     <g transform="translate(35.147311 95.121183) scale(0.1625 -0.1625)">
      <defs>
       <path id="DejaVuSans-65" d="M 3597 1894 
L 3597 1613 
L 953 1613 
Q 991 1019 1311 708 
Q 1631 397 2203 397 
Q 2534 397 2845 478 
Q 3156 559 3463 722 
L 3463 178 
Q 3153 47 2828 -22 
Q 2503 -91 2169 -91 
Q 1331 -91 842 396 
Q 353 884 353 1716 
Q 353 2575 817 3079 
Q 1281 3584 2069 3584 
Q 2775 3584 3186 3129 
Q 3597 2675 3597 1894 
z
M 3022 2063 
Q 3016 2534 2758 2815 
Q 2500 3097 2075 3097 
Q 1594 3097 1305 2825 
Q 1016 2553 972 2059 
L 3022 2063 
z
" transform="scale(0.015625)"/>
       <path id="DejaVuSans-72" d="M 2631 2963 
Q 2534 3019 2420 3045 
Q 2306 3072 2169 3072 
Q 1681 3072 1420 2755 
Q 1159 2438 1159 1844 
L 1159 0 
L 581 0 
L 581 3500 
L 1159 3500 
L 1159 2956 
Q 1341 3275 1631 3429 
Q 1922 3584 2338 3584 
Q 2397 3584 2469 3576 
Q 2541 3569 2628 3553 
L 2631 2963 
z
" transform="scale(0.015625)"/>
      </defs>
      <use xlink:href="#DejaVuSans-65"/>
      <use xlink:href="#DejaVuSans-72" x="61.523438"/>
      <use xlink:href="#DejaVuSans-72" x="100.886719"/>
     </g>
    </g>
   </g>
   <g id="text_4">
    <g clip-path="url(#p81d3952a50)">
     <!-- X -->
     <g style="fill: #ffffff" transform="translate(88.07177 47.870387) scale(0.13 -0.13)">
      <defs>
       <path id="DejaVuSans-58" d="M 403 4666 
L 1081 4666 
L 2241 2931 
L 3406 4666 
L 4084 4666 
L 2584 2425 
L 4184 0 
L 3506 0 
L 2194 1984 
L 872 0 
L 191 0 
L 1856 2491 
L 403 4666 
z
" transform="scale(0.015625)"/>
      </defs>
      <use xlink:href="#DejaVuSans-58"/>
     </g>
    </g>
   </g>
   <g id="text_5">
    <g clip-path="url(#p81d3952a50)">
     <!-- 0 -->
     <g transform="translate(150.466769 83.838924) scale(0.104 -0.104)">
      <defs>
       <path id="DejaVuSans-30" d="M 2034 4250 
Q 1547 4250 1301 3770 
Q 1056 3291 1056 2328 
Q 1056 1369 1301 889 
Q 1547 409 2034 409 
Q 2525 409 2770 889 
Q 3016 1369 3016 2328 
Q 3016 3291 2770 3770 
Q 2525 4250 2034 4250 
z
M 2034 4750 
Q 2819 4750 3233 4129 
Q 3647 3509 3647 2328 
Q 3647 1150 3233 529 
Q 2819 -91 2034 -91 
Q 1250 -91 836 529 
Q 422 1150 422 2328 
Q 422 3509 836 4129 
Q 1250 4750 2034 4750 
z
" transform="scale(0.015625)"/>
      </defs>
      <use xlink:href="#DejaVuSans-30"/>
     </g>
    </g>
   </g>
   <g id="text_6">
    <g clip-path="url(#p81d3952a50)">
     <!-- $\mathrm{\left|0\right\rangle}$ -->
     <g transform="translate(176.847269 47.870387) scale(0.13 -0.13)">
      <defs>
       <path id="DejaVuSans-7c" d="M 1344 4891 
L 1344 -1509 
L 813 -1509 
L 813 4891 
L 1344 4891 
z
" transform="scale(0.015625)"/>
       <path id="DejaVuSans-27e9" d="M 1925 2006 
L 1044 -844 
L 513 -844 
L 1394 2006 
L 513 4856 
L 1044 4856 
L 1925 2006 
z
" transform="scale(0.015625)"/>
      </defs>
      <use xlink:href="#DejaVuSans-7c" transform="translate(0 16.625) scale(0.756406)"/>
      <use xlink:href="#DejaVuSans-30" transform="translate(25.479126 0.125)"/>
      <use xlink:href="#DejaVuSans-27e9" transform="translate(89.102173 0.125)"/>
     </g>
    </g>
   </g>
  </g>
 </g>
 <defs>
  <clipPath id="p81d3952a50">
   <rect x="7.2" y="7.2" width="208.625909" height="111.249599"/>
  </clipPath>
 </defs>
</svg>
