<?xml version="1.0" encoding="utf-8" standalone="no"?>
<!DOCTYPE svg PUBLIC "-//W3C//DTD SVG 1.1//EN"
  "http://www.w3.org/Graphics/SVG/1.1/DTD/svg11.dtd">
<svg xmlns:xlink="http://www.w3.org/1999/xlink" width="272.269153pt" height="172.003598pt" viewBox="0 0 272.269153 172.003598" xmlns="http://www.w3.org/2000/svg" version="1.1">
 <metadata>
  <rdf:RDF xmlns:dc="http://purl.org/dc/elements/1.1/" xmlns:cc="http://creativecommons.org/ns#" xmlns:rdf="http://www.w3.org/1999/02/22-rdf-syntax-ns#">
   <cc:Work>
    <dc:type rdf:resource="http://purl.org/dc/dcmitype/StillImage"/>
    <dc:date>2025-02-18T17:15:40.318270</dc:date>
    <dc:format>image/svg+xml</dc:format>
    <dc:creator>
     <cc:Agent>
      <dc:title>Matplotlib v3.9.1, https://matplotlib.org/</dc:title>
     </cc:Agent>
    </dc:creator>
   </cc:Work>
  </rdf:RDF>
 </metadata>
 <defs>
  <style type="text/css">*{stroke-linejoin: round; stroke-linecap: butt}</style>
 </defs>
 <g id="figure_1">
  <g id="patch_1">
   <path d="M 0 172.003598 
L 272.269153 172.003598 
L 272.269153 0 
L 0 0 
z
" style="fill: #ffffff"/>
  </g>
  <g id="axes_1">
   <g id="line2d_1">
    <path d="M 70.382355 44.2832 
L 260.433753 44.2832 
" clip-path="url(#p774eea6b44)" style="fill: none; stroke: #000000; stroke-width: 2; stroke-linecap: square"/>
   </g>
   <g id="line2d_2">
    <path d="M 70.382355 90.637199 
L 260.433753 90.637199 
" clip-path="url(#p774eea6b44)" style="fill: none; stroke: #000000; stroke-width: 2; stroke-linecap: square"/>
   </g>
   <g id="line2d_3">
    <path d="M 79.653155 141.626598 
L 84.288555 132.355798 
" clip-path="url(#p774eea6b44)" style="fill: none; stroke: #778899; stroke-width: 1.5; stroke-linecap: square"/>
   </g>
   <g id="line2d_4">
    <path d="M 70.382355 135.484693 
L 260.433753 135.484693 
" clip-path="url(#p774eea6b44)" style="fill: none; stroke: #778899; stroke-width: 2; stroke-linecap: square"/>
   </g>
   <g id="line2d_5">
    <path d="M 70.382355 138.497703 
L 260.433753 138.497703 
" clip-path="url(#p774eea6b44)" style="fill: none; stroke: #778899; stroke-width: 2; stroke-linecap: square"/>
   </g>
   <g id="patch_2">
    <path d="M 182.095494 126.445663 
L 194.147534 126.445663 
L 188.121514 135.137038 
z
" clip-path="url(#p774eea6b44)" style="fill: #778899"/>
   </g>
   <g id="patch_3">
    <path d="M 228.449493 126.445663 
L 240.501533 126.445663 
L 234.475513 135.137038 
z
" clip-path="url(#p774eea6b44)" style="fill: #778899"/>
   </g>
   <g id="patch_4">
    <path d="M 65.746955 21.1062 
L -1093.103029 21.1062 
L -1093.103029 206.522197 
L 65.746955 206.522197 
z
" clip-path="url(#p774eea6b44)" style="fill: #ffffff; stroke: #ffffff; stroke-width: 1.5; stroke-linejoin: miter"/>
   </g>
   <g id="line2d_6">
    <path d="M 141.767514 90.637199 
L 141.767514 44.2832 
" clip-path="url(#p774eea6b44)" style="fill: none; stroke: #9f1853; stroke-width: 2; stroke-linecap: square"/>
   </g>
   <g id="line2d_7">
    <path d="M 189.628019 44.2832 
L 189.628019 126.445663 
" clip-path="url(#p774eea6b44)" style="fill: none; stroke: #778899; stroke-width: 2; stroke-linecap: square"/>
   </g>
   <g id="line2d_8">
    <path d="M 186.615009 44.2832 
L 186.615009 126.445663 
" clip-path="url(#p774eea6b44)" style="fill: none; stroke: #778899; stroke-width: 2; stroke-linecap: square"/>
   </g>
   <g id="line2d_9">
    <path d="M 235.982018 90.637199 
L 235.982018 126.445663 
" clip-path="url(#p774eea6b44)" style="fill: none; stroke: #778899; stroke-width: 2; stroke-linecap: square"/>
   </g>
   <g id="line2d_10">
    <path d="M 232.969008 90.637199 
L 232.969008 126.445663 
" clip-path="url(#p774eea6b44)" style="fill: none; stroke: #778899; stroke-width: 2; stroke-linecap: square"/>
   </g>
   <g id="patch_5">
    <path d="M 80.348465 59.348249 
L 110.478565 59.348249 
L 110.478565 29.21815 
L 80.348465 29.21815 
z
" clip-path="url(#p774eea6b44)" style="fill: #fa4d56; stroke: #fa4d56; stroke-width: 1.5; stroke-linejoin: miter"/>
   </g>
   <g id="patch_6">
    <path d="M 141.767514 48.802714 
C 142.966104 48.802714 144.115763 48.32651 144.963294 47.478979 
C 145.810825 46.631448 146.287029 45.481789 146.287029 44.2832 
C 146.287029 43.08461 145.810825 41.934951 144.963294 41.08742 
C 144.115763 40.239889 142.966104 39.763685 141.767514 39.763685 
C 140.568925 39.763685 139.419265 40.239889 138.571735 41.08742 
C 137.724204 41.934951 137.247999 43.08461 137.247999 44.2832 
C 137.247999 45.481789 137.724204 46.631448 138.571735 47.478979 
C 139.419265 48.32651 140.568925 48.802714 141.767514 48.802714 
z
" clip-path="url(#p774eea6b44)" style="fill: #9f1853; stroke: #9f1853; stroke-width: 1.5; stroke-linejoin: miter"/>
   </g>
   <g id="patch_7">
    <path d="M 126.702465 105.702249 
L 156.832564 105.702249 
L 156.832564 75.572149 
L 126.702465 75.572149 
z
" clip-path="url(#p774eea6b44)" style="fill: #9f1853; stroke: #9f1853; stroke-width: 1.5; stroke-linejoin: miter"/>
   </g>
   <g id="patch_8">
    <path d="M 173.056464 59.348249 
L 203.186564 59.348249 
L 203.186564 29.21815 
L 173.056464 29.21815 
z
" clip-path="url(#p774eea6b44)" style="fill: #a8a8a8; stroke: #a8a8a8; stroke-width: 1.5; stroke-linejoin: miter"/>
   </g>
   <g id="patch_9">
    <path d="M 198.667049 48.802714 
C 198.667049 46.006937 197.555246 43.322808 195.578333 41.345895 
C 193.60142 39.368982 190.917291 38.25718 188.121514 38.25718 
C 185.325737 38.25718 182.641607 39.368982 180.664695 41.345895 
C 178.687782 43.322808 177.575979 46.006937 177.575979 48.802714 
" clip-path="url(#p774eea6b44)" style="fill: none; stroke: #000000; stroke-width: 2; stroke-linejoin: miter"/>
   </g>
   <g id="line2d_11">
    <path d="M 188.121514 48.802714 
L 198.667049 38.25718 
" clip-path="url(#p774eea6b44)" style="fill: none; stroke: #000000; stroke-width: 2; stroke-linecap: square"/>
   </g>
   <g id="patch_10">
    <path d="M 219.410463 105.702249 
L 249.540563 105.702249 
L 249.540563 75.572149 
L 219.410463 75.572149 
z
" clip-path="url(#p774eea6b44)" style="fill: #a8a8a8; stroke: #a8a8a8; stroke-width: 1.5; stroke-linejoin: miter"/>
   </g>
   <g id="patch_11">
    <path d="M 245.021048 95.156714 
C 245.021048 92.360937 243.909245 89.676808 241.932332 87.699895 
C 239.955419 85.722982 237.27129 84.611179 234.475513 84.611179 
C 231.679736 84.611179 228.995607 85.722982 227.018694 87.699895 
C 225.041781 89.676808 223.929978 92.360937 223.929978 95.156714 
" clip-path="url(#p774eea6b44)" style="fill: none; stroke: #000000; stroke-width: 2; stroke-linejoin: miter"/>
   </g>
   <g id="line2d_12">
    <path d="M 234.475513 95.156714 
L 245.021048 84.611179 
" clip-path="url(#p774eea6b44)" style="fill: none; stroke: #000000; stroke-width: 2; stroke-linecap: square"/>
   </g>
   <g id="text_1">
    <g clip-path="url(#p774eea6b44)">
     <!-- ${q}_{0}$ -->
     <g transform="translate(43.074055 48.734176) scale(0.1625 -0.1625)">
      <defs>
       <path id="DejaVuSans-Oblique-71" d="M 2669 525 
Q 2438 222 2123 65 
Q 1809 -91 1428 -91 
Q 897 -91 595 267 
Q 294 625 294 1253 
Q 294 1759 480 2231 
Q 666 2703 1013 3078 
Q 1238 3322 1530 3453 
Q 1822 3584 2144 3584 
Q 2531 3584 2781 3431 
Q 3031 3278 3144 2969 
L 3244 3494 
L 3822 3494 
L 2888 -1319 
L 2309 -1319 
L 2669 525 
z
M 891 1338 
Q 891 875 1084 633 
Q 1278 391 1644 391 
Q 2188 391 2572 911 
Q 2956 1431 2956 2175 
Q 2956 2625 2757 2864 
Q 2559 3103 2188 3103 
Q 1916 3103 1684 2976 
Q 1453 2850 1281 2606 
Q 1100 2350 995 2006 
Q 891 1663 891 1338 
z
" transform="scale(0.015625)"/>
       <path id="DejaVuSans-30" d="M 2034 4250 
Q 1547 4250 1301 3770 
Q 1056 3291 1056 2328 
Q 1056 1369 1301 889 
Q 1547 409 2034 409 
Q 2525 409 2770 889 
Q 3016 1369 3016 2328 
Q 3016 3291 2770 3770 
Q 2525 4250 2034 4250 
z
M 2034 4750 
Q 2819 4750 3233 4129 
Q 3647 3509 3647 2328 
Q 3647 1150 3233 529 
Q 2819 -91 2034 -91 
Q 1250 -91 836 529 
Q 422 1150 422 2328 
Q 422 3509 836 4129 
Q 1250 4750 2034 4750 
z
" transform="scale(0.015625)"/>
      </defs>
      <use xlink:href="#DejaVuSans-Oblique-71"/>
      <use xlink:href="#DejaVuSans-30" transform="translate(63.476562 -16.40625) scale(0.7)"/>
     </g>
    </g>
   </g>
   <g id="text_2">
    <g clip-path="url(#p774eea6b44)">
     <!-- ${q}_{1}$ -->
     <g transform="translate(43.074055 95.088175) scale(0.1625 -0.1625)">
      <defs>
       <path id="DejaVuSans-31" d="M 794 531 
L 1825 531 
L 1825 4091 
L 703 3866 
L 703 4441 
L 1819 4666 
L 2450 4666 
L 2450 531 
L 3481 531 
L 3481 0 
L 794 0 
L 794 531 
z
" transform="scale(0.015625)"/>
      </defs>
      <use xlink:href="#DejaVuSans-Oblique-71"/>
      <use xlink:href="#DejaVuSans-31" transform="translate(63.476562 -16.40625) scale(0.7)"/>
     </g>
    </g>
   </g>
   <g id="text_3">
    <g clip-path="url(#p774eea6b44)">
     <!-- 2 -->
     <g transform="translate(75.017755 130.192923) scale(0.104 -0.104)">
      <defs>
       <path id="DejaVuSans-32" d="M 1228 531 
L 3431 531 
L 3431 0 
L 469 0 
L 469 531 
Q 828 903 1448 1529 
Q 2069 2156 2228 2338 
Q 2531 2678 2651 2914 
Q 2772 3150 2772 3378 
Q 2772 3750 2511 3984 
Q 2250 4219 1831 4219 
Q 1534 4219 1204 4116 
Q 875 4013 500 3803 
L 500 4441 
Q 881 4594 1212 4672 
Q 1544 4750 1819 4750 
Q 2544 4750 2975 4387 
Q 3406 4025 3406 3419 
Q 3406 3131 3298 2873 
Q 3191 2616 2906 2266 
Q 2828 2175 2409 1742 
Q 1991 1309 1228 531 
z
" transform="scale(0.015625)"/>
      </defs>
      <use xlink:href="#DejaVuSans-32"/>
     </g>
    </g>
   </g>
   <g id="text_4">
    <g clip-path="url(#p774eea6b44)">
     <!-- out -->
     <g transform="translate(34.499641 141.475183) scale(0.1625 -0.1625)">
      <defs>
       <path id="DejaVuSans-6f" d="M 1959 3097 
Q 1497 3097 1228 2736 
Q 959 2375 959 1747 
Q 959 1119 1226 758 
Q 1494 397 1959 397 
Q 2419 397 2687 759 
Q 2956 1122 2956 1747 
Q 2956 2369 2687 2733 
Q 2419 3097 1959 3097 
z
M 1959 3584 
Q 2709 3584 3137 3096 
Q 3566 2609 3566 1747 
Q 3566 888 3137 398 
Q 2709 -91 1959 -91 
Q 1206 -91 779 398 
Q 353 888 353 1747 
Q 353 2609 779 3096 
Q 1206 3584 1959 3584 
z
" transform="scale(0.015625)"/>
       <path id="DejaVuSans-75" d="M 544 1381 
L 544 3500 
L 1119 3500 
L 1119 1403 
Q 1119 906 1312 657 
Q 1506 409 1894 409 
Q 2359 409 2629 706 
Q 2900 1003 2900 1516 
L 2900 3500 
L 3475 3500 
L 3475 0 
L 2900 0 
L 2900 538 
Q 2691 219 2414 64 
Q 2138 -91 1772 -91 
Q 1169 -91 856 284 
Q 544 659 544 1381 
z
M 1991 3584 
L 1991 3584 
z
" transform="scale(0.015625)"/>
       <path id="DejaVuSans-74" d="M 1172 4494 
L 1172 3500 
L 2356 3500 
L 2356 3053 
L 1172 3053 
L 1172 1153 
Q 1172 725 1289 603 
Q 1406 481 1766 481 
L 2356 481 
L 2356 0 
L 1766 0 
Q 1100 0 847 248 
Q 594 497 594 1153 
L 594 3053 
L 172 3053 
L 172 3500 
L 594 3500 
L 594 4494 
L 1172 4494 
z
" transform="scale(0.015625)"/>
      </defs>
      <use xlink:href="#DejaVuSans-6f"/>
      <use xlink:href="#DejaVuSans-75" x="61.181641"/>
      <use xlink:href="#DejaVuSans-74" x="124.560547"/>
     </g>
    </g>
   </g>
   <g id="text_5">
    <g clip-path="url(#p774eea6b44)">
     <!-- H -->
     <g transform="translate(90.525312 47.870387) scale(0.13 -0.13)">
      <defs>
       <path id="DejaVuSans-48" d="M 628 4666 
L 1259 4666 
L 1259 2753 
L 3553 2753 
L 3553 4666 
L 4184 4666 
L 4184 0 
L 3553 0 
L 3553 2222 
L 1259 2222 
L 1259 0 
L 628 0 
L 628 4666 
z
" transform="scale(0.015625)"/>
      </defs>
      <use xlink:href="#DejaVuSans-48"/>
     </g>
    </g>
   </g>
   <g id="text_6">
    <g clip-path="url(#p774eea6b44)">
     <!-- H -->
     <g style="fill: #ffffff" transform="translate(136.879311 94.224386) scale(0.13 -0.13)">
      <use xlink:href="#DejaVuSans-48"/>
     </g>
    </g>
   </g>
   <g id="text_7">
    <g clip-path="url(#p774eea6b44)">
     <!-- 0 -->
     <g transform="translate(199.710014 130.192923) scale(0.104 -0.104)">
      <use xlink:href="#DejaVuSans-30"/>
     </g>
    </g>
   </g>
   <g id="text_8">
    <g clip-path="url(#p774eea6b44)">
     <!-- 1 -->
     <g transform="translate(246.064013 130.192923) scale(0.104 -0.104)">
      <use xlink:href="#DejaVuSans-31"/>
     </g>
    </g>
   </g>
  </g>
 </g>
 <defs>
  <clipPath id="p774eea6b44">
   <rect x="7.2" y="7.2" width="257.869153" height="157.603598"/>
  </clipPath>
 </defs>
</svg>
