<?xml version="1.0" encoding="utf-8" standalone="no"?>
<!DOCTYPE svg PUBLIC "-//W3C//DTD SVG 1.1//EN"
  "http://www.w3.org/Graphics/SVG/1.1/DTD/svg11.dtd">
<svg xmlns:xlink="http://www.w3.org/1999/xlink" width="643.101148pt" height="311.065596pt" viewBox="0 0 643.101148 311.065596" xmlns="http://www.w3.org/2000/svg" version="1.1">
 <metadata>
  <rdf:RDF xmlns:dc="http://purl.org/dc/elements/1.1/" xmlns:cc="http://creativecommons.org/ns#" xmlns:rdf="http://www.w3.org/1999/02/22-rdf-syntax-ns#">
   <cc:Work>
    <dc:type rdf:resource="http://purl.org/dc/dcmitype/StillImage"/>
    <dc:date>2025-02-18T17:16:26.643752</dc:date>
    <dc:format>image/svg+xml</dc:format>
    <dc:creator>
     <cc:Agent>
      <dc:title>Matplotlib v3.9.1, https://matplotlib.org/</dc:title>
     </cc:Agent>
    </dc:creator>
   </cc:Work>
  </rdf:RDF>
 </metadata>
 <defs>
  <style type="text/css">*{stroke-linejoin: round; stroke-linecap: butt}</style>
 </defs>
 <g id="figure_1">
  <g id="patch_1">
   <path d="M 0 311.065596 
L 643.101148 311.065596 
L 643.101148 0 
L 0 0 
z
" style="fill: #ffffff"/>
  </g>
  <g id="axes_1">
   <g id="line2d_1">
    <path d="M 70.382355 44.2832 
L 631.265748 44.2832 
" clip-path="url(#p692b12e63d)" style="fill: none; stroke: #000000; stroke-width: 2; stroke-linecap: square"/>
   </g>
   <g id="line2d_2">
    <path d="M 70.382355 90.637199 
L 631.265748 90.637199 
" clip-path="url(#p692b12e63d)" style="fill: none; stroke: #000000; stroke-width: 2; stroke-linecap: square"/>
   </g>
   <g id="line2d_3">
    <path d="M 70.382355 136.991198 
L 631.265748 136.991198 
" clip-path="url(#p692b12e63d)" style="fill: none; stroke: #000000; stroke-width: 2; stroke-linecap: square"/>
   </g>
   <g id="line2d_4">
    <path d="M 70.382355 183.345198 
L 631.265748 183.345198 
" clip-path="url(#p692b12e63d)" style="fill: none; stroke: #000000; stroke-width: 2; stroke-linecap: square"/>
   </g>
   <g id="line2d_5">
    <path d="M 79.653155 234.334597 
L 84.288555 225.063797 
" clip-path="url(#p692b12e63d)" style="fill: none; stroke: #778899; stroke-width: 1.5; stroke-linecap: square"/>
   </g>
   <g id="line2d_6">
    <path d="M 70.382355 228.192692 
L 631.265748 228.192692 
" clip-path="url(#p692b12e63d)" style="fill: none; stroke: #778899; stroke-width: 2; stroke-linecap: square"/>
   </g>
   <g id="line2d_7">
    <path d="M 70.382355 231.205702 
L 631.265748 231.205702 
" clip-path="url(#p692b12e63d)" style="fill: none; stroke: #778899; stroke-width: 2; stroke-linecap: square"/>
   </g>
   <g id="line2d_8">
    <path d="M 79.653155 280.688596 
L 84.288555 271.417796 
" clip-path="url(#p692b12e63d)" style="fill: none; stroke: #778899; stroke-width: 1.5; stroke-linecap: square"/>
   </g>
   <g id="line2d_9">
    <path d="M 70.382355 274.546691 
L 631.265748 274.546691 
" clip-path="url(#p692b12e63d)" style="fill: none; stroke: #778899; stroke-width: 2; stroke-linecap: square"/>
   </g>
   <g id="line2d_10">
    <path d="M 70.382355 277.559701 
L 631.265748 277.559701 
" clip-path="url(#p692b12e63d)" style="fill: none; stroke: #778899; stroke-width: 2; stroke-linecap: square"/>
   </g>
   <g id="patch_2">
    <path d="M 228.449493 265.507662 
L 240.501533 265.507662 
L 234.475513 274.199036 
z
" clip-path="url(#p692b12e63d)" style="fill: #778899"/>
   </g>
   <g id="patch_3">
    <path d="M 274.803493 265.507662 
L 286.855532 265.507662 
L 280.829513 274.199036 
z
" clip-path="url(#p692b12e63d)" style="fill: #778899"/>
   </g>
   <g id="patch_4">
    <path d="M 413.865491 265.507662 
L 425.917531 265.507662 
L 419.891511 274.199036 
z
" clip-path="url(#p692b12e63d)" style="fill: #778899"/>
   </g>
   <g id="patch_5">
    <path d="M 460.21949 265.507662 
L 472.27153 265.507662 
L 466.24551 274.199036 
z
" clip-path="url(#p692b12e63d)" style="fill: #778899"/>
   </g>
   <g id="patch_6">
    <path d="M 506.57349 219.153662 
L 518.625529 219.153662 
L 512.599509 227.845037 
z
" clip-path="url(#p692b12e63d)" style="fill: #778899"/>
   </g>
   <g id="patch_7">
    <path d="M 552.927489 219.153662 
L 564.979529 219.153662 
L 558.953509 227.845037 
z
" clip-path="url(#p692b12e63d)" style="fill: #778899"/>
   </g>
   <g id="patch_8">
    <path d="M 65.746955 21.1062 
L -1093.103029 21.1062 
L -1093.103029 345.584196 
L 65.746955 345.584196 
z
" clip-path="url(#p692b12e63d)" style="fill: #ffffff; stroke: #ffffff; stroke-width: 1.5; stroke-linejoin: miter"/>
   </g>
   <g id="line2d_11">
    <path d="M 141.767514 136.991198 
L 141.767514 44.2832 
" clip-path="url(#p692b12e63d)" style="fill: none; stroke: #002d9c; stroke-width: 2; stroke-linecap: square"/>
   </g>
   <g id="line2d_12">
    <path d="M 188.121514 183.345198 
L 188.121514 90.637199 
" clip-path="url(#p692b12e63d)" style="fill: none; stroke: #002d9c; stroke-width: 2; stroke-linecap: square"/>
   </g>
   <g id="line2d_13">
    <path d="M 235.982018 136.991198 
L 235.982018 265.507662 
" clip-path="url(#p692b12e63d)" style="fill: none; stroke: #778899; stroke-width: 2; stroke-linecap: square"/>
   </g>
   <g id="line2d_14">
    <path d="M 232.969008 136.991198 
L 232.969008 265.507662 
" clip-path="url(#p692b12e63d)" style="fill: none; stroke: #778899; stroke-width: 2; stroke-linecap: square"/>
   </g>
   <g id="line2d_15">
    <path d="M 282.336018 183.345198 
L 282.336018 265.507662 
" clip-path="url(#p692b12e63d)" style="fill: none; stroke: #778899; stroke-width: 2; stroke-linecap: square"/>
   </g>
   <g id="line2d_16">
    <path d="M 279.323008 183.345198 
L 279.323008 265.507662 
" clip-path="url(#p692b12e63d)" style="fill: none; stroke: #778899; stroke-width: 2; stroke-linecap: square"/>
   </g>
   <g id="line2d_17">
    <path d="M 327.183512 136.991198 
L 327.183512 90.637199 
" clip-path="url(#p692b12e63d)" style="fill: none; stroke: #002d9c; stroke-width: 2; stroke-linecap: square"/>
   </g>
   <g id="line2d_18">
    <path d="M 373.537511 183.345198 
L 373.537511 44.2832 
" clip-path="url(#p692b12e63d)" style="fill: none; stroke: #002d9c; stroke-width: 2; stroke-linecap: square"/>
   </g>
   <g id="line2d_19">
    <path d="M 421.398016 183.345198 
L 421.398016 265.507662 
" clip-path="url(#p692b12e63d)" style="fill: none; stroke: #778899; stroke-width: 2; stroke-linecap: square"/>
   </g>
   <g id="line2d_20">
    <path d="M 418.385006 183.345198 
L 418.385006 265.507662 
" clip-path="url(#p692b12e63d)" style="fill: none; stroke: #778899; stroke-width: 2; stroke-linecap: square"/>
   </g>
   <g id="line2d_21">
    <path d="M 467.752015 136.991198 
L 467.752015 265.507662 
" clip-path="url(#p692b12e63d)" style="fill: none; stroke: #778899; stroke-width: 2; stroke-linecap: square"/>
   </g>
   <g id="line2d_22">
    <path d="M 464.739005 136.991198 
L 464.739005 265.507662 
" clip-path="url(#p692b12e63d)" style="fill: none; stroke: #778899; stroke-width: 2; stroke-linecap: square"/>
   </g>
   <g id="line2d_23">
    <path d="M 514.106014 44.2832 
L 514.106014 219.153662 
" clip-path="url(#p692b12e63d)" style="fill: none; stroke: #778899; stroke-width: 2; stroke-linecap: square"/>
   </g>
   <g id="line2d_24">
    <path d="M 511.093004 44.2832 
L 511.093004 219.153662 
" clip-path="url(#p692b12e63d)" style="fill: none; stroke: #778899; stroke-width: 2; stroke-linecap: square"/>
   </g>
   <g id="line2d_25">
    <path d="M 560.460014 90.637199 
L 560.460014 219.153662 
" clip-path="url(#p692b12e63d)" style="fill: none; stroke: #778899; stroke-width: 2; stroke-linecap: square"/>
   </g>
   <g id="line2d_26">
    <path d="M 557.447004 90.637199 
L 557.447004 219.153662 
" clip-path="url(#p692b12e63d)" style="fill: none; stroke: #778899; stroke-width: 2; stroke-linecap: square"/>
   </g>
   <g id="patch_9">
    <path d="M 80.348465 59.348249 
L 110.478565 59.348249 
L 110.478565 29.21815 
L 80.348465 29.21815 
z
" clip-path="url(#p692b12e63d)" style="fill: #fa4d56; stroke: #fa4d56; stroke-width: 1.5; stroke-linejoin: miter"/>
   </g>
   <g id="patch_10">
    <path d="M 80.348465 105.702249 
L 110.478565 105.702249 
L 110.478565 75.572149 
L 80.348465 75.572149 
z
" clip-path="url(#p692b12e63d)" style="fill: #fa4d56; stroke: #fa4d56; stroke-width: 1.5; stroke-linejoin: miter"/>
   </g>
   <g id="patch_11">
    <path d="M 141.767514 48.802714 
C 142.966104 48.802714 144.115763 48.32651 144.963294 47.478979 
C 145.810825 46.631448 146.287029 45.481789 146.287029 44.2832 
C 146.287029 43.08461 145.810825 41.934951 144.963294 41.08742 
C 144.115763 40.239889 142.966104 39.763685 141.767514 39.763685 
C 140.568925 39.763685 139.419265 40.239889 138.571735 41.08742 
C 137.724204 41.934951 137.247999 43.08461 137.247999 44.2832 
C 137.247999 45.481789 137.724204 46.631448 138.571735 47.478979 
C 139.419265 48.32651 140.568925 48.802714 141.767514 48.802714 
z
" clip-path="url(#p692b12e63d)" style="fill: #002d9c; stroke: #002d9c; stroke-width: 1.5; stroke-linejoin: miter"/>
   </g>
   <g id="patch_12">
    <path d="M 141.767514 147.536733 
C 144.564223 147.536733 147.246762 146.425589 149.224334 144.448017 
C 151.201905 142.470446 152.313049 139.787907 152.313049 136.991198 
C 152.313049 134.19449 151.201905 131.511951 149.224334 129.534379 
C 147.246762 127.556807 144.564223 126.445663 141.767514 126.445663 
C 138.970806 126.445663 136.288267 127.556807 134.310695 129.534379 
C 132.333124 131.511951 131.22198 134.19449 131.22198 136.991198 
C 131.22198 139.787907 132.333124 142.470446 134.310695 144.448017 
C 136.288267 146.425589 138.970806 147.536733 141.767514 147.536733 
z
" clip-path="url(#p692b12e63d)" style="fill: #002d9c; stroke: #002d9c; stroke-width: 2; stroke-linejoin: miter"/>
   </g>
   <g id="patch_13">
    <path d="M 188.121514 95.156714 
C 189.320103 95.156714 190.469763 94.680509 191.317293 93.832979 
C 192.164824 92.985448 192.641029 91.835788 192.641029 90.637199 
C 192.641029 89.43861 192.164824 88.28895 191.317293 87.441419 
C 190.469763 86.593889 189.320103 86.117684 188.121514 86.117684 
C 186.922924 86.117684 185.773265 86.593889 184.925734 87.441419 
C 184.078203 88.28895 183.601999 89.43861 183.601999 90.637199 
C 183.601999 91.835788 184.078203 92.985448 184.925734 93.832979 
C 185.773265 94.680509 186.922924 95.156714 188.121514 95.156714 
z
" clip-path="url(#p692b12e63d)" style="fill: #002d9c; stroke: #002d9c; stroke-width: 1.5; stroke-linejoin: miter"/>
   </g>
   <g id="patch_14">
    <path d="M 188.121514 193.890733 
C 190.918222 193.890733 193.600761 192.779588 195.578333 190.802017 
C 197.555905 188.824445 198.667049 186.141906 198.667049 183.345198 
C 198.667049 180.548489 197.555905 177.86595 195.578333 175.888378 
C 193.600761 173.910807 190.918222 172.799663 188.121514 172.799663 
C 185.324805 172.799663 182.642266 173.910807 180.664695 175.888378 
C 178.687123 177.86595 177.575979 180.548489 177.575979 183.345198 
C 177.575979 186.141906 178.687123 188.824445 180.664695 190.802017 
C 182.642266 192.779588 185.324805 193.890733 188.121514 193.890733 
z
" clip-path="url(#p692b12e63d)" style="fill: #002d9c; stroke: #002d9c; stroke-width: 2; stroke-linejoin: miter"/>
   </g>
   <g id="patch_15">
    <path d="M 219.410463 152.056248 
L 249.540563 152.056248 
L 249.540563 121.926148 
L 219.410463 121.926148 
z
" clip-path="url(#p692b12e63d)" style="fill: #a8a8a8; stroke: #a8a8a8; stroke-width: 1.5; stroke-linejoin: miter"/>
   </g>
   <g id="patch_16">
    <path d="M 245.021048 141.510713 
C 245.021048 138.714936 243.909245 136.030807 241.932332 134.053894 
C 239.955419 132.076981 237.27129 130.965178 234.475513 130.965178 
C 231.679736 130.965178 228.995607 132.076981 227.018694 134.053894 
C 225.041781 136.030807 223.929978 138.714936 223.929978 141.510713 
" clip-path="url(#p692b12e63d)" style="fill: none; stroke: #000000; stroke-width: 2; stroke-linejoin: miter"/>
   </g>
   <g id="line2d_27">
    <path d="M 234.475513 141.510713 
L 245.021048 130.965178 
" clip-path="url(#p692b12e63d)" style="fill: none; stroke: #000000; stroke-width: 2; stroke-linecap: square"/>
   </g>
   <g id="patch_17">
    <path d="M 265.764463 198.410247 
L 295.894562 198.410247 
L 295.894562 168.280148 
L 265.764463 168.280148 
z
" clip-path="url(#p692b12e63d)" style="fill: #a8a8a8; stroke: #a8a8a8; stroke-width: 1.5; stroke-linejoin: miter"/>
   </g>
   <g id="patch_18">
    <path d="M 291.375047 187.864713 
C 291.375047 185.068936 290.263245 182.384806 288.286332 180.407893 
C 286.309419 178.43098 283.62529 177.319178 280.829513 177.319178 
C 278.033735 177.319178 275.349606 178.43098 273.372693 180.407893 
C 271.39578 182.384806 270.283978 185.068936 270.283978 187.864713 
" clip-path="url(#p692b12e63d)" style="fill: none; stroke: #000000; stroke-width: 2; stroke-linejoin: miter"/>
   </g>
   <g id="line2d_28">
    <path d="M 280.829513 187.864713 
L 291.375047 177.319178 
" clip-path="url(#p692b12e63d)" style="fill: none; stroke: #000000; stroke-width: 2; stroke-linecap: square"/>
   </g>
   <g id="patch_19">
    <path d="M 265.764463 152.056248 
L 295.894562 152.056248 
L 295.894562 121.926148 
L 265.764463 121.926148 
z
" clip-path="url(#p692b12e63d)" style="fill: #a8a8a8; stroke: #a8a8a8; stroke-width: 1.5; stroke-linejoin: miter"/>
   </g>
   <g id="patch_20">
    <path d="M 312.118462 198.410247 
L 342.248562 198.410247 
L 342.248562 168.280148 
L 312.118462 168.280148 
z
" clip-path="url(#p692b12e63d)" style="fill: #a8a8a8; stroke: #a8a8a8; stroke-width: 1.5; stroke-linejoin: miter"/>
   </g>
   <g id="patch_21">
    <path d="M 327.183512 95.156714 
C 328.382101 95.156714 329.531761 94.680509 330.379292 93.832979 
C 331.226822 92.985448 331.703027 91.835788 331.703027 90.637199 
C 331.703027 89.43861 331.226822 88.28895 330.379292 87.441419 
C 329.531761 86.593889 328.382101 86.117684 327.183512 86.117684 
C 325.984923 86.117684 324.835263 86.593889 323.987732 87.441419 
C 323.140202 88.28895 322.663997 89.43861 322.663997 90.637199 
C 322.663997 91.835788 323.140202 92.985448 323.987732 93.832979 
C 324.835263 94.680509 325.984923 95.156714 327.183512 95.156714 
z
" clip-path="url(#p692b12e63d)" style="fill: #002d9c; stroke: #002d9c; stroke-width: 1.5; stroke-linejoin: miter"/>
   </g>
   <g id="patch_22">
    <path d="M 327.183512 147.536733 
C 329.98022 147.536733 332.66276 146.425589 334.640331 144.448017 
C 336.617903 142.470446 337.729047 139.787907 337.729047 136.991198 
C 337.729047 134.19449 336.617903 131.511951 334.640331 129.534379 
C 332.66276 127.556807 329.98022 126.445663 327.183512 126.445663 
C 324.386803 126.445663 321.704264 127.556807 319.726693 129.534379 
C 317.749121 131.511951 316.637977 134.19449 316.637977 136.991198 
C 316.637977 139.787907 317.749121 142.470446 319.726693 144.448017 
C 321.704264 146.425589 324.386803 147.536733 327.183512 147.536733 
z
" clip-path="url(#p692b12e63d)" style="fill: #002d9c; stroke: #002d9c; stroke-width: 2; stroke-linejoin: miter"/>
   </g>
   <g id="patch_23">
    <path d="M 373.537511 48.802714 
C 374.736101 48.802714 375.88576 48.32651 376.733291 47.478979 
C 377.580822 46.631448 378.057026 45.481789 378.057026 44.2832 
C 378.057026 43.08461 377.580822 41.934951 376.733291 41.08742 
C 375.88576 40.239889 374.736101 39.763685 373.537511 39.763685 
C 372.338922 39.763685 371.189262 40.239889 370.341732 41.08742 
C 369.494201 41.934951 369.017996 43.08461 369.017996 44.2832 
C 369.017996 45.481789 369.494201 46.631448 370.341732 47.478979 
C 371.189262 48.32651 372.338922 48.802714 373.537511 48.802714 
z
" clip-path="url(#p692b12e63d)" style="fill: #002d9c; stroke: #002d9c; stroke-width: 1.5; stroke-linejoin: miter"/>
   </g>
   <g id="patch_24">
    <path d="M 373.537511 193.890733 
C 376.33422 193.890733 379.016759 192.779588 380.994331 190.802017 
C 382.971902 188.824445 384.083046 186.141906 384.083046 183.345198 
C 384.083046 180.548489 382.971902 177.86595 380.994331 175.888378 
C 379.016759 173.910807 376.33422 172.799663 373.537511 172.799663 
C 370.740803 172.799663 368.058264 173.910807 366.080692 175.888378 
C 364.103121 177.86595 362.991976 180.548489 362.991976 183.345198 
C 362.991976 186.141906 364.103121 188.824445 366.080692 190.802017 
C 368.058264 192.779588 370.740803 193.890733 373.537511 193.890733 
z
" clip-path="url(#p692b12e63d)" style="fill: #002d9c; stroke: #002d9c; stroke-width: 2; stroke-linejoin: miter"/>
   </g>
   <g id="patch_25">
    <path d="M 404.826461 198.410247 
L 434.95656 198.410247 
L 434.95656 168.280148 
L 404.826461 168.280148 
z
" clip-path="url(#p692b12e63d)" style="fill: #a8a8a8; stroke: #a8a8a8; stroke-width: 1.5; stroke-linejoin: miter"/>
   </g>
   <g id="patch_26">
    <path d="M 430.437046 187.864713 
C 430.437046 185.068936 429.325243 182.384806 427.34833 180.407893 
C 425.371417 178.43098 422.687288 177.319178 419.891511 177.319178 
C 417.095734 177.319178 414.411604 178.43098 412.434691 180.407893 
C 410.457779 182.384806 409.345976 185.068936 409.345976 187.864713 
" clip-path="url(#p692b12e63d)" style="fill: none; stroke: #000000; stroke-width: 2; stroke-linejoin: miter"/>
   </g>
   <g id="line2d_29">
    <path d="M 419.891511 187.864713 
L 430.437046 177.319178 
" clip-path="url(#p692b12e63d)" style="fill: none; stroke: #000000; stroke-width: 2; stroke-linecap: square"/>
   </g>
   <g id="patch_27">
    <path d="M 451.18046 152.056248 
L 481.31056 152.056248 
L 481.31056 121.926148 
L 451.18046 121.926148 
z
" clip-path="url(#p692b12e63d)" style="fill: #a8a8a8; stroke: #a8a8a8; stroke-width: 1.5; stroke-linejoin: miter"/>
   </g>
   <g id="patch_28">
    <path d="M 476.791045 141.510713 
C 476.791045 138.714936 475.679242 136.030807 473.702329 134.053894 
C 471.725416 132.076981 469.041287 130.965178 466.24551 130.965178 
C 463.449733 130.965178 460.765604 132.076981 458.788691 134.053894 
C 456.811778 136.030807 455.699975 138.714936 455.699975 141.510713 
" clip-path="url(#p692b12e63d)" style="fill: none; stroke: #000000; stroke-width: 2; stroke-linejoin: miter"/>
   </g>
   <g id="line2d_30">
    <path d="M 466.24551 141.510713 
L 476.791045 130.965178 
" clip-path="url(#p692b12e63d)" style="fill: none; stroke: #000000; stroke-width: 2; stroke-linecap: square"/>
   </g>
   <g id="patch_29">
    <path d="M 497.53446 59.348249 
L 527.664559 59.348249 
L 527.664559 29.21815 
L 497.53446 29.21815 
z
" clip-path="url(#p692b12e63d)" style="fill: #a8a8a8; stroke: #a8a8a8; stroke-width: 1.5; stroke-linejoin: miter"/>
   </g>
   <g id="patch_30">
    <path d="M 523.145044 48.802714 
C 523.145044 46.006937 522.033242 43.322808 520.056329 41.345895 
C 518.079416 39.368982 515.395287 38.25718 512.599509 38.25718 
C 509.803732 38.25718 507.119603 39.368982 505.14269 41.345895 
C 503.165777 43.322808 502.053975 46.006937 502.053975 48.802714 
" clip-path="url(#p692b12e63d)" style="fill: none; stroke: #000000; stroke-width: 2; stroke-linejoin: miter"/>
   </g>
   <g id="line2d_31">
    <path d="M 512.599509 48.802714 
L 523.145044 38.25718 
" clip-path="url(#p692b12e63d)" style="fill: none; stroke: #000000; stroke-width: 2; stroke-linecap: square"/>
   </g>
   <g id="patch_31">
    <path d="M 543.888459 105.702249 
L 574.018559 105.702249 
L 574.018559 75.572149 
L 543.888459 75.572149 
z
" clip-path="url(#p692b12e63d)" style="fill: #a8a8a8; stroke: #a8a8a8; stroke-width: 1.5; stroke-linejoin: miter"/>
   </g>
   <g id="patch_32">
    <path d="M 569.499044 95.156714 
C 569.499044 92.360937 568.387241 89.676808 566.410328 87.699895 
C 564.433415 85.722982 561.749286 84.611179 558.953509 84.611179 
C 556.157732 84.611179 553.473603 85.722982 551.49669 87.699895 
C 549.519777 89.676808 548.407974 92.360937 548.407974 95.156714 
" clip-path="url(#p692b12e63d)" style="fill: none; stroke: #000000; stroke-width: 2; stroke-linejoin: miter"/>
   </g>
   <g id="line2d_32">
    <path d="M 558.953509 95.156714 
L 569.499044 84.611179 
" clip-path="url(#p692b12e63d)" style="fill: none; stroke: #000000; stroke-width: 2; stroke-linecap: square"/>
   </g>
   <g id="patch_33">
    <path d="M 590.242458 198.410247 
L 620.372558 198.410247 
L 620.372558 168.280148 
L 590.242458 168.280148 
z
" clip-path="url(#p692b12e63d)" style="fill: #a8a8a8; stroke: #a8a8a8; stroke-width: 1.5; stroke-linejoin: miter"/>
   </g>
   <g id="patch_34">
    <path d="M 590.242458 152.056248 
L 620.372558 152.056248 
L 620.372558 121.926148 
L 590.242458 121.926148 
z
" clip-path="url(#p692b12e63d)" style="fill: #a8a8a8; stroke: #a8a8a8; stroke-width: 1.5; stroke-linejoin: miter"/>
   </g>
   <g id="line2d_33">
    <path d="M 141.767514 143.017218 
L 141.767514 130.965178 
" clip-path="url(#p692b12e63d)" style="fill: none; stroke: #ffffff; stroke-width: 2; stroke-linecap: square"/>
   </g>
   <g id="line2d_34">
    <path d="M 135.741494 136.991198 
L 147.793534 136.991198 
" clip-path="url(#p692b12e63d)" style="fill: none; stroke: #ffffff; stroke-width: 2; stroke-linecap: square"/>
   </g>
   <g id="line2d_35">
    <path d="M 188.121514 189.371218 
L 188.121514 177.319178 
" clip-path="url(#p692b12e63d)" style="fill: none; stroke: #ffffff; stroke-width: 2; stroke-linecap: square"/>
   </g>
   <g id="line2d_36">
    <path d="M 182.095494 183.345198 
L 194.147534 183.345198 
" clip-path="url(#p692b12e63d)" style="fill: none; stroke: #ffffff; stroke-width: 2; stroke-linecap: square"/>
   </g>
   <g id="line2d_37">
    <path d="M 327.183512 143.017218 
L 327.183512 130.965178 
" clip-path="url(#p692b12e63d)" style="fill: none; stroke: #ffffff; stroke-width: 2; stroke-linecap: square"/>
   </g>
   <g id="line2d_38">
    <path d="M 321.157492 136.991198 
L 333.209532 136.991198 
" clip-path="url(#p692b12e63d)" style="fill: none; stroke: #ffffff; stroke-width: 2; stroke-linecap: square"/>
   </g>
   <g id="line2d_39">
    <path d="M 373.537511 189.371218 
L 373.537511 177.319178 
" clip-path="url(#p692b12e63d)" style="fill: none; stroke: #ffffff; stroke-width: 2; stroke-linecap: square"/>
   </g>
   <g id="line2d_40">
    <path d="M 367.511491 183.345198 
L 379.563531 183.345198 
" clip-path="url(#p692b12e63d)" style="fill: none; stroke: #ffffff; stroke-width: 2; stroke-linecap: square"/>
   </g>
   <g id="text_1">
    <g clip-path="url(#p692b12e63d)">
     <!-- ${q}_{0}$ -->
     <g transform="translate(43.074055 48.734176) scale(0.1625 -0.1625)">
      <defs>
       <path id="DejaVuSans-Oblique-71" d="M 2669 525 
Q 2438 222 2123 65 
Q 1809 -91 1428 -91 
Q 897 -91 595 267 
Q 294 625 294 1253 
Q 294 1759 480 2231 
Q 666 2703 1013 3078 
Q 1238 3322 1530 3453 
Q 1822 3584 2144 3584 
Q 2531 3584 2781 3431 
Q 3031 3278 3144 2969 
L 3244 3494 
L 3822 3494 
L 2888 -1319 
L 2309 -1319 
L 2669 525 
z
M 891 1338 
Q 891 875 1084 633 
Q 1278 391 1644 391 
Q 2188 391 2572 911 
Q 2956 1431 2956 2175 
Q 2956 2625 2757 2864 
Q 2559 3103 2188 3103 
Q 1916 3103 1684 2976 
Q 1453 2850 1281 2606 
Q 1100 2350 995 2006 
Q 891 1663 891 1338 
z
" transform="scale(0.015625)"/>
       <path id="DejaVuSans-30" d="M 2034 4250 
Q 1547 4250 1301 3770 
Q 1056 3291 1056 2328 
Q 1056 1369 1301 889 
Q 1547 409 2034 409 
Q 2525 409 2770 889 
Q 3016 1369 3016 2328 
Q 3016 3291 2770 3770 
Q 2525 4250 2034 4250 
z
M 2034 4750 
Q 2819 4750 3233 4129 
Q 3647 3509 3647 2328 
Q 3647 1150 3233 529 
Q 2819 -91 2034 -91 
Q 1250 -91 836 529 
Q 422 1150 422 2328 
Q 422 3509 836 4129 
Q 1250 4750 2034 4750 
z
" transform="scale(0.015625)"/>
      </defs>
      <use xlink:href="#DejaVuSans-Oblique-71"/>
      <use xlink:href="#DejaVuSans-30" transform="translate(63.476562 -16.40625) scale(0.7)"/>
     </g>
    </g>
   </g>
   <g id="text_2">
    <g clip-path="url(#p692b12e63d)">
     <!-- ${q}_{1}$ -->
     <g transform="translate(43.074055 95.088175) scale(0.1625 -0.1625)">
      <defs>
       <path id="DejaVuSans-31" d="M 794 531 
L 1825 531 
L 1825 4091 
L 703 3866 
L 703 4441 
L 1819 4666 
L 2450 4666 
L 2450 531 
L 3481 531 
L 3481 0 
L 794 0 
L 794 531 
z
" transform="scale(0.015625)"/>
      </defs>
      <use xlink:href="#DejaVuSans-Oblique-71"/>
      <use xlink:href="#DejaVuSans-31" transform="translate(63.476562 -16.40625) scale(0.7)"/>
     </g>
    </g>
   </g>
   <g id="text_3">
    <g clip-path="url(#p692b12e63d)">
     <!-- ${q}_{2}$ -->
     <g transform="translate(43.074055 141.442175) scale(0.1625 -0.1625)">
      <defs>
       <path id="DejaVuSans-32" d="M 1228 531 
L 3431 531 
L 3431 0 
L 469 0 
L 469 531 
Q 828 903 1448 1529 
Q 2069 2156 2228 2338 
Q 2531 2678 2651 2914 
Q 2772 3150 2772 3378 
Q 2772 3750 2511 3984 
Q 2250 4219 1831 4219 
Q 1534 4219 1204 4116 
Q 875 4013 500 3803 
L 500 4441 
Q 881 4594 1212 4672 
Q 1544 4750 1819 4750 
Q 2544 4750 2975 4387 
Q 3406 4025 3406 3419 
Q 3406 3131 3298 2873 
Q 3191 2616 2906 2266 
Q 2828 2175 2409 1742 
Q 1991 1309 1228 531 
z
" transform="scale(0.015625)"/>
      </defs>
      <use xlink:href="#DejaVuSans-Oblique-71"/>
      <use xlink:href="#DejaVuSans-32" transform="translate(63.476562 -16.40625) scale(0.7)"/>
     </g>
    </g>
   </g>
   <g id="text_4">
    <g clip-path="url(#p692b12e63d)">
     <!-- ${q}_{3}$ -->
     <g transform="translate(43.074055 187.796174) scale(0.1625 -0.1625)">
      <defs>
       <path id="DejaVuSans-33" d="M 2597 2516 
Q 3050 2419 3304 2112 
Q 3559 1806 3559 1356 
Q 3559 666 3084 287 
Q 2609 -91 1734 -91 
Q 1441 -91 1130 -33 
Q 819 25 488 141 
L 488 750 
Q 750 597 1062 519 
Q 1375 441 1716 441 
Q 2309 441 2620 675 
Q 2931 909 2931 1356 
Q 2931 1769 2642 2001 
Q 2353 2234 1838 2234 
L 1294 2234 
L 1294 2753 
L 1863 2753 
Q 2328 2753 2575 2939 
Q 2822 3125 2822 3475 
Q 2822 3834 2567 4026 
Q 2313 4219 1838 4219 
Q 1578 4219 1281 4162 
Q 984 4106 628 3988 
L 628 4550 
Q 988 4650 1302 4700 
Q 1616 4750 1894 4750 
Q 2613 4750 3031 4423 
Q 3450 4097 3450 3541 
Q 3450 3153 3228 2886 
Q 3006 2619 2597 2516 
z
" transform="scale(0.015625)"/>
      </defs>
      <use xlink:href="#DejaVuSans-Oblique-71"/>
      <use xlink:href="#DejaVuSans-33" transform="translate(63.476562 -16.40625) scale(0.7)"/>
     </g>
    </g>
   </g>
   <g id="text_5">
    <g clip-path="url(#p692b12e63d)">
     <!-- 2 -->
     <g transform="translate(75.017755 222.900922) scale(0.104 -0.104)">
      <use xlink:href="#DejaVuSans-32"/>
     </g>
    </g>
   </g>
   <g id="text_6">
    <g clip-path="url(#p692b12e63d)">
     <!-- out -->
     <g transform="translate(34.499641 234.183181) scale(0.1625 -0.1625)">
      <defs>
       <path id="DejaVuSans-6f" d="M 1959 3097 
Q 1497 3097 1228 2736 
Q 959 2375 959 1747 
Q 959 1119 1226 758 
Q 1494 397 1959 397 
Q 2419 397 2687 759 
Q 2956 1122 2956 1747 
Q 2956 2369 2687 2733 
Q 2419 3097 1959 3097 
z
M 1959 3584 
Q 2709 3584 3137 3096 
Q 3566 2609 3566 1747 
Q 3566 888 3137 398 
Q 2709 -91 1959 -91 
Q 1206 -91 779 398 
Q 353 888 353 1747 
Q 353 2609 779 3096 
Q 1206 3584 1959 3584 
z
" transform="scale(0.015625)"/>
       <path id="DejaVuSans-75" d="M 544 1381 
L 544 3500 
L 1119 3500 
L 1119 1403 
Q 1119 906 1312 657 
Q 1506 409 1894 409 
Q 2359 409 2629 706 
Q 2900 1003 2900 1516 
L 2900 3500 
L 3475 3500 
L 3475 0 
L 2900 0 
L 2900 538 
Q 2691 219 2414 64 
Q 2138 -91 1772 -91 
Q 1169 -91 856 284 
Q 544 659 544 1381 
z
M 1991 3584 
L 1991 3584 
z
" transform="scale(0.015625)"/>
       <path id="DejaVuSans-74" d="M 1172 4494 
L 1172 3500 
L 2356 3500 
L 2356 3053 
L 1172 3053 
L 1172 1153 
Q 1172 725 1289 603 
Q 1406 481 1766 481 
L 2356 481 
L 2356 0 
L 1766 0 
Q 1100 0 847 248 
Q 594 497 594 1153 
L 594 3053 
L 172 3053 
L 172 3500 
L 594 3500 
L 594 4494 
L 1172 4494 
z
" transform="scale(0.015625)"/>
      </defs>
      <use xlink:href="#DejaVuSans-6f"/>
      <use xlink:href="#DejaVuSans-75" x="61.181641"/>
      <use xlink:href="#DejaVuSans-74" x="124.560547"/>
     </g>
    </g>
   </g>
   <g id="text_7">
    <g clip-path="url(#p692b12e63d)">
     <!-- 4 -->
     <g transform="translate(75.017755 269.254921) scale(0.104 -0.104)">
      <defs>
       <path id="DejaVuSans-34" d="M 2419 4116 
L 825 1625 
L 2419 1625 
L 2419 4116 
z
M 2253 4666 
L 3047 4666 
L 3047 1625 
L 3713 1625 
L 3713 1100 
L 3047 1100 
L 3047 0 
L 2419 0 
L 2419 1100 
L 313 1100 
L 313 1709 
L 2253 4666 
z
" transform="scale(0.015625)"/>
      </defs>
      <use xlink:href="#DejaVuSans-34"/>
     </g>
    </g>
   </g>
   <g id="text_8">
    <g clip-path="url(#p692b12e63d)">
     <!-- err -->
     <g transform="translate(38.036555 280.537181) scale(0.1625 -0.1625)">
      <defs>
       <path id="DejaVuSans-65" d="M 3597 1894 
L 3597 1613 
L 953 1613 
Q 991 1019 1311 708 
Q 1631 397 2203 397 
Q 2534 397 2845 478 
Q 3156 559 3463 722 
L 3463 178 
Q 3153 47 2828 -22 
Q 2503 -91 2169 -91 
Q 1331 -91 842 396 
Q 353 884 353 1716 
Q 353 2575 817 3079 
Q 1281 3584 2069 3584 
Q 2775 3584 3186 3129 
Q 3597 2675 3597 1894 
z
M 3022 2063 
Q 3016 2534 2758 2815 
Q 2500 3097 2075 3097 
Q 1594 3097 1305 2825 
Q 1016 2553 972 2059 
L 3022 2063 
z
" transform="scale(0.015625)"/>
       <path id="DejaVuSans-72" d="M 2631 2963 
Q 2534 3019 2420 3045 
Q 2306 3072 2169 3072 
Q 1681 3072 1420 2755 
Q 1159 2438 1159 1844 
L 1159 0 
L 581 0 
L 581 3500 
L 1159 3500 
L 1159 2956 
Q 1341 3275 1631 3429 
Q 1922 3584 2338 3584 
Q 2397 3584 2469 3576 
Q 2541 3569 2628 3553 
L 2631 2963 
z
" transform="scale(0.015625)"/>
      </defs>
      <use xlink:href="#DejaVuSans-65"/>
      <use xlink:href="#DejaVuSans-72" x="61.523438"/>
      <use xlink:href="#DejaVuSans-72" x="100.886719"/>
     </g>
    </g>
   </g>
   <g id="text_9">
    <g clip-path="url(#p692b12e63d)">
     <!-- H -->
     <g transform="translate(90.525312 47.870387) scale(0.13 -0.13)">
      <defs>
       <path id="DejaVuSans-48" d="M 628 4666 
L 1259 4666 
L 1259 2753 
L 3553 2753 
L 3553 4666 
L 4184 4666 
L 4184 0 
L 3553 0 
L 3553 2222 
L 1259 2222 
L 1259 0 
L 628 0 
L 628 4666 
z
" transform="scale(0.015625)"/>
      </defs>
      <use xlink:href="#DejaVuSans-48"/>
     </g>
    </g>
   </g>
   <g id="text_10">
    <g clip-path="url(#p692b12e63d)">
     <!-- H -->
     <g transform="translate(90.525312 94.224386) scale(0.13 -0.13)">
      <use xlink:href="#DejaVuSans-48"/>
     </g>
    </g>
   </g>
   <g id="text_11">
    <g clip-path="url(#p692b12e63d)">
     <!-- 0 -->
     <g transform="translate(246.064013 269.254921) scale(0.104 -0.104)">
      <use xlink:href="#DejaVuSans-30"/>
     </g>
    </g>
   </g>
   <g id="text_12">
    <g clip-path="url(#p692b12e63d)">
     <!-- 1 -->
     <g transform="translate(292.418012 269.254921) scale(0.104 -0.104)">
      <use xlink:href="#DejaVuSans-31"/>
     </g>
    </g>
   </g>
   <g id="text_13">
    <g clip-path="url(#p692b12e63d)">
     <!-- $\mathrm{\left|0\right\rangle}$ -->
     <g transform="translate(272.444513 140.578386) scale(0.13 -0.13)">
      <defs>
       <path id="DejaVuSans-7c" d="M 1344 4891 
L 1344 -1509 
L 813 -1509 
L 813 4891 
L 1344 4891 
z
" transform="scale(0.015625)"/>
       <path id="DejaVuSans-27e9" d="M 1925 2006 
L 1044 -844 
L 513 -844 
L 1394 2006 
L 513 4856 
L 1044 4856 
L 1925 2006 
z
" transform="scale(0.015625)"/>
      </defs>
      <use xlink:href="#DejaVuSans-7c" transform="translate(0 16.625) scale(0.756406)"/>
      <use xlink:href="#DejaVuSans-30" transform="translate(25.479126 0.125)"/>
      <use xlink:href="#DejaVuSans-27e9" transform="translate(89.102173 0.125)"/>
     </g>
    </g>
   </g>
   <g id="text_14">
    <g clip-path="url(#p692b12e63d)">
     <!-- $\mathrm{\left|0\right\rangle}$ -->
     <g transform="translate(318.798512 186.932385) scale(0.13 -0.13)">
      <use xlink:href="#DejaVuSans-7c" transform="translate(0 16.625) scale(0.756406)"/>
      <use xlink:href="#DejaVuSans-30" transform="translate(25.479126 0.125)"/>
      <use xlink:href="#DejaVuSans-27e9" transform="translate(89.102173 0.125)"/>
     </g>
    </g>
   </g>
   <g id="text_15">
    <g clip-path="url(#p692b12e63d)">
     <!-- 2 -->
     <g transform="translate(431.480011 269.254921) scale(0.104 -0.104)">
      <use xlink:href="#DejaVuSans-32"/>
     </g>
    </g>
   </g>
   <g id="text_16">
    <g clip-path="url(#p692b12e63d)">
     <!-- 3 -->
     <g transform="translate(477.83401 269.254921) scale(0.104 -0.104)">
      <use xlink:href="#DejaVuSans-33"/>
     </g>
    </g>
   </g>
   <g id="text_17">
    <g clip-path="url(#p692b12e63d)">
     <!-- 0 -->
     <g transform="translate(524.188009 222.900922) scale(0.104 -0.104)">
      <use xlink:href="#DejaVuSans-30"/>
     </g>
    </g>
   </g>
   <g id="text_18">
    <g clip-path="url(#p692b12e63d)">
     <!-- 1 -->
     <g transform="translate(570.542009 222.900922) scale(0.104 -0.104)">
      <use xlink:href="#DejaVuSans-31"/>
     </g>
    </g>
   </g>
   <g id="text_19">
    <g clip-path="url(#p692b12e63d)">
     <!-- $\mathrm{\left|0\right\rangle}$ -->
     <g transform="translate(596.922508 186.932385) scale(0.13 -0.13)">
      <use xlink:href="#DejaVuSans-7c" transform="translate(0 16.625) scale(0.756406)"/>
      <use xlink:href="#DejaVuSans-30" transform="translate(25.479126 0.125)"/>
      <use xlink:href="#DejaVuSans-27e9" transform="translate(89.102173 0.125)"/>
     </g>
    </g>
   </g>
   <g id="text_20">
    <g clip-path="url(#p692b12e63d)">
     <!-- $\mathrm{\left|0\right\rangle}$ -->
     <g transform="translate(596.922508 140.578386) scale(0.13 -0.13)">
      <use xlink:href="#DejaVuSans-7c" transform="translate(0 16.625) scale(0.756406)"/>
      <use xlink:href="#DejaVuSans-30" transform="translate(25.479126 0.125)"/>
      <use xlink:href="#DejaVuSans-27e9" transform="translate(89.102173 0.125)"/>
     </g>
    </g>
   </g>
  </g>
 </g>
 <defs>
  <clipPath id="p692b12e63d">
   <rect x="7.2" y="7.2" width="628.701148" height="296.665596"/>
  </clipPath>
 </defs>
</svg>
