<?xml version="1.0" encoding="utf-8" standalone="no"?>
<!DOCTYPE svg PUBLIC "-//W3C//DTD SVG 1.1//EN"
  "http://www.w3.org/Graphics/SVG/1.1/DTD/svg11.dtd">
<svg xmlns:xlink="http://www.w3.org/1999/xlink" width="828.517145pt" height="264.711597pt" viewBox="0 0 828.517145 264.711597" xmlns="http://www.w3.org/2000/svg" version="1.1">
 <metadata>
  <rdf:RDF xmlns:dc="http://purl.org/dc/elements/1.1/" xmlns:cc="http://creativecommons.org/ns#" xmlns:rdf="http://www.w3.org/1999/02/22-rdf-syntax-ns#">
   <cc:Work>
    <dc:type rdf:resource="http://purl.org/dc/dcmitype/StillImage"/>
    <dc:date>2025-02-18T17:15:55.256472</dc:date>
    <dc:format>image/svg+xml</dc:format>
    <dc:creator>
     <cc:Agent>
      <dc:title>Matplotlib v3.9.1, https://matplotlib.org/</dc:title>
     </cc:Agent>
    </dc:creator>
   </cc:Work>
  </rdf:RDF>
 </metadata>
 <defs>
  <style type="text/css">*{stroke-linejoin: round; stroke-linecap: butt}</style>
 </defs>
 <g id="figure_1">
  <g id="patch_1">
   <path d="M 0 264.711597 
L 828.517145 264.711597 
L 828.517145 0 
L 0 0 
z
" style="fill: #ffffff"/>
  </g>
  <g id="axes_1">
   <g id="line2d_1">
    <path d="M 70.382355 44.2832 
L 816.681745 44.2832 
" clip-path="url(#p60def1702c)" style="fill: none; stroke: #000000; stroke-width: 2; stroke-linecap: square"/>
   </g>
   <g id="line2d_2">
    <path d="M 70.382355 90.637199 
L 816.681745 90.637199 
" clip-path="url(#p60def1702c)" style="fill: none; stroke: #000000; stroke-width: 2; stroke-linecap: square"/>
   </g>
   <g id="line2d_3">
    <path d="M 70.382355 136.991198 
L 816.681745 136.991198 
" clip-path="url(#p60def1702c)" style="fill: none; stroke: #000000; stroke-width: 2; stroke-linecap: square"/>
   </g>
   <g id="line2d_4">
    <path d="M 79.653155 187.980598 
L 84.288555 178.709798 
" clip-path="url(#p60def1702c)" style="fill: none; stroke: #778899; stroke-width: 1.5; stroke-linecap: square"/>
   </g>
   <g id="line2d_5">
    <path d="M 70.382355 181.838693 
L 816.681745 181.838693 
" clip-path="url(#p60def1702c)" style="fill: none; stroke: #778899; stroke-width: 2; stroke-linecap: square"/>
   </g>
   <g id="line2d_6">
    <path d="M 70.382355 184.851703 
L 816.681745 184.851703 
" clip-path="url(#p60def1702c)" style="fill: none; stroke: #778899; stroke-width: 2; stroke-linecap: square"/>
   </g>
   <g id="line2d_7">
    <path d="M 79.653155 234.334597 
L 84.288555 225.063797 
" clip-path="url(#p60def1702c)" style="fill: none; stroke: #778899; stroke-width: 1.5; stroke-linecap: square"/>
   </g>
   <g id="line2d_8">
    <path d="M 70.382355 228.192692 
L 816.681745 228.192692 
" clip-path="url(#p60def1702c)" style="fill: none; stroke: #778899; stroke-width: 2; stroke-linecap: square"/>
   </g>
   <g id="line2d_9">
    <path d="M 70.382355 231.205702 
L 816.681745 231.205702 
" clip-path="url(#p60def1702c)" style="fill: none; stroke: #778899; stroke-width: 2; stroke-linecap: square"/>
   </g>
   <g id="patch_2">
    <path d="M 135.741494 219.153662 
L 147.793534 219.153662 
L 141.767514 227.845037 
z
" clip-path="url(#p60def1702c)" style="fill: #778899"/>
   </g>
   <g id="patch_3">
    <path d="M 182.095494 219.153662 
L 194.147534 219.153662 
L 188.121514 227.845037 
z
" clip-path="url(#p60def1702c)" style="fill: #778899"/>
   </g>
   <g id="patch_4">
    <path d="M 228.449493 219.153662 
L 240.501533 219.153662 
L 234.475513 227.845037 
z
" clip-path="url(#p60def1702c)" style="fill: #778899"/>
   </g>
   <g id="patch_5">
    <path d="M 321.157492 219.153662 
L 333.209532 219.153662 
L 327.183512 227.845037 
z
" clip-path="url(#p60def1702c)" style="fill: #778899"/>
   </g>
   <g id="patch_6">
    <path d="M 367.511491 219.153662 
L 379.563531 219.153662 
L 373.537511 227.845037 
z
" clip-path="url(#p60def1702c)" style="fill: #778899"/>
   </g>
   <g id="patch_7">
    <path d="M 506.57349 219.153662 
L 518.625529 219.153662 
L 512.599509 227.845037 
z
" clip-path="url(#p60def1702c)" style="fill: #778899"/>
   </g>
   <g id="patch_8">
    <path d="M 552.927489 219.153662 
L 564.979529 219.153662 
L 558.953509 227.845037 
z
" clip-path="url(#p60def1702c)" style="fill: #778899"/>
   </g>
   <g id="patch_9">
    <path d="M 691.989487 219.153662 
L 704.041527 219.153662 
L 698.015507 227.845037 
z
" clip-path="url(#p60def1702c)" style="fill: #778899"/>
   </g>
   <g id="patch_10">
    <path d="M 738.343486 172.799663 
L 750.395526 172.799663 
L 744.369506 181.491038 
z
" clip-path="url(#p60def1702c)" style="fill: #778899"/>
   </g>
   <g id="patch_11">
    <path d="M 65.746955 21.1062 
L -1093.103029 21.1062 
L -1093.103029 299.230196 
L 65.746955 299.230196 
z
" clip-path="url(#p60def1702c)" style="fill: #ffffff; stroke: #ffffff; stroke-width: 1.5; stroke-linejoin: miter"/>
   </g>
   <g id="line2d_10">
    <path d="M 143.274019 44.2832 
L 143.274019 219.153662 
" clip-path="url(#p60def1702c)" style="fill: none; stroke: #778899; stroke-width: 2; stroke-linecap: square"/>
   </g>
   <g id="line2d_11">
    <path d="M 140.261009 44.2832 
L 140.261009 219.153662 
" clip-path="url(#p60def1702c)" style="fill: none; stroke: #778899; stroke-width: 2; stroke-linecap: square"/>
   </g>
   <g id="line2d_12">
    <path d="M 189.628019 90.637199 
L 189.628019 219.153662 
" clip-path="url(#p60def1702c)" style="fill: none; stroke: #778899; stroke-width: 2; stroke-linecap: square"/>
   </g>
   <g id="line2d_13">
    <path d="M 186.615009 90.637199 
L 186.615009 219.153662 
" clip-path="url(#p60def1702c)" style="fill: none; stroke: #778899; stroke-width: 2; stroke-linecap: square"/>
   </g>
   <g id="line2d_14">
    <path d="M 235.982018 136.991198 
L 235.982018 219.153662 
" clip-path="url(#p60def1702c)" style="fill: none; stroke: #778899; stroke-width: 2; stroke-linecap: square"/>
   </g>
   <g id="line2d_15">
    <path d="M 232.969008 136.991198 
L 232.969008 219.153662 
" clip-path="url(#p60def1702c)" style="fill: none; stroke: #778899; stroke-width: 2; stroke-linecap: square"/>
   </g>
   <g id="line2d_16">
    <path d="M 328.690017 44.2832 
L 328.690017 219.153662 
" clip-path="url(#p60def1702c)" style="fill: none; stroke: #778899; stroke-width: 2; stroke-linecap: square"/>
   </g>
   <g id="line2d_17">
    <path d="M 325.677007 44.2832 
L 325.677007 219.153662 
" clip-path="url(#p60def1702c)" style="fill: none; stroke: #778899; stroke-width: 2; stroke-linecap: square"/>
   </g>
   <g id="line2d_18">
    <path d="M 375.044016 90.637199 
L 375.044016 219.153662 
" clip-path="url(#p60def1702c)" style="fill: none; stroke: #778899; stroke-width: 2; stroke-linecap: square"/>
   </g>
   <g id="line2d_19">
    <path d="M 372.031006 90.637199 
L 372.031006 219.153662 
" clip-path="url(#p60def1702c)" style="fill: none; stroke: #778899; stroke-width: 2; stroke-linecap: square"/>
   </g>
   <g id="line2d_20">
    <path d="M 514.106014 44.2832 
L 514.106014 219.153662 
" clip-path="url(#p60def1702c)" style="fill: none; stroke: #778899; stroke-width: 2; stroke-linecap: square"/>
   </g>
   <g id="line2d_21">
    <path d="M 511.093004 44.2832 
L 511.093004 219.153662 
" clip-path="url(#p60def1702c)" style="fill: none; stroke: #778899; stroke-width: 2; stroke-linecap: square"/>
   </g>
   <g id="line2d_22">
    <path d="M 560.460014 90.637199 
L 560.460014 219.153662 
" clip-path="url(#p60def1702c)" style="fill: none; stroke: #778899; stroke-width: 2; stroke-linecap: square"/>
   </g>
   <g id="line2d_23">
    <path d="M 557.447004 90.637199 
L 557.447004 219.153662 
" clip-path="url(#p60def1702c)" style="fill: none; stroke: #778899; stroke-width: 2; stroke-linecap: square"/>
   </g>
   <g id="line2d_24">
    <path d="M 699.522012 90.637199 
L 699.522012 219.153662 
" clip-path="url(#p60def1702c)" style="fill: none; stroke: #778899; stroke-width: 2; stroke-linecap: square"/>
   </g>
   <g id="line2d_25">
    <path d="M 696.509002 90.637199 
L 696.509002 219.153662 
" clip-path="url(#p60def1702c)" style="fill: none; stroke: #778899; stroke-width: 2; stroke-linecap: square"/>
   </g>
   <g id="line2d_26">
    <path d="M 745.876011 44.2832 
L 745.876011 172.799663 
" clip-path="url(#p60def1702c)" style="fill: none; stroke: #778899; stroke-width: 2; stroke-linecap: square"/>
   </g>
   <g id="line2d_27">
    <path d="M 742.863001 44.2832 
L 742.863001 172.799663 
" clip-path="url(#p60def1702c)" style="fill: none; stroke: #778899; stroke-width: 2; stroke-linecap: square"/>
   </g>
   <g id="patch_12">
    <path d="M 80.348465 59.348249 
L 110.478565 59.348249 
L 110.478565 29.21815 
L 80.348465 29.21815 
z
" clip-path="url(#p60def1702c)" style="fill: #fa4d56; stroke: #fa4d56; stroke-width: 1.5; stroke-linejoin: miter"/>
   </g>
   <g id="patch_13">
    <path d="M 80.348465 105.702249 
L 110.478565 105.702249 
L 110.478565 75.572149 
L 80.348465 75.572149 
z
" clip-path="url(#p60def1702c)" style="fill: #fa4d56; stroke: #fa4d56; stroke-width: 1.5; stroke-linejoin: miter"/>
   </g>
   <g id="patch_14">
    <path d="M 80.348465 152.056248 
L 110.478565 152.056248 
L 110.478565 121.926148 
L 80.348465 121.926148 
z
" clip-path="url(#p60def1702c)" style="fill: #fa4d56; stroke: #fa4d56; stroke-width: 1.5; stroke-linejoin: miter"/>
   </g>
   <g id="patch_15">
    <path d="M 126.702465 59.348249 
L 156.832564 59.348249 
L 156.832564 29.21815 
L 126.702465 29.21815 
z
" clip-path="url(#p60def1702c)" style="fill: #a8a8a8; stroke: #a8a8a8; stroke-width: 1.5; stroke-linejoin: miter"/>
   </g>
   <g id="patch_16">
    <path d="M 152.313049 48.802714 
C 152.313049 46.006937 151.201247 43.322808 149.224334 41.345895 
C 147.247421 39.368982 144.563291 38.25718 141.767514 38.25718 
C 138.971737 38.25718 136.287608 39.368982 134.310695 41.345895 
C 132.333782 43.322808 131.22198 46.006937 131.22198 48.802714 
" clip-path="url(#p60def1702c)" style="fill: none; stroke: #000000; stroke-width: 2; stroke-linejoin: miter"/>
   </g>
   <g id="line2d_28">
    <path d="M 141.767514 48.802714 
L 152.313049 38.25718 
" clip-path="url(#p60def1702c)" style="fill: none; stroke: #000000; stroke-width: 2; stroke-linecap: square"/>
   </g>
   <g id="patch_17">
    <path d="M 173.056464 105.702249 
L 203.186564 105.702249 
L 203.186564 75.572149 
L 173.056464 75.572149 
z
" clip-path="url(#p60def1702c)" style="fill: #a8a8a8; stroke: #a8a8a8; stroke-width: 1.5; stroke-linejoin: miter"/>
   </g>
   <g id="patch_18">
    <path d="M 198.667049 95.156714 
C 198.667049 92.360937 197.555246 89.676808 195.578333 87.699895 
C 193.60142 85.722982 190.917291 84.611179 188.121514 84.611179 
C 185.325737 84.611179 182.641607 85.722982 180.664695 87.699895 
C 178.687782 89.676808 177.575979 92.360937 177.575979 95.156714 
" clip-path="url(#p60def1702c)" style="fill: none; stroke: #000000; stroke-width: 2; stroke-linejoin: miter"/>
   </g>
   <g id="line2d_29">
    <path d="M 188.121514 95.156714 
L 198.667049 84.611179 
" clip-path="url(#p60def1702c)" style="fill: none; stroke: #000000; stroke-width: 2; stroke-linecap: square"/>
   </g>
   <g id="patch_19">
    <path d="M 173.056464 59.348249 
L 203.186564 59.348249 
L 203.186564 29.21815 
L 173.056464 29.21815 
z
" clip-path="url(#p60def1702c)" style="fill: #a8a8a8; stroke: #a8a8a8; stroke-width: 1.5; stroke-linejoin: miter"/>
   </g>
   <g id="patch_20">
    <path d="M 219.410463 152.056248 
L 249.540563 152.056248 
L 249.540563 121.926148 
L 219.410463 121.926148 
z
" clip-path="url(#p60def1702c)" style="fill: #a8a8a8; stroke: #a8a8a8; stroke-width: 1.5; stroke-linejoin: miter"/>
   </g>
   <g id="patch_21">
    <path d="M 245.021048 141.510713 
C 245.021048 138.714936 243.909245 136.030807 241.932332 134.053894 
C 239.955419 132.076981 237.27129 130.965178 234.475513 130.965178 
C 231.679736 130.965178 228.995607 132.076981 227.018694 134.053894 
C 225.041781 136.030807 223.929978 138.714936 223.929978 141.510713 
" clip-path="url(#p60def1702c)" style="fill: none; stroke: #000000; stroke-width: 2; stroke-linejoin: miter"/>
   </g>
   <g id="line2d_30">
    <path d="M 234.475513 141.510713 
L 245.021048 130.965178 
" clip-path="url(#p60def1702c)" style="fill: none; stroke: #000000; stroke-width: 2; stroke-linecap: square"/>
   </g>
   <g id="patch_22">
    <path d="M 219.410463 105.702249 
L 249.540563 105.702249 
L 249.540563 75.572149 
L 219.410463 75.572149 
z
" clip-path="url(#p60def1702c)" style="fill: #a8a8a8; stroke: #a8a8a8; stroke-width: 1.5; stroke-linejoin: miter"/>
   </g>
   <g id="patch_23">
    <path d="M 219.410463 59.348249 
L 249.540563 59.348249 
L 249.540563 29.21815 
L 219.410463 29.21815 
z
" clip-path="url(#p60def1702c)" style="fill: #fa4d56; stroke: #fa4d56; stroke-width: 1.5; stroke-linejoin: miter"/>
   </g>
   <g id="patch_24">
    <path d="M 265.764463 152.056248 
L 295.894562 152.056248 
L 295.894562 121.926148 
L 265.764463 121.926148 
z
" clip-path="url(#p60def1702c)" style="fill: #a8a8a8; stroke: #a8a8a8; stroke-width: 1.5; stroke-linejoin: miter"/>
   </g>
   <g id="patch_25">
    <path d="M 265.764463 105.702249 
L 295.894562 105.702249 
L 295.894562 75.572149 
L 265.764463 75.572149 
z
" clip-path="url(#p60def1702c)" style="fill: #fa4d56; stroke: #fa4d56; stroke-width: 1.5; stroke-linejoin: miter"/>
   </g>
   <g id="patch_26">
    <path d="M 312.118462 59.348249 
L 342.248562 59.348249 
L 342.248562 29.21815 
L 312.118462 29.21815 
z
" clip-path="url(#p60def1702c)" style="fill: #a8a8a8; stroke: #a8a8a8; stroke-width: 1.5; stroke-linejoin: miter"/>
   </g>
   <g id="patch_27">
    <path d="M 337.729047 48.802714 
C 337.729047 46.006937 336.617244 43.322808 334.640331 41.345895 
C 332.663418 39.368982 329.979289 38.25718 327.183512 38.25718 
C 324.387735 38.25718 321.703606 39.368982 319.726693 41.345895 
C 317.74978 43.322808 316.637977 46.006937 316.637977 48.802714 
" clip-path="url(#p60def1702c)" style="fill: none; stroke: #000000; stroke-width: 2; stroke-linejoin: miter"/>
   </g>
   <g id="line2d_31">
    <path d="M 327.183512 48.802714 
L 337.729047 38.25718 
" clip-path="url(#p60def1702c)" style="fill: none; stroke: #000000; stroke-width: 2; stroke-linecap: square"/>
   </g>
   <g id="patch_28">
    <path d="M 358.472461 105.702249 
L 388.602561 105.702249 
L 388.602561 75.572149 
L 358.472461 75.572149 
z
" clip-path="url(#p60def1702c)" style="fill: #a8a8a8; stroke: #a8a8a8; stroke-width: 1.5; stroke-linejoin: miter"/>
   </g>
   <g id="patch_29">
    <path d="M 384.083046 95.156714 
C 384.083046 92.360937 382.971243 89.676808 380.994331 87.699895 
C 379.017418 85.722982 376.333288 84.611179 373.537511 84.611179 
C 370.741734 84.611179 368.057605 85.722982 366.080692 87.699895 
C 364.103779 89.676808 362.991976 92.360937 362.991976 95.156714 
" clip-path="url(#p60def1702c)" style="fill: none; stroke: #000000; stroke-width: 2; stroke-linejoin: miter"/>
   </g>
   <g id="line2d_32">
    <path d="M 373.537511 95.156714 
L 384.083046 84.611179 
" clip-path="url(#p60def1702c)" style="fill: none; stroke: #000000; stroke-width: 2; stroke-linecap: square"/>
   </g>
   <g id="patch_30">
    <path d="M 358.472461 59.348249 
L 388.602561 59.348249 
L 388.602561 29.21815 
L 358.472461 29.21815 
z
" clip-path="url(#p60def1702c)" style="fill: #a8a8a8; stroke: #a8a8a8; stroke-width: 1.5; stroke-linejoin: miter"/>
   </g>
   <g id="patch_31">
    <path d="M 404.826461 105.702249 
L 434.95656 105.702249 
L 434.95656 75.572149 
L 404.826461 75.572149 
z
" clip-path="url(#p60def1702c)" style="fill: #a8a8a8; stroke: #a8a8a8; stroke-width: 1.5; stroke-linejoin: miter"/>
   </g>
   <g id="patch_32">
    <path d="M 404.826461 59.348249 
L 434.95656 59.348249 
L 434.95656 29.21815 
L 404.826461 29.21815 
z
" clip-path="url(#p60def1702c)" style="fill: #fa4d56; stroke: #fa4d56; stroke-width: 1.5; stroke-linejoin: miter"/>
   </g>
   <g id="patch_33">
    <path d="M 451.18046 105.702249 
L 481.31056 105.702249 
L 481.31056 75.572149 
L 451.18046 75.572149 
z
" clip-path="url(#p60def1702c)" style="fill: #fa4d56; stroke: #fa4d56; stroke-width: 1.5; stroke-linejoin: miter"/>
   </g>
   <g id="patch_34">
    <path d="M 497.53446 59.348249 
L 527.664559 59.348249 
L 527.664559 29.21815 
L 497.53446 29.21815 
z
" clip-path="url(#p60def1702c)" style="fill: #a8a8a8; stroke: #a8a8a8; stroke-width: 1.5; stroke-linejoin: miter"/>
   </g>
   <g id="patch_35">
    <path d="M 523.145044 48.802714 
C 523.145044 46.006937 522.033242 43.322808 520.056329 41.345895 
C 518.079416 39.368982 515.395287 38.25718 512.599509 38.25718 
C 509.803732 38.25718 507.119603 39.368982 505.14269 41.345895 
C 503.165777 43.322808 502.053975 46.006937 502.053975 48.802714 
" clip-path="url(#p60def1702c)" style="fill: none; stroke: #000000; stroke-width: 2; stroke-linejoin: miter"/>
   </g>
   <g id="line2d_33">
    <path d="M 512.599509 48.802714 
L 523.145044 38.25718 
" clip-path="url(#p60def1702c)" style="fill: none; stroke: #000000; stroke-width: 2; stroke-linecap: square"/>
   </g>
   <g id="patch_36">
    <path d="M 543.888459 105.702249 
L 574.018559 105.702249 
L 574.018559 75.572149 
L 543.888459 75.572149 
z
" clip-path="url(#p60def1702c)" style="fill: #a8a8a8; stroke: #a8a8a8; stroke-width: 1.5; stroke-linejoin: miter"/>
   </g>
   <g id="patch_37">
    <path d="M 569.499044 95.156714 
C 569.499044 92.360937 568.387241 89.676808 566.410328 87.699895 
C 564.433415 85.722982 561.749286 84.611179 558.953509 84.611179 
C 556.157732 84.611179 553.473603 85.722982 551.49669 87.699895 
C 549.519777 89.676808 548.407974 92.360937 548.407974 95.156714 
" clip-path="url(#p60def1702c)" style="fill: none; stroke: #000000; stroke-width: 2; stroke-linejoin: miter"/>
   </g>
   <g id="line2d_34">
    <path d="M 558.953509 95.156714 
L 569.499044 84.611179 
" clip-path="url(#p60def1702c)" style="fill: none; stroke: #000000; stroke-width: 2; stroke-linecap: square"/>
   </g>
   <g id="patch_38">
    <path d="M 543.888459 59.348249 
L 574.018559 59.348249 
L 574.018559 29.21815 
L 543.888459 29.21815 
z
" clip-path="url(#p60def1702c)" style="fill: #a8a8a8; stroke: #a8a8a8; stroke-width: 1.5; stroke-linejoin: miter"/>
   </g>
   <g id="patch_39">
    <path d="M 590.242458 105.702249 
L 620.372558 105.702249 
L 620.372558 75.572149 
L 590.242458 75.572149 
z
" clip-path="url(#p60def1702c)" style="fill: #a8a8a8; stroke: #a8a8a8; stroke-width: 1.5; stroke-linejoin: miter"/>
   </g>
   <g id="patch_40">
    <path d="M 590.242458 59.348249 
L 620.372558 59.348249 
L 620.372558 29.21815 
L 590.242458 29.21815 
z
" clip-path="url(#p60def1702c)" style="fill: #fa4d56; stroke: #fa4d56; stroke-width: 1.5; stroke-linejoin: miter"/>
   </g>
   <g id="patch_41">
    <path d="M 636.596458 105.702249 
L 666.726557 105.702249 
L 666.726557 75.572149 
L 636.596458 75.572149 
z
" clip-path="url(#p60def1702c)" style="fill: #fa4d56; stroke: #fa4d56; stroke-width: 1.5; stroke-linejoin: miter"/>
   </g>
   <g id="patch_42">
    <path d="M 682.950457 105.702249 
L 713.080557 105.702249 
L 713.080557 75.572149 
L 682.950457 75.572149 
z
" clip-path="url(#p60def1702c)" style="fill: #a8a8a8; stroke: #a8a8a8; stroke-width: 1.5; stroke-linejoin: miter"/>
   </g>
   <g id="patch_43">
    <path d="M 708.561042 95.156714 
C 708.561042 92.360937 707.449239 89.676808 705.472326 87.699895 
C 703.495413 85.722982 700.811284 84.611179 698.015507 84.611179 
C 695.21973 84.611179 692.535601 85.722982 690.558688 87.699895 
C 688.581775 89.676808 687.469972 92.360937 687.469972 95.156714 
" clip-path="url(#p60def1702c)" style="fill: none; stroke: #000000; stroke-width: 2; stroke-linejoin: miter"/>
   </g>
   <g id="line2d_35">
    <path d="M 698.015507 95.156714 
L 708.561042 84.611179 
" clip-path="url(#p60def1702c)" style="fill: none; stroke: #000000; stroke-width: 2; stroke-linecap: square"/>
   </g>
   <g id="patch_44">
    <path d="M 729.304457 59.348249 
L 759.434556 59.348249 
L 759.434556 29.21815 
L 729.304457 29.21815 
z
" clip-path="url(#p60def1702c)" style="fill: #a8a8a8; stroke: #a8a8a8; stroke-width: 1.5; stroke-linejoin: miter"/>
   </g>
   <g id="patch_45">
    <path d="M 754.915041 48.802714 
C 754.915041 46.006937 753.803239 43.322808 751.826326 41.345895 
C 749.849413 39.368982 747.165283 38.25718 744.369506 38.25718 
C 741.573729 38.25718 738.8896 39.368982 736.912687 41.345895 
C 734.935774 43.322808 733.823972 46.006937 733.823972 48.802714 
" clip-path="url(#p60def1702c)" style="fill: none; stroke: #000000; stroke-width: 2; stroke-linejoin: miter"/>
   </g>
   <g id="line2d_36">
    <path d="M 744.369506 48.802714 
L 754.915041 38.25718 
" clip-path="url(#p60def1702c)" style="fill: none; stroke: #000000; stroke-width: 2; stroke-linecap: square"/>
   </g>
   <g id="patch_46">
    <path d="M 775.658456 105.702249 
L 805.788556 105.702249 
L 805.788556 75.572149 
L 775.658456 75.572149 
z
" clip-path="url(#p60def1702c)" style="fill: #a8a8a8; stroke: #a8a8a8; stroke-width: 1.5; stroke-linejoin: miter"/>
   </g>
   <g id="text_1">
    <g clip-path="url(#p60def1702c)">
     <!-- ${q}_{0}$ -->
     <g transform="translate(43.074055 48.734176) scale(0.1625 -0.1625)">
      <defs>
       <path id="DejaVuSans-Oblique-71" d="M 2669 525 
Q 2438 222 2123 65 
Q 1809 -91 1428 -91 
Q 897 -91 595 267 
Q 294 625 294 1253 
Q 294 1759 480 2231 
Q 666 2703 1013 3078 
Q 1238 3322 1530 3453 
Q 1822 3584 2144 3584 
Q 2531 3584 2781 3431 
Q 3031 3278 3144 2969 
L 3244 3494 
L 3822 3494 
L 2888 -1319 
L 2309 -1319 
L 2669 525 
z
M 891 1338 
Q 891 875 1084 633 
Q 1278 391 1644 391 
Q 2188 391 2572 911 
Q 2956 1431 2956 2175 
Q 2956 2625 2757 2864 
Q 2559 3103 2188 3103 
Q 1916 3103 1684 2976 
Q 1453 2850 1281 2606 
Q 1100 2350 995 2006 
Q 891 1663 891 1338 
z
" transform="scale(0.015625)"/>
       <path id="DejaVuSans-30" d="M 2034 4250 
Q 1547 4250 1301 3770 
Q 1056 3291 1056 2328 
Q 1056 1369 1301 889 
Q 1547 409 2034 409 
Q 2525 409 2770 889 
Q 3016 1369 3016 2328 
Q 3016 3291 2770 3770 
Q 2525 4250 2034 4250 
z
M 2034 4750 
Q 2819 4750 3233 4129 
Q 3647 3509 3647 2328 
Q 3647 1150 3233 529 
Q 2819 -91 2034 -91 
Q 1250 -91 836 529 
Q 422 1150 422 2328 
Q 422 3509 836 4129 
Q 1250 4750 2034 4750 
z
" transform="scale(0.015625)"/>
      </defs>
      <use xlink:href="#DejaVuSans-Oblique-71"/>
      <use xlink:href="#DejaVuSans-30" transform="translate(63.476562 -16.40625) scale(0.7)"/>
     </g>
    </g>
   </g>
   <g id="text_2">
    <g clip-path="url(#p60def1702c)">
     <!-- ${q}_{1}$ -->
     <g transform="translate(43.074055 95.088175) scale(0.1625 -0.1625)">
      <defs>
       <path id="DejaVuSans-31" d="M 794 531 
L 1825 531 
L 1825 4091 
L 703 3866 
L 703 4441 
L 1819 4666 
L 2450 4666 
L 2450 531 
L 3481 531 
L 3481 0 
L 794 0 
L 794 531 
z
" transform="scale(0.015625)"/>
      </defs>
      <use xlink:href="#DejaVuSans-Oblique-71"/>
      <use xlink:href="#DejaVuSans-31" transform="translate(63.476562 -16.40625) scale(0.7)"/>
     </g>
    </g>
   </g>
   <g id="text_3">
    <g clip-path="url(#p60def1702c)">
     <!-- ${q}_{2}$ -->
     <g transform="translate(43.074055 141.442175) scale(0.1625 -0.1625)">
      <defs>
       <path id="DejaVuSans-32" d="M 1228 531 
L 3431 531 
L 3431 0 
L 469 0 
L 469 531 
Q 828 903 1448 1529 
Q 2069 2156 2228 2338 
Q 2531 2678 2651 2914 
Q 2772 3150 2772 3378 
Q 2772 3750 2511 3984 
Q 2250 4219 1831 4219 
Q 1534 4219 1204 4116 
Q 875 4013 500 3803 
L 500 4441 
Q 881 4594 1212 4672 
Q 1544 4750 1819 4750 
Q 2544 4750 2975 4387 
Q 3406 4025 3406 3419 
Q 3406 3131 3298 2873 
Q 3191 2616 2906 2266 
Q 2828 2175 2409 1742 
Q 1991 1309 1228 531 
z
" transform="scale(0.015625)"/>
      </defs>
      <use xlink:href="#DejaVuSans-Oblique-71"/>
      <use xlink:href="#DejaVuSans-32" transform="translate(63.476562 -16.40625) scale(0.7)"/>
     </g>
    </g>
   </g>
   <g id="text_4">
    <g clip-path="url(#p60def1702c)">
     <!-- 1 -->
     <g transform="translate(75.017755 176.546923) scale(0.104 -0.104)">
      <use xlink:href="#DejaVuSans-31"/>
     </g>
    </g>
   </g>
   <g id="text_5">
    <g clip-path="url(#p60def1702c)">
     <!-- out -->
     <g transform="translate(34.499641 187.829182) scale(0.1625 -0.1625)">
      <defs>
       <path id="DejaVuSans-6f" d="M 1959 3097 
Q 1497 3097 1228 2736 
Q 959 2375 959 1747 
Q 959 1119 1226 758 
Q 1494 397 1959 397 
Q 2419 397 2687 759 
Q 2956 1122 2956 1747 
Q 2956 2369 2687 2733 
Q 2419 3097 1959 3097 
z
M 1959 3584 
Q 2709 3584 3137 3096 
Q 3566 2609 3566 1747 
Q 3566 888 3137 398 
Q 2709 -91 1959 -91 
Q 1206 -91 779 398 
Q 353 888 353 1747 
Q 353 2609 779 3096 
Q 1206 3584 1959 3584 
z
" transform="scale(0.015625)"/>
       <path id="DejaVuSans-75" d="M 544 1381 
L 544 3500 
L 1119 3500 
L 1119 1403 
Q 1119 906 1312 657 
Q 1506 409 1894 409 
Q 2359 409 2629 706 
Q 2900 1003 2900 1516 
L 2900 3500 
L 3475 3500 
L 3475 0 
L 2900 0 
L 2900 538 
Q 2691 219 2414 64 
Q 2138 -91 1772 -91 
Q 1169 -91 856 284 
Q 544 659 544 1381 
z
M 1991 3584 
L 1991 3584 
z
" transform="scale(0.015625)"/>
       <path id="DejaVuSans-74" d="M 1172 4494 
L 1172 3500 
L 2356 3500 
L 2356 3053 
L 1172 3053 
L 1172 1153 
Q 1172 725 1289 603 
Q 1406 481 1766 481 
L 2356 481 
L 2356 0 
L 1766 0 
Q 1100 0 847 248 
Q 594 497 594 1153 
L 594 3053 
L 172 3053 
L 172 3500 
L 594 3500 
L 594 4494 
L 1172 4494 
z
" transform="scale(0.015625)"/>
      </defs>
      <use xlink:href="#DejaVuSans-6f"/>
      <use xlink:href="#DejaVuSans-75" x="61.181641"/>
      <use xlink:href="#DejaVuSans-74" x="124.560547"/>
     </g>
    </g>
   </g>
   <g id="text_6">
    <g clip-path="url(#p60def1702c)">
     <!-- 8 -->
     <g transform="translate(75.017755 222.900922) scale(0.104 -0.104)">
      <defs>
       <path id="DejaVuSans-38" d="M 2034 2216 
Q 1584 2216 1326 1975 
Q 1069 1734 1069 1313 
Q 1069 891 1326 650 
Q 1584 409 2034 409 
Q 2484 409 2743 651 
Q 3003 894 3003 1313 
Q 3003 1734 2745 1975 
Q 2488 2216 2034 2216 
z
M 1403 2484 
Q 997 2584 770 2862 
Q 544 3141 544 3541 
Q 544 4100 942 4425 
Q 1341 4750 2034 4750 
Q 2731 4750 3128 4425 
Q 3525 4100 3525 3541 
Q 3525 3141 3298 2862 
Q 3072 2584 2669 2484 
Q 3125 2378 3379 2068 
Q 3634 1759 3634 1313 
Q 3634 634 3220 271 
Q 2806 -91 2034 -91 
Q 1263 -91 848 271 
Q 434 634 434 1313 
Q 434 1759 690 2068 
Q 947 2378 1403 2484 
z
M 1172 3481 
Q 1172 3119 1398 2916 
Q 1625 2713 2034 2713 
Q 2441 2713 2670 2916 
Q 2900 3119 2900 3481 
Q 2900 3844 2670 4047 
Q 2441 4250 2034 4250 
Q 1625 4250 1398 4047 
Q 1172 3844 1172 3481 
z
" transform="scale(0.015625)"/>
      </defs>
      <use xlink:href="#DejaVuSans-38"/>
     </g>
    </g>
   </g>
   <g id="text_7">
    <g clip-path="url(#p60def1702c)">
     <!-- err -->
     <g transform="translate(38.036555 234.183181) scale(0.1625 -0.1625)">
      <defs>
       <path id="DejaVuSans-65" d="M 3597 1894 
L 3597 1613 
L 953 1613 
Q 991 1019 1311 708 
Q 1631 397 2203 397 
Q 2534 397 2845 478 
Q 3156 559 3463 722 
L 3463 178 
Q 3153 47 2828 -22 
Q 2503 -91 2169 -91 
Q 1331 -91 842 396 
Q 353 884 353 1716 
Q 353 2575 817 3079 
Q 1281 3584 2069 3584 
Q 2775 3584 3186 3129 
Q 3597 2675 3597 1894 
z
M 3022 2063 
Q 3016 2534 2758 2815 
Q 2500 3097 2075 3097 
Q 1594 3097 1305 2825 
Q 1016 2553 972 2059 
L 3022 2063 
z
" transform="scale(0.015625)"/>
       <path id="DejaVuSans-72" d="M 2631 2963 
Q 2534 3019 2420 3045 
Q 2306 3072 2169 3072 
Q 1681 3072 1420 2755 
Q 1159 2438 1159 1844 
L 1159 0 
L 581 0 
L 581 3500 
L 1159 3500 
L 1159 2956 
Q 1341 3275 1631 3429 
Q 1922 3584 2338 3584 
Q 2397 3584 2469 3576 
Q 2541 3569 2628 3553 
L 2631 2963 
z
" transform="scale(0.015625)"/>
      </defs>
      <use xlink:href="#DejaVuSans-65"/>
      <use xlink:href="#DejaVuSans-72" x="61.523438"/>
      <use xlink:href="#DejaVuSans-72" x="100.886719"/>
     </g>
    </g>
   </g>
   <g id="text_8">
    <g clip-path="url(#p60def1702c)">
     <!-- H -->
     <g transform="translate(90.525312 47.870387) scale(0.13 -0.13)">
      <defs>
       <path id="DejaVuSans-48" d="M 628 4666 
L 1259 4666 
L 1259 2753 
L 3553 2753 
L 3553 4666 
L 4184 4666 
L 4184 0 
L 3553 0 
L 3553 2222 
L 1259 2222 
L 1259 0 
L 628 0 
L 628 4666 
z
" transform="scale(0.015625)"/>
      </defs>
      <use xlink:href="#DejaVuSans-48"/>
     </g>
    </g>
   </g>
   <g id="text_9">
    <g clip-path="url(#p60def1702c)">
     <!-- H -->
     <g transform="translate(90.525312 94.224386) scale(0.13 -0.13)">
      <use xlink:href="#DejaVuSans-48"/>
     </g>
    </g>
   </g>
   <g id="text_10">
    <g clip-path="url(#p60def1702c)">
     <!-- H -->
     <g transform="translate(90.525312 140.578386) scale(0.13 -0.13)">
      <use xlink:href="#DejaVuSans-48"/>
     </g>
    </g>
   </g>
   <g id="text_11">
    <g clip-path="url(#p60def1702c)">
     <!-- 0 -->
     <g transform="translate(153.356014 222.900922) scale(0.104 -0.104)">
      <use xlink:href="#DejaVuSans-30"/>
     </g>
    </g>
   </g>
   <g id="text_12">
    <g clip-path="url(#p60def1702c)">
     <!-- 1 -->
     <g transform="translate(199.710014 222.900922) scale(0.104 -0.104)">
      <use xlink:href="#DejaVuSans-31"/>
     </g>
    </g>
   </g>
   <g id="text_13">
    <g clip-path="url(#p60def1702c)">
     <!-- $\mathrm{\left|0\right\rangle}$ -->
     <g transform="translate(179.736514 47.870387) scale(0.13 -0.13)">
      <defs>
       <path id="DejaVuSans-7c" d="M 1344 4891 
L 1344 -1509 
L 813 -1509 
L 813 4891 
L 1344 4891 
z
" transform="scale(0.015625)"/>
       <path id="DejaVuSans-27e9" d="M 1925 2006 
L 1044 -844 
L 513 -844 
L 1394 2006 
L 513 4856 
L 1044 4856 
L 1925 2006 
z
" transform="scale(0.015625)"/>
      </defs>
      <use xlink:href="#DejaVuSans-7c" transform="translate(0 16.625) scale(0.756406)"/>
      <use xlink:href="#DejaVuSans-30" transform="translate(25.479126 0.125)"/>
      <use xlink:href="#DejaVuSans-27e9" transform="translate(89.102173 0.125)"/>
     </g>
    </g>
   </g>
   <g id="text_14">
    <g clip-path="url(#p60def1702c)">
     <!-- 6 -->
     <g transform="translate(246.064013 222.900922) scale(0.104 -0.104)">
      <defs>
       <path id="DejaVuSans-36" d="M 2113 2584 
Q 1688 2584 1439 2293 
Q 1191 2003 1191 1497 
Q 1191 994 1439 701 
Q 1688 409 2113 409 
Q 2538 409 2786 701 
Q 3034 994 3034 1497 
Q 3034 2003 2786 2293 
Q 2538 2584 2113 2584 
z
M 3366 4563 
L 3366 3988 
Q 3128 4100 2886 4159 
Q 2644 4219 2406 4219 
Q 1781 4219 1451 3797 
Q 1122 3375 1075 2522 
Q 1259 2794 1537 2939 
Q 1816 3084 2150 3084 
Q 2853 3084 3261 2657 
Q 3669 2231 3669 1497 
Q 3669 778 3244 343 
Q 2819 -91 2113 -91 
Q 1303 -91 875 529 
Q 447 1150 447 2328 
Q 447 3434 972 4092 
Q 1497 4750 2381 4750 
Q 2619 4750 2861 4703 
Q 3103 4656 3366 4563 
z
" transform="scale(0.015625)"/>
      </defs>
      <use xlink:href="#DejaVuSans-36"/>
     </g>
    </g>
   </g>
   <g id="text_15">
    <g clip-path="url(#p60def1702c)">
     <!-- $\mathrm{\left|0\right\rangle}$ -->
     <g transform="translate(226.090513 94.224386) scale(0.13 -0.13)">
      <use xlink:href="#DejaVuSans-7c" transform="translate(0 16.625) scale(0.756406)"/>
      <use xlink:href="#DejaVuSans-30" transform="translate(25.479126 0.125)"/>
      <use xlink:href="#DejaVuSans-27e9" transform="translate(89.102173 0.125)"/>
     </g>
    </g>
   </g>
   <g id="text_16">
    <g clip-path="url(#p60def1702c)">
     <!-- H -->
     <g transform="translate(229.58731 47.870387) scale(0.13 -0.13)">
      <use xlink:href="#DejaVuSans-48"/>
     </g>
    </g>
   </g>
   <g id="text_17">
    <g clip-path="url(#p60def1702c)">
     <!-- $\mathrm{\left|0\right\rangle}$ -->
     <g transform="translate(272.444513 140.578386) scale(0.13 -0.13)">
      <use xlink:href="#DejaVuSans-7c" transform="translate(0 16.625) scale(0.756406)"/>
      <use xlink:href="#DejaVuSans-30" transform="translate(25.479126 0.125)"/>
      <use xlink:href="#DejaVuSans-27e9" transform="translate(89.102173 0.125)"/>
     </g>
    </g>
   </g>
   <g id="text_18">
    <g clip-path="url(#p60def1702c)">
     <!-- H -->
     <g transform="translate(275.941309 94.224386) scale(0.13 -0.13)">
      <use xlink:href="#DejaVuSans-48"/>
     </g>
    </g>
   </g>
   <g id="text_19">
    <g clip-path="url(#p60def1702c)">
     <!-- 2 -->
     <g transform="translate(338.772012 222.900922) scale(0.104 -0.104)">
      <use xlink:href="#DejaVuSans-32"/>
     </g>
    </g>
   </g>
   <g id="text_20">
    <g clip-path="url(#p60def1702c)">
     <!-- 4 -->
     <g transform="translate(385.126011 222.900922) scale(0.104 -0.104)">
      <defs>
       <path id="DejaVuSans-34" d="M 2419 4116 
L 825 1625 
L 2419 1625 
L 2419 4116 
z
M 2253 4666 
L 3047 4666 
L 3047 1625 
L 3713 1625 
L 3713 1100 
L 3047 1100 
L 3047 0 
L 2419 0 
L 2419 1100 
L 313 1100 
L 313 1709 
L 2253 4666 
z
" transform="scale(0.015625)"/>
      </defs>
      <use xlink:href="#DejaVuSans-34"/>
     </g>
    </g>
   </g>
   <g id="text_21">
    <g clip-path="url(#p60def1702c)">
     <!-- $\mathrm{\left|0\right\rangle}$ -->
     <g transform="translate(365.152511 47.870387) scale(0.13 -0.13)">
      <use xlink:href="#DejaVuSans-7c" transform="translate(0 16.625) scale(0.756406)"/>
      <use xlink:href="#DejaVuSans-30" transform="translate(25.479126 0.125)"/>
      <use xlink:href="#DejaVuSans-27e9" transform="translate(89.102173 0.125)"/>
     </g>
    </g>
   </g>
   <g id="text_22">
    <g clip-path="url(#p60def1702c)">
     <!-- $\mathrm{\left|0\right\rangle}$ -->
     <g transform="translate(411.506511 94.224386) scale(0.13 -0.13)">
      <use xlink:href="#DejaVuSans-7c" transform="translate(0 16.625) scale(0.756406)"/>
      <use xlink:href="#DejaVuSans-30" transform="translate(25.479126 0.125)"/>
      <use xlink:href="#DejaVuSans-27e9" transform="translate(89.102173 0.125)"/>
     </g>
    </g>
   </g>
   <g id="text_23">
    <g clip-path="url(#p60def1702c)">
     <!-- H -->
     <g transform="translate(415.003308 47.870387) scale(0.13 -0.13)">
      <use xlink:href="#DejaVuSans-48"/>
     </g>
    </g>
   </g>
   <g id="text_24">
    <g clip-path="url(#p60def1702c)">
     <!-- H -->
     <g transform="translate(461.357307 94.224386) scale(0.13 -0.13)">
      <use xlink:href="#DejaVuSans-48"/>
     </g>
    </g>
   </g>
   <g id="text_25">
    <g clip-path="url(#p60def1702c)">
     <!-- 3 -->
     <g transform="translate(524.188009 222.900922) scale(0.104 -0.104)">
      <defs>
       <path id="DejaVuSans-33" d="M 2597 2516 
Q 3050 2419 3304 2112 
Q 3559 1806 3559 1356 
Q 3559 666 3084 287 
Q 2609 -91 1734 -91 
Q 1441 -91 1130 -33 
Q 819 25 488 141 
L 488 750 
Q 750 597 1062 519 
Q 1375 441 1716 441 
Q 2309 441 2620 675 
Q 2931 909 2931 1356 
Q 2931 1769 2642 2001 
Q 2353 2234 1838 2234 
L 1294 2234 
L 1294 2753 
L 1863 2753 
Q 2328 2753 2575 2939 
Q 2822 3125 2822 3475 
Q 2822 3834 2567 4026 
Q 2313 4219 1838 4219 
Q 1578 4219 1281 4162 
Q 984 4106 628 3988 
L 628 4550 
Q 988 4650 1302 4700 
Q 1616 4750 1894 4750 
Q 2613 4750 3031 4423 
Q 3450 4097 3450 3541 
Q 3450 3153 3228 2886 
Q 3006 2619 2597 2516 
z
" transform="scale(0.015625)"/>
      </defs>
      <use xlink:href="#DejaVuSans-33"/>
     </g>
    </g>
   </g>
   <g id="text_26">
    <g clip-path="url(#p60def1702c)">
     <!-- 5 -->
     <g transform="translate(570.542009 222.900922) scale(0.104 -0.104)">
      <defs>
       <path id="DejaVuSans-35" d="M 691 4666 
L 3169 4666 
L 3169 4134 
L 1269 4134 
L 1269 2991 
Q 1406 3038 1543 3061 
Q 1681 3084 1819 3084 
Q 2600 3084 3056 2656 
Q 3513 2228 3513 1497 
Q 3513 744 3044 326 
Q 2575 -91 1722 -91 
Q 1428 -91 1123 -41 
Q 819 9 494 109 
L 494 744 
Q 775 591 1075 516 
Q 1375 441 1709 441 
Q 2250 441 2565 725 
Q 2881 1009 2881 1497 
Q 2881 1984 2565 2268 
Q 2250 2553 1709 2553 
Q 1456 2553 1204 2497 
Q 953 2441 691 2322 
L 691 4666 
z
" transform="scale(0.015625)"/>
      </defs>
      <use xlink:href="#DejaVuSans-35"/>
     </g>
    </g>
   </g>
   <g id="text_27">
    <g clip-path="url(#p60def1702c)">
     <!-- $\mathrm{\left|0\right\rangle}$ -->
     <g transform="translate(550.568509 47.870387) scale(0.13 -0.13)">
      <use xlink:href="#DejaVuSans-7c" transform="translate(0 16.625) scale(0.756406)"/>
      <use xlink:href="#DejaVuSans-30" transform="translate(25.479126 0.125)"/>
      <use xlink:href="#DejaVuSans-27e9" transform="translate(89.102173 0.125)"/>
     </g>
    </g>
   </g>
   <g id="text_28">
    <g clip-path="url(#p60def1702c)">
     <!-- $\mathrm{\left|0\right\rangle}$ -->
     <g transform="translate(596.922508 94.224386) scale(0.13 -0.13)">
      <use xlink:href="#DejaVuSans-7c" transform="translate(0 16.625) scale(0.756406)"/>
      <use xlink:href="#DejaVuSans-30" transform="translate(25.479126 0.125)"/>
      <use xlink:href="#DejaVuSans-27e9" transform="translate(89.102173 0.125)"/>
     </g>
    </g>
   </g>
   <g id="text_29">
    <g clip-path="url(#p60def1702c)">
     <!-- H -->
     <g transform="translate(600.419305 47.870387) scale(0.13 -0.13)">
      <use xlink:href="#DejaVuSans-48"/>
     </g>
    </g>
   </g>
   <g id="text_30">
    <g clip-path="url(#p60def1702c)">
     <!-- H -->
     <g transform="translate(646.773304 94.224386) scale(0.13 -0.13)">
      <use xlink:href="#DejaVuSans-48"/>
     </g>
    </g>
   </g>
   <g id="text_31">
    <g clip-path="url(#p60def1702c)">
     <!-- 7 -->
     <g transform="translate(709.604007 222.900922) scale(0.104 -0.104)">
      <defs>
       <path id="DejaVuSans-37" d="M 525 4666 
L 3525 4666 
L 3525 4397 
L 1831 0 
L 1172 0 
L 2766 4134 
L 525 4134 
L 525 4666 
z
" transform="scale(0.015625)"/>
      </defs>
      <use xlink:href="#DejaVuSans-37"/>
     </g>
    </g>
   </g>
   <g id="text_32">
    <g clip-path="url(#p60def1702c)">
     <!-- 0 -->
     <g transform="translate(755.958006 176.546923) scale(0.104 -0.104)">
      <use xlink:href="#DejaVuSans-30"/>
     </g>
    </g>
   </g>
   <g id="text_33">
    <g clip-path="url(#p60def1702c)">
     <!-- $\mathrm{\left|0\right\rangle}$ -->
     <g transform="translate(782.338506 94.224386) scale(0.13 -0.13)">
      <use xlink:href="#DejaVuSans-7c" transform="translate(0 16.625) scale(0.756406)"/>
      <use xlink:href="#DejaVuSans-30" transform="translate(25.479126 0.125)"/>
      <use xlink:href="#DejaVuSans-27e9" transform="translate(89.102173 0.125)"/>
     </g>
    </g>
   </g>
  </g>
 </g>
 <defs>
  <clipPath id="p60def1702c">
   <rect x="7.2" y="7.2" width="814.117145" height="250.311597"/>
  </clipPath>
 </defs>
</svg>
