<?xml version="1.0" encoding="utf-8" standalone="no"?>
<!DOCTYPE svg PUBLIC "-//W3C//DTD SVG 1.1//EN"
  "http://www.w3.org/Graphics/SVG/1.1/DTD/svg11.dtd">
<svg xmlns:xlink="http://www.w3.org/1999/xlink" width="735.809147pt" height="311.065596pt" viewBox="0 0 735.809147 311.065596" xmlns="http://www.w3.org/2000/svg" version="1.1">
 <metadata>
  <rdf:RDF xmlns:dc="http://purl.org/dc/elements/1.1/" xmlns:cc="http://creativecommons.org/ns#" xmlns:rdf="http://www.w3.org/1999/02/22-rdf-syntax-ns#">
   <cc:Work>
    <dc:type rdf:resource="http://purl.org/dc/dcmitype/StillImage"/>
    <dc:date>2025-02-18T17:16:41.955933</dc:date>
    <dc:format>image/svg+xml</dc:format>
    <dc:creator>
     <cc:Agent>
      <dc:title>Matplotlib v3.9.1, https://matplotlib.org/</dc:title>
     </cc:Agent>
    </dc:creator>
   </cc:Work>
  </rdf:RDF>
 </metadata>
 <defs>
  <style type="text/css">*{stroke-linejoin: round; stroke-linecap: butt}</style>
 </defs>
 <g id="figure_1">
  <g id="patch_1">
   <path d="M 0 311.065596 
L 735.809147 311.065596 
L 735.809147 0 
L 0 0 
z
" style="fill: #ffffff"/>
  </g>
  <g id="axes_1">
   <g id="line2d_1">
    <path d="M 70.382355 44.2832 
L 723.973747 44.2832 
" clip-path="url(#p17651dd9c6)" style="fill: none; stroke: #000000; stroke-width: 2; stroke-linecap: square"/>
   </g>
   <g id="line2d_2">
    <path d="M 70.382355 90.637199 
L 723.973747 90.637199 
" clip-path="url(#p17651dd9c6)" style="fill: none; stroke: #000000; stroke-width: 2; stroke-linecap: square"/>
   </g>
   <g id="line2d_3">
    <path d="M 70.382355 136.991198 
L 723.973747 136.991198 
" clip-path="url(#p17651dd9c6)" style="fill: none; stroke: #000000; stroke-width: 2; stroke-linecap: square"/>
   </g>
   <g id="line2d_4">
    <path d="M 70.382355 183.345198 
L 723.973747 183.345198 
" clip-path="url(#p17651dd9c6)" style="fill: none; stroke: #000000; stroke-width: 2; stroke-linecap: square"/>
   </g>
   <g id="line2d_5">
    <path d="M 79.653155 234.334597 
L 84.288555 225.063797 
" clip-path="url(#p17651dd9c6)" style="fill: none; stroke: #778899; stroke-width: 1.5; stroke-linecap: square"/>
   </g>
   <g id="line2d_6">
    <path d="M 70.382355 228.192692 
L 723.973747 228.192692 
" clip-path="url(#p17651dd9c6)" style="fill: none; stroke: #778899; stroke-width: 2; stroke-linecap: square"/>
   </g>
   <g id="line2d_7">
    <path d="M 70.382355 231.205702 
L 723.973747 231.205702 
" clip-path="url(#p17651dd9c6)" style="fill: none; stroke: #778899; stroke-width: 2; stroke-linecap: square"/>
   </g>
   <g id="line2d_8">
    <path d="M 79.653155 280.688596 
L 84.288555 271.417796 
" clip-path="url(#p17651dd9c6)" style="fill: none; stroke: #778899; stroke-width: 1.5; stroke-linecap: square"/>
   </g>
   <g id="line2d_9">
    <path d="M 70.382355 274.546691 
L 723.973747 274.546691 
" clip-path="url(#p17651dd9c6)" style="fill: none; stroke: #778899; stroke-width: 2; stroke-linecap: square"/>
   </g>
   <g id="line2d_10">
    <path d="M 70.382355 277.559701 
L 723.973747 277.559701 
" clip-path="url(#p17651dd9c6)" style="fill: none; stroke: #778899; stroke-width: 2; stroke-linecap: square"/>
   </g>
   <g id="patch_2">
    <path d="M 321.157492 265.507662 
L 333.209532 265.507662 
L 327.183512 274.199036 
z
" clip-path="url(#p17651dd9c6)" style="fill: #778899"/>
   </g>
   <g id="patch_3">
    <path d="M 506.57349 265.507662 
L 518.625529 265.507662 
L 512.599509 274.199036 
z
" clip-path="url(#p17651dd9c6)" style="fill: #778899"/>
   </g>
   <g id="patch_4">
    <path d="M 599.281488 265.507662 
L 611.333528 265.507662 
L 605.307508 274.199036 
z
" clip-path="url(#p17651dd9c6)" style="fill: #778899"/>
   </g>
   <g id="patch_5">
    <path d="M 645.635488 219.153662 
L 657.687528 219.153662 
L 651.661508 227.845037 
z
" clip-path="url(#p17651dd9c6)" style="fill: #778899"/>
   </g>
   <g id="patch_6">
    <path d="M 65.746955 21.1062 
L -1093.103029 21.1062 
L -1093.103029 345.584196 
L 65.746955 345.584196 
z
" clip-path="url(#p17651dd9c6)" style="fill: #ffffff; stroke: #ffffff; stroke-width: 1.5; stroke-linejoin: miter"/>
   </g>
   <g id="line2d_11">
    <path d="M 141.767514 136.991198 
L 141.767514 44.2832 
" clip-path="url(#p17651dd9c6)" style="fill: none; stroke: #002d9c; stroke-width: 2; stroke-linecap: square"/>
   </g>
   <g id="line2d_12">
    <path d="M 188.121514 183.345198 
L 188.121514 136.991198 
" clip-path="url(#p17651dd9c6)" style="fill: none; stroke: #002d9c; stroke-width: 2; stroke-linecap: square"/>
   </g>
   <g id="line2d_13">
    <path d="M 280.829513 183.345198 
L 280.829513 90.637199 
" clip-path="url(#p17651dd9c6)" style="fill: none; stroke: #002d9c; stroke-width: 2; stroke-linecap: square"/>
   </g>
   <g id="line2d_14">
    <path d="M 328.690017 90.637199 
L 328.690017 265.507662 
" clip-path="url(#p17651dd9c6)" style="fill: none; stroke: #778899; stroke-width: 2; stroke-linecap: square"/>
   </g>
   <g id="line2d_15">
    <path d="M 325.677007 90.637199 
L 325.677007 265.507662 
" clip-path="url(#p17651dd9c6)" style="fill: none; stroke: #778899; stroke-width: 2; stroke-linecap: square"/>
   </g>
   <g id="line2d_16">
    <path d="M 373.537511 183.345198 
L 373.537511 136.991198 
" clip-path="url(#p17651dd9c6)" style="fill: none; stroke: #9f1853; stroke-width: 2; stroke-linecap: square"/>
   </g>
   <g id="line2d_17">
    <path d="M 419.891511 183.345198 
L 419.891511 136.991198 
" clip-path="url(#p17651dd9c6)" style="fill: none; stroke: #002d9c; stroke-width: 2; stroke-linecap: square"/>
   </g>
   <g id="line2d_18">
    <path d="M 466.24551 183.345198 
L 466.24551 136.991198 
" clip-path="url(#p17651dd9c6)" style="fill: none; stroke: #9f1853; stroke-width: 2; stroke-linecap: square"/>
   </g>
   <g id="line2d_19">
    <path d="M 514.106014 183.345198 
L 514.106014 265.507662 
" clip-path="url(#p17651dd9c6)" style="fill: none; stroke: #778899; stroke-width: 2; stroke-linecap: square"/>
   </g>
   <g id="line2d_20">
    <path d="M 511.093004 183.345198 
L 511.093004 265.507662 
" clip-path="url(#p17651dd9c6)" style="fill: none; stroke: #778899; stroke-width: 2; stroke-linecap: square"/>
   </g>
   <g id="line2d_21">
    <path d="M 512.599509 136.991198 
L 512.599509 44.2832 
" clip-path="url(#p17651dd9c6)" style="fill: none; stroke: #002d9c; stroke-width: 2; stroke-linecap: square"/>
   </g>
   <g id="line2d_22">
    <path d="M 606.814013 136.991198 
L 606.814013 265.507662 
" clip-path="url(#p17651dd9c6)" style="fill: none; stroke: #778899; stroke-width: 2; stroke-linecap: square"/>
   </g>
   <g id="line2d_23">
    <path d="M 603.801003 136.991198 
L 603.801003 265.507662 
" clip-path="url(#p17651dd9c6)" style="fill: none; stroke: #778899; stroke-width: 2; stroke-linecap: square"/>
   </g>
   <g id="line2d_24">
    <path d="M 653.168013 44.2832 
L 653.168013 219.153662 
" clip-path="url(#p17651dd9c6)" style="fill: none; stroke: #778899; stroke-width: 2; stroke-linecap: square"/>
   </g>
   <g id="line2d_25">
    <path d="M 650.155003 44.2832 
L 650.155003 219.153662 
" clip-path="url(#p17651dd9c6)" style="fill: none; stroke: #778899; stroke-width: 2; stroke-linecap: square"/>
   </g>
   <g id="patch_7">
    <path d="M 80.348465 59.348249 
L 110.478565 59.348249 
L 110.478565 29.21815 
L 80.348465 29.21815 
z
" clip-path="url(#p17651dd9c6)" style="fill: #fa4d56; stroke: #fa4d56; stroke-width: 1.5; stroke-linejoin: miter"/>
   </g>
   <g id="patch_8">
    <path d="M 80.348465 105.702249 
L 110.478565 105.702249 
L 110.478565 75.572149 
L 80.348465 75.572149 
z
" clip-path="url(#p17651dd9c6)" style="fill: #fa4d56; stroke: #fa4d56; stroke-width: 1.5; stroke-linejoin: miter"/>
   </g>
   <g id="patch_9">
    <path d="M 141.767514 48.802714 
C 142.966104 48.802714 144.115763 48.32651 144.963294 47.478979 
C 145.810825 46.631448 146.287029 45.481789 146.287029 44.2832 
C 146.287029 43.08461 145.810825 41.934951 144.963294 41.08742 
C 144.115763 40.239889 142.966104 39.763685 141.767514 39.763685 
C 140.568925 39.763685 139.419265 40.239889 138.571735 41.08742 
C 137.724204 41.934951 137.247999 43.08461 137.247999 44.2832 
C 137.247999 45.481789 137.724204 46.631448 138.571735 47.478979 
C 139.419265 48.32651 140.568925 48.802714 141.767514 48.802714 
z
" clip-path="url(#p17651dd9c6)" style="fill: #002d9c; stroke: #002d9c; stroke-width: 1.5; stroke-linejoin: miter"/>
   </g>
   <g id="patch_10">
    <path d="M 141.767514 147.536733 
C 144.564223 147.536733 147.246762 146.425589 149.224334 144.448017 
C 151.201905 142.470446 152.313049 139.787907 152.313049 136.991198 
C 152.313049 134.19449 151.201905 131.511951 149.224334 129.534379 
C 147.246762 127.556807 144.564223 126.445663 141.767514 126.445663 
C 138.970806 126.445663 136.288267 127.556807 134.310695 129.534379 
C 132.333124 131.511951 131.22198 134.19449 131.22198 136.991198 
C 131.22198 139.787907 132.333124 142.470446 134.310695 144.448017 
C 136.288267 146.425589 138.970806 147.536733 141.767514 147.536733 
z
" clip-path="url(#p17651dd9c6)" style="fill: #002d9c; stroke: #002d9c; stroke-width: 2; stroke-linejoin: miter"/>
   </g>
   <g id="patch_11">
    <path d="M 188.121514 141.510713 
C 189.320103 141.510713 190.469763 141.034509 191.317293 140.186978 
C 192.164824 139.339447 192.641029 138.189788 192.641029 136.991198 
C 192.641029 135.792609 192.164824 134.642949 191.317293 133.795419 
C 190.469763 132.947888 189.320103 132.471683 188.121514 132.471683 
C 186.922924 132.471683 185.773265 132.947888 184.925734 133.795419 
C 184.078203 134.642949 183.601999 135.792609 183.601999 136.991198 
C 183.601999 138.189788 184.078203 139.339447 184.925734 140.186978 
C 185.773265 141.034509 186.922924 141.510713 188.121514 141.510713 
z
" clip-path="url(#p17651dd9c6)" style="fill: #002d9c; stroke: #002d9c; stroke-width: 1.5; stroke-linejoin: miter"/>
   </g>
   <g id="patch_12">
    <path d="M 188.121514 193.890733 
C 190.918222 193.890733 193.600761 192.779588 195.578333 190.802017 
C 197.555905 188.824445 198.667049 186.141906 198.667049 183.345198 
C 198.667049 180.548489 197.555905 177.86595 195.578333 175.888378 
C 193.600761 173.910807 190.918222 172.799663 188.121514 172.799663 
C 185.324805 172.799663 182.642266 173.910807 180.664695 175.888378 
C 178.687123 177.86595 177.575979 180.548489 177.575979 183.345198 
C 177.575979 186.141906 178.687123 188.824445 180.664695 190.802017 
C 182.642266 192.779588 185.324805 193.890733 188.121514 193.890733 
z
" clip-path="url(#p17651dd9c6)" style="fill: #002d9c; stroke: #002d9c; stroke-width: 2; stroke-linejoin: miter"/>
   </g>
   <g id="patch_13">
    <path d="M 219.410463 198.410247 
L 249.540563 198.410247 
L 249.540563 168.280148 
L 219.410463 168.280148 
z
" clip-path="url(#p17651dd9c6)" style="fill: #fa4d56; stroke: #fa4d56; stroke-width: 1.5; stroke-linejoin: miter"/>
   </g>
   <g id="patch_14">
    <path d="M 280.829513 187.864713 
C 282.028102 187.864713 283.177762 187.388508 284.025292 186.540977 
C 284.872823 185.693447 285.349027 184.543787 285.349027 183.345198 
C 285.349027 182.146608 284.872823 180.996949 284.025292 180.149418 
C 283.177762 179.301887 282.028102 178.825683 280.829513 178.825683 
C 279.630923 178.825683 278.481264 179.301887 277.633733 180.149418 
C 276.786202 180.996949 276.309998 182.146608 276.309998 183.345198 
C 276.309998 184.543787 276.786202 185.693447 277.633733 186.540977 
C 278.481264 187.388508 279.630923 187.864713 280.829513 187.864713 
z
" clip-path="url(#p17651dd9c6)" style="fill: #ffffff; stroke: #002d9c; stroke-width: 1.5; stroke-linejoin: miter"/>
   </g>
   <g id="patch_15">
    <path d="M 280.829513 101.182734 
C 283.626221 101.182734 286.30876 100.07159 288.286332 98.094018 
C 290.263903 96.116447 291.375047 93.433907 291.375047 90.637199 
C 291.375047 87.84049 290.263903 85.157951 288.286332 83.18038 
C 286.30876 81.202808 283.626221 80.091664 280.829513 80.091664 
C 278.032804 80.091664 275.350265 81.202808 273.372693 83.18038 
C 271.395122 85.157951 270.283978 87.84049 270.283978 90.637199 
C 270.283978 93.433907 271.395122 96.116447 273.372693 98.094018 
C 275.350265 100.07159 278.032804 101.182734 280.829513 101.182734 
z
" clip-path="url(#p17651dd9c6)" style="fill: #002d9c; stroke: #002d9c; stroke-width: 2; stroke-linejoin: miter"/>
   </g>
   <g id="patch_16">
    <path d="M 312.118462 105.702249 
L 342.248562 105.702249 
L 342.248562 75.572149 
L 312.118462 75.572149 
z
" clip-path="url(#p17651dd9c6)" style="fill: #a8a8a8; stroke: #a8a8a8; stroke-width: 1.5; stroke-linejoin: miter"/>
   </g>
   <g id="patch_17">
    <path d="M 337.729047 95.156714 
C 337.729047 92.360937 336.617244 89.676808 334.640331 87.699895 
C 332.663418 85.722982 329.979289 84.611179 327.183512 84.611179 
C 324.387735 84.611179 321.703606 85.722982 319.726693 87.699895 
C 317.74978 89.676808 316.637977 92.360937 316.637977 95.156714 
" clip-path="url(#p17651dd9c6)" style="fill: none; stroke: #000000; stroke-width: 2; stroke-linejoin: miter"/>
   </g>
   <g id="line2d_26">
    <path d="M 327.183512 95.156714 
L 337.729047 84.611179 
" clip-path="url(#p17651dd9c6)" style="fill: none; stroke: #000000; stroke-width: 2; stroke-linecap: square"/>
   </g>
   <g id="patch_18">
    <path d="M 373.537511 141.510713 
C 374.736101 141.510713 375.88576 141.034509 376.733291 140.186978 
C 377.580822 139.339447 378.057026 138.189788 378.057026 136.991198 
C 378.057026 135.792609 377.580822 134.642949 376.733291 133.795419 
C 375.88576 132.947888 374.736101 132.471683 373.537511 132.471683 
C 372.338922 132.471683 371.189262 132.947888 370.341732 133.795419 
C 369.494201 134.642949 369.017996 135.792609 369.017996 136.991198 
C 369.017996 138.189788 369.494201 139.339447 370.341732 140.186978 
C 371.189262 141.034509 372.338922 141.510713 373.537511 141.510713 
z
" clip-path="url(#p17651dd9c6)" style="fill: #9f1853; stroke: #9f1853; stroke-width: 1.5; stroke-linejoin: miter"/>
   </g>
   <g id="patch_19">
    <path d="M 358.472461 198.410247 
L 388.602561 198.410247 
L 388.602561 168.280148 
L 358.472461 168.280148 
z
" clip-path="url(#p17651dd9c6)" style="fill: #9f1853; stroke: #9f1853; stroke-width: 1.5; stroke-linejoin: miter"/>
   </g>
   <g id="patch_20">
    <path d="M 358.472461 105.702249 
L 388.602561 105.702249 
L 388.602561 75.572149 
L 358.472461 75.572149 
z
" clip-path="url(#p17651dd9c6)" style="fill: #a8a8a8; stroke: #a8a8a8; stroke-width: 1.5; stroke-linejoin: miter"/>
   </g>
   <g id="patch_21">
    <path d="M 419.891511 141.510713 
C 421.0901 141.510713 422.23976 141.034509 423.08729 140.186978 
C 423.934821 139.339447 424.411026 138.189788 424.411026 136.991198 
C 424.411026 135.792609 423.934821 134.642949 423.08729 133.795419 
C 422.23976 132.947888 421.0901 132.471683 419.891511 132.471683 
C 418.692921 132.471683 417.543262 132.947888 416.695731 133.795419 
C 415.8482 134.642949 415.371996 135.792609 415.371996 136.991198 
C 415.371996 138.189788 415.8482 139.339447 416.695731 140.186978 
C 417.543262 141.034509 418.692921 141.510713 419.891511 141.510713 
z
" clip-path="url(#p17651dd9c6)" style="fill: #002d9c; stroke: #002d9c; stroke-width: 1.5; stroke-linejoin: miter"/>
   </g>
   <g id="patch_22">
    <path d="M 419.891511 193.890733 
C 422.688219 193.890733 425.370758 192.779588 427.34833 190.802017 
C 429.325901 188.824445 430.437046 186.141906 430.437046 183.345198 
C 430.437046 180.548489 429.325901 177.86595 427.34833 175.888378 
C 425.370758 173.910807 422.688219 172.799663 419.891511 172.799663 
C 417.094802 172.799663 414.412263 173.910807 412.434691 175.888378 
C 410.45712 177.86595 409.345976 180.548489 409.345976 183.345198 
C 409.345976 186.141906 410.45712 188.824445 412.434691 190.802017 
C 414.412263 192.779588 417.094802 193.890733 419.891511 193.890733 
z
" clip-path="url(#p17651dd9c6)" style="fill: #002d9c; stroke: #002d9c; stroke-width: 2; stroke-linejoin: miter"/>
   </g>
   <g id="patch_23">
    <path d="M 466.24551 141.510713 
C 467.444099 141.510713 468.593759 141.034509 469.44129 140.186978 
C 470.28882 139.339447 470.765025 138.189788 470.765025 136.991198 
C 470.765025 135.792609 470.28882 134.642949 469.44129 133.795419 
C 468.593759 132.947888 467.444099 132.471683 466.24551 132.471683 
C 465.046921 132.471683 463.897261 132.947888 463.04973 133.795419 
C 462.2022 134.642949 461.725995 135.792609 461.725995 136.991198 
C 461.725995 138.189788 462.2022 139.339447 463.04973 140.186978 
C 463.897261 141.034509 465.046921 141.510713 466.24551 141.510713 
z
" clip-path="url(#p17651dd9c6)" style="fill: #ffffff; stroke: #9f1853; stroke-width: 1.5; stroke-linejoin: miter"/>
   </g>
   <g id="patch_24">
    <path d="M 451.18046 198.410247 
L 481.31056 198.410247 
L 481.31056 168.280148 
L 451.18046 168.280148 
z
" clip-path="url(#p17651dd9c6)" style="fill: #9f1853; stroke: #9f1853; stroke-width: 1.5; stroke-linejoin: miter"/>
   </g>
   <g id="patch_25">
    <path d="M 497.53446 198.410247 
L 527.664559 198.410247 
L 527.664559 168.280148 
L 497.53446 168.280148 
z
" clip-path="url(#p17651dd9c6)" style="fill: #a8a8a8; stroke: #a8a8a8; stroke-width: 1.5; stroke-linejoin: miter"/>
   </g>
   <g id="patch_26">
    <path d="M 523.145044 187.864713 
C 523.145044 185.068936 522.033242 182.384806 520.056329 180.407893 
C 518.079416 178.43098 515.395287 177.319178 512.599509 177.319178 
C 509.803732 177.319178 507.119603 178.43098 505.14269 180.407893 
C 503.165777 182.384806 502.053975 185.068936 502.053975 187.864713 
" clip-path="url(#p17651dd9c6)" style="fill: none; stroke: #000000; stroke-width: 2; stroke-linejoin: miter"/>
   </g>
   <g id="line2d_27">
    <path d="M 512.599509 187.864713 
L 523.145044 177.319178 
" clip-path="url(#p17651dd9c6)" style="fill: none; stroke: #000000; stroke-width: 2; stroke-linecap: square"/>
   </g>
   <g id="patch_27">
    <path d="M 512.599509 48.802714 
C 513.798099 48.802714 514.947758 48.32651 515.795289 47.478979 
C 516.64282 46.631448 517.119024 45.481789 517.119024 44.2832 
C 517.119024 43.08461 516.64282 41.934951 515.795289 41.08742 
C 514.947758 40.239889 513.798099 39.763685 512.599509 39.763685 
C 511.40092 39.763685 510.25126 40.239889 509.40373 41.08742 
C 508.556199 41.934951 508.079995 43.08461 508.079995 44.2832 
C 508.079995 45.481789 508.556199 46.631448 509.40373 47.478979 
C 510.25126 48.32651 511.40092 48.802714 512.599509 48.802714 
z
" clip-path="url(#p17651dd9c6)" style="fill: #002d9c; stroke: #002d9c; stroke-width: 1.5; stroke-linejoin: miter"/>
   </g>
   <g id="patch_28">
    <path d="M 512.599509 147.536733 
C 515.396218 147.536733 518.078757 146.425589 520.056329 144.448017 
C 522.0339 142.470446 523.145044 139.787907 523.145044 136.991198 
C 523.145044 134.19449 522.0339 131.511951 520.056329 129.534379 
C 518.078757 127.556807 515.396218 126.445663 512.599509 126.445663 
C 509.802801 126.445663 507.120262 127.556807 505.14269 129.534379 
C 503.165119 131.511951 502.053975 134.19449 502.053975 136.991198 
C 502.053975 139.787907 503.165119 142.470446 505.14269 144.448017 
C 507.120262 146.425589 509.802801 147.536733 512.599509 147.536733 
z
" clip-path="url(#p17651dd9c6)" style="fill: #002d9c; stroke: #002d9c; stroke-width: 2; stroke-linejoin: miter"/>
   </g>
   <g id="patch_29">
    <path d="M 543.888459 198.410247 
L 574.018559 198.410247 
L 574.018559 168.280148 
L 543.888459 168.280148 
z
" clip-path="url(#p17651dd9c6)" style="fill: #a8a8a8; stroke: #a8a8a8; stroke-width: 1.5; stroke-linejoin: miter"/>
   </g>
   <g id="patch_30">
    <path d="M 590.242458 152.056248 
L 620.372558 152.056248 
L 620.372558 121.926148 
L 590.242458 121.926148 
z
" clip-path="url(#p17651dd9c6)" style="fill: #a8a8a8; stroke: #a8a8a8; stroke-width: 1.5; stroke-linejoin: miter"/>
   </g>
   <g id="patch_31">
    <path d="M 615.853043 141.510713 
C 615.853043 138.714936 614.74124 136.030807 612.764327 134.053894 
C 610.787414 132.076981 608.103285 130.965178 605.307508 130.965178 
C 602.511731 130.965178 599.827602 132.076981 597.850689 134.053894 
C 595.873776 136.030807 594.761973 138.714936 594.761973 141.510713 
" clip-path="url(#p17651dd9c6)" style="fill: none; stroke: #000000; stroke-width: 2; stroke-linejoin: miter"/>
   </g>
   <g id="line2d_28">
    <path d="M 605.307508 141.510713 
L 615.853043 130.965178 
" clip-path="url(#p17651dd9c6)" style="fill: none; stroke: #000000; stroke-width: 2; stroke-linecap: square"/>
   </g>
   <g id="patch_32">
    <path d="M 636.596458 59.348249 
L 666.726557 59.348249 
L 666.726557 29.21815 
L 636.596458 29.21815 
z
" clip-path="url(#p17651dd9c6)" style="fill: #a8a8a8; stroke: #a8a8a8; stroke-width: 1.5; stroke-linejoin: miter"/>
   </g>
   <g id="patch_33">
    <path d="M 662.207042 48.802714 
C 662.207042 46.006937 661.09524 43.322808 659.118327 41.345895 
C 657.141414 39.368982 654.457285 38.25718 651.661508 38.25718 
C 648.865731 38.25718 646.181601 39.368982 644.204688 41.345895 
C 642.227775 43.322808 641.115973 46.006937 641.115973 48.802714 
" clip-path="url(#p17651dd9c6)" style="fill: none; stroke: #000000; stroke-width: 2; stroke-linejoin: miter"/>
   </g>
   <g id="line2d_29">
    <path d="M 651.661508 48.802714 
L 662.207042 38.25718 
" clip-path="url(#p17651dd9c6)" style="fill: none; stroke: #000000; stroke-width: 2; stroke-linecap: square"/>
   </g>
   <g id="patch_34">
    <path d="M 682.950457 152.056248 
L 713.080557 152.056248 
L 713.080557 121.926148 
L 682.950457 121.926148 
z
" clip-path="url(#p17651dd9c6)" style="fill: #a8a8a8; stroke: #a8a8a8; stroke-width: 1.5; stroke-linejoin: miter"/>
   </g>
   <g id="line2d_30">
    <path d="M 141.767514 143.017218 
L 141.767514 130.965178 
" clip-path="url(#p17651dd9c6)" style="fill: none; stroke: #ffffff; stroke-width: 2; stroke-linecap: square"/>
   </g>
   <g id="line2d_31">
    <path d="M 135.741494 136.991198 
L 147.793534 136.991198 
" clip-path="url(#p17651dd9c6)" style="fill: none; stroke: #ffffff; stroke-width: 2; stroke-linecap: square"/>
   </g>
   <g id="line2d_32">
    <path d="M 188.121514 189.371218 
L 188.121514 177.319178 
" clip-path="url(#p17651dd9c6)" style="fill: none; stroke: #ffffff; stroke-width: 2; stroke-linecap: square"/>
   </g>
   <g id="line2d_33">
    <path d="M 182.095494 183.345198 
L 194.147534 183.345198 
" clip-path="url(#p17651dd9c6)" style="fill: none; stroke: #ffffff; stroke-width: 2; stroke-linecap: square"/>
   </g>
   <g id="line2d_34">
    <path d="M 280.829513 96.663219 
L 280.829513 84.611179 
" clip-path="url(#p17651dd9c6)" style="fill: none; stroke: #ffffff; stroke-width: 2; stroke-linecap: square"/>
   </g>
   <g id="line2d_35">
    <path d="M 274.803493 90.637199 
L 286.855532 90.637199 
" clip-path="url(#p17651dd9c6)" style="fill: none; stroke: #ffffff; stroke-width: 2; stroke-linecap: square"/>
   </g>
   <g id="line2d_36">
    <path d="M 419.891511 189.371218 
L 419.891511 177.319178 
" clip-path="url(#p17651dd9c6)" style="fill: none; stroke: #ffffff; stroke-width: 2; stroke-linecap: square"/>
   </g>
   <g id="line2d_37">
    <path d="M 413.865491 183.345198 
L 425.917531 183.345198 
" clip-path="url(#p17651dd9c6)" style="fill: none; stroke: #ffffff; stroke-width: 2; stroke-linecap: square"/>
   </g>
   <g id="line2d_38">
    <path d="M 512.599509 143.017218 
L 512.599509 130.965178 
" clip-path="url(#p17651dd9c6)" style="fill: none; stroke: #ffffff; stroke-width: 2; stroke-linecap: square"/>
   </g>
   <g id="line2d_39">
    <path d="M 506.57349 136.991198 
L 518.625529 136.991198 
" clip-path="url(#p17651dd9c6)" style="fill: none; stroke: #ffffff; stroke-width: 2; stroke-linecap: square"/>
   </g>
   <g id="text_1">
    <g clip-path="url(#p17651dd9c6)">
     <!-- ${q}_{0}$ -->
     <g transform="translate(43.074055 48.734176) scale(0.1625 -0.1625)">
      <defs>
       <path id="DejaVuSans-Oblique-71" d="M 2669 525 
Q 2438 222 2123 65 
Q 1809 -91 1428 -91 
Q 897 -91 595 267 
Q 294 625 294 1253 
Q 294 1759 480 2231 
Q 666 2703 1013 3078 
Q 1238 3322 1530 3453 
Q 1822 3584 2144 3584 
Q 2531 3584 2781 3431 
Q 3031 3278 3144 2969 
L 3244 3494 
L 3822 3494 
L 2888 -1319 
L 2309 -1319 
L 2669 525 
z
M 891 1338 
Q 891 875 1084 633 
Q 1278 391 1644 391 
Q 2188 391 2572 911 
Q 2956 1431 2956 2175 
Q 2956 2625 2757 2864 
Q 2559 3103 2188 3103 
Q 1916 3103 1684 2976 
Q 1453 2850 1281 2606 
Q 1100 2350 995 2006 
Q 891 1663 891 1338 
z
" transform="scale(0.015625)"/>
       <path id="DejaVuSans-30" d="M 2034 4250 
Q 1547 4250 1301 3770 
Q 1056 3291 1056 2328 
Q 1056 1369 1301 889 
Q 1547 409 2034 409 
Q 2525 409 2770 889 
Q 3016 1369 3016 2328 
Q 3016 3291 2770 3770 
Q 2525 4250 2034 4250 
z
M 2034 4750 
Q 2819 4750 3233 4129 
Q 3647 3509 3647 2328 
Q 3647 1150 3233 529 
Q 2819 -91 2034 -91 
Q 1250 -91 836 529 
Q 422 1150 422 2328 
Q 422 3509 836 4129 
Q 1250 4750 2034 4750 
z
" transform="scale(0.015625)"/>
      </defs>
      <use xlink:href="#DejaVuSans-Oblique-71"/>
      <use xlink:href="#DejaVuSans-30" transform="translate(63.476562 -16.40625) scale(0.7)"/>
     </g>
    </g>
   </g>
   <g id="text_2">
    <g clip-path="url(#p17651dd9c6)">
     <!-- ${q}_{1}$ -->
     <g transform="translate(43.074055 95.088175) scale(0.1625 -0.1625)">
      <defs>
       <path id="DejaVuSans-31" d="M 794 531 
L 1825 531 
L 1825 4091 
L 703 3866 
L 703 4441 
L 1819 4666 
L 2450 4666 
L 2450 531 
L 3481 531 
L 3481 0 
L 794 0 
L 794 531 
z
" transform="scale(0.015625)"/>
      </defs>
      <use xlink:href="#DejaVuSans-Oblique-71"/>
      <use xlink:href="#DejaVuSans-31" transform="translate(63.476562 -16.40625) scale(0.7)"/>
     </g>
    </g>
   </g>
   <g id="text_3">
    <g clip-path="url(#p17651dd9c6)">
     <!-- ${q}_{2}$ -->
     <g transform="translate(43.074055 141.442175) scale(0.1625 -0.1625)">
      <defs>
       <path id="DejaVuSans-32" d="M 1228 531 
L 3431 531 
L 3431 0 
L 469 0 
L 469 531 
Q 828 903 1448 1529 
Q 2069 2156 2228 2338 
Q 2531 2678 2651 2914 
Q 2772 3150 2772 3378 
Q 2772 3750 2511 3984 
Q 2250 4219 1831 4219 
Q 1534 4219 1204 4116 
Q 875 4013 500 3803 
L 500 4441 
Q 881 4594 1212 4672 
Q 1544 4750 1819 4750 
Q 2544 4750 2975 4387 
Q 3406 4025 3406 3419 
Q 3406 3131 3298 2873 
Q 3191 2616 2906 2266 
Q 2828 2175 2409 1742 
Q 1991 1309 1228 531 
z
" transform="scale(0.015625)"/>
      </defs>
      <use xlink:href="#DejaVuSans-Oblique-71"/>
      <use xlink:href="#DejaVuSans-32" transform="translate(63.476562 -16.40625) scale(0.7)"/>
     </g>
    </g>
   </g>
   <g id="text_4">
    <g clip-path="url(#p17651dd9c6)">
     <!-- ${q}_{3}$ -->
     <g transform="translate(43.074055 187.796174) scale(0.1625 -0.1625)">
      <defs>
       <path id="DejaVuSans-33" d="M 2597 2516 
Q 3050 2419 3304 2112 
Q 3559 1806 3559 1356 
Q 3559 666 3084 287 
Q 2609 -91 1734 -91 
Q 1441 -91 1130 -33 
Q 819 25 488 141 
L 488 750 
Q 750 597 1062 519 
Q 1375 441 1716 441 
Q 2309 441 2620 675 
Q 2931 909 2931 1356 
Q 2931 1769 2642 2001 
Q 2353 2234 1838 2234 
L 1294 2234 
L 1294 2753 
L 1863 2753 
Q 2328 2753 2575 2939 
Q 2822 3125 2822 3475 
Q 2822 3834 2567 4026 
Q 2313 4219 1838 4219 
Q 1578 4219 1281 4162 
Q 984 4106 628 3988 
L 628 4550 
Q 988 4650 1302 4700 
Q 1616 4750 1894 4750 
Q 2613 4750 3031 4423 
Q 3450 4097 3450 3541 
Q 3450 3153 3228 2886 
Q 3006 2619 2597 2516 
z
" transform="scale(0.015625)"/>
      </defs>
      <use xlink:href="#DejaVuSans-Oblique-71"/>
      <use xlink:href="#DejaVuSans-33" transform="translate(63.476562 -16.40625) scale(0.7)"/>
     </g>
    </g>
   </g>
   <g id="text_5">
    <g clip-path="url(#p17651dd9c6)">
     <!-- 1 -->
     <g transform="translate(75.017755 222.900922) scale(0.104 -0.104)">
      <use xlink:href="#DejaVuSans-31"/>
     </g>
    </g>
   </g>
   <g id="text_6">
    <g clip-path="url(#p17651dd9c6)">
     <!-- out -->
     <g transform="translate(34.499641 234.183181) scale(0.1625 -0.1625)">
      <defs>
       <path id="DejaVuSans-6f" d="M 1959 3097 
Q 1497 3097 1228 2736 
Q 959 2375 959 1747 
Q 959 1119 1226 758 
Q 1494 397 1959 397 
Q 2419 397 2687 759 
Q 2956 1122 2956 1747 
Q 2956 2369 2687 2733 
Q 2419 3097 1959 3097 
z
M 1959 3584 
Q 2709 3584 3137 3096 
Q 3566 2609 3566 1747 
Q 3566 888 3137 398 
Q 2709 -91 1959 -91 
Q 1206 -91 779 398 
Q 353 888 353 1747 
Q 353 2609 779 3096 
Q 1206 3584 1959 3584 
z
" transform="scale(0.015625)"/>
       <path id="DejaVuSans-75" d="M 544 1381 
L 544 3500 
L 1119 3500 
L 1119 1403 
Q 1119 906 1312 657 
Q 1506 409 1894 409 
Q 2359 409 2629 706 
Q 2900 1003 2900 1516 
L 2900 3500 
L 3475 3500 
L 3475 0 
L 2900 0 
L 2900 538 
Q 2691 219 2414 64 
Q 2138 -91 1772 -91 
Q 1169 -91 856 284 
Q 544 659 544 1381 
z
M 1991 3584 
L 1991 3584 
z
" transform="scale(0.015625)"/>
       <path id="DejaVuSans-74" d="M 1172 4494 
L 1172 3500 
L 2356 3500 
L 2356 3053 
L 1172 3053 
L 1172 1153 
Q 1172 725 1289 603 
Q 1406 481 1766 481 
L 2356 481 
L 2356 0 
L 1766 0 
Q 1100 0 847 248 
Q 594 497 594 1153 
L 594 3053 
L 172 3053 
L 172 3500 
L 594 3500 
L 594 4494 
L 1172 4494 
z
" transform="scale(0.015625)"/>
      </defs>
      <use xlink:href="#DejaVuSans-6f"/>
      <use xlink:href="#DejaVuSans-75" x="61.181641"/>
      <use xlink:href="#DejaVuSans-74" x="124.560547"/>
     </g>
    </g>
   </g>
   <g id="text_7">
    <g clip-path="url(#p17651dd9c6)">
     <!-- 3 -->
     <g transform="translate(75.017755 269.254921) scale(0.104 -0.104)">
      <use xlink:href="#DejaVuSans-33"/>
     </g>
    </g>
   </g>
   <g id="text_8">
    <g clip-path="url(#p17651dd9c6)">
     <!-- err -->
     <g transform="translate(38.036555 280.537181) scale(0.1625 -0.1625)">
      <defs>
       <path id="DejaVuSans-65" d="M 3597 1894 
L 3597 1613 
L 953 1613 
Q 991 1019 1311 708 
Q 1631 397 2203 397 
Q 2534 397 2845 478 
Q 3156 559 3463 722 
L 3463 178 
Q 3153 47 2828 -22 
Q 2503 -91 2169 -91 
Q 1331 -91 842 396 
Q 353 884 353 1716 
Q 353 2575 817 3079 
Q 1281 3584 2069 3584 
Q 2775 3584 3186 3129 
Q 3597 2675 3597 1894 
z
M 3022 2063 
Q 3016 2534 2758 2815 
Q 2500 3097 2075 3097 
Q 1594 3097 1305 2825 
Q 1016 2553 972 2059 
L 3022 2063 
z
" transform="scale(0.015625)"/>
       <path id="DejaVuSans-72" d="M 2631 2963 
Q 2534 3019 2420 3045 
Q 2306 3072 2169 3072 
Q 1681 3072 1420 2755 
Q 1159 2438 1159 1844 
L 1159 0 
L 581 0 
L 581 3500 
L 1159 3500 
L 1159 2956 
Q 1341 3275 1631 3429 
Q 1922 3584 2338 3584 
Q 2397 3584 2469 3576 
Q 2541 3569 2628 3553 
L 2631 2963 
z
" transform="scale(0.015625)"/>
      </defs>
      <use xlink:href="#DejaVuSans-65"/>
      <use xlink:href="#DejaVuSans-72" x="61.523438"/>
      <use xlink:href="#DejaVuSans-72" x="100.886719"/>
     </g>
    </g>
   </g>
   <g id="text_9">
    <g clip-path="url(#p17651dd9c6)">
     <!-- H -->
     <g transform="translate(90.525312 47.870387) scale(0.13 -0.13)">
      <defs>
       <path id="DejaVuSans-48" d="M 628 4666 
L 1259 4666 
L 1259 2753 
L 3553 2753 
L 3553 4666 
L 4184 4666 
L 4184 0 
L 3553 0 
L 3553 2222 
L 1259 2222 
L 1259 0 
L 628 0 
L 628 4666 
z
" transform="scale(0.015625)"/>
      </defs>
      <use xlink:href="#DejaVuSans-48"/>
     </g>
    </g>
   </g>
   <g id="text_10">
    <g clip-path="url(#p17651dd9c6)">
     <!-- H -->
     <g transform="translate(90.525312 94.224386) scale(0.13 -0.13)">
      <use xlink:href="#DejaVuSans-48"/>
     </g>
    </g>
   </g>
   <g id="text_11">
    <g clip-path="url(#p17651dd9c6)">
     <!-- H -->
     <g transform="translate(229.58731 186.932385) scale(0.13 -0.13)">
      <use xlink:href="#DejaVuSans-48"/>
     </g>
    </g>
   </g>
   <g id="text_12">
    <g clip-path="url(#p17651dd9c6)">
     <!-- 0 -->
     <g transform="translate(338.772012 269.254921) scale(0.104 -0.104)">
      <use xlink:href="#DejaVuSans-30"/>
     </g>
    </g>
   </g>
   <g id="text_13">
    <g clip-path="url(#p17651dd9c6)">
     <!-- H -->
     <g style="fill: #ffffff" transform="translate(368.649308 186.932385) scale(0.13 -0.13)">
      <use xlink:href="#DejaVuSans-48"/>
     </g>
    </g>
   </g>
   <g id="text_14">
    <g clip-path="url(#p17651dd9c6)">
     <!-- $\mathrm{\left|0\right\rangle}$ -->
     <g transform="translate(365.152511 94.224386) scale(0.13 -0.13)">
      <defs>
       <path id="DejaVuSans-7c" d="M 1344 4891 
L 1344 -1509 
L 813 -1509 
L 813 4891 
L 1344 4891 
z
" transform="scale(0.015625)"/>
       <path id="DejaVuSans-27e9" d="M 1925 2006 
L 1044 -844 
L 513 -844 
L 1394 2006 
L 513 4856 
L 1044 4856 
L 1925 2006 
z
" transform="scale(0.015625)"/>
      </defs>
      <use xlink:href="#DejaVuSans-7c" transform="translate(0 16.625) scale(0.756406)"/>
      <use xlink:href="#DejaVuSans-30" transform="translate(25.479126 0.125)"/>
      <use xlink:href="#DejaVuSans-27e9" transform="translate(89.102173 0.125)"/>
     </g>
    </g>
   </g>
   <g id="text_15">
    <g clip-path="url(#p17651dd9c6)">
     <!-- H -->
     <g style="fill: #ffffff" transform="translate(461.357307 186.932385) scale(0.13 -0.13)">
      <use xlink:href="#DejaVuSans-48"/>
     </g>
    </g>
   </g>
   <g id="text_16">
    <g clip-path="url(#p17651dd9c6)">
     <!-- 1 -->
     <g transform="translate(524.188009 269.254921) scale(0.104 -0.104)">
      <use xlink:href="#DejaVuSans-31"/>
     </g>
    </g>
   </g>
   <g id="text_17">
    <g clip-path="url(#p17651dd9c6)">
     <!-- $\mathrm{\left|0\right\rangle}$ -->
     <g transform="translate(550.568509 186.932385) scale(0.13 -0.13)">
      <use xlink:href="#DejaVuSans-7c" transform="translate(0 16.625) scale(0.756406)"/>
      <use xlink:href="#DejaVuSans-30" transform="translate(25.479126 0.125)"/>
      <use xlink:href="#DejaVuSans-27e9" transform="translate(89.102173 0.125)"/>
     </g>
    </g>
   </g>
   <g id="text_18">
    <g clip-path="url(#p17651dd9c6)">
     <!-- 2 -->
     <g transform="translate(616.896008 269.254921) scale(0.104 -0.104)">
      <use xlink:href="#DejaVuSans-32"/>
     </g>
    </g>
   </g>
   <g id="text_19">
    <g clip-path="url(#p17651dd9c6)">
     <!-- 0 -->
     <g transform="translate(663.250007 222.900922) scale(0.104 -0.104)">
      <use xlink:href="#DejaVuSans-30"/>
     </g>
    </g>
   </g>
   <g id="text_20">
    <g clip-path="url(#p17651dd9c6)">
     <!-- $\mathrm{\left|0\right\rangle}$ -->
     <g transform="translate(689.630507 140.578386) scale(0.13 -0.13)">
      <use xlink:href="#DejaVuSans-7c" transform="translate(0 16.625) scale(0.756406)"/>
      <use xlink:href="#DejaVuSans-30" transform="translate(25.479126 0.125)"/>
      <use xlink:href="#DejaVuSans-27e9" transform="translate(89.102173 0.125)"/>
     </g>
    </g>
   </g>
  </g>
 </g>
 <defs>
  <clipPath id="p17651dd9c6">
   <rect x="7.2" y="7.2" width="721.409147" height="296.665596"/>
  </clipPath>
 </defs>
</svg>
