<?xml version="1.0" encoding="utf-8" standalone="no"?>
<!DOCTYPE svg PUBLIC "-//W3C//DTD SVG 1.1//EN"
  "http://www.w3.org/Graphics/SVG/1.1/DTD/svg11.dtd">
<svg xmlns:xlink="http://www.w3.org/1999/xlink" width="1060.287142pt" height="357.419595pt" viewBox="0 0 1060.287142 357.419595" xmlns="http://www.w3.org/2000/svg" version="1.1">
 <metadata>
  <rdf:RDF xmlns:dc="http://purl.org/dc/elements/1.1/" xmlns:cc="http://creativecommons.org/ns#" xmlns:rdf="http://www.w3.org/1999/02/22-rdf-syntax-ns#">
   <cc:Work>
    <dc:type rdf:resource="http://purl.org/dc/dcmitype/StillImage"/>
    <dc:date>2025-02-21T02:43:30.323100</dc:date>
    <dc:format>image/svg+xml</dc:format>
    <dc:creator>
     <cc:Agent>
      <dc:title>Matplotlib v3.9.1, https://matplotlib.org/</dc:title>
     </cc:Agent>
    </dc:creator>
   </cc:Work>
  </rdf:RDF>
 </metadata>
 <defs>
  <style type="text/css">*{stroke-linejoin: round; stroke-linecap: butt}</style>
 </defs>
 <g id="figure_1">
  <g id="patch_1">
   <path d="M 0 357.419595 
L 1060.287142 357.419595 
L 1060.287142 0 
L 0 0 
z
" style="fill: #ffffff"/>
  </g>
  <g id="axes_1">
   <g id="line2d_1">
    <path d="M 70.382355 44.2832 
L 1048.451742 44.2832 
" clip-path="url(#p1224eef560)" style="fill: none; stroke: #000000; stroke-width: 2; stroke-linecap: square"/>
   </g>
   <g id="line2d_2">
    <path d="M 70.382355 90.637199 
L 1048.451742 90.637199 
" clip-path="url(#p1224eef560)" style="fill: none; stroke: #000000; stroke-width: 2; stroke-linecap: square"/>
   </g>
   <g id="line2d_3">
    <path d="M 70.382355 136.991198 
L 1048.451742 136.991198 
" clip-path="url(#p1224eef560)" style="fill: none; stroke: #000000; stroke-width: 2; stroke-linecap: square"/>
   </g>
   <g id="line2d_4">
    <path d="M 70.382355 183.345198 
L 1048.451742 183.345198 
" clip-path="url(#p1224eef560)" style="fill: none; stroke: #000000; stroke-width: 2; stroke-linecap: square"/>
   </g>
   <g id="line2d_5">
    <path d="M 70.382355 229.699197 
L 1048.451742 229.699197 
" clip-path="url(#p1224eef560)" style="fill: none; stroke: #000000; stroke-width: 2; stroke-linecap: square"/>
   </g>
   <g id="line2d_6">
    <path d="M 70.382355 276.053196 
L 1048.451742 276.053196 
" clip-path="url(#p1224eef560)" style="fill: none; stroke: #000000; stroke-width: 2; stroke-linecap: square"/>
   </g>
   <g id="line2d_7">
    <path d="M 79.653155 327.042596 
L 84.288555 317.771796 
" clip-path="url(#p1224eef560)" style="fill: none; stroke: #778899; stroke-width: 1.5; stroke-linecap: square"/>
   </g>
   <g id="line2d_8">
    <path d="M 70.382355 320.900691 
L 1048.451742 320.900691 
" clip-path="url(#p1224eef560)" style="fill: none; stroke: #778899; stroke-width: 2; stroke-linecap: square"/>
   </g>
   <g id="line2d_9">
    <path d="M 70.382355 323.913701 
L 1048.451742 323.913701 
" clip-path="url(#p1224eef560)" style="fill: none; stroke: #778899; stroke-width: 2; stroke-linecap: square"/>
   </g>
   <g id="patch_2">
    <path d="M 970.113483 311.861661 
L 982.165523 311.861661 
L 976.139503 320.553036 
z
" clip-path="url(#p1224eef560)" style="fill: #778899"/>
   </g>
   <g id="patch_3">
    <path d="M 1016.467483 311.861661 
L 1028.519523 311.861661 
L 1022.493503 320.553036 
z
" clip-path="url(#p1224eef560)" style="fill: #778899"/>
   </g>
   <g id="patch_4">
    <path d="M 65.746955 21.1062 
L -1093.103029 21.1062 
L -1093.103029 391.938195 
L 65.746955 391.938195 
z
" clip-path="url(#p1224eef560)" style="fill: #ffffff; stroke: #ffffff; stroke-width: 1.5; stroke-linejoin: miter"/>
   </g>
   <g id="line2d_10">
    <path d="M 141.767514 90.637199 
L 141.767514 44.2832 
" clip-path="url(#p1224eef560)" style="fill: none; stroke: #9f1853; stroke-width: 2; stroke-linecap: square"/>
   </g>
   <g id="line2d_11">
    <path d="M 188.121514 229.699197 
L 188.121514 44.2832 
" clip-path="url(#p1224eef560)" style="fill: none; stroke: #002d9c; stroke-width: 2; stroke-linecap: square"/>
   </g>
   <g id="line2d_12">
    <path d="M 234.475513 276.053196 
L 234.475513 44.2832 
" clip-path="url(#p1224eef560)" style="fill: none; stroke: #002d9c; stroke-width: 2; stroke-linecap: square"/>
   </g>
   <g id="line2d_13">
    <path d="M 280.829513 276.053196 
L 280.829513 44.2832 
" clip-path="url(#p1224eef560)" style="fill: none; stroke: #002d9c; stroke-width: 2; stroke-linecap: square"/>
   </g>
   <g id="line2d_14">
    <path d="M 280.829513 229.699197 
L 280.829513 276.053196 
" clip-path="url(#p1224eef560)" style="fill: none; stroke: #002d9c; stroke-width: 2; stroke-linecap: square"/>
   </g>
   <g id="line2d_15">
    <path d="M 327.183512 229.699197 
L 327.183512 136.991198 
" clip-path="url(#p1224eef560)" style="fill: none; stroke: #002d9c; stroke-width: 2; stroke-linecap: square"/>
   </g>
   <g id="line2d_16">
    <path d="M 373.537511 276.053196 
L 373.537511 183.345198 
" clip-path="url(#p1224eef560)" style="fill: none; stroke: #002d9c; stroke-width: 2; stroke-linecap: square"/>
   </g>
   <g id="line2d_17">
    <path d="M 419.891511 183.345198 
L 419.891511 44.2832 
" clip-path="url(#p1224eef560)" style="fill: none; stroke: #002d9c; stroke-width: 2; stroke-linecap: square"/>
   </g>
   <g id="line2d_18">
    <path d="M 419.891511 44.2832 
L 419.891511 183.345198 
" clip-path="url(#p1224eef560)" style="fill: none; stroke: #002d9c; stroke-width: 2; stroke-linecap: square"/>
   </g>
   <g id="line2d_19">
    <path d="M 466.24551 276.053196 
L 466.24551 44.2832 
" clip-path="url(#p1224eef560)" style="fill: none; stroke: #002d9c; stroke-width: 2; stroke-linecap: square"/>
   </g>
   <g id="line2d_20">
    <path d="M 466.24551 44.2832 
L 466.24551 276.053196 
" clip-path="url(#p1224eef560)" style="fill: none; stroke: #002d9c; stroke-width: 2; stroke-linecap: square"/>
   </g>
   <g id="line2d_21">
    <path d="M 512.599509 136.991198 
L 512.599509 44.2832 
" clip-path="url(#p1224eef560)" style="fill: none; stroke: #002d9c; stroke-width: 2; stroke-linecap: square"/>
   </g>
   <g id="line2d_22">
    <path d="M 558.953509 183.345198 
L 558.953509 90.637199 
" clip-path="url(#p1224eef560)" style="fill: none; stroke: #002d9c; stroke-width: 2; stroke-linecap: square"/>
   </g>
   <g id="line2d_23">
    <path d="M 605.307508 229.699197 
L 605.307508 136.991198 
" clip-path="url(#p1224eef560)" style="fill: none; stroke: #002d9c; stroke-width: 2; stroke-linecap: square"/>
   </g>
   <g id="line2d_24">
    <path d="M 605.307508 229.699197 
L 605.307508 183.345198 
" clip-path="url(#p1224eef560)" style="fill: none; stroke: #002d9c; stroke-width: 2; stroke-linecap: square"/>
   </g>
   <g id="line2d_25">
    <path d="M 651.661508 276.053196 
L 651.661508 90.637199 
" clip-path="url(#p1224eef560)" style="fill: none; stroke: #002d9c; stroke-width: 2; stroke-linecap: square"/>
   </g>
   <g id="line2d_26">
    <path d="M 651.661508 90.637199 
L 651.661508 276.053196 
" clip-path="url(#p1224eef560)" style="fill: none; stroke: #002d9c; stroke-width: 2; stroke-linecap: square"/>
   </g>
   <g id="line2d_27">
    <path d="M 698.015507 229.699197 
L 698.015507 136.991198 
" clip-path="url(#p1224eef560)" style="fill: none; stroke: #002d9c; stroke-width: 2; stroke-linecap: square"/>
   </g>
   <g id="line2d_28">
    <path d="M 698.015507 229.699197 
L 698.015507 183.345198 
" clip-path="url(#p1224eef560)" style="fill: none; stroke: #002d9c; stroke-width: 2; stroke-linecap: square"/>
   </g>
   <g id="line2d_29">
    <path d="M 744.369506 136.991198 
L 744.369506 44.2832 
" clip-path="url(#p1224eef560)" style="fill: none; stroke: #002d9c; stroke-width: 2; stroke-linecap: square"/>
   </g>
   <g id="line2d_30">
    <path d="M 744.369506 90.637199 
L 744.369506 44.2832 
" clip-path="url(#p1224eef560)" style="fill: none; stroke: #002d9c; stroke-width: 2; stroke-linecap: square"/>
   </g>
   <g id="line2d_31">
    <path d="M 790.723506 229.699197 
L 790.723506 44.2832 
" clip-path="url(#p1224eef560)" style="fill: none; stroke: #002d9c; stroke-width: 2; stroke-linecap: square"/>
   </g>
   <g id="line2d_32">
    <path d="M 790.723506 229.699197 
L 790.723506 44.2832 
" clip-path="url(#p1224eef560)" style="fill: none; stroke: #002d9c; stroke-width: 2; stroke-linecap: square"/>
   </g>
   <g id="line2d_33">
    <path d="M 837.077505 276.053196 
L 837.077505 136.991198 
" clip-path="url(#p1224eef560)" style="fill: none; stroke: #002d9c; stroke-width: 2; stroke-linecap: square"/>
   </g>
   <g id="line2d_34">
    <path d="M 837.077505 229.699197 
L 837.077505 276.053196 
" clip-path="url(#p1224eef560)" style="fill: none; stroke: #002d9c; stroke-width: 2; stroke-linecap: square"/>
   </g>
   <g id="line2d_35">
    <path d="M 883.431505 229.699197 
L 883.431505 90.637199 
" clip-path="url(#p1224eef560)" style="fill: none; stroke: #002d9c; stroke-width: 2; stroke-linecap: square"/>
   </g>
   <g id="line2d_36">
    <path d="M 929.785504 183.345198 
L 929.785504 136.991198 
" clip-path="url(#p1224eef560)" style="fill: none; stroke: #002d9c; stroke-width: 2; stroke-linecap: square"/>
   </g>
   <g id="line2d_37">
    <path d="M 977.646008 183.345198 
L 977.646008 311.861661 
" clip-path="url(#p1224eef560)" style="fill: none; stroke: #778899; stroke-width: 2; stroke-linecap: square"/>
   </g>
   <g id="line2d_38">
    <path d="M 974.632998 183.345198 
L 974.632998 311.861661 
" clip-path="url(#p1224eef560)" style="fill: none; stroke: #778899; stroke-width: 2; stroke-linecap: square"/>
   </g>
   <g id="line2d_39">
    <path d="M 1024.000008 90.637199 
L 1024.000008 311.861661 
" clip-path="url(#p1224eef560)" style="fill: none; stroke: #778899; stroke-width: 2; stroke-linecap: square"/>
   </g>
   <g id="line2d_40">
    <path d="M 1020.986998 90.637199 
L 1020.986998 311.861661 
" clip-path="url(#p1224eef560)" style="fill: none; stroke: #778899; stroke-width: 2; stroke-linecap: square"/>
   </g>
   <g id="line2d_41">
    <path d="M 274.803493 235.725217 
L 286.855532 223.673177 
" clip-path="url(#p1224eef560)" style="fill: none; stroke: #002d9c; stroke-width: 2; stroke-linecap: square"/>
   </g>
   <g id="line2d_42">
    <path d="M 274.803493 223.673177 
L 286.855532 235.725217 
" clip-path="url(#p1224eef560)" style="fill: none; stroke: #002d9c; stroke-width: 2; stroke-linecap: square"/>
   </g>
   <g id="line2d_43">
    <path d="M 274.803493 282.079216 
L 286.855532 270.027177 
" clip-path="url(#p1224eef560)" style="fill: none; stroke: #002d9c; stroke-width: 2; stroke-linecap: square"/>
   </g>
   <g id="line2d_44">
    <path d="M 274.803493 270.027177 
L 286.855532 282.079216 
" clip-path="url(#p1224eef560)" style="fill: none; stroke: #002d9c; stroke-width: 2; stroke-linecap: square"/>
   </g>
   <g id="line2d_45">
    <path d="M 413.865491 50.309219 
L 425.917531 38.25718 
" clip-path="url(#p1224eef560)" style="fill: none; stroke: #002d9c; stroke-width: 2; stroke-linecap: square"/>
   </g>
   <g id="line2d_46">
    <path d="M 413.865491 38.25718 
L 425.917531 50.309219 
" clip-path="url(#p1224eef560)" style="fill: none; stroke: #002d9c; stroke-width: 2; stroke-linecap: square"/>
   </g>
   <g id="line2d_47">
    <path d="M 413.865491 189.371218 
L 425.917531 177.319178 
" clip-path="url(#p1224eef560)" style="fill: none; stroke: #002d9c; stroke-width: 2; stroke-linecap: square"/>
   </g>
   <g id="line2d_48">
    <path d="M 413.865491 177.319178 
L 425.917531 189.371218 
" clip-path="url(#p1224eef560)" style="fill: none; stroke: #002d9c; stroke-width: 2; stroke-linecap: square"/>
   </g>
   <g id="line2d_49">
    <path d="M 460.21949 50.309219 
L 472.27153 38.25718 
" clip-path="url(#p1224eef560)" style="fill: none; stroke: #002d9c; stroke-width: 2; stroke-linecap: square"/>
   </g>
   <g id="line2d_50">
    <path d="M 460.21949 38.25718 
L 472.27153 50.309219 
" clip-path="url(#p1224eef560)" style="fill: none; stroke: #002d9c; stroke-width: 2; stroke-linecap: square"/>
   </g>
   <g id="line2d_51">
    <path d="M 460.21949 282.079216 
L 472.27153 270.027177 
" clip-path="url(#p1224eef560)" style="fill: none; stroke: #002d9c; stroke-width: 2; stroke-linecap: square"/>
   </g>
   <g id="line2d_52">
    <path d="M 460.21949 270.027177 
L 472.27153 282.079216 
" clip-path="url(#p1224eef560)" style="fill: none; stroke: #002d9c; stroke-width: 2; stroke-linecap: square"/>
   </g>
   <g id="line2d_53">
    <path d="M 599.281488 235.725217 
L 611.333528 223.673177 
" clip-path="url(#p1224eef560)" style="fill: none; stroke: #002d9c; stroke-width: 2; stroke-linecap: square"/>
   </g>
   <g id="line2d_54">
    <path d="M 599.281488 223.673177 
L 611.333528 235.725217 
" clip-path="url(#p1224eef560)" style="fill: none; stroke: #002d9c; stroke-width: 2; stroke-linecap: square"/>
   </g>
   <g id="line2d_55">
    <path d="M 599.281488 189.371218 
L 611.333528 177.319178 
" clip-path="url(#p1224eef560)" style="fill: none; stroke: #002d9c; stroke-width: 2; stroke-linecap: square"/>
   </g>
   <g id="line2d_56">
    <path d="M 599.281488 177.319178 
L 611.333528 189.371218 
" clip-path="url(#p1224eef560)" style="fill: none; stroke: #002d9c; stroke-width: 2; stroke-linecap: square"/>
   </g>
   <g id="line2d_57">
    <path d="M 645.635488 96.663219 
L 657.687528 84.611179 
" clip-path="url(#p1224eef560)" style="fill: none; stroke: #002d9c; stroke-width: 2; stroke-linecap: square"/>
   </g>
   <g id="line2d_58">
    <path d="M 645.635488 84.611179 
L 657.687528 96.663219 
" clip-path="url(#p1224eef560)" style="fill: none; stroke: #002d9c; stroke-width: 2; stroke-linecap: square"/>
   </g>
   <g id="line2d_59">
    <path d="M 645.635488 282.079216 
L 657.687528 270.027177 
" clip-path="url(#p1224eef560)" style="fill: none; stroke: #002d9c; stroke-width: 2; stroke-linecap: square"/>
   </g>
   <g id="line2d_60">
    <path d="M 645.635488 270.027177 
L 657.687528 282.079216 
" clip-path="url(#p1224eef560)" style="fill: none; stroke: #002d9c; stroke-width: 2; stroke-linecap: square"/>
   </g>
   <g id="line2d_61">
    <path d="M 691.989487 235.725217 
L 704.041527 223.673177 
" clip-path="url(#p1224eef560)" style="fill: none; stroke: #002d9c; stroke-width: 2; stroke-linecap: square"/>
   </g>
   <g id="line2d_62">
    <path d="M 691.989487 223.673177 
L 704.041527 235.725217 
" clip-path="url(#p1224eef560)" style="fill: none; stroke: #002d9c; stroke-width: 2; stroke-linecap: square"/>
   </g>
   <g id="line2d_63">
    <path d="M 691.989487 189.371218 
L 704.041527 177.319178 
" clip-path="url(#p1224eef560)" style="fill: none; stroke: #002d9c; stroke-width: 2; stroke-linecap: square"/>
   </g>
   <g id="line2d_64">
    <path d="M 691.989487 177.319178 
L 704.041527 189.371218 
" clip-path="url(#p1224eef560)" style="fill: none; stroke: #002d9c; stroke-width: 2; stroke-linecap: square"/>
   </g>
   <g id="line2d_65">
    <path d="M 738.343486 96.663219 
L 750.395526 84.611179 
" clip-path="url(#p1224eef560)" style="fill: none; stroke: #002d9c; stroke-width: 2; stroke-linecap: square"/>
   </g>
   <g id="line2d_66">
    <path d="M 738.343486 84.611179 
L 750.395526 96.663219 
" clip-path="url(#p1224eef560)" style="fill: none; stroke: #002d9c; stroke-width: 2; stroke-linecap: square"/>
   </g>
   <g id="line2d_67">
    <path d="M 738.343486 50.309219 
L 750.395526 38.25718 
" clip-path="url(#p1224eef560)" style="fill: none; stroke: #002d9c; stroke-width: 2; stroke-linecap: square"/>
   </g>
   <g id="line2d_68">
    <path d="M 738.343486 38.25718 
L 750.395526 50.309219 
" clip-path="url(#p1224eef560)" style="fill: none; stroke: #002d9c; stroke-width: 2; stroke-linecap: square"/>
   </g>
   <g id="line2d_69">
    <path d="M 784.697486 235.725217 
L 796.749526 223.673177 
" clip-path="url(#p1224eef560)" style="fill: none; stroke: #002d9c; stroke-width: 2; stroke-linecap: square"/>
   </g>
   <g id="line2d_70">
    <path d="M 784.697486 223.673177 
L 796.749526 235.725217 
" clip-path="url(#p1224eef560)" style="fill: none; stroke: #002d9c; stroke-width: 2; stroke-linecap: square"/>
   </g>
   <g id="line2d_71">
    <path d="M 784.697486 50.309219 
L 796.749526 38.25718 
" clip-path="url(#p1224eef560)" style="fill: none; stroke: #002d9c; stroke-width: 2; stroke-linecap: square"/>
   </g>
   <g id="line2d_72">
    <path d="M 784.697486 38.25718 
L 796.749526 50.309219 
" clip-path="url(#p1224eef560)" style="fill: none; stroke: #002d9c; stroke-width: 2; stroke-linecap: square"/>
   </g>
   <g id="line2d_73">
    <path d="M 831.051485 235.725217 
L 843.103525 223.673177 
" clip-path="url(#p1224eef560)" style="fill: none; stroke: #002d9c; stroke-width: 2; stroke-linecap: square"/>
   </g>
   <g id="line2d_74">
    <path d="M 831.051485 223.673177 
L 843.103525 235.725217 
" clip-path="url(#p1224eef560)" style="fill: none; stroke: #002d9c; stroke-width: 2; stroke-linecap: square"/>
   </g>
   <g id="line2d_75">
    <path d="M 831.051485 282.079216 
L 843.103525 270.027177 
" clip-path="url(#p1224eef560)" style="fill: none; stroke: #002d9c; stroke-width: 2; stroke-linecap: square"/>
   </g>
   <g id="line2d_76">
    <path d="M 831.051485 270.027177 
L 843.103525 282.079216 
" clip-path="url(#p1224eef560)" style="fill: none; stroke: #002d9c; stroke-width: 2; stroke-linecap: square"/>
   </g>
   <g id="patch_5">
    <path d="M 75.036297 59.348249 
L 115.790733 59.348249 
L 115.790733 29.21815 
L 75.036297 29.21815 
z
" clip-path="url(#p1224eef560)" style="fill: #9f1853; stroke: #9f1853; stroke-width: 1.5; stroke-linejoin: miter"/>
   </g>
   <g id="patch_6">
    <path d="M 141.767514 48.802714 
C 142.966104 48.802714 144.115763 48.32651 144.963294 47.478979 
C 145.810825 46.631448 146.287029 45.481789 146.287029 44.2832 
C 146.287029 43.08461 145.810825 41.934951 144.963294 41.08742 
C 144.115763 40.239889 142.966104 39.763685 141.767514 39.763685 
C 140.568925 39.763685 139.419265 40.239889 138.571735 41.08742 
C 137.724204 41.934951 137.247999 43.08461 137.247999 44.2832 
C 137.247999 45.481789 137.724204 46.631448 138.571735 47.478979 
C 139.419265 48.32651 140.568925 48.802714 141.767514 48.802714 
z
" clip-path="url(#p1224eef560)" style="fill: #9f1853; stroke: #9f1853; stroke-width: 1.5; stroke-linejoin: miter"/>
   </g>
   <g id="patch_7">
    <path d="M 126.702465 105.702249 
L 156.832564 105.702249 
L 156.832564 75.572149 
L 126.702465 75.572149 
z
" clip-path="url(#p1224eef560)" style="fill: #9f1853; stroke: #9f1853; stroke-width: 1.5; stroke-linejoin: miter"/>
   </g>
   <g id="patch_8">
    <path d="M 188.121514 48.802714 
C 189.320103 48.802714 190.469763 48.32651 191.317293 47.478979 
C 192.164824 46.631448 192.641029 45.481789 192.641029 44.2832 
C 192.641029 43.08461 192.164824 41.934951 191.317293 41.08742 
C 190.469763 40.239889 189.320103 39.763685 188.121514 39.763685 
C 186.922924 39.763685 185.773265 40.239889 184.925734 41.08742 
C 184.078203 41.934951 183.601999 43.08461 183.601999 44.2832 
C 183.601999 45.481789 184.078203 46.631448 184.925734 47.478979 
C 185.773265 48.32651 186.922924 48.802714 188.121514 48.802714 
z
" clip-path="url(#p1224eef560)" style="fill: #002d9c; stroke: #002d9c; stroke-width: 1.5; stroke-linejoin: miter"/>
   </g>
   <g id="patch_9">
    <path d="M 188.121514 95.156714 
C 189.320103 95.156714 190.469763 94.680509 191.317293 93.832979 
C 192.164824 92.985448 192.641029 91.835788 192.641029 90.637199 
C 192.641029 89.43861 192.164824 88.28895 191.317293 87.441419 
C 190.469763 86.593889 189.320103 86.117684 188.121514 86.117684 
C 186.922924 86.117684 185.773265 86.593889 184.925734 87.441419 
C 184.078203 88.28895 183.601999 89.43861 183.601999 90.637199 
C 183.601999 91.835788 184.078203 92.985448 184.925734 93.832979 
C 185.773265 94.680509 186.922924 95.156714 188.121514 95.156714 
z
" clip-path="url(#p1224eef560)" style="fill: #002d9c; stroke: #002d9c; stroke-width: 1.5; stroke-linejoin: miter"/>
   </g>
   <g id="patch_10">
    <path d="M 188.121514 240.244732 
C 190.918222 240.244732 193.600761 239.133588 195.578333 237.156016 
C 197.555905 235.178445 198.667049 232.495906 198.667049 229.699197 
C 198.667049 226.902489 197.555905 224.219949 195.578333 222.242378 
C 193.600761 220.264806 190.918222 219.153662 188.121514 219.153662 
C 185.324805 219.153662 182.642266 220.264806 180.664695 222.242378 
C 178.687123 224.219949 177.575979 226.902489 177.575979 229.699197 
C 177.575979 232.495906 178.687123 235.178445 180.664695 237.156016 
C 182.642266 239.133588 185.324805 240.244732 188.121514 240.244732 
z
" clip-path="url(#p1224eef560)" style="fill: #002d9c; stroke: #002d9c; stroke-width: 2; stroke-linejoin: miter"/>
   </g>
   <g id="patch_11">
    <path d="M 234.475513 48.802714 
C 235.674103 48.802714 236.823762 48.32651 237.671293 47.478979 
C 238.518823 46.631448 238.995028 45.481789 238.995028 44.2832 
C 238.995028 43.08461 238.518823 41.934951 237.671293 41.08742 
C 236.823762 40.239889 235.674103 39.763685 234.475513 39.763685 
C 233.276924 39.763685 232.127264 40.239889 231.279733 41.08742 
C 230.432203 41.934951 229.955998 43.08461 229.955998 44.2832 
C 229.955998 45.481789 230.432203 46.631448 231.279733 47.478979 
C 232.127264 48.32651 233.276924 48.802714 234.475513 48.802714 
z
" clip-path="url(#p1224eef560)" style="fill: #002d9c; stroke: #002d9c; stroke-width: 1.5; stroke-linejoin: miter"/>
   </g>
   <g id="patch_12">
    <path d="M 234.475513 286.598731 
C 237.272222 286.598731 239.954761 285.487587 241.932332 283.510016 
C 243.909904 281.532444 245.021048 278.849905 245.021048 276.053196 
C 245.021048 273.256488 243.909904 270.573949 241.932332 268.596377 
C 239.954761 266.618806 237.272222 265.507662 234.475513 265.507662 
C 231.678805 265.507662 228.996265 266.618806 227.018694 268.596377 
C 225.041122 270.573949 223.929978 273.256488 223.929978 276.053196 
C 223.929978 278.849905 225.041122 281.532444 227.018694 283.510016 
C 228.996265 285.487587 231.678805 286.598731 234.475513 286.598731 
z
" clip-path="url(#p1224eef560)" style="fill: #002d9c; stroke: #002d9c; stroke-width: 2; stroke-linejoin: miter"/>
   </g>
   <g id="patch_13">
    <path d="M 280.829513 48.802714 
C 282.028102 48.802714 283.177762 48.32651 284.025292 47.478979 
C 284.872823 46.631448 285.349027 45.481789 285.349027 44.2832 
C 285.349027 43.08461 284.872823 41.934951 284.025292 41.08742 
C 283.177762 40.239889 282.028102 39.763685 280.829513 39.763685 
C 279.630923 39.763685 278.481264 40.239889 277.633733 41.08742 
C 276.786202 41.934951 276.309998 43.08461 276.309998 44.2832 
C 276.309998 45.481789 276.786202 46.631448 277.633733 47.478979 
C 278.481264 48.32651 279.630923 48.802714 280.829513 48.802714 
z
" clip-path="url(#p1224eef560)" style="fill: #002d9c; stroke: #002d9c; stroke-width: 1.5; stroke-linejoin: miter"/>
   </g>
   <g id="patch_14">
    <path d="M 327.183512 234.218712 
C 328.382101 234.218712 329.531761 233.742507 330.379292 232.894977 
C 331.226822 232.047446 331.703027 230.897786 331.703027 229.699197 
C 331.703027 228.500608 331.226822 227.350948 330.379292 226.503417 
C 329.531761 225.655887 328.382101 225.179682 327.183512 225.179682 
C 325.984923 225.179682 324.835263 225.655887 323.987732 226.503417 
C 323.140202 227.350948 322.663997 228.500608 322.663997 229.699197 
C 322.663997 230.897786 323.140202 232.047446 323.987732 232.894977 
C 324.835263 233.742507 325.984923 234.218712 327.183512 234.218712 
z
" clip-path="url(#p1224eef560)" style="fill: #002d9c; stroke: #002d9c; stroke-width: 1.5; stroke-linejoin: miter"/>
   </g>
   <g id="patch_15">
    <path d="M 327.183512 147.536733 
C 329.98022 147.536733 332.66276 146.425589 334.640331 144.448017 
C 336.617903 142.470446 337.729047 139.787907 337.729047 136.991198 
C 337.729047 134.19449 336.617903 131.511951 334.640331 129.534379 
C 332.66276 127.556807 329.98022 126.445663 327.183512 126.445663 
C 324.386803 126.445663 321.704264 127.556807 319.726693 129.534379 
C 317.749121 131.511951 316.637977 134.19449 316.637977 136.991198 
C 316.637977 139.787907 317.749121 142.470446 319.726693 144.448017 
C 321.704264 146.425589 324.386803 147.536733 327.183512 147.536733 
z
" clip-path="url(#p1224eef560)" style="fill: #002d9c; stroke: #002d9c; stroke-width: 2; stroke-linejoin: miter"/>
   </g>
   <g id="patch_16">
    <path d="M 373.537511 280.572711 
C 374.736101 280.572711 375.88576 280.096507 376.733291 279.248976 
C 377.580822 278.401445 378.057026 277.251786 378.057026 276.053196 
C 378.057026 274.854607 377.580822 273.704947 376.733291 272.857417 
C 375.88576 272.009886 374.736101 271.533681 373.537511 271.533681 
C 372.338922 271.533681 371.189262 272.009886 370.341732 272.857417 
C 369.494201 273.704947 369.017996 274.854607 369.017996 276.053196 
C 369.017996 277.251786 369.494201 278.401445 370.341732 279.248976 
C 371.189262 280.096507 372.338922 280.572711 373.537511 280.572711 
z
" clip-path="url(#p1224eef560)" style="fill: #002d9c; stroke: #002d9c; stroke-width: 1.5; stroke-linejoin: miter"/>
   </g>
   <g id="patch_17">
    <path d="M 373.537511 193.890733 
C 376.33422 193.890733 379.016759 192.779588 380.994331 190.802017 
C 382.971902 188.824445 384.083046 186.141906 384.083046 183.345198 
C 384.083046 180.548489 382.971902 177.86595 380.994331 175.888378 
C 379.016759 173.910807 376.33422 172.799663 373.537511 172.799663 
C 370.740803 172.799663 368.058264 173.910807 366.080692 175.888378 
C 364.103121 177.86595 362.991976 180.548489 362.991976 183.345198 
C 362.991976 186.141906 364.103121 188.824445 366.080692 190.802017 
C 368.058264 192.779588 370.740803 193.890733 373.537511 193.890733 
z
" clip-path="url(#p1224eef560)" style="fill: #002d9c; stroke: #002d9c; stroke-width: 2; stroke-linejoin: miter"/>
   </g>
   <g id="patch_18">
    <path d="M 419.891511 141.510713 
C 421.0901 141.510713 422.23976 141.034509 423.08729 140.186978 
C 423.934821 139.339447 424.411026 138.189788 424.411026 136.991198 
C 424.411026 135.792609 423.934821 134.642949 423.08729 133.795419 
C 422.23976 132.947888 421.0901 132.471683 419.891511 132.471683 
C 418.692921 132.471683 417.543262 132.947888 416.695731 133.795419 
C 415.8482 134.642949 415.371996 135.792609 415.371996 136.991198 
C 415.371996 138.189788 415.8482 139.339447 416.695731 140.186978 
C 417.543262 141.034509 418.692921 141.510713 419.891511 141.510713 
z
" clip-path="url(#p1224eef560)" style="fill: #ffffff; stroke: #002d9c; stroke-width: 1.5; stroke-linejoin: miter"/>
   </g>
   <g id="patch_19">
    <path d="M 466.24551 141.510713 
C 467.444099 141.510713 468.593759 141.034509 469.44129 140.186978 
C 470.28882 139.339447 470.765025 138.189788 470.765025 136.991198 
C 470.765025 135.792609 470.28882 134.642949 469.44129 133.795419 
C 468.593759 132.947888 467.444099 132.471683 466.24551 132.471683 
C 465.046921 132.471683 463.897261 132.947888 463.04973 133.795419 
C 462.2022 134.642949 461.725995 135.792609 461.725995 136.991198 
C 461.725995 138.189788 462.2022 139.339447 463.04973 140.186978 
C 463.897261 141.034509 465.046921 141.510713 466.24551 141.510713 
z
" clip-path="url(#p1224eef560)" style="fill: #ffffff; stroke: #002d9c; stroke-width: 1.5; stroke-linejoin: miter"/>
   </g>
   <g id="patch_20">
    <path d="M 512.599509 141.510713 
C 513.798099 141.510713 514.947758 141.034509 515.795289 140.186978 
C 516.64282 139.339447 517.119024 138.189788 517.119024 136.991198 
C 517.119024 135.792609 516.64282 134.642949 515.795289 133.795419 
C 514.947758 132.947888 513.798099 132.471683 512.599509 132.471683 
C 511.40092 132.471683 510.25126 132.947888 509.40373 133.795419 
C 508.556199 134.642949 508.079995 135.792609 508.079995 136.991198 
C 508.079995 138.189788 508.556199 139.339447 509.40373 140.186978 
C 510.25126 141.034509 511.40092 141.510713 512.599509 141.510713 
z
" clip-path="url(#p1224eef560)" style="fill: #002d9c; stroke: #002d9c; stroke-width: 1.5; stroke-linejoin: miter"/>
   </g>
   <g id="patch_21">
    <path d="M 512.599509 54.828734 
C 515.396218 54.828734 518.078757 53.71759 520.056329 51.740019 
C 522.0339 49.762447 523.145044 47.079908 523.145044 44.2832 
C 523.145044 41.486491 522.0339 38.803952 520.056329 36.82638 
C 518.078757 34.848809 515.396218 33.737665 512.599509 33.737665 
C 509.802801 33.737665 507.120262 34.848809 505.14269 36.82638 
C 503.165119 38.803952 502.053975 41.486491 502.053975 44.2832 
C 502.053975 47.079908 503.165119 49.762447 505.14269 51.740019 
C 507.120262 53.71759 509.802801 54.828734 512.599509 54.828734 
z
" clip-path="url(#p1224eef560)" style="fill: #002d9c; stroke: #002d9c; stroke-width: 2; stroke-linejoin: miter"/>
   </g>
   <g id="patch_22">
    <path d="M 558.953509 141.510713 
C 560.152098 141.510713 561.301758 141.034509 562.149288 140.186978 
C 562.996819 139.339447 563.473024 138.189788 563.473024 136.991198 
C 563.473024 135.792609 562.996819 134.642949 562.149288 133.795419 
C 561.301758 132.947888 560.152098 132.471683 558.953509 132.471683 
C 557.754919 132.471683 556.60526 132.947888 555.757729 133.795419 
C 554.910198 134.642949 554.433994 135.792609 554.433994 136.991198 
C 554.433994 138.189788 554.910198 139.339447 555.757729 140.186978 
C 556.60526 141.034509 557.754919 141.510713 558.953509 141.510713 
z
" clip-path="url(#p1224eef560)" style="fill: #002d9c; stroke: #002d9c; stroke-width: 1.5; stroke-linejoin: miter"/>
   </g>
   <g id="patch_23">
    <path d="M 558.953509 187.864713 
C 560.152098 187.864713 561.301758 187.388508 562.149288 186.540977 
C 562.996819 185.693447 563.473024 184.543787 563.473024 183.345198 
C 563.473024 182.146608 562.996819 180.996949 562.149288 180.149418 
C 561.301758 179.301887 560.152098 178.825683 558.953509 178.825683 
C 557.754919 178.825683 556.60526 179.301887 555.757729 180.149418 
C 554.910198 180.996949 554.433994 182.146608 554.433994 183.345198 
C 554.433994 184.543787 554.910198 185.693447 555.757729 186.540977 
C 556.60526 187.388508 557.754919 187.864713 558.953509 187.864713 
z
" clip-path="url(#p1224eef560)" style="fill: #002d9c; stroke: #002d9c; stroke-width: 1.5; stroke-linejoin: miter"/>
   </g>
   <g id="patch_24">
    <path d="M 558.953509 101.182734 
C 561.750217 101.182734 564.432756 100.07159 566.410328 98.094018 
C 568.3879 96.116447 569.499044 93.433907 569.499044 90.637199 
C 569.499044 87.84049 568.3879 85.157951 566.410328 83.18038 
C 564.432756 81.202808 561.750217 80.091664 558.953509 80.091664 
C 556.1568 80.091664 553.474261 81.202808 551.49669 83.18038 
C 549.519118 85.157951 548.407974 87.84049 548.407974 90.637199 
C 548.407974 93.433907 549.519118 96.116447 551.49669 98.094018 
C 553.474261 100.07159 556.1568 101.182734 558.953509 101.182734 
z
" clip-path="url(#p1224eef560)" style="fill: #002d9c; stroke: #002d9c; stroke-width: 2; stroke-linejoin: miter"/>
   </g>
   <g id="patch_25">
    <path d="M 605.307508 141.510713 
C 606.506098 141.510713 607.655757 141.034509 608.503288 140.186978 
C 609.350819 139.339447 609.827023 138.189788 609.827023 136.991198 
C 609.827023 135.792609 609.350819 134.642949 608.503288 133.795419 
C 607.655757 132.947888 606.506098 132.471683 605.307508 132.471683 
C 604.108919 132.471683 602.959259 132.947888 602.111729 133.795419 
C 601.264198 134.642949 600.787993 135.792609 600.787993 136.991198 
C 600.787993 138.189788 601.264198 139.339447 602.111729 140.186978 
C 602.959259 141.034509 604.108919 141.510713 605.307508 141.510713 
z
" clip-path="url(#p1224eef560)" style="fill: #002d9c; stroke: #002d9c; stroke-width: 1.5; stroke-linejoin: miter"/>
   </g>
   <g id="patch_26">
    <path d="M 651.661508 141.510713 
C 652.860097 141.510713 654.009757 141.034509 654.857287 140.186978 
C 655.704818 139.339447 656.181023 138.189788 656.181023 136.991198 
C 656.181023 135.792609 655.704818 134.642949 654.857287 133.795419 
C 654.009757 132.947888 652.860097 132.471683 651.661508 132.471683 
C 650.462918 132.471683 649.313259 132.947888 648.465728 133.795419 
C 647.618197 134.642949 647.141993 135.792609 647.141993 136.991198 
C 647.141993 138.189788 647.618197 139.339447 648.465728 140.186978 
C 649.313259 141.034509 650.462918 141.510713 651.661508 141.510713 
z
" clip-path="url(#p1224eef560)" style="fill: #002d9c; stroke: #002d9c; stroke-width: 1.5; stroke-linejoin: miter"/>
   </g>
   <g id="patch_27">
    <path d="M 698.015507 141.510713 
C 699.214096 141.510713 700.363756 141.034509 701.211287 140.186978 
C 702.058817 139.339447 702.535022 138.189788 702.535022 136.991198 
C 702.535022 135.792609 702.058817 134.642949 701.211287 133.795419 
C 700.363756 132.947888 699.214096 132.471683 698.015507 132.471683 
C 696.816918 132.471683 695.667258 132.947888 694.819727 133.795419 
C 693.972197 134.642949 693.495992 135.792609 693.495992 136.991198 
C 693.495992 138.189788 693.972197 139.339447 694.819727 140.186978 
C 695.667258 141.034509 696.816918 141.510713 698.015507 141.510713 
z
" clip-path="url(#p1224eef560)" style="fill: #ffffff; stroke: #002d9c; stroke-width: 1.5; stroke-linejoin: miter"/>
   </g>
   <g id="patch_28">
    <path d="M 744.369506 141.510713 
C 745.568096 141.510713 746.717755 141.034509 747.565286 140.186978 
C 748.412817 139.339447 748.889021 138.189788 748.889021 136.991198 
C 748.889021 135.792609 748.412817 134.642949 747.565286 133.795419 
C 746.717755 132.947888 745.568096 132.471683 744.369506 132.471683 
C 743.170917 132.471683 742.021257 132.947888 741.173727 133.795419 
C 740.326196 134.642949 739.849991 135.792609 739.849991 136.991198 
C 739.849991 138.189788 740.326196 139.339447 741.173727 140.186978 
C 742.021257 141.034509 743.170917 141.510713 744.369506 141.510713 
z
" clip-path="url(#p1224eef560)" style="fill: #ffffff; stroke: #002d9c; stroke-width: 1.5; stroke-linejoin: miter"/>
   </g>
   <g id="patch_29">
    <path d="M 790.723506 141.510713 
C 791.922095 141.510713 793.071755 141.034509 793.919285 140.186978 
C 794.766816 139.339447 795.243021 138.189788 795.243021 136.991198 
C 795.243021 135.792609 794.766816 134.642949 793.919285 133.795419 
C 793.071755 132.947888 791.922095 132.471683 790.723506 132.471683 
C 789.524916 132.471683 788.375257 132.947888 787.527726 133.795419 
C 786.680195 134.642949 786.203991 135.792609 786.203991 136.991198 
C 786.203991 138.189788 786.680195 139.339447 787.527726 140.186978 
C 788.375257 141.034509 789.524916 141.510713 790.723506 141.510713 
z
" clip-path="url(#p1224eef560)" style="fill: #ffffff; stroke: #002d9c; stroke-width: 1.5; stroke-linejoin: miter"/>
   </g>
   <g id="patch_30">
    <path d="M 837.077505 141.510713 
C 838.276095 141.510713 839.425754 141.034509 840.273285 140.186978 
C 841.120815 139.339447 841.59702 138.189788 841.59702 136.991198 
C 841.59702 135.792609 841.120815 134.642949 840.273285 133.795419 
C 839.425754 132.947888 838.276095 132.471683 837.077505 132.471683 
C 835.878916 132.471683 834.729256 132.947888 833.881725 133.795419 
C 833.034195 134.642949 832.55799 135.792609 832.55799 136.991198 
C 832.55799 138.189788 833.034195 139.339447 833.881725 140.186978 
C 834.729256 141.034509 835.878916 141.510713 837.077505 141.510713 
z
" clip-path="url(#p1224eef560)" style="fill: #ffffff; stroke: #002d9c; stroke-width: 1.5; stroke-linejoin: miter"/>
   </g>
   <g id="patch_31">
    <path d="M 883.431505 95.156714 
C 884.630094 95.156714 885.779754 94.680509 886.627284 93.832979 
C 887.474815 92.985448 887.951019 91.835788 887.951019 90.637199 
C 887.951019 89.43861 887.474815 88.28895 886.627284 87.441419 
C 885.779754 86.593889 884.630094 86.117684 883.431505 86.117684 
C 882.232915 86.117684 881.083256 86.593889 880.235725 87.441419 
C 879.388194 88.28895 878.91199 89.43861 878.91199 90.637199 
C 878.91199 91.835788 879.388194 92.985448 880.235725 93.832979 
C 881.083256 94.680509 882.232915 95.156714 883.431505 95.156714 
z
" clip-path="url(#p1224eef560)" style="fill: #002d9c; stroke: #002d9c; stroke-width: 1.5; stroke-linejoin: miter"/>
   </g>
   <g id="patch_32">
    <path d="M 883.431505 240.244732 
C 886.228213 240.244732 888.910752 239.133588 890.888324 237.156016 
C 892.865895 235.178445 893.977039 232.495906 893.977039 229.699197 
C 893.977039 226.902489 892.865895 224.219949 890.888324 222.242378 
C 888.910752 220.264806 886.228213 219.153662 883.431505 219.153662 
C 880.634796 219.153662 877.952257 220.264806 875.974685 222.242378 
C 873.997114 224.219949 872.88597 226.902489 872.88597 229.699197 
C 872.88597 232.495906 873.997114 235.178445 875.974685 237.156016 
C 877.952257 239.133588 880.634796 240.244732 883.431505 240.244732 
z
" clip-path="url(#p1224eef560)" style="fill: #002d9c; stroke: #002d9c; stroke-width: 2; stroke-linejoin: miter"/>
   </g>
   <g id="patch_33">
    <path d="M 929.785504 187.864713 
C 930.984093 187.864713 932.133753 187.388508 932.981284 186.540977 
C 933.828814 185.693447 934.305019 184.543787 934.305019 183.345198 
C 934.305019 182.146608 933.828814 180.996949 932.981284 180.149418 
C 932.133753 179.301887 930.984093 178.825683 929.785504 178.825683 
C 928.586915 178.825683 927.437255 179.301887 926.589724 180.149418 
C 925.742194 180.996949 925.265989 182.146608 925.265989 183.345198 
C 925.265989 184.543787 925.742194 185.693447 926.589724 186.540977 
C 927.437255 187.388508 928.586915 187.864713 929.785504 187.864713 
z
" clip-path="url(#p1224eef560)" style="fill: #002d9c; stroke: #002d9c; stroke-width: 1.5; stroke-linejoin: miter"/>
   </g>
   <g id="patch_34">
    <path d="M 929.785504 147.536733 
C 932.582212 147.536733 935.264752 146.425589 937.242323 144.448017 
C 939.219895 142.470446 940.331039 139.787907 940.331039 136.991198 
C 940.331039 134.19449 939.219895 131.511951 937.242323 129.534379 
C 935.264752 127.556807 932.582212 126.445663 929.785504 126.445663 
C 926.988795 126.445663 924.306256 127.556807 922.328685 129.534379 
C 920.351113 131.511951 919.239969 134.19449 919.239969 136.991198 
C 919.239969 139.787907 920.351113 142.470446 922.328685 144.448017 
C 924.306256 146.425589 926.988795 147.536733 929.785504 147.536733 
z
" clip-path="url(#p1224eef560)" style="fill: #002d9c; stroke: #002d9c; stroke-width: 2; stroke-linejoin: miter"/>
   </g>
   <g id="patch_35">
    <path d="M 961.074453 198.410247 
L 991.204553 198.410247 
L 991.204553 168.280148 
L 961.074453 168.280148 
z
" clip-path="url(#p1224eef560)" style="fill: #a8a8a8; stroke: #a8a8a8; stroke-width: 1.5; stroke-linejoin: miter"/>
   </g>
   <g id="patch_36">
    <path d="M 986.685038 187.864713 
C 986.685038 185.068936 985.573235 182.384806 983.596322 180.407893 
C 981.61941 178.43098 978.93528 177.319178 976.139503 177.319178 
C 973.343726 177.319178 970.659597 178.43098 968.682684 180.407893 
C 966.705771 182.384806 965.593968 185.068936 965.593968 187.864713 
" clip-path="url(#p1224eef560)" style="fill: none; stroke: #000000; stroke-width: 2; stroke-linejoin: miter"/>
   </g>
   <g id="line2d_77">
    <path d="M 976.139503 187.864713 
L 986.685038 177.319178 
" clip-path="url(#p1224eef560)" style="fill: none; stroke: #000000; stroke-width: 2; stroke-linecap: square"/>
   </g>
   <g id="patch_37">
    <path d="M 1007.428453 105.702249 
L 1037.558552 105.702249 
L 1037.558552 75.572149 
L 1007.428453 75.572149 
z
" clip-path="url(#p1224eef560)" style="fill: #a8a8a8; stroke: #a8a8a8; stroke-width: 1.5; stroke-linejoin: miter"/>
   </g>
   <g id="patch_38">
    <path d="M 1033.039038 95.156714 
C 1033.039038 92.360937 1031.927235 89.676808 1029.950322 87.699895 
C 1027.973409 85.722982 1025.28928 84.611179 1022.493503 84.611179 
C 1019.697726 84.611179 1017.013596 85.722982 1015.036683 87.699895 
C 1013.059771 89.676808 1011.947968 92.360937 1011.947968 95.156714 
" clip-path="url(#p1224eef560)" style="fill: none; stroke: #000000; stroke-width: 2; stroke-linejoin: miter"/>
   </g>
   <g id="line2d_78">
    <path d="M 1022.493503 95.156714 
L 1033.039038 84.611179 
" clip-path="url(#p1224eef560)" style="fill: none; stroke: #000000; stroke-width: 2; stroke-linecap: square"/>
   </g>
   <g id="line2d_79">
    <path d="M 188.121514 235.725217 
L 188.121514 223.673177 
" clip-path="url(#p1224eef560)" style="fill: none; stroke: #ffffff; stroke-width: 2; stroke-linecap: square"/>
   </g>
   <g id="line2d_80">
    <path d="M 182.095494 229.699197 
L 194.147534 229.699197 
" clip-path="url(#p1224eef560)" style="fill: none; stroke: #ffffff; stroke-width: 2; stroke-linecap: square"/>
   </g>
   <g id="line2d_81">
    <path d="M 234.475513 282.079216 
L 234.475513 270.027177 
" clip-path="url(#p1224eef560)" style="fill: none; stroke: #ffffff; stroke-width: 2; stroke-linecap: square"/>
   </g>
   <g id="line2d_82">
    <path d="M 228.449493 276.053196 
L 240.501533 276.053196 
" clip-path="url(#p1224eef560)" style="fill: none; stroke: #ffffff; stroke-width: 2; stroke-linecap: square"/>
   </g>
   <g id="line2d_83">
    <path d="M 327.183512 143.017218 
L 327.183512 130.965178 
" clip-path="url(#p1224eef560)" style="fill: none; stroke: #ffffff; stroke-width: 2; stroke-linecap: square"/>
   </g>
   <g id="line2d_84">
    <path d="M 321.157492 136.991198 
L 333.209532 136.991198 
" clip-path="url(#p1224eef560)" style="fill: none; stroke: #ffffff; stroke-width: 2; stroke-linecap: square"/>
   </g>
   <g id="line2d_85">
    <path d="M 373.537511 189.371218 
L 373.537511 177.319178 
" clip-path="url(#p1224eef560)" style="fill: none; stroke: #ffffff; stroke-width: 2; stroke-linecap: square"/>
   </g>
   <g id="line2d_86">
    <path d="M 367.511491 183.345198 
L 379.563531 183.345198 
" clip-path="url(#p1224eef560)" style="fill: none; stroke: #ffffff; stroke-width: 2; stroke-linecap: square"/>
   </g>
   <g id="line2d_87">
    <path d="M 512.599509 50.309219 
L 512.599509 38.25718 
" clip-path="url(#p1224eef560)" style="fill: none; stroke: #ffffff; stroke-width: 2; stroke-linecap: square"/>
   </g>
   <g id="line2d_88">
    <path d="M 506.57349 44.2832 
L 518.625529 44.2832 
" clip-path="url(#p1224eef560)" style="fill: none; stroke: #ffffff; stroke-width: 2; stroke-linecap: square"/>
   </g>
   <g id="line2d_89">
    <path d="M 558.953509 96.663219 
L 558.953509 84.611179 
" clip-path="url(#p1224eef560)" style="fill: none; stroke: #ffffff; stroke-width: 2; stroke-linecap: square"/>
   </g>
   <g id="line2d_90">
    <path d="M 552.927489 90.637199 
L 564.979529 90.637199 
" clip-path="url(#p1224eef560)" style="fill: none; stroke: #ffffff; stroke-width: 2; stroke-linecap: square"/>
   </g>
   <g id="line2d_91">
    <path d="M 883.431505 235.725217 
L 883.431505 223.673177 
" clip-path="url(#p1224eef560)" style="fill: none; stroke: #ffffff; stroke-width: 2; stroke-linecap: square"/>
   </g>
   <g id="line2d_92">
    <path d="M 877.405485 229.699197 
L 889.457524 229.699197 
" clip-path="url(#p1224eef560)" style="fill: none; stroke: #ffffff; stroke-width: 2; stroke-linecap: square"/>
   </g>
   <g id="line2d_93">
    <path d="M 929.785504 143.017218 
L 929.785504 130.965178 
" clip-path="url(#p1224eef560)" style="fill: none; stroke: #ffffff; stroke-width: 2; stroke-linecap: square"/>
   </g>
   <g id="line2d_94">
    <path d="M 923.759484 136.991198 
L 935.811524 136.991198 
" clip-path="url(#p1224eef560)" style="fill: none; stroke: #ffffff; stroke-width: 2; stroke-linecap: square"/>
   </g>
   <g id="text_1">
    <g clip-path="url(#p1224eef560)">
     <!-- ${q}_{0}$ -->
     <g transform="translate(43.074055 48.734176) scale(0.1625 -0.1625)">
      <defs>
       <path id="DejaVuSans-Oblique-71" d="M 2669 525 
Q 2438 222 2123 65 
Q 1809 -91 1428 -91 
Q 897 -91 595 267 
Q 294 625 294 1253 
Q 294 1759 480 2231 
Q 666 2703 1013 3078 
Q 1238 3322 1530 3453 
Q 1822 3584 2144 3584 
Q 2531 3584 2781 3431 
Q 3031 3278 3144 2969 
L 3244 3494 
L 3822 3494 
L 2888 -1319 
L 2309 -1319 
L 2669 525 
z
M 891 1338 
Q 891 875 1084 633 
Q 1278 391 1644 391 
Q 2188 391 2572 911 
Q 2956 1431 2956 2175 
Q 2956 2625 2757 2864 
Q 2559 3103 2188 3103 
Q 1916 3103 1684 2976 
Q 1453 2850 1281 2606 
Q 1100 2350 995 2006 
Q 891 1663 891 1338 
z
" transform="scale(0.015625)"/>
       <path id="DejaVuSans-30" d="M 2034 4250 
Q 1547 4250 1301 3770 
Q 1056 3291 1056 2328 
Q 1056 1369 1301 889 
Q 1547 409 2034 409 
Q 2525 409 2770 889 
Q 3016 1369 3016 2328 
Q 3016 3291 2770 3770 
Q 2525 4250 2034 4250 
z
M 2034 4750 
Q 2819 4750 3233 4129 
Q 3647 3509 3647 2328 
Q 3647 1150 3233 529 
Q 2819 -91 2034 -91 
Q 1250 -91 836 529 
Q 422 1150 422 2328 
Q 422 3509 836 4129 
Q 1250 4750 2034 4750 
z
" transform="scale(0.015625)"/>
      </defs>
      <use xlink:href="#DejaVuSans-Oblique-71"/>
      <use xlink:href="#DejaVuSans-30" transform="translate(63.476562 -16.40625) scale(0.7)"/>
     </g>
    </g>
   </g>
   <g id="text_2">
    <g clip-path="url(#p1224eef560)">
     <!-- ${q}_{1}$ -->
     <g transform="translate(43.074055 95.088175) scale(0.1625 -0.1625)">
      <defs>
       <path id="DejaVuSans-31" d="M 794 531 
L 1825 531 
L 1825 4091 
L 703 3866 
L 703 4441 
L 1819 4666 
L 2450 4666 
L 2450 531 
L 3481 531 
L 3481 0 
L 794 0 
L 794 531 
z
" transform="scale(0.015625)"/>
      </defs>
      <use xlink:href="#DejaVuSans-Oblique-71"/>
      <use xlink:href="#DejaVuSans-31" transform="translate(63.476562 -16.40625) scale(0.7)"/>
     </g>
    </g>
   </g>
   <g id="text_3">
    <g clip-path="url(#p1224eef560)">
     <!-- ${q}_{2}$ -->
     <g transform="translate(43.074055 141.442175) scale(0.1625 -0.1625)">
      <defs>
       <path id="DejaVuSans-32" d="M 1228 531 
L 3431 531 
L 3431 0 
L 469 0 
L 469 531 
Q 828 903 1448 1529 
Q 2069 2156 2228 2338 
Q 2531 2678 2651 2914 
Q 2772 3150 2772 3378 
Q 2772 3750 2511 3984 
Q 2250 4219 1831 4219 
Q 1534 4219 1204 4116 
Q 875 4013 500 3803 
L 500 4441 
Q 881 4594 1212 4672 
Q 1544 4750 1819 4750 
Q 2544 4750 2975 4387 
Q 3406 4025 3406 3419 
Q 3406 3131 3298 2873 
Q 3191 2616 2906 2266 
Q 2828 2175 2409 1742 
Q 1991 1309 1228 531 
z
" transform="scale(0.015625)"/>
      </defs>
      <use xlink:href="#DejaVuSans-Oblique-71"/>
      <use xlink:href="#DejaVuSans-32" transform="translate(63.476562 -16.40625) scale(0.7)"/>
     </g>
    </g>
   </g>
   <g id="text_4">
    <g clip-path="url(#p1224eef560)">
     <!-- ${q}_{3}$ -->
     <g transform="translate(43.074055 187.796174) scale(0.1625 -0.1625)">
      <defs>
       <path id="DejaVuSans-33" d="M 2597 2516 
Q 3050 2419 3304 2112 
Q 3559 1806 3559 1356 
Q 3559 666 3084 287 
Q 2609 -91 1734 -91 
Q 1441 -91 1130 -33 
Q 819 25 488 141 
L 488 750 
Q 750 597 1062 519 
Q 1375 441 1716 441 
Q 2309 441 2620 675 
Q 2931 909 2931 1356 
Q 2931 1769 2642 2001 
Q 2353 2234 1838 2234 
L 1294 2234 
L 1294 2753 
L 1863 2753 
Q 2328 2753 2575 2939 
Q 2822 3125 2822 3475 
Q 2822 3834 2567 4026 
Q 2313 4219 1838 4219 
Q 1578 4219 1281 4162 
Q 984 4106 628 3988 
L 628 4550 
Q 988 4650 1302 4700 
Q 1616 4750 1894 4750 
Q 2613 4750 3031 4423 
Q 3450 4097 3450 3541 
Q 3450 3153 3228 2886 
Q 3006 2619 2597 2516 
z
" transform="scale(0.015625)"/>
      </defs>
      <use xlink:href="#DejaVuSans-Oblique-71"/>
      <use xlink:href="#DejaVuSans-33" transform="translate(63.476562 -16.40625) scale(0.7)"/>
     </g>
    </g>
   </g>
   <g id="text_5">
    <g clip-path="url(#p1224eef560)">
     <!-- ${q}_{4}$ -->
     <g transform="translate(43.074055 234.150174) scale(0.1625 -0.1625)">
      <defs>
       <path id="DejaVuSans-34" d="M 2419 4116 
L 825 1625 
L 2419 1625 
L 2419 4116 
z
M 2253 4666 
L 3047 4666 
L 3047 1625 
L 3713 1625 
L 3713 1100 
L 3047 1100 
L 3047 0 
L 2419 0 
L 2419 1100 
L 313 1100 
L 313 1709 
L 2253 4666 
z
" transform="scale(0.015625)"/>
      </defs>
      <use xlink:href="#DejaVuSans-Oblique-71"/>
      <use xlink:href="#DejaVuSans-34" transform="translate(63.476562 -16.40625) scale(0.7)"/>
     </g>
    </g>
   </g>
   <g id="text_6">
    <g clip-path="url(#p1224eef560)">
     <!-- ${q}_{5}$ -->
     <g transform="translate(43.074055 280.504173) scale(0.1625 -0.1625)">
      <defs>
       <path id="DejaVuSans-35" d="M 691 4666 
L 3169 4666 
L 3169 4134 
L 1269 4134 
L 1269 2991 
Q 1406 3038 1543 3061 
Q 1681 3084 1819 3084 
Q 2600 3084 3056 2656 
Q 3513 2228 3513 1497 
Q 3513 744 3044 326 
Q 2575 -91 1722 -91 
Q 1428 -91 1123 -41 
Q 819 9 494 109 
L 494 744 
Q 775 591 1075 516 
Q 1375 441 1709 441 
Q 2250 441 2565 725 
Q 2881 1009 2881 1497 
Q 2881 1984 2565 2268 
Q 2250 2553 1709 2553 
Q 1456 2553 1204 2497 
Q 953 2441 691 2322 
L 691 4666 
z
" transform="scale(0.015625)"/>
      </defs>
      <use xlink:href="#DejaVuSans-Oblique-71"/>
      <use xlink:href="#DejaVuSans-35" transform="translate(63.476562 -16.40625) scale(0.7)"/>
     </g>
    </g>
   </g>
   <g id="text_7">
    <g clip-path="url(#p1224eef560)">
     <!-- 2 -->
     <g transform="translate(75.017755 315.608921) scale(0.104 -0.104)">
      <use xlink:href="#DejaVuSans-32"/>
     </g>
    </g>
   </g>
   <g id="text_8">
    <g clip-path="url(#p1224eef560)">
     <!-- out -->
     <g transform="translate(34.499641 326.89118) scale(0.1625 -0.1625)">
      <defs>
       <path id="DejaVuSans-6f" d="M 1959 3097 
Q 1497 3097 1228 2736 
Q 959 2375 959 1747 
Q 959 1119 1226 758 
Q 1494 397 1959 397 
Q 2419 397 2687 759 
Q 2956 1122 2956 1747 
Q 2956 2369 2687 2733 
Q 2419 3097 1959 3097 
z
M 1959 3584 
Q 2709 3584 3137 3096 
Q 3566 2609 3566 1747 
Q 3566 888 3137 398 
Q 2709 -91 1959 -91 
Q 1206 -91 779 398 
Q 353 888 353 1747 
Q 353 2609 779 3096 
Q 1206 3584 1959 3584 
z
" transform="scale(0.015625)"/>
       <path id="DejaVuSans-75" d="M 544 1381 
L 544 3500 
L 1119 3500 
L 1119 1403 
Q 1119 906 1312 657 
Q 1506 409 1894 409 
Q 2359 409 2629 706 
Q 2900 1003 2900 1516 
L 2900 3500 
L 3475 3500 
L 3475 0 
L 2900 0 
L 2900 538 
Q 2691 219 2414 64 
Q 2138 -91 1772 -91 
Q 1169 -91 856 284 
Q 544 659 544 1381 
z
M 1991 3584 
L 1991 3584 
z
" transform="scale(0.015625)"/>
       <path id="DejaVuSans-74" d="M 1172 4494 
L 1172 3500 
L 2356 3500 
L 2356 3053 
L 1172 3053 
L 1172 1153 
Q 1172 725 1289 603 
Q 1406 481 1766 481 
L 2356 481 
L 2356 0 
L 1766 0 
Q 1100 0 847 248 
Q 594 497 594 1153 
L 594 3053 
L 172 3053 
L 172 3500 
L 594 3500 
L 594 4494 
L 1172 4494 
z
" transform="scale(0.015625)"/>
      </defs>
      <use xlink:href="#DejaVuSans-6f"/>
      <use xlink:href="#DejaVuSans-75" x="61.181641"/>
      <use xlink:href="#DejaVuSans-74" x="124.560547"/>
     </g>
    </g>
   </g>
   <g id="text_9">
    <g clip-path="url(#p1224eef560)">
     <!-- 1.91, 0, 0 -->
     <g style="fill: #ffffff" transform="translate(76.332265 55.529729) scale(0.08 -0.08)">
      <defs>
       <path id="DejaVuSans-2e" d="M 684 794 
L 1344 794 
L 1344 0 
L 684 0 
L 684 794 
z
" transform="scale(0.015625)"/>
       <path id="DejaVuSans-39" d="M 703 97 
L 703 672 
Q 941 559 1184 500 
Q 1428 441 1663 441 
Q 2288 441 2617 861 
Q 2947 1281 2994 2138 
Q 2813 1869 2534 1725 
Q 2256 1581 1919 1581 
Q 1219 1581 811 2004 
Q 403 2428 403 3163 
Q 403 3881 828 4315 
Q 1253 4750 1959 4750 
Q 2769 4750 3195 4129 
Q 3622 3509 3622 2328 
Q 3622 1225 3098 567 
Q 2575 -91 1691 -91 
Q 1453 -91 1209 -44 
Q 966 3 703 97 
z
M 1959 2075 
Q 2384 2075 2632 2365 
Q 2881 2656 2881 3163 
Q 2881 3666 2632 3958 
Q 2384 4250 1959 4250 
Q 1534 4250 1286 3958 
Q 1038 3666 1038 3163 
Q 1038 2656 1286 2365 
Q 1534 2075 1959 2075 
z
" transform="scale(0.015625)"/>
       <path id="DejaVuSans-2c" d="M 750 794 
L 1409 794 
L 1409 256 
L 897 -744 
L 494 -744 
L 750 256 
L 750 794 
z
" transform="scale(0.015625)"/>
       <path id="DejaVuSans-20" transform="scale(0.015625)"/>
      </defs>
      <use xlink:href="#DejaVuSans-31"/>
      <use xlink:href="#DejaVuSans-2e" x="63.623047"/>
      <use xlink:href="#DejaVuSans-39" x="95.410156"/>
      <use xlink:href="#DejaVuSans-31" x="159.033203"/>
      <use xlink:href="#DejaVuSans-2c" x="222.65625"/>
      <use xlink:href="#DejaVuSans-20" x="254.443359"/>
      <use xlink:href="#DejaVuSans-30" x="286.230469"/>
      <use xlink:href="#DejaVuSans-2c" x="349.853516"/>
      <use xlink:href="#DejaVuSans-20" x="381.640625"/>
      <use xlink:href="#DejaVuSans-30" x="413.427734"/>
     </g>
    </g>
   </g>
   <g id="text_10">
    <g clip-path="url(#p1224eef560)">
     <!-- U -->
     <g style="fill: #ffffff" transform="translate(90.656327 43.350872) scale(0.13 -0.13)">
      <defs>
       <path id="DejaVuSans-55" d="M 556 4666 
L 1191 4666 
L 1191 1831 
Q 1191 1081 1462 751 
Q 1734 422 2344 422 
Q 2950 422 3222 751 
Q 3494 1081 3494 1831 
L 3494 4666 
L 4128 4666 
L 4128 1753 
Q 4128 841 3676 375 
Q 3225 -91 2344 -91 
Q 1459 -91 1007 375 
Q 556 841 556 1753 
L 556 4666 
z
" transform="scale(0.015625)"/>
      </defs>
      <use xlink:href="#DejaVuSans-55"/>
     </g>
    </g>
   </g>
   <g id="text_11">
    <g clip-path="url(#p1224eef560)">
     <!-- H -->
     <g style="fill: #ffffff" transform="translate(136.879311 94.224386) scale(0.13 -0.13)">
      <defs>
       <path id="DejaVuSans-48" d="M 628 4666 
L 1259 4666 
L 1259 2753 
L 3553 2753 
L 3553 4666 
L 4184 4666 
L 4184 0 
L 3553 0 
L 3553 2222 
L 1259 2222 
L 1259 0 
L 628 0 
L 628 4666 
z
" transform="scale(0.015625)"/>
      </defs>
      <use xlink:href="#DejaVuSans-48"/>
     </g>
    </g>
   </g>
   <g id="text_12">
    <g clip-path="url(#p1224eef560)">
     <!-- 0 -->
     <g transform="translate(987.728003 315.608921) scale(0.104 -0.104)">
      <use xlink:href="#DejaVuSans-30"/>
     </g>
    </g>
   </g>
   <g id="text_13">
    <g clip-path="url(#p1224eef560)">
     <!-- 1 -->
     <g transform="translate(1034.082003 315.608921) scale(0.104 -0.104)">
      <use xlink:href="#DejaVuSans-31"/>
     </g>
    </g>
   </g>
  </g>
 </g>
 <defs>
  <clipPath id="p1224eef560">
   <rect x="7.2" y="7.2" width="1045.887142" height="343.019595"/>
  </clipPath>
 </defs>
</svg>
