<?xml version="1.0" encoding="utf-8" standalone="no"?>
<!DOCTYPE svg PUBLIC "-//W3C//DTD SVG 1.1//EN"
  "http://www.w3.org/Graphics/SVG/1.1/DTD/svg11.dtd">
<svg xmlns:xlink="http://www.w3.org/1999/xlink" width="411.331151pt" height="264.711597pt" viewBox="0 0 411.331151 264.711597" xmlns="http://www.w3.org/2000/svg" version="1.1">
 <metadata>
  <rdf:RDF xmlns:dc="http://purl.org/dc/elements/1.1/" xmlns:cc="http://creativecommons.org/ns#" xmlns:rdf="http://www.w3.org/1999/02/22-rdf-syntax-ns#">
   <cc:Work>
    <dc:type rdf:resource="http://purl.org/dc/dcmitype/StillImage"/>
    <dc:date>2025-02-18T17:27:34.484718</dc:date>
    <dc:format>image/svg+xml</dc:format>
    <dc:creator>
     <cc:Agent>
      <dc:title>Matplotlib v3.9.1, https://matplotlib.org/</dc:title>
     </cc:Agent>
    </dc:creator>
   </cc:Work>
  </rdf:RDF>
 </metadata>
 <defs>
  <style type="text/css">*{stroke-linejoin: round; stroke-linecap: butt}</style>
 </defs>
 <g id="figure_1">
  <g id="patch_1">
   <path d="M 0 264.711597 
L 411.331151 264.711597 
L 411.331151 0 
L 0 0 
z
" style="fill: #ffffff"/>
  </g>
  <g id="axes_1">
   <g id="line2d_1">
    <path d="M 70.382355 44.2832 
L 399.495751 44.2832 
" clip-path="url(#pd967a64609)" style="fill: none; stroke: #000000; stroke-width: 2; stroke-linecap: square"/>
   </g>
   <g id="line2d_2">
    <path d="M 70.382355 90.637199 
L 399.495751 90.637199 
" clip-path="url(#pd967a64609)" style="fill: none; stroke: #000000; stroke-width: 2; stroke-linecap: square"/>
   </g>
   <g id="line2d_3">
    <path d="M 70.382355 136.991198 
L 399.495751 136.991198 
" clip-path="url(#pd967a64609)" style="fill: none; stroke: #000000; stroke-width: 2; stroke-linecap: square"/>
   </g>
   <g id="line2d_4">
    <path d="M 79.653155 187.980598 
L 84.288555 178.709798 
" clip-path="url(#pd967a64609)" style="fill: none; stroke: #778899; stroke-width: 1.5; stroke-linecap: square"/>
   </g>
   <g id="line2d_5">
    <path d="M 70.382355 181.838693 
L 399.495751 181.838693 
" clip-path="url(#pd967a64609)" style="fill: none; stroke: #778899; stroke-width: 2; stroke-linecap: square"/>
   </g>
   <g id="line2d_6">
    <path d="M 70.382355 184.851703 
L 399.495751 184.851703 
" clip-path="url(#pd967a64609)" style="fill: none; stroke: #778899; stroke-width: 2; stroke-linecap: square"/>
   </g>
   <g id="line2d_7">
    <path d="M 79.653155 234.334597 
L 84.288555 225.063797 
" clip-path="url(#pd967a64609)" style="fill: none; stroke: #778899; stroke-width: 1.5; stroke-linecap: square"/>
   </g>
   <g id="line2d_8">
    <path d="M 70.382355 228.192692 
L 399.495751 228.192692 
" clip-path="url(#pd967a64609)" style="fill: none; stroke: #778899; stroke-width: 2; stroke-linecap: square"/>
   </g>
   <g id="line2d_9">
    <path d="M 70.382355 231.205702 
L 399.495751 231.205702 
" clip-path="url(#pd967a64609)" style="fill: none; stroke: #778899; stroke-width: 2; stroke-linecap: square"/>
   </g>
   <g id="patch_2">
    <path d="M 182.095494 219.153662 
L 194.147534 219.153662 
L 188.121514 227.845037 
z
" clip-path="url(#pd967a64609)" style="fill: #778899"/>
   </g>
   <g id="patch_3">
    <path d="M 274.803493 219.153662 
L 286.855532 219.153662 
L 280.829513 227.845037 
z
" clip-path="url(#pd967a64609)" style="fill: #778899"/>
   </g>
   <g id="patch_4">
    <path d="M 367.511491 172.799663 
L 379.563531 172.799663 
L 373.537511 181.491038 
z
" clip-path="url(#pd967a64609)" style="fill: #778899"/>
   </g>
   <g id="patch_5">
    <path d="M 65.746955 21.1062 
L -1093.103029 21.1062 
L -1093.103029 299.230196 
L 65.746955 299.230196 
z
" clip-path="url(#pd967a64609)" style="fill: #ffffff; stroke: #ffffff; stroke-width: 1.5; stroke-linejoin: miter"/>
   </g>
   <g id="line2d_10">
    <path d="M 141.767514 90.637199 
L 141.767514 44.2832 
" clip-path="url(#pd967a64609)" style="fill: none; stroke: #002d9c; stroke-width: 2; stroke-linecap: square"/>
   </g>
   <g id="line2d_11">
    <path d="M 189.628019 90.637199 
L 189.628019 219.153662 
" clip-path="url(#pd967a64609)" style="fill: none; stroke: #778899; stroke-width: 2; stroke-linecap: square"/>
   </g>
   <g id="line2d_12">
    <path d="M 186.615009 90.637199 
L 186.615009 219.153662 
" clip-path="url(#pd967a64609)" style="fill: none; stroke: #778899; stroke-width: 2; stroke-linecap: square"/>
   </g>
   <g id="line2d_13">
    <path d="M 234.475513 136.991198 
L 234.475513 44.2832 
" clip-path="url(#pd967a64609)" style="fill: none; stroke: #002d9c; stroke-width: 2; stroke-linecap: square"/>
   </g>
   <g id="line2d_14">
    <path d="M 282.336018 136.991198 
L 282.336018 219.153662 
" clip-path="url(#pd967a64609)" style="fill: none; stroke: #778899; stroke-width: 2; stroke-linecap: square"/>
   </g>
   <g id="line2d_15">
    <path d="M 279.323008 136.991198 
L 279.323008 219.153662 
" clip-path="url(#pd967a64609)" style="fill: none; stroke: #778899; stroke-width: 2; stroke-linecap: square"/>
   </g>
   <g id="line2d_16">
    <path d="M 375.044016 90.637199 
L 375.044016 172.799663 
" clip-path="url(#pd967a64609)" style="fill: none; stroke: #778899; stroke-width: 2; stroke-linecap: square"/>
   </g>
   <g id="line2d_17">
    <path d="M 372.031006 90.637199 
L 372.031006 172.799663 
" clip-path="url(#pd967a64609)" style="fill: none; stroke: #778899; stroke-width: 2; stroke-linecap: square"/>
   </g>
   <g id="patch_6">
    <path d="M 80.348465 59.348249 
L 110.478565 59.348249 
L 110.478565 29.21815 
L 80.348465 29.21815 
z
" clip-path="url(#pd967a64609)" style="fill: #fa4d56; stroke: #fa4d56; stroke-width: 1.5; stroke-linejoin: miter"/>
   </g>
   <g id="patch_7">
    <path d="M 141.767514 48.802714 
C 142.966104 48.802714 144.115763 48.32651 144.963294 47.478979 
C 145.810825 46.631448 146.287029 45.481789 146.287029 44.2832 
C 146.287029 43.08461 145.810825 41.934951 144.963294 41.08742 
C 144.115763 40.239889 142.966104 39.763685 141.767514 39.763685 
C 140.568925 39.763685 139.419265 40.239889 138.571735 41.08742 
C 137.724204 41.934951 137.247999 43.08461 137.247999 44.2832 
C 137.247999 45.481789 137.724204 46.631448 138.571735 47.478979 
C 139.419265 48.32651 140.568925 48.802714 141.767514 48.802714 
z
" clip-path="url(#pd967a64609)" style="fill: #002d9c; stroke: #002d9c; stroke-width: 1.5; stroke-linejoin: miter"/>
   </g>
   <g id="patch_8">
    <path d="M 141.767514 101.182734 
C 144.564223 101.182734 147.246762 100.07159 149.224334 98.094018 
C 151.201905 96.116447 152.313049 93.433907 152.313049 90.637199 
C 152.313049 87.84049 151.201905 85.157951 149.224334 83.18038 
C 147.246762 81.202808 144.564223 80.091664 141.767514 80.091664 
C 138.970806 80.091664 136.288267 81.202808 134.310695 83.18038 
C 132.333124 85.157951 131.22198 87.84049 131.22198 90.637199 
C 131.22198 93.433907 132.333124 96.116447 134.310695 98.094018 
C 136.288267 100.07159 138.970806 101.182734 141.767514 101.182734 
z
" clip-path="url(#pd967a64609)" style="fill: #002d9c; stroke: #002d9c; stroke-width: 2; stroke-linejoin: miter"/>
   </g>
   <g id="patch_9">
    <path d="M 173.056464 105.702249 
L 203.186564 105.702249 
L 203.186564 75.572149 
L 173.056464 75.572149 
z
" clip-path="url(#pd967a64609)" style="fill: #a8a8a8; stroke: #a8a8a8; stroke-width: 1.5; stroke-linejoin: miter"/>
   </g>
   <g id="patch_10">
    <path d="M 198.667049 95.156714 
C 198.667049 92.360937 197.555246 89.676808 195.578333 87.699895 
C 193.60142 85.722982 190.917291 84.611179 188.121514 84.611179 
C 185.325737 84.611179 182.641607 85.722982 180.664695 87.699895 
C 178.687782 89.676808 177.575979 92.360937 177.575979 95.156714 
" clip-path="url(#pd967a64609)" style="fill: none; stroke: #000000; stroke-width: 2; stroke-linejoin: miter"/>
   </g>
   <g id="line2d_18">
    <path d="M 188.121514 95.156714 
L 198.667049 84.611179 
" clip-path="url(#pd967a64609)" style="fill: none; stroke: #000000; stroke-width: 2; stroke-linecap: square"/>
   </g>
   <g id="patch_11">
    <path d="M 234.475513 48.802714 
C 235.674103 48.802714 236.823762 48.32651 237.671293 47.478979 
C 238.518823 46.631448 238.995028 45.481789 238.995028 44.2832 
C 238.995028 43.08461 238.518823 41.934951 237.671293 41.08742 
C 236.823762 40.239889 235.674103 39.763685 234.475513 39.763685 
C 233.276924 39.763685 232.127264 40.239889 231.279733 41.08742 
C 230.432203 41.934951 229.955998 43.08461 229.955998 44.2832 
C 229.955998 45.481789 230.432203 46.631448 231.279733 47.478979 
C 232.127264 48.32651 233.276924 48.802714 234.475513 48.802714 
z
" clip-path="url(#pd967a64609)" style="fill: #002d9c; stroke: #002d9c; stroke-width: 1.5; stroke-linejoin: miter"/>
   </g>
   <g id="patch_12">
    <path d="M 234.475513 147.536733 
C 237.272222 147.536733 239.954761 146.425589 241.932332 144.448017 
C 243.909904 142.470446 245.021048 139.787907 245.021048 136.991198 
C 245.021048 134.19449 243.909904 131.511951 241.932332 129.534379 
C 239.954761 127.556807 237.272222 126.445663 234.475513 126.445663 
C 231.678805 126.445663 228.996265 127.556807 227.018694 129.534379 
C 225.041122 131.511951 223.929978 134.19449 223.929978 136.991198 
C 223.929978 139.787907 225.041122 142.470446 227.018694 144.448017 
C 228.996265 146.425589 231.678805 147.536733 234.475513 147.536733 
z
" clip-path="url(#pd967a64609)" style="fill: #002d9c; stroke: #002d9c; stroke-width: 2; stroke-linejoin: miter"/>
   </g>
   <g id="patch_13">
    <path d="M 265.764463 105.702249 
L 295.894562 105.702249 
L 295.894562 75.572149 
L 265.764463 75.572149 
z
" clip-path="url(#pd967a64609)" style="fill: #a8a8a8; stroke: #a8a8a8; stroke-width: 1.5; stroke-linejoin: miter"/>
   </g>
   <g id="patch_14">
    <path d="M 265.764463 152.056248 
L 295.894562 152.056248 
L 295.894562 121.926148 
L 265.764463 121.926148 
z
" clip-path="url(#pd967a64609)" style="fill: #a8a8a8; stroke: #a8a8a8; stroke-width: 1.5; stroke-linejoin: miter"/>
   </g>
   <g id="patch_15">
    <path d="M 291.375047 141.510713 
C 291.375047 138.714936 290.263245 136.030807 288.286332 134.053894 
C 286.309419 132.076981 283.62529 130.965178 280.829513 130.965178 
C 278.033735 130.965178 275.349606 132.076981 273.372693 134.053894 
C 271.39578 136.030807 270.283978 138.714936 270.283978 141.510713 
" clip-path="url(#pd967a64609)" style="fill: none; stroke: #000000; stroke-width: 2; stroke-linejoin: miter"/>
   </g>
   <g id="line2d_19">
    <path d="M 280.829513 141.510713 
L 291.375047 130.965178 
" clip-path="url(#pd967a64609)" style="fill: none; stroke: #000000; stroke-width: 2; stroke-linecap: square"/>
   </g>
   <g id="patch_16">
    <path d="M 265.764463 59.348249 
L 295.894562 59.348249 
L 295.894562 29.21815 
L 265.764463 29.21815 
z
" clip-path="url(#pd967a64609)" style="fill: #a8a8a8; stroke: #a8a8a8; stroke-width: 1.5; stroke-linejoin: miter"/>
   </g>
   <g id="patch_17">
    <path d="M 312.118462 152.056248 
L 342.248562 152.056248 
L 342.248562 121.926148 
L 312.118462 121.926148 
z
" clip-path="url(#pd967a64609)" style="fill: #a8a8a8; stroke: #a8a8a8; stroke-width: 1.5; stroke-linejoin: miter"/>
   </g>
   <g id="patch_18">
    <path d="M 358.472461 105.702249 
L 388.602561 105.702249 
L 388.602561 75.572149 
L 358.472461 75.572149 
z
" clip-path="url(#pd967a64609)" style="fill: #a8a8a8; stroke: #a8a8a8; stroke-width: 1.5; stroke-linejoin: miter"/>
   </g>
   <g id="patch_19">
    <path d="M 384.083046 95.156714 
C 384.083046 92.360937 382.971243 89.676808 380.994331 87.699895 
C 379.017418 85.722982 376.333288 84.611179 373.537511 84.611179 
C 370.741734 84.611179 368.057605 85.722982 366.080692 87.699895 
C 364.103779 89.676808 362.991976 92.360937 362.991976 95.156714 
" clip-path="url(#pd967a64609)" style="fill: none; stroke: #000000; stroke-width: 2; stroke-linejoin: miter"/>
   </g>
   <g id="line2d_20">
    <path d="M 373.537511 95.156714 
L 384.083046 84.611179 
" clip-path="url(#pd967a64609)" style="fill: none; stroke: #000000; stroke-width: 2; stroke-linecap: square"/>
   </g>
   <g id="line2d_21">
    <path d="M 141.767514 96.663219 
L 141.767514 84.611179 
" clip-path="url(#pd967a64609)" style="fill: none; stroke: #ffffff; stroke-width: 2; stroke-linecap: square"/>
   </g>
   <g id="line2d_22">
    <path d="M 135.741494 90.637199 
L 147.793534 90.637199 
" clip-path="url(#pd967a64609)" style="fill: none; stroke: #ffffff; stroke-width: 2; stroke-linecap: square"/>
   </g>
   <g id="line2d_23">
    <path d="M 234.475513 143.017218 
L 234.475513 130.965178 
" clip-path="url(#pd967a64609)" style="fill: none; stroke: #ffffff; stroke-width: 2; stroke-linecap: square"/>
   </g>
   <g id="line2d_24">
    <path d="M 228.449493 136.991198 
L 240.501533 136.991198 
" clip-path="url(#pd967a64609)" style="fill: none; stroke: #ffffff; stroke-width: 2; stroke-linecap: square"/>
   </g>
   <g id="text_1">
    <g clip-path="url(#pd967a64609)">
     <!-- ${q}_{0}$ -->
     <g transform="translate(43.074055 48.734176) scale(0.1625 -0.1625)">
      <defs>
       <path id="DejaVuSans-Oblique-71" d="M 2669 525 
Q 2438 222 2123 65 
Q 1809 -91 1428 -91 
Q 897 -91 595 267 
Q 294 625 294 1253 
Q 294 1759 480 2231 
Q 666 2703 1013 3078 
Q 1238 3322 1530 3453 
Q 1822 3584 2144 3584 
Q 2531 3584 2781 3431 
Q 3031 3278 3144 2969 
L 3244 3494 
L 3822 3494 
L 2888 -1319 
L 2309 -1319 
L 2669 525 
z
M 891 1338 
Q 891 875 1084 633 
Q 1278 391 1644 391 
Q 2188 391 2572 911 
Q 2956 1431 2956 2175 
Q 2956 2625 2757 2864 
Q 2559 3103 2188 3103 
Q 1916 3103 1684 2976 
Q 1453 2850 1281 2606 
Q 1100 2350 995 2006 
Q 891 1663 891 1338 
z
" transform="scale(0.015625)"/>
       <path id="DejaVuSans-30" d="M 2034 4250 
Q 1547 4250 1301 3770 
Q 1056 3291 1056 2328 
Q 1056 1369 1301 889 
Q 1547 409 2034 409 
Q 2525 409 2770 889 
Q 3016 1369 3016 2328 
Q 3016 3291 2770 3770 
Q 2525 4250 2034 4250 
z
M 2034 4750 
Q 2819 4750 3233 4129 
Q 3647 3509 3647 2328 
Q 3647 1150 3233 529 
Q 2819 -91 2034 -91 
Q 1250 -91 836 529 
Q 422 1150 422 2328 
Q 422 3509 836 4129 
Q 1250 4750 2034 4750 
z
" transform="scale(0.015625)"/>
      </defs>
      <use xlink:href="#DejaVuSans-Oblique-71"/>
      <use xlink:href="#DejaVuSans-30" transform="translate(63.476562 -16.40625) scale(0.7)"/>
     </g>
    </g>
   </g>
   <g id="text_2">
    <g clip-path="url(#pd967a64609)">
     <!-- ${q}_{1}$ -->
     <g transform="translate(43.074055 95.088175) scale(0.1625 -0.1625)">
      <defs>
       <path id="DejaVuSans-31" d="M 794 531 
L 1825 531 
L 1825 4091 
L 703 3866 
L 703 4441 
L 1819 4666 
L 2450 4666 
L 2450 531 
L 3481 531 
L 3481 0 
L 794 0 
L 794 531 
z
" transform="scale(0.015625)"/>
      </defs>
      <use xlink:href="#DejaVuSans-Oblique-71"/>
      <use xlink:href="#DejaVuSans-31" transform="translate(63.476562 -16.40625) scale(0.7)"/>
     </g>
    </g>
   </g>
   <g id="text_3">
    <g clip-path="url(#pd967a64609)">
     <!-- ${q}_{2}$ -->
     <g transform="translate(43.074055 141.442175) scale(0.1625 -0.1625)">
      <defs>
       <path id="DejaVuSans-32" d="M 1228 531 
L 3431 531 
L 3431 0 
L 469 0 
L 469 531 
Q 828 903 1448 1529 
Q 2069 2156 2228 2338 
Q 2531 2678 2651 2914 
Q 2772 3150 2772 3378 
Q 2772 3750 2511 3984 
Q 2250 4219 1831 4219 
Q 1534 4219 1204 4116 
Q 875 4013 500 3803 
L 500 4441 
Q 881 4594 1212 4672 
Q 1544 4750 1819 4750 
Q 2544 4750 2975 4387 
Q 3406 4025 3406 3419 
Q 3406 3131 3298 2873 
Q 3191 2616 2906 2266 
Q 2828 2175 2409 1742 
Q 1991 1309 1228 531 
z
" transform="scale(0.015625)"/>
      </defs>
      <use xlink:href="#DejaVuSans-Oblique-71"/>
      <use xlink:href="#DejaVuSans-32" transform="translate(63.476562 -16.40625) scale(0.7)"/>
     </g>
    </g>
   </g>
   <g id="text_4">
    <g clip-path="url(#pd967a64609)">
     <!-- 1 -->
     <g transform="translate(75.017755 176.546923) scale(0.104 -0.104)">
      <use xlink:href="#DejaVuSans-31"/>
     </g>
    </g>
   </g>
   <g id="text_5">
    <g clip-path="url(#pd967a64609)">
     <!-- out -->
     <g transform="translate(34.499641 187.829182) scale(0.1625 -0.1625)">
      <defs>
       <path id="DejaVuSans-6f" d="M 1959 3097 
Q 1497 3097 1228 2736 
Q 959 2375 959 1747 
Q 959 1119 1226 758 
Q 1494 397 1959 397 
Q 2419 397 2687 759 
Q 2956 1122 2956 1747 
Q 2956 2369 2687 2733 
Q 2419 3097 1959 3097 
z
M 1959 3584 
Q 2709 3584 3137 3096 
Q 3566 2609 3566 1747 
Q 3566 888 3137 398 
Q 2709 -91 1959 -91 
Q 1206 -91 779 398 
Q 353 888 353 1747 
Q 353 2609 779 3096 
Q 1206 3584 1959 3584 
z
" transform="scale(0.015625)"/>
       <path id="DejaVuSans-75" d="M 544 1381 
L 544 3500 
L 1119 3500 
L 1119 1403 
Q 1119 906 1312 657 
Q 1506 409 1894 409 
Q 2359 409 2629 706 
Q 2900 1003 2900 1516 
L 2900 3500 
L 3475 3500 
L 3475 0 
L 2900 0 
L 2900 538 
Q 2691 219 2414 64 
Q 2138 -91 1772 -91 
Q 1169 -91 856 284 
Q 544 659 544 1381 
z
M 1991 3584 
L 1991 3584 
z
" transform="scale(0.015625)"/>
       <path id="DejaVuSans-74" d="M 1172 4494 
L 1172 3500 
L 2356 3500 
L 2356 3053 
L 1172 3053 
L 1172 1153 
Q 1172 725 1289 603 
Q 1406 481 1766 481 
L 2356 481 
L 2356 0 
L 1766 0 
Q 1100 0 847 248 
Q 594 497 594 1153 
L 594 3053 
L 172 3053 
L 172 3500 
L 594 3500 
L 594 4494 
L 1172 4494 
z
" transform="scale(0.015625)"/>
      </defs>
      <use xlink:href="#DejaVuSans-6f"/>
      <use xlink:href="#DejaVuSans-75" x="61.181641"/>
      <use xlink:href="#DejaVuSans-74" x="124.560547"/>
     </g>
    </g>
   </g>
   <g id="text_6">
    <g clip-path="url(#pd967a64609)">
     <!-- 2 -->
     <g transform="translate(75.017755 222.900922) scale(0.104 -0.104)">
      <use xlink:href="#DejaVuSans-32"/>
     </g>
    </g>
   </g>
   <g id="text_7">
    <g clip-path="url(#pd967a64609)">
     <!-- err -->
     <g transform="translate(38.036555 234.183181) scale(0.1625 -0.1625)">
      <defs>
       <path id="DejaVuSans-65" d="M 3597 1894 
L 3597 1613 
L 953 1613 
Q 991 1019 1311 708 
Q 1631 397 2203 397 
Q 2534 397 2845 478 
Q 3156 559 3463 722 
L 3463 178 
Q 3153 47 2828 -22 
Q 2503 -91 2169 -91 
Q 1331 -91 842 396 
Q 353 884 353 1716 
Q 353 2575 817 3079 
Q 1281 3584 2069 3584 
Q 2775 3584 3186 3129 
Q 3597 2675 3597 1894 
z
M 3022 2063 
Q 3016 2534 2758 2815 
Q 2500 3097 2075 3097 
Q 1594 3097 1305 2825 
Q 1016 2553 972 2059 
L 3022 2063 
z
" transform="scale(0.015625)"/>
       <path id="DejaVuSans-72" d="M 2631 2963 
Q 2534 3019 2420 3045 
Q 2306 3072 2169 3072 
Q 1681 3072 1420 2755 
Q 1159 2438 1159 1844 
L 1159 0 
L 581 0 
L 581 3500 
L 1159 3500 
L 1159 2956 
Q 1341 3275 1631 3429 
Q 1922 3584 2338 3584 
Q 2397 3584 2469 3576 
Q 2541 3569 2628 3553 
L 2631 2963 
z
" transform="scale(0.015625)"/>
      </defs>
      <use xlink:href="#DejaVuSans-65"/>
      <use xlink:href="#DejaVuSans-72" x="61.523438"/>
      <use xlink:href="#DejaVuSans-72" x="100.886719"/>
     </g>
    </g>
   </g>
   <g id="text_8">
    <g clip-path="url(#pd967a64609)">
     <!-- H -->
     <g transform="translate(90.525312 47.870387) scale(0.13 -0.13)">
      <defs>
       <path id="DejaVuSans-48" d="M 628 4666 
L 1259 4666 
L 1259 2753 
L 3553 2753 
L 3553 4666 
L 4184 4666 
L 4184 0 
L 3553 0 
L 3553 2222 
L 1259 2222 
L 1259 0 
L 628 0 
L 628 4666 
z
" transform="scale(0.015625)"/>
      </defs>
      <use xlink:href="#DejaVuSans-48"/>
     </g>
    </g>
   </g>
   <g id="text_9">
    <g clip-path="url(#pd967a64609)">
     <!-- 0 -->
     <g transform="translate(199.710014 222.900922) scale(0.104 -0.104)">
      <use xlink:href="#DejaVuSans-30"/>
     </g>
    </g>
   </g>
   <g id="text_10">
    <g clip-path="url(#pd967a64609)">
     <!-- $\mathrm{\left|0\right\rangle}$ -->
     <g transform="translate(272.444513 94.224386) scale(0.13 -0.13)">
      <defs>
       <path id="DejaVuSans-7c" d="M 1344 4891 
L 1344 -1509 
L 813 -1509 
L 813 4891 
L 1344 4891 
z
" transform="scale(0.015625)"/>
       <path id="DejaVuSans-27e9" d="M 1925 2006 
L 1044 -844 
L 513 -844 
L 1394 2006 
L 513 4856 
L 1044 4856 
L 1925 2006 
z
" transform="scale(0.015625)"/>
      </defs>
      <use xlink:href="#DejaVuSans-7c" transform="translate(0 16.625) scale(0.756406)"/>
      <use xlink:href="#DejaVuSans-30" transform="translate(25.479126 0.125)"/>
      <use xlink:href="#DejaVuSans-27e9" transform="translate(89.102173 0.125)"/>
     </g>
    </g>
   </g>
   <g id="text_11">
    <g clip-path="url(#pd967a64609)">
     <!-- 1 -->
     <g transform="translate(292.418012 222.900922) scale(0.104 -0.104)">
      <use xlink:href="#DejaVuSans-31"/>
     </g>
    </g>
   </g>
   <g id="text_12">
    <g clip-path="url(#pd967a64609)">
     <!-- $\mathrm{\left|0\right\rangle}$ -->
     <g transform="translate(272.444513 47.870387) scale(0.13 -0.13)">
      <use xlink:href="#DejaVuSans-7c" transform="translate(0 16.625) scale(0.756406)"/>
      <use xlink:href="#DejaVuSans-30" transform="translate(25.479126 0.125)"/>
      <use xlink:href="#DejaVuSans-27e9" transform="translate(89.102173 0.125)"/>
     </g>
    </g>
   </g>
   <g id="text_13">
    <g clip-path="url(#pd967a64609)">
     <!-- $\mathrm{\left|0\right\rangle}$ -->
     <g transform="translate(318.798512 140.578386) scale(0.13 -0.13)">
      <use xlink:href="#DejaVuSans-7c" transform="translate(0 16.625) scale(0.756406)"/>
      <use xlink:href="#DejaVuSans-30" transform="translate(25.479126 0.125)"/>
      <use xlink:href="#DejaVuSans-27e9" transform="translate(89.102173 0.125)"/>
     </g>
    </g>
   </g>
   <g id="text_14">
    <g clip-path="url(#pd967a64609)">
     <!-- 0 -->
     <g transform="translate(385.126011 176.546923) scale(0.104 -0.104)">
      <use xlink:href="#DejaVuSans-30"/>
     </g>
    </g>
   </g>
  </g>
 </g>
 <defs>
  <clipPath id="pd967a64609">
   <rect x="7.2" y="7.2" width="396.931151" height="250.311597"/>
  </clipPath>
 </defs>
</svg>
