<?xml version="1.0" encoding="utf-8" standalone="no"?>
<!DOCTYPE svg PUBLIC "-//W3C//DTD SVG 1.1//EN"
  "http://www.w3.org/Graphics/SVG/1.1/DTD/svg11.dtd">
<svg xmlns:xlink="http://www.w3.org/1999/xlink" width="828.517145pt" height="357.419595pt" viewBox="0 0 828.517145 357.419595" xmlns="http://www.w3.org/2000/svg" version="1.1">
 <metadata>
  <rdf:RDF xmlns:dc="http://purl.org/dc/elements/1.1/" xmlns:cc="http://creativecommons.org/ns#" xmlns:rdf="http://www.w3.org/1999/02/22-rdf-syntax-ns#">
   <cc:Work>
    <dc:type rdf:resource="http://purl.org/dc/dcmitype/StillImage"/>
    <dc:date>2025-02-18T17:27:49.712831</dc:date>
    <dc:format>image/svg+xml</dc:format>
    <dc:creator>
     <cc:Agent>
      <dc:title>Matplotlib v3.9.1, https://matplotlib.org/</dc:title>
     </cc:Agent>
    </dc:creator>
   </cc:Work>
  </rdf:RDF>
 </metadata>
 <defs>
  <style type="text/css">*{stroke-linejoin: round; stroke-linecap: butt}</style>
 </defs>
 <g id="figure_1">
  <g id="patch_1">
   <path d="M 0 357.419595 
L 828.517145 357.419595 
L 828.517145 0 
L 0 0 
z
" style="fill: #ffffff"/>
  </g>
  <g id="axes_1">
   <g id="line2d_1">
    <path d="M 70.382355 44.2832 
L 816.681745 44.2832 
" clip-path="url(#pabf7eab80e)" style="fill: none; stroke: #000000; stroke-width: 2; stroke-linecap: square"/>
   </g>
   <g id="line2d_2">
    <path d="M 70.382355 90.637199 
L 816.681745 90.637199 
" clip-path="url(#pabf7eab80e)" style="fill: none; stroke: #000000; stroke-width: 2; stroke-linecap: square"/>
   </g>
   <g id="line2d_3">
    <path d="M 70.382355 136.991198 
L 816.681745 136.991198 
" clip-path="url(#pabf7eab80e)" style="fill: none; stroke: #000000; stroke-width: 2; stroke-linecap: square"/>
   </g>
   <g id="line2d_4">
    <path d="M 70.382355 183.345198 
L 816.681745 183.345198 
" clip-path="url(#pabf7eab80e)" style="fill: none; stroke: #000000; stroke-width: 2; stroke-linecap: square"/>
   </g>
   <g id="line2d_5">
    <path d="M 70.382355 229.699197 
L 816.681745 229.699197 
" clip-path="url(#pabf7eab80e)" style="fill: none; stroke: #000000; stroke-width: 2; stroke-linecap: square"/>
   </g>
   <g id="line2d_6">
    <path d="M 70.382355 276.053196 
L 816.681745 276.053196 
" clip-path="url(#pabf7eab80e)" style="fill: none; stroke: #000000; stroke-width: 2; stroke-linecap: square"/>
   </g>
   <g id="line2d_7">
    <path d="M 79.653155 327.042596 
L 84.288555 317.771796 
" clip-path="url(#pabf7eab80e)" style="fill: none; stroke: #778899; stroke-width: 1.5; stroke-linecap: square"/>
   </g>
   <g id="line2d_8">
    <path d="M 70.382355 320.900691 
L 816.681745 320.900691 
" clip-path="url(#pabf7eab80e)" style="fill: none; stroke: #778899; stroke-width: 2; stroke-linecap: square"/>
   </g>
   <g id="line2d_9">
    <path d="M 70.382355 323.913701 
L 816.681745 323.913701 
" clip-path="url(#pabf7eab80e)" style="fill: none; stroke: #778899; stroke-width: 2; stroke-linecap: square"/>
   </g>
   <g id="patch_2">
    <path d="M 784.697486 311.861661 
L 796.749526 311.861661 
L 790.723506 320.553036 
z
" clip-path="url(#pabf7eab80e)" style="fill: #778899"/>
   </g>
   <g id="patch_3">
    <path d="M 65.746955 21.1062 
L -1093.103029 21.1062 
L -1093.103029 391.938195 
L 65.746955 391.938195 
z
" clip-path="url(#pabf7eab80e)" style="fill: #ffffff; stroke: #ffffff; stroke-width: 1.5; stroke-linejoin: miter"/>
   </g>
   <g id="line2d_10">
    <path d="M 141.767514 90.637199 
L 141.767514 44.2832 
" clip-path="url(#pabf7eab80e)" style="fill: none; stroke: #002d9c; stroke-width: 2; stroke-linecap: square"/>
   </g>
   <g id="line2d_11">
    <path d="M 188.121514 90.637199 
L 188.121514 44.2832 
" clip-path="url(#pabf7eab80e)" style="fill: none; stroke: #9f1853; stroke-width: 2; stroke-linecap: square"/>
   </g>
   <g id="line2d_12">
    <path d="M 234.475513 229.699197 
L 234.475513 44.2832 
" clip-path="url(#pabf7eab80e)" style="fill: none; stroke: #9f1853; stroke-width: 2; stroke-linecap: square"/>
   </g>
   <g id="line2d_13">
    <path d="M 280.829513 136.991198 
L 280.829513 44.2832 
" clip-path="url(#pabf7eab80e)" style="fill: none; stroke: #002d9c; stroke-width: 2; stroke-linecap: square"/>
   </g>
   <g id="line2d_14">
    <path d="M 327.183512 229.699197 
L 327.183512 44.2832 
" clip-path="url(#pabf7eab80e)" style="fill: none; stroke: #002d9c; stroke-width: 2; stroke-linecap: square"/>
   </g>
   <g id="line2d_15">
    <path d="M 327.183512 229.699197 
L 327.183512 183.345198 
" clip-path="url(#pabf7eab80e)" style="fill: none; stroke: #002d9c; stroke-width: 2; stroke-linecap: square"/>
   </g>
   <g id="line2d_16">
    <path d="M 373.537511 136.991198 
L 373.537511 44.2832 
" clip-path="url(#pabf7eab80e)" style="fill: none; stroke: #002d9c; stroke-width: 2; stroke-linecap: square"/>
   </g>
   <g id="line2d_17">
    <path d="M 419.891511 229.699197 
L 419.891511 44.2832 
" clip-path="url(#pabf7eab80e)" style="fill: none; stroke: #002d9c; stroke-width: 2; stroke-linecap: square"/>
   </g>
   <g id="line2d_18">
    <path d="M 419.891511 229.699197 
L 419.891511 183.345198 
" clip-path="url(#pabf7eab80e)" style="fill: none; stroke: #002d9c; stroke-width: 2; stroke-linecap: square"/>
   </g>
   <g id="line2d_19">
    <path d="M 466.24551 276.053196 
L 466.24551 44.2832 
" clip-path="url(#pabf7eab80e)" style="fill: none; stroke: #002d9c; stroke-width: 2; stroke-linecap: square"/>
   </g>
   <g id="line2d_20">
    <path d="M 512.599509 276.053196 
L 512.599509 44.2832 
" clip-path="url(#pabf7eab80e)" style="fill: none; stroke: #002d9c; stroke-width: 2; stroke-linecap: square"/>
   </g>
   <g id="line2d_21">
    <path d="M 512.599509 229.699197 
L 512.599509 276.053196 
" clip-path="url(#pabf7eab80e)" style="fill: none; stroke: #002d9c; stroke-width: 2; stroke-linecap: square"/>
   </g>
   <g id="line2d_22">
    <path d="M 558.953509 136.991198 
L 558.953509 44.2832 
" clip-path="url(#pabf7eab80e)" style="fill: none; stroke: #002d9c; stroke-width: 2; stroke-linecap: square"/>
   </g>
   <g id="line2d_23">
    <path d="M 558.953509 90.637199 
L 558.953509 136.991198 
" clip-path="url(#pabf7eab80e)" style="fill: none; stroke: #002d9c; stroke-width: 2; stroke-linecap: square"/>
   </g>
   <g id="line2d_24">
    <path d="M 605.307508 183.345198 
L 605.307508 44.2832 
" clip-path="url(#pabf7eab80e)" style="fill: none; stroke: #002d9c; stroke-width: 2; stroke-linecap: square"/>
   </g>
   <g id="line2d_25">
    <path d="M 605.307508 90.637199 
L 605.307508 183.345198 
" clip-path="url(#pabf7eab80e)" style="fill: none; stroke: #002d9c; stroke-width: 2; stroke-linecap: square"/>
   </g>
   <g id="line2d_26">
    <path d="M 698.015507 229.699197 
L 698.015507 44.2832 
" clip-path="url(#pabf7eab80e)" style="fill: none; stroke: #002d9c; stroke-width: 2; stroke-linecap: square"/>
   </g>
   <g id="line2d_27">
    <path d="M 698.015507 90.637199 
L 698.015507 229.699197 
" clip-path="url(#pabf7eab80e)" style="fill: none; stroke: #002d9c; stroke-width: 2; stroke-linecap: square"/>
   </g>
   <g id="line2d_28">
    <path d="M 792.230011 90.637199 
L 792.230011 311.861661 
" clip-path="url(#pabf7eab80e)" style="fill: none; stroke: #778899; stroke-width: 2; stroke-linecap: square"/>
   </g>
   <g id="line2d_29">
    <path d="M 789.217001 90.637199 
L 789.217001 311.861661 
" clip-path="url(#pabf7eab80e)" style="fill: none; stroke: #778899; stroke-width: 2; stroke-linecap: square"/>
   </g>
   <g id="line2d_30">
    <path d="M 321.157492 235.725217 
L 333.209532 223.673177 
" clip-path="url(#pabf7eab80e)" style="fill: none; stroke: #002d9c; stroke-width: 2; stroke-linecap: square"/>
   </g>
   <g id="line2d_31">
    <path d="M 321.157492 223.673177 
L 333.209532 235.725217 
" clip-path="url(#pabf7eab80e)" style="fill: none; stroke: #002d9c; stroke-width: 2; stroke-linecap: square"/>
   </g>
   <g id="line2d_32">
    <path d="M 321.157492 189.371218 
L 333.209532 177.319178 
" clip-path="url(#pabf7eab80e)" style="fill: none; stroke: #002d9c; stroke-width: 2; stroke-linecap: square"/>
   </g>
   <g id="line2d_33">
    <path d="M 321.157492 177.319178 
L 333.209532 189.371218 
" clip-path="url(#pabf7eab80e)" style="fill: none; stroke: #002d9c; stroke-width: 2; stroke-linecap: square"/>
   </g>
   <g id="line2d_34">
    <path d="M 413.865491 235.725217 
L 425.917531 223.673177 
" clip-path="url(#pabf7eab80e)" style="fill: none; stroke: #002d9c; stroke-width: 2; stroke-linecap: square"/>
   </g>
   <g id="line2d_35">
    <path d="M 413.865491 223.673177 
L 425.917531 235.725217 
" clip-path="url(#pabf7eab80e)" style="fill: none; stroke: #002d9c; stroke-width: 2; stroke-linecap: square"/>
   </g>
   <g id="line2d_36">
    <path d="M 413.865491 189.371218 
L 425.917531 177.319178 
" clip-path="url(#pabf7eab80e)" style="fill: none; stroke: #002d9c; stroke-width: 2; stroke-linecap: square"/>
   </g>
   <g id="line2d_37">
    <path d="M 413.865491 177.319178 
L 425.917531 189.371218 
" clip-path="url(#pabf7eab80e)" style="fill: none; stroke: #002d9c; stroke-width: 2; stroke-linecap: square"/>
   </g>
   <g id="line2d_38">
    <path d="M 506.57349 235.725217 
L 518.625529 223.673177 
" clip-path="url(#pabf7eab80e)" style="fill: none; stroke: #002d9c; stroke-width: 2; stroke-linecap: square"/>
   </g>
   <g id="line2d_39">
    <path d="M 506.57349 223.673177 
L 518.625529 235.725217 
" clip-path="url(#pabf7eab80e)" style="fill: none; stroke: #002d9c; stroke-width: 2; stroke-linecap: square"/>
   </g>
   <g id="line2d_40">
    <path d="M 506.57349 282.079216 
L 518.625529 270.027177 
" clip-path="url(#pabf7eab80e)" style="fill: none; stroke: #002d9c; stroke-width: 2; stroke-linecap: square"/>
   </g>
   <g id="line2d_41">
    <path d="M 506.57349 270.027177 
L 518.625529 282.079216 
" clip-path="url(#pabf7eab80e)" style="fill: none; stroke: #002d9c; stroke-width: 2; stroke-linecap: square"/>
   </g>
   <g id="line2d_42">
    <path d="M 552.927489 96.663219 
L 564.979529 84.611179 
" clip-path="url(#pabf7eab80e)" style="fill: none; stroke: #002d9c; stroke-width: 2; stroke-linecap: square"/>
   </g>
   <g id="line2d_43">
    <path d="M 552.927489 84.611179 
L 564.979529 96.663219 
" clip-path="url(#pabf7eab80e)" style="fill: none; stroke: #002d9c; stroke-width: 2; stroke-linecap: square"/>
   </g>
   <g id="line2d_44">
    <path d="M 552.927489 143.017218 
L 564.979529 130.965178 
" clip-path="url(#pabf7eab80e)" style="fill: none; stroke: #002d9c; stroke-width: 2; stroke-linecap: square"/>
   </g>
   <g id="line2d_45">
    <path d="M 552.927489 130.965178 
L 564.979529 143.017218 
" clip-path="url(#pabf7eab80e)" style="fill: none; stroke: #002d9c; stroke-width: 2; stroke-linecap: square"/>
   </g>
   <g id="line2d_46">
    <path d="M 599.281488 96.663219 
L 611.333528 84.611179 
" clip-path="url(#pabf7eab80e)" style="fill: none; stroke: #002d9c; stroke-width: 2; stroke-linecap: square"/>
   </g>
   <g id="line2d_47">
    <path d="M 599.281488 84.611179 
L 611.333528 96.663219 
" clip-path="url(#pabf7eab80e)" style="fill: none; stroke: #002d9c; stroke-width: 2; stroke-linecap: square"/>
   </g>
   <g id="line2d_48">
    <path d="M 599.281488 189.371218 
L 611.333528 177.319178 
" clip-path="url(#pabf7eab80e)" style="fill: none; stroke: #002d9c; stroke-width: 2; stroke-linecap: square"/>
   </g>
   <g id="line2d_49">
    <path d="M 599.281488 177.319178 
L 611.333528 189.371218 
" clip-path="url(#pabf7eab80e)" style="fill: none; stroke: #002d9c; stroke-width: 2; stroke-linecap: square"/>
   </g>
   <g id="line2d_50">
    <path d="M 691.989487 96.663219 
L 704.041527 84.611179 
" clip-path="url(#pabf7eab80e)" style="fill: none; stroke: #002d9c; stroke-width: 2; stroke-linecap: square"/>
   </g>
   <g id="line2d_51">
    <path d="M 691.989487 84.611179 
L 704.041527 96.663219 
" clip-path="url(#pabf7eab80e)" style="fill: none; stroke: #002d9c; stroke-width: 2; stroke-linecap: square"/>
   </g>
   <g id="line2d_52">
    <path d="M 691.989487 235.725217 
L 704.041527 223.673177 
" clip-path="url(#pabf7eab80e)" style="fill: none; stroke: #002d9c; stroke-width: 2; stroke-linecap: square"/>
   </g>
   <g id="line2d_53">
    <path d="M 691.989487 223.673177 
L 704.041527 235.725217 
" clip-path="url(#pabf7eab80e)" style="fill: none; stroke: #002d9c; stroke-width: 2; stroke-linecap: square"/>
   </g>
   <g id="patch_4">
    <path d="M 80.348465 59.348249 
L 110.478565 59.348249 
L 110.478565 29.21815 
L 80.348465 29.21815 
z
" clip-path="url(#pabf7eab80e)" style="fill: #fa4d56; stroke: #fa4d56; stroke-width: 1.5; stroke-linejoin: miter"/>
   </g>
   <g id="patch_5">
    <path d="M 141.767514 48.802714 
C 142.966104 48.802714 144.115763 48.32651 144.963294 47.478979 
C 145.810825 46.631448 146.287029 45.481789 146.287029 44.2832 
C 146.287029 43.08461 145.810825 41.934951 144.963294 41.08742 
C 144.115763 40.239889 142.966104 39.763685 141.767514 39.763685 
C 140.568925 39.763685 139.419265 40.239889 138.571735 41.08742 
C 137.724204 41.934951 137.247999 43.08461 137.247999 44.2832 
C 137.247999 45.481789 137.724204 46.631448 138.571735 47.478979 
C 139.419265 48.32651 140.568925 48.802714 141.767514 48.802714 
z
" clip-path="url(#pabf7eab80e)" style="fill: #002d9c; stroke: #002d9c; stroke-width: 1.5; stroke-linejoin: miter"/>
   </g>
   <g id="patch_6">
    <path d="M 141.767514 101.182734 
C 144.564223 101.182734 147.246762 100.07159 149.224334 98.094018 
C 151.201905 96.116447 152.313049 93.433907 152.313049 90.637199 
C 152.313049 87.84049 151.201905 85.157951 149.224334 83.18038 
C 147.246762 81.202808 144.564223 80.091664 141.767514 80.091664 
C 138.970806 80.091664 136.288267 81.202808 134.310695 83.18038 
C 132.333124 85.157951 131.22198 87.84049 131.22198 90.637199 
C 131.22198 93.433907 132.333124 96.116447 134.310695 98.094018 
C 136.288267 100.07159 138.970806 101.182734 141.767514 101.182734 
z
" clip-path="url(#pabf7eab80e)" style="fill: #002d9c; stroke: #002d9c; stroke-width: 2; stroke-linejoin: miter"/>
   </g>
   <g id="patch_7">
    <path d="M 188.121514 48.802714 
C 189.320103 48.802714 190.469763 48.32651 191.317293 47.478979 
C 192.164824 46.631448 192.641029 45.481789 192.641029 44.2832 
C 192.641029 43.08461 192.164824 41.934951 191.317293 41.08742 
C 190.469763 40.239889 189.320103 39.763685 188.121514 39.763685 
C 186.922924 39.763685 185.773265 40.239889 184.925734 41.08742 
C 184.078203 41.934951 183.601999 43.08461 183.601999 44.2832 
C 183.601999 45.481789 184.078203 46.631448 184.925734 47.478979 
C 185.773265 48.32651 186.922924 48.802714 188.121514 48.802714 
z
" clip-path="url(#pabf7eab80e)" style="fill: #9f1853; stroke: #9f1853; stroke-width: 1.5; stroke-linejoin: miter"/>
   </g>
   <g id="patch_8">
    <path d="M 173.056464 105.702249 
L 203.186564 105.702249 
L 203.186564 75.572149 
L 173.056464 75.572149 
z
" clip-path="url(#pabf7eab80e)" style="fill: #9f1853; stroke: #9f1853; stroke-width: 1.5; stroke-linejoin: miter"/>
   </g>
   <g id="patch_9">
    <path d="M 234.475513 48.802714 
C 235.674103 48.802714 236.823762 48.32651 237.671293 47.478979 
C 238.518823 46.631448 238.995028 45.481789 238.995028 44.2832 
C 238.995028 43.08461 238.518823 41.934951 237.671293 41.08742 
C 236.823762 40.239889 235.674103 39.763685 234.475513 39.763685 
C 233.276924 39.763685 232.127264 40.239889 231.279733 41.08742 
C 230.432203 41.934951 229.955998 43.08461 229.955998 44.2832 
C 229.955998 45.481789 230.432203 46.631448 231.279733 47.478979 
C 232.127264 48.32651 233.276924 48.802714 234.475513 48.802714 
z
" clip-path="url(#pabf7eab80e)" style="fill: #9f1853; stroke: #9f1853; stroke-width: 1.5; stroke-linejoin: miter"/>
   </g>
   <g id="patch_10">
    <path d="M 219.410463 244.764247 
L 249.540563 244.764247 
L 249.540563 214.634147 
L 219.410463 214.634147 
z
" clip-path="url(#pabf7eab80e)" style="fill: #9f1853; stroke: #9f1853; stroke-width: 1.5; stroke-linejoin: miter"/>
   </g>
   <g id="patch_11">
    <path d="M 280.829513 48.802714 
C 282.028102 48.802714 283.177762 48.32651 284.025292 47.478979 
C 284.872823 46.631448 285.349027 45.481789 285.349027 44.2832 
C 285.349027 43.08461 284.872823 41.934951 284.025292 41.08742 
C 283.177762 40.239889 282.028102 39.763685 280.829513 39.763685 
C 279.630923 39.763685 278.481264 40.239889 277.633733 41.08742 
C 276.786202 41.934951 276.309998 43.08461 276.309998 44.2832 
C 276.309998 45.481789 276.786202 46.631448 277.633733 47.478979 
C 278.481264 48.32651 279.630923 48.802714 280.829513 48.802714 
z
" clip-path="url(#pabf7eab80e)" style="fill: #002d9c; stroke: #002d9c; stroke-width: 1.5; stroke-linejoin: miter"/>
   </g>
   <g id="patch_12">
    <path d="M 280.829513 147.536733 
C 283.626221 147.536733 286.30876 146.425589 288.286332 144.448017 
C 290.263903 142.470446 291.375047 139.787907 291.375047 136.991198 
C 291.375047 134.19449 290.263903 131.511951 288.286332 129.534379 
C 286.30876 127.556807 283.626221 126.445663 280.829513 126.445663 
C 278.032804 126.445663 275.350265 127.556807 273.372693 129.534379 
C 271.395122 131.511951 270.283978 134.19449 270.283978 136.991198 
C 270.283978 139.787907 271.395122 142.470446 273.372693 144.448017 
C 275.350265 146.425589 278.032804 147.536733 280.829513 147.536733 
z
" clip-path="url(#pabf7eab80e)" style="fill: #002d9c; stroke: #002d9c; stroke-width: 2; stroke-linejoin: miter"/>
   </g>
   <g id="patch_13">
    <path d="M 327.183512 48.802714 
C 328.382101 48.802714 329.531761 48.32651 330.379292 47.478979 
C 331.226822 46.631448 331.703027 45.481789 331.703027 44.2832 
C 331.703027 43.08461 331.226822 41.934951 330.379292 41.08742 
C 329.531761 40.239889 328.382101 39.763685 327.183512 39.763685 
C 325.984923 39.763685 324.835263 40.239889 323.987732 41.08742 
C 323.140202 41.934951 322.663997 43.08461 322.663997 44.2832 
C 322.663997 45.481789 323.140202 46.631448 323.987732 47.478979 
C 324.835263 48.32651 325.984923 48.802714 327.183512 48.802714 
z
" clip-path="url(#pabf7eab80e)" style="fill: #002d9c; stroke: #002d9c; stroke-width: 1.5; stroke-linejoin: miter"/>
   </g>
   <g id="patch_14">
    <path d="M 373.537511 48.802714 
C 374.736101 48.802714 375.88576 48.32651 376.733291 47.478979 
C 377.580822 46.631448 378.057026 45.481789 378.057026 44.2832 
C 378.057026 43.08461 377.580822 41.934951 376.733291 41.08742 
C 375.88576 40.239889 374.736101 39.763685 373.537511 39.763685 
C 372.338922 39.763685 371.189262 40.239889 370.341732 41.08742 
C 369.494201 41.934951 369.017996 43.08461 369.017996 44.2832 
C 369.017996 45.481789 369.494201 46.631448 370.341732 47.478979 
C 371.189262 48.32651 372.338922 48.802714 373.537511 48.802714 
z
" clip-path="url(#pabf7eab80e)" style="fill: #002d9c; stroke: #002d9c; stroke-width: 1.5; stroke-linejoin: miter"/>
   </g>
   <g id="patch_15">
    <path d="M 373.537511 95.156714 
C 374.736101 95.156714 375.88576 94.680509 376.733291 93.832979 
C 377.580822 92.985448 378.057026 91.835788 378.057026 90.637199 
C 378.057026 89.43861 377.580822 88.28895 376.733291 87.441419 
C 375.88576 86.593889 374.736101 86.117684 373.537511 86.117684 
C 372.338922 86.117684 371.189262 86.593889 370.341732 87.441419 
C 369.494201 88.28895 369.017996 89.43861 369.017996 90.637199 
C 369.017996 91.835788 369.494201 92.985448 370.341732 93.832979 
C 371.189262 94.680509 372.338922 95.156714 373.537511 95.156714 
z
" clip-path="url(#pabf7eab80e)" style="fill: #ffffff; stroke: #002d9c; stroke-width: 1.5; stroke-linejoin: miter"/>
   </g>
   <g id="patch_16">
    <path d="M 373.537511 147.536733 
C 376.33422 147.536733 379.016759 146.425589 380.994331 144.448017 
C 382.971902 142.470446 384.083046 139.787907 384.083046 136.991198 
C 384.083046 134.19449 382.971902 131.511951 380.994331 129.534379 
C 379.016759 127.556807 376.33422 126.445663 373.537511 126.445663 
C 370.740803 126.445663 368.058264 127.556807 366.080692 129.534379 
C 364.103121 131.511951 362.991976 134.19449 362.991976 136.991198 
C 362.991976 139.787907 364.103121 142.470446 366.080692 144.448017 
C 368.058264 146.425589 370.740803 147.536733 373.537511 147.536733 
z
" clip-path="url(#pabf7eab80e)" style="fill: #002d9c; stroke: #002d9c; stroke-width: 2; stroke-linejoin: miter"/>
   </g>
   <g id="patch_17">
    <path d="M 419.891511 48.802714 
C 421.0901 48.802714 422.23976 48.32651 423.08729 47.478979 
C 423.934821 46.631448 424.411026 45.481789 424.411026 44.2832 
C 424.411026 43.08461 423.934821 41.934951 423.08729 41.08742 
C 422.23976 40.239889 421.0901 39.763685 419.891511 39.763685 
C 418.692921 39.763685 417.543262 40.239889 416.695731 41.08742 
C 415.8482 41.934951 415.371996 43.08461 415.371996 44.2832 
C 415.371996 45.481789 415.8482 46.631448 416.695731 47.478979 
C 417.543262 48.32651 418.692921 48.802714 419.891511 48.802714 
z
" clip-path="url(#pabf7eab80e)" style="fill: #002d9c; stroke: #002d9c; stroke-width: 1.5; stroke-linejoin: miter"/>
   </g>
   <g id="patch_18">
    <path d="M 419.891511 95.156714 
C 421.0901 95.156714 422.23976 94.680509 423.08729 93.832979 
C 423.934821 92.985448 424.411026 91.835788 424.411026 90.637199 
C 424.411026 89.43861 423.934821 88.28895 423.08729 87.441419 
C 422.23976 86.593889 421.0901 86.117684 419.891511 86.117684 
C 418.692921 86.117684 417.543262 86.593889 416.695731 87.441419 
C 415.8482 88.28895 415.371996 89.43861 415.371996 90.637199 
C 415.371996 91.835788 415.8482 92.985448 416.695731 93.832979 
C 417.543262 94.680509 418.692921 95.156714 419.891511 95.156714 
z
" clip-path="url(#pabf7eab80e)" style="fill: #ffffff; stroke: #002d9c; stroke-width: 1.5; stroke-linejoin: miter"/>
   </g>
   <g id="patch_19">
    <path d="M 466.24551 48.802714 
C 467.444099 48.802714 468.593759 48.32651 469.44129 47.478979 
C 470.28882 46.631448 470.765025 45.481789 470.765025 44.2832 
C 470.765025 43.08461 470.28882 41.934951 469.44129 41.08742 
C 468.593759 40.239889 467.444099 39.763685 466.24551 39.763685 
C 465.046921 39.763685 463.897261 40.239889 463.04973 41.08742 
C 462.2022 41.934951 461.725995 43.08461 461.725995 44.2832 
C 461.725995 45.481789 462.2022 46.631448 463.04973 47.478979 
C 463.897261 48.32651 465.046921 48.802714 466.24551 48.802714 
z
" clip-path="url(#pabf7eab80e)" style="fill: #002d9c; stroke: #002d9c; stroke-width: 1.5; stroke-linejoin: miter"/>
   </g>
   <g id="patch_20">
    <path d="M 466.24551 286.598731 
C 469.042219 286.598731 471.724758 285.487587 473.702329 283.510016 
C 475.679901 281.532444 476.791045 278.849905 476.791045 276.053196 
C 476.791045 273.256488 475.679901 270.573949 473.702329 268.596377 
C 471.724758 266.618806 469.042219 265.507662 466.24551 265.507662 
C 463.448802 265.507662 460.766262 266.618806 458.788691 268.596377 
C 456.811119 270.573949 455.699975 273.256488 455.699975 276.053196 
C 455.699975 278.849905 456.811119 281.532444 458.788691 283.510016 
C 460.766262 285.487587 463.448802 286.598731 466.24551 286.598731 
z
" clip-path="url(#pabf7eab80e)" style="fill: #002d9c; stroke: #002d9c; stroke-width: 2; stroke-linejoin: miter"/>
   </g>
   <g id="patch_21">
    <path d="M 512.599509 48.802714 
C 513.798099 48.802714 514.947758 48.32651 515.795289 47.478979 
C 516.64282 46.631448 517.119024 45.481789 517.119024 44.2832 
C 517.119024 43.08461 516.64282 41.934951 515.795289 41.08742 
C 514.947758 40.239889 513.798099 39.763685 512.599509 39.763685 
C 511.40092 39.763685 510.25126 40.239889 509.40373 41.08742 
C 508.556199 41.934951 508.079995 43.08461 508.079995 44.2832 
C 508.079995 45.481789 508.556199 46.631448 509.40373 47.478979 
C 510.25126 48.32651 511.40092 48.802714 512.599509 48.802714 
z
" clip-path="url(#pabf7eab80e)" style="fill: #002d9c; stroke: #002d9c; stroke-width: 1.5; stroke-linejoin: miter"/>
   </g>
   <g id="patch_22">
    <path d="M 512.599509 141.510713 
C 513.798099 141.510713 514.947758 141.034509 515.795289 140.186978 
C 516.64282 139.339447 517.119024 138.189788 517.119024 136.991198 
C 517.119024 135.792609 516.64282 134.642949 515.795289 133.795419 
C 514.947758 132.947888 513.798099 132.471683 512.599509 132.471683 
C 511.40092 132.471683 510.25126 132.947888 509.40373 133.795419 
C 508.556199 134.642949 508.079995 135.792609 508.079995 136.991198 
C 508.079995 138.189788 508.556199 139.339447 509.40373 140.186978 
C 510.25126 141.034509 511.40092 141.510713 512.599509 141.510713 
z
" clip-path="url(#pabf7eab80e)" style="fill: #002d9c; stroke: #002d9c; stroke-width: 1.5; stroke-linejoin: miter"/>
   </g>
   <g id="patch_23">
    <path d="M 558.953509 48.802714 
C 560.152098 48.802714 561.301758 48.32651 562.149288 47.478979 
C 562.996819 46.631448 563.473024 45.481789 563.473024 44.2832 
C 563.473024 43.08461 562.996819 41.934951 562.149288 41.08742 
C 561.301758 40.239889 560.152098 39.763685 558.953509 39.763685 
C 557.754919 39.763685 556.60526 40.239889 555.757729 41.08742 
C 554.910198 41.934951 554.433994 43.08461 554.433994 44.2832 
C 554.433994 45.481789 554.910198 46.631448 555.757729 47.478979 
C 556.60526 48.32651 557.754919 48.802714 558.953509 48.802714 
z
" clip-path="url(#pabf7eab80e)" style="fill: #002d9c; stroke: #002d9c; stroke-width: 1.5; stroke-linejoin: miter"/>
   </g>
   <g id="patch_24">
    <path d="M 543.888459 291.118246 
L 574.018559 291.118246 
L 574.018559 260.988147 
L 543.888459 260.988147 
z
" clip-path="url(#pabf7eab80e)" style="fill: #a8a8a8; stroke: #a8a8a8; stroke-width: 1.5; stroke-linejoin: miter"/>
   </g>
   <g id="patch_25">
    <path d="M 605.307508 48.802714 
C 606.506098 48.802714 607.655757 48.32651 608.503288 47.478979 
C 609.350819 46.631448 609.827023 45.481789 609.827023 44.2832 
C 609.827023 43.08461 609.350819 41.934951 608.503288 41.08742 
C 607.655757 40.239889 606.506098 39.763685 605.307508 39.763685 
C 604.108919 39.763685 602.959259 40.239889 602.111729 41.08742 
C 601.264198 41.934951 600.787993 43.08461 600.787993 44.2832 
C 600.787993 45.481789 601.264198 46.631448 602.111729 47.478979 
C 602.959259 48.32651 604.108919 48.802714 605.307508 48.802714 
z
" clip-path="url(#pabf7eab80e)" style="fill: #002d9c; stroke: #002d9c; stroke-width: 1.5; stroke-linejoin: miter"/>
   </g>
   <g id="patch_26">
    <path d="M 636.596458 152.056248 
L 666.726557 152.056248 
L 666.726557 121.926148 
L 636.596458 121.926148 
z
" clip-path="url(#pabf7eab80e)" style="fill: #a8a8a8; stroke: #a8a8a8; stroke-width: 1.5; stroke-linejoin: miter"/>
   </g>
   <g id="patch_27">
    <path d="M 636.596458 198.410247 
L 666.726557 198.410247 
L 666.726557 168.280148 
L 636.596458 168.280148 
z
" clip-path="url(#pabf7eab80e)" style="fill: #a8a8a8; stroke: #a8a8a8; stroke-width: 1.5; stroke-linejoin: miter"/>
   </g>
   <g id="patch_28">
    <path d="M 698.015507 48.802714 
C 699.214096 48.802714 700.363756 48.32651 701.211287 47.478979 
C 702.058817 46.631448 702.535022 45.481789 702.535022 44.2832 
C 702.535022 43.08461 702.058817 41.934951 701.211287 41.08742 
C 700.363756 40.239889 699.214096 39.763685 698.015507 39.763685 
C 696.816918 39.763685 695.667258 40.239889 694.819727 41.08742 
C 693.972197 41.934951 693.495992 43.08461 693.495992 44.2832 
C 693.495992 45.481789 693.972197 46.631448 694.819727 47.478979 
C 695.667258 48.32651 696.816918 48.802714 698.015507 48.802714 
z
" clip-path="url(#pabf7eab80e)" style="fill: #002d9c; stroke: #002d9c; stroke-width: 1.5; stroke-linejoin: miter"/>
   </g>
   <g id="patch_29">
    <path d="M 729.304457 59.348249 
L 759.434556 59.348249 
L 759.434556 29.21815 
L 729.304457 29.21815 
z
" clip-path="url(#pabf7eab80e)" style="fill: #a8a8a8; stroke: #a8a8a8; stroke-width: 1.5; stroke-linejoin: miter"/>
   </g>
   <g id="patch_30">
    <path d="M 729.304457 244.764247 
L 759.434556 244.764247 
L 759.434556 214.634147 
L 729.304457 214.634147 
z
" clip-path="url(#pabf7eab80e)" style="fill: #a8a8a8; stroke: #a8a8a8; stroke-width: 1.5; stroke-linejoin: miter"/>
   </g>
   <g id="patch_31">
    <path d="M 775.658456 105.702249 
L 805.788556 105.702249 
L 805.788556 75.572149 
L 775.658456 75.572149 
z
" clip-path="url(#pabf7eab80e)" style="fill: #a8a8a8; stroke: #a8a8a8; stroke-width: 1.5; stroke-linejoin: miter"/>
   </g>
   <g id="patch_32">
    <path d="M 801.269041 95.156714 
C 801.269041 92.360937 800.157238 89.676808 798.180325 87.699895 
C 796.203412 85.722982 793.519283 84.611179 790.723506 84.611179 
C 787.927729 84.611179 785.243599 85.722982 783.266687 87.699895 
C 781.289774 89.676808 780.177971 92.360937 780.177971 95.156714 
" clip-path="url(#pabf7eab80e)" style="fill: none; stroke: #000000; stroke-width: 2; stroke-linejoin: miter"/>
   </g>
   <g id="line2d_54">
    <path d="M 790.723506 95.156714 
L 801.269041 84.611179 
" clip-path="url(#pabf7eab80e)" style="fill: none; stroke: #000000; stroke-width: 2; stroke-linecap: square"/>
   </g>
   <g id="line2d_55">
    <path d="M 141.767514 96.663219 
L 141.767514 84.611179 
" clip-path="url(#pabf7eab80e)" style="fill: none; stroke: #ffffff; stroke-width: 2; stroke-linecap: square"/>
   </g>
   <g id="line2d_56">
    <path d="M 135.741494 90.637199 
L 147.793534 90.637199 
" clip-path="url(#pabf7eab80e)" style="fill: none; stroke: #ffffff; stroke-width: 2; stroke-linecap: square"/>
   </g>
   <g id="line2d_57">
    <path d="M 280.829513 143.017218 
L 280.829513 130.965178 
" clip-path="url(#pabf7eab80e)" style="fill: none; stroke: #ffffff; stroke-width: 2; stroke-linecap: square"/>
   </g>
   <g id="line2d_58">
    <path d="M 274.803493 136.991198 
L 286.855532 136.991198 
" clip-path="url(#pabf7eab80e)" style="fill: none; stroke: #ffffff; stroke-width: 2; stroke-linecap: square"/>
   </g>
   <g id="line2d_59">
    <path d="M 373.537511 143.017218 
L 373.537511 130.965178 
" clip-path="url(#pabf7eab80e)" style="fill: none; stroke: #ffffff; stroke-width: 2; stroke-linecap: square"/>
   </g>
   <g id="line2d_60">
    <path d="M 367.511491 136.991198 
L 379.563531 136.991198 
" clip-path="url(#pabf7eab80e)" style="fill: none; stroke: #ffffff; stroke-width: 2; stroke-linecap: square"/>
   </g>
   <g id="line2d_61">
    <path d="M 466.24551 282.079216 
L 466.24551 270.027177 
" clip-path="url(#pabf7eab80e)" style="fill: none; stroke: #ffffff; stroke-width: 2; stroke-linecap: square"/>
   </g>
   <g id="line2d_62">
    <path d="M 460.21949 276.053196 
L 472.27153 276.053196 
" clip-path="url(#pabf7eab80e)" style="fill: none; stroke: #ffffff; stroke-width: 2; stroke-linecap: square"/>
   </g>
   <g id="text_1">
    <g clip-path="url(#pabf7eab80e)">
     <!-- ${q}_{0}$ -->
     <g transform="translate(43.074055 48.734176) scale(0.1625 -0.1625)">
      <defs>
       <path id="DejaVuSans-Oblique-71" d="M 2669 525 
Q 2438 222 2123 65 
Q 1809 -91 1428 -91 
Q 897 -91 595 267 
Q 294 625 294 1253 
Q 294 1759 480 2231 
Q 666 2703 1013 3078 
Q 1238 3322 1530 3453 
Q 1822 3584 2144 3584 
Q 2531 3584 2781 3431 
Q 3031 3278 3144 2969 
L 3244 3494 
L 3822 3494 
L 2888 -1319 
L 2309 -1319 
L 2669 525 
z
M 891 1338 
Q 891 875 1084 633 
Q 1278 391 1644 391 
Q 2188 391 2572 911 
Q 2956 1431 2956 2175 
Q 2956 2625 2757 2864 
Q 2559 3103 2188 3103 
Q 1916 3103 1684 2976 
Q 1453 2850 1281 2606 
Q 1100 2350 995 2006 
Q 891 1663 891 1338 
z
" transform="scale(0.015625)"/>
       <path id="DejaVuSans-30" d="M 2034 4250 
Q 1547 4250 1301 3770 
Q 1056 3291 1056 2328 
Q 1056 1369 1301 889 
Q 1547 409 2034 409 
Q 2525 409 2770 889 
Q 3016 1369 3016 2328 
Q 3016 3291 2770 3770 
Q 2525 4250 2034 4250 
z
M 2034 4750 
Q 2819 4750 3233 4129 
Q 3647 3509 3647 2328 
Q 3647 1150 3233 529 
Q 2819 -91 2034 -91 
Q 1250 -91 836 529 
Q 422 1150 422 2328 
Q 422 3509 836 4129 
Q 1250 4750 2034 4750 
z
" transform="scale(0.015625)"/>
      </defs>
      <use xlink:href="#DejaVuSans-Oblique-71"/>
      <use xlink:href="#DejaVuSans-30" transform="translate(63.476562 -16.40625) scale(0.7)"/>
     </g>
    </g>
   </g>
   <g id="text_2">
    <g clip-path="url(#pabf7eab80e)">
     <!-- ${q}_{1}$ -->
     <g transform="translate(43.074055 95.088175) scale(0.1625 -0.1625)">
      <defs>
       <path id="DejaVuSans-31" d="M 794 531 
L 1825 531 
L 1825 4091 
L 703 3866 
L 703 4441 
L 1819 4666 
L 2450 4666 
L 2450 531 
L 3481 531 
L 3481 0 
L 794 0 
L 794 531 
z
" transform="scale(0.015625)"/>
      </defs>
      <use xlink:href="#DejaVuSans-Oblique-71"/>
      <use xlink:href="#DejaVuSans-31" transform="translate(63.476562 -16.40625) scale(0.7)"/>
     </g>
    </g>
   </g>
   <g id="text_3">
    <g clip-path="url(#pabf7eab80e)">
     <!-- ${q}_{2}$ -->
     <g transform="translate(43.074055 141.442175) scale(0.1625 -0.1625)">
      <defs>
       <path id="DejaVuSans-32" d="M 1228 531 
L 3431 531 
L 3431 0 
L 469 0 
L 469 531 
Q 828 903 1448 1529 
Q 2069 2156 2228 2338 
Q 2531 2678 2651 2914 
Q 2772 3150 2772 3378 
Q 2772 3750 2511 3984 
Q 2250 4219 1831 4219 
Q 1534 4219 1204 4116 
Q 875 4013 500 3803 
L 500 4441 
Q 881 4594 1212 4672 
Q 1544 4750 1819 4750 
Q 2544 4750 2975 4387 
Q 3406 4025 3406 3419 
Q 3406 3131 3298 2873 
Q 3191 2616 2906 2266 
Q 2828 2175 2409 1742 
Q 1991 1309 1228 531 
z
" transform="scale(0.015625)"/>
      </defs>
      <use xlink:href="#DejaVuSans-Oblique-71"/>
      <use xlink:href="#DejaVuSans-32" transform="translate(63.476562 -16.40625) scale(0.7)"/>
     </g>
    </g>
   </g>
   <g id="text_4">
    <g clip-path="url(#pabf7eab80e)">
     <!-- ${q}_{3}$ -->
     <g transform="translate(43.074055 187.796174) scale(0.1625 -0.1625)">
      <defs>
       <path id="DejaVuSans-33" d="M 2597 2516 
Q 3050 2419 3304 2112 
Q 3559 1806 3559 1356 
Q 3559 666 3084 287 
Q 2609 -91 1734 -91 
Q 1441 -91 1130 -33 
Q 819 25 488 141 
L 488 750 
Q 750 597 1062 519 
Q 1375 441 1716 441 
Q 2309 441 2620 675 
Q 2931 909 2931 1356 
Q 2931 1769 2642 2001 
Q 2353 2234 1838 2234 
L 1294 2234 
L 1294 2753 
L 1863 2753 
Q 2328 2753 2575 2939 
Q 2822 3125 2822 3475 
Q 2822 3834 2567 4026 
Q 2313 4219 1838 4219 
Q 1578 4219 1281 4162 
Q 984 4106 628 3988 
L 628 4550 
Q 988 4650 1302 4700 
Q 1616 4750 1894 4750 
Q 2613 4750 3031 4423 
Q 3450 4097 3450 3541 
Q 3450 3153 3228 2886 
Q 3006 2619 2597 2516 
z
" transform="scale(0.015625)"/>
      </defs>
      <use xlink:href="#DejaVuSans-Oblique-71"/>
      <use xlink:href="#DejaVuSans-33" transform="translate(63.476562 -16.40625) scale(0.7)"/>
     </g>
    </g>
   </g>
   <g id="text_5">
    <g clip-path="url(#pabf7eab80e)">
     <!-- ${q}_{4}$ -->
     <g transform="translate(43.074055 234.150174) scale(0.1625 -0.1625)">
      <defs>
       <path id="DejaVuSans-34" d="M 2419 4116 
L 825 1625 
L 2419 1625 
L 2419 4116 
z
M 2253 4666 
L 3047 4666 
L 3047 1625 
L 3713 1625 
L 3713 1100 
L 3047 1100 
L 3047 0 
L 2419 0 
L 2419 1100 
L 313 1100 
L 313 1709 
L 2253 4666 
z
" transform="scale(0.015625)"/>
      </defs>
      <use xlink:href="#DejaVuSans-Oblique-71"/>
      <use xlink:href="#DejaVuSans-34" transform="translate(63.476562 -16.40625) scale(0.7)"/>
     </g>
    </g>
   </g>
   <g id="text_6">
    <g clip-path="url(#pabf7eab80e)">
     <!-- ${q}_{5}$ -->
     <g transform="translate(43.074055 280.504173) scale(0.1625 -0.1625)">
      <defs>
       <path id="DejaVuSans-35" d="M 691 4666 
L 3169 4666 
L 3169 4134 
L 1269 4134 
L 1269 2991 
Q 1406 3038 1543 3061 
Q 1681 3084 1819 3084 
Q 2600 3084 3056 2656 
Q 3513 2228 3513 1497 
Q 3513 744 3044 326 
Q 2575 -91 1722 -91 
Q 1428 -91 1123 -41 
Q 819 9 494 109 
L 494 744 
Q 775 591 1075 516 
Q 1375 441 1709 441 
Q 2250 441 2565 725 
Q 2881 1009 2881 1497 
Q 2881 1984 2565 2268 
Q 2250 2553 1709 2553 
Q 1456 2553 1204 2497 
Q 953 2441 691 2322 
L 691 4666 
z
" transform="scale(0.015625)"/>
      </defs>
      <use xlink:href="#DejaVuSans-Oblique-71"/>
      <use xlink:href="#DejaVuSans-35" transform="translate(63.476562 -16.40625) scale(0.7)"/>
     </g>
    </g>
   </g>
   <g id="text_7">
    <g clip-path="url(#pabf7eab80e)">
     <!-- 1 -->
     <g transform="translate(75.017755 315.608921) scale(0.104 -0.104)">
      <use xlink:href="#DejaVuSans-31"/>
     </g>
    </g>
   </g>
   <g id="text_8">
    <g clip-path="url(#pabf7eab80e)">
     <!-- out -->
     <g transform="translate(34.499641 326.89118) scale(0.1625 -0.1625)">
      <defs>
       <path id="DejaVuSans-6f" d="M 1959 3097 
Q 1497 3097 1228 2736 
Q 959 2375 959 1747 
Q 959 1119 1226 758 
Q 1494 397 1959 397 
Q 2419 397 2687 759 
Q 2956 1122 2956 1747 
Q 2956 2369 2687 2733 
Q 2419 3097 1959 3097 
z
M 1959 3584 
Q 2709 3584 3137 3096 
Q 3566 2609 3566 1747 
Q 3566 888 3137 398 
Q 2709 -91 1959 -91 
Q 1206 -91 779 398 
Q 353 888 353 1747 
Q 353 2609 779 3096 
Q 1206 3584 1959 3584 
z
" transform="scale(0.015625)"/>
       <path id="DejaVuSans-75" d="M 544 1381 
L 544 3500 
L 1119 3500 
L 1119 1403 
Q 1119 906 1312 657 
Q 1506 409 1894 409 
Q 2359 409 2629 706 
Q 2900 1003 2900 1516 
L 2900 3500 
L 3475 3500 
L 3475 0 
L 2900 0 
L 2900 538 
Q 2691 219 2414 64 
Q 2138 -91 1772 -91 
Q 1169 -91 856 284 
Q 544 659 544 1381 
z
M 1991 3584 
L 1991 3584 
z
" transform="scale(0.015625)"/>
       <path id="DejaVuSans-74" d="M 1172 4494 
L 1172 3500 
L 2356 3500 
L 2356 3053 
L 1172 3053 
L 1172 1153 
Q 1172 725 1289 603 
Q 1406 481 1766 481 
L 2356 481 
L 2356 0 
L 1766 0 
Q 1100 0 847 248 
Q 594 497 594 1153 
L 594 3053 
L 172 3053 
L 172 3500 
L 594 3500 
L 594 4494 
L 1172 4494 
z
" transform="scale(0.015625)"/>
      </defs>
      <use xlink:href="#DejaVuSans-6f"/>
      <use xlink:href="#DejaVuSans-75" x="61.181641"/>
      <use xlink:href="#DejaVuSans-74" x="124.560547"/>
     </g>
    </g>
   </g>
   <g id="text_9">
    <g clip-path="url(#pabf7eab80e)">
     <!-- H -->
     <g transform="translate(90.525312 47.870387) scale(0.13 -0.13)">
      <defs>
       <path id="DejaVuSans-48" d="M 628 4666 
L 1259 4666 
L 1259 2753 
L 3553 2753 
L 3553 4666 
L 4184 4666 
L 4184 0 
L 3553 0 
L 3553 2222 
L 1259 2222 
L 1259 0 
L 628 0 
L 628 4666 
z
" transform="scale(0.015625)"/>
      </defs>
      <use xlink:href="#DejaVuSans-48"/>
     </g>
    </g>
   </g>
   <g id="text_10">
    <g clip-path="url(#pabf7eab80e)">
     <!-- H -->
     <g style="fill: #ffffff" transform="translate(183.233311 94.224386) scale(0.13 -0.13)">
      <use xlink:href="#DejaVuSans-48"/>
     </g>
    </g>
   </g>
   <g id="text_11">
    <g clip-path="url(#pabf7eab80e)">
     <!-- H -->
     <g style="fill: #ffffff" transform="translate(229.58731 233.286385) scale(0.13 -0.13)">
      <use xlink:href="#DejaVuSans-48"/>
     </g>
    </g>
   </g>
   <g id="text_12">
    <g clip-path="url(#pabf7eab80e)">
     <!-- $\mathrm{\left|0\right\rangle}$ -->
     <g transform="translate(550.568509 279.640384) scale(0.13 -0.13)">
      <defs>
       <path id="DejaVuSans-7c" d="M 1344 4891 
L 1344 -1509 
L 813 -1509 
L 813 4891 
L 1344 4891 
z
" transform="scale(0.015625)"/>
       <path id="DejaVuSans-27e9" d="M 1925 2006 
L 1044 -844 
L 513 -844 
L 1394 2006 
L 513 4856 
L 1044 4856 
L 1925 2006 
z
" transform="scale(0.015625)"/>
      </defs>
      <use xlink:href="#DejaVuSans-7c" transform="translate(0 16.625) scale(0.756406)"/>
      <use xlink:href="#DejaVuSans-30" transform="translate(25.479126 0.125)"/>
      <use xlink:href="#DejaVuSans-27e9" transform="translate(89.102173 0.125)"/>
     </g>
    </g>
   </g>
   <g id="text_13">
    <g clip-path="url(#pabf7eab80e)">
     <!-- $\mathrm{\left|0\right\rangle}$ -->
     <g transform="translate(643.276508 140.578386) scale(0.13 -0.13)">
      <use xlink:href="#DejaVuSans-7c" transform="translate(0 16.625) scale(0.756406)"/>
      <use xlink:href="#DejaVuSans-30" transform="translate(25.479126 0.125)"/>
      <use xlink:href="#DejaVuSans-27e9" transform="translate(89.102173 0.125)"/>
     </g>
    </g>
   </g>
   <g id="text_14">
    <g clip-path="url(#pabf7eab80e)">
     <!-- $\mathrm{\left|0\right\rangle}$ -->
     <g transform="translate(643.276508 186.932385) scale(0.13 -0.13)">
      <use xlink:href="#DejaVuSans-7c" transform="translate(0 16.625) scale(0.756406)"/>
      <use xlink:href="#DejaVuSans-30" transform="translate(25.479126 0.125)"/>
      <use xlink:href="#DejaVuSans-27e9" transform="translate(89.102173 0.125)"/>
     </g>
    </g>
   </g>
   <g id="text_15">
    <g clip-path="url(#pabf7eab80e)">
     <!-- $\mathrm{\left|0\right\rangle}$ -->
     <g transform="translate(735.984506 47.870387) scale(0.13 -0.13)">
      <use xlink:href="#DejaVuSans-7c" transform="translate(0 16.625) scale(0.756406)"/>
      <use xlink:href="#DejaVuSans-30" transform="translate(25.479126 0.125)"/>
      <use xlink:href="#DejaVuSans-27e9" transform="translate(89.102173 0.125)"/>
     </g>
    </g>
   </g>
   <g id="text_16">
    <g clip-path="url(#pabf7eab80e)">
     <!-- $\mathrm{\left|0\right\rangle}$ -->
     <g transform="translate(735.984506 233.286385) scale(0.13 -0.13)">
      <use xlink:href="#DejaVuSans-7c" transform="translate(0 16.625) scale(0.756406)"/>
      <use xlink:href="#DejaVuSans-30" transform="translate(25.479126 0.125)"/>
      <use xlink:href="#DejaVuSans-27e9" transform="translate(89.102173 0.125)"/>
     </g>
    </g>
   </g>
   <g id="text_17">
    <g clip-path="url(#pabf7eab80e)">
     <!-- 0 -->
     <g transform="translate(802.312006 315.608921) scale(0.104 -0.104)">
      <use xlink:href="#DejaVuSans-30"/>
     </g>
    </g>
   </g>
  </g>
 </g>
 <defs>
  <clipPath id="pabf7eab80e">
   <rect x="7.2" y="7.2" width="814.117145" height="343.019595"/>
  </clipPath>
 </defs>
</svg>
