<?xml version="1.0" encoding="utf-8" standalone="no"?>
<!DOCTYPE svg PUBLIC "-//W3C//DTD SVG 1.1//EN"
  "http://www.w3.org/Graphics/SVG/1.1/DTD/svg11.dtd">
<svg xmlns:xlink="http://www.w3.org/1999/xlink" width="1987.36713pt" height="357.419595pt" viewBox="0 0 1987.36713 357.419595" xmlns="http://www.w3.org/2000/svg" version="1.1">
 <metadata>
  <rdf:RDF xmlns:dc="http://purl.org/dc/elements/1.1/" xmlns:cc="http://creativecommons.org/ns#" xmlns:rdf="http://www.w3.org/1999/02/22-rdf-syntax-ns#">
   <cc:Work>
    <dc:type rdf:resource="http://purl.org/dc/dcmitype/StillImage"/>
    <dc:date>2025-02-18T17:28:24.545133</dc:date>
    <dc:format>image/svg+xml</dc:format>
    <dc:creator>
     <cc:Agent>
      <dc:title>Matplotlib v3.9.1, https://matplotlib.org/</dc:title>
     </cc:Agent>
    </dc:creator>
   </cc:Work>
  </rdf:RDF>
 </metadata>
 <defs>
  <style type="text/css">*{stroke-linejoin: round; stroke-linecap: butt}</style>
 </defs>
 <g id="figure_1">
  <g id="patch_1">
   <path d="M 0 357.419595 
L 1987.36713 357.419595 
L 1987.36713 0 
L 0 0 
z
" style="fill: #ffffff"/>
  </g>
  <g id="axes_1">
   <g id="line2d_1">
    <path d="M 70.382355 44.2832 
L 1975.53173 44.2832 
" clip-path="url(#p73045f18a8)" style="fill: none; stroke: #000000; stroke-width: 2; stroke-linecap: square"/>
   </g>
   <g id="line2d_2">
    <path d="M 70.382355 90.637199 
L 1975.53173 90.637199 
" clip-path="url(#p73045f18a8)" style="fill: none; stroke: #000000; stroke-width: 2; stroke-linecap: square"/>
   </g>
   <g id="line2d_3">
    <path d="M 70.382355 136.991198 
L 1975.53173 136.991198 
" clip-path="url(#p73045f18a8)" style="fill: none; stroke: #000000; stroke-width: 2; stroke-linecap: square"/>
   </g>
   <g id="line2d_4">
    <path d="M 70.382355 183.345198 
L 1975.53173 183.345198 
" clip-path="url(#p73045f18a8)" style="fill: none; stroke: #000000; stroke-width: 2; stroke-linecap: square"/>
   </g>
   <g id="line2d_5">
    <path d="M 70.382355 229.699197 
L 1975.53173 229.699197 
" clip-path="url(#p73045f18a8)" style="fill: none; stroke: #000000; stroke-width: 2; stroke-linecap: square"/>
   </g>
   <g id="line2d_6">
    <path d="M 70.382355 276.053196 
L 1975.53173 276.053196 
" clip-path="url(#p73045f18a8)" style="fill: none; stroke: #000000; stroke-width: 2; stroke-linecap: square"/>
   </g>
   <g id="line2d_7">
    <path d="M 79.653155 327.042596 
L 84.288555 317.771796 
" clip-path="url(#p73045f18a8)" style="fill: none; stroke: #778899; stroke-width: 1.5; stroke-linecap: square"/>
   </g>
   <g id="line2d_8">
    <path d="M 70.382355 320.900691 
L 1975.53173 320.900691 
" clip-path="url(#p73045f18a8)" style="fill: none; stroke: #778899; stroke-width: 2; stroke-linecap: square"/>
   </g>
   <g id="line2d_9">
    <path d="M 70.382355 323.913701 
L 1975.53173 323.913701 
" clip-path="url(#p73045f18a8)" style="fill: none; stroke: #778899; stroke-width: 2; stroke-linecap: square"/>
   </g>
   <g id="patch_2">
    <path d="M 1387.299478 311.861661 
L 1399.351518 311.861661 
L 1393.325498 320.553036 
z
" clip-path="url(#p73045f18a8)" style="fill: #778899"/>
   </g>
   <g id="patch_3">
    <path d="M 1572.715475 311.861661 
L 1584.767515 311.861661 
L 1578.741495 320.553036 
z
" clip-path="url(#p73045f18a8)" style="fill: #778899"/>
   </g>
   <g id="patch_4">
    <path d="M 1758.131473 311.861661 
L 1770.183513 311.861661 
L 1764.157493 320.553036 
z
" clip-path="url(#p73045f18a8)" style="fill: #778899"/>
   </g>
   <g id="patch_5">
    <path d="M 1897.193471 311.861661 
L 1909.245511 311.861661 
L 1903.219491 320.553036 
z
" clip-path="url(#p73045f18a8)" style="fill: #778899"/>
   </g>
   <g id="patch_6">
    <path d="M 1943.54747 311.861661 
L 1955.59951 311.861661 
L 1949.57349 320.553036 
z
" clip-path="url(#p73045f18a8)" style="fill: #778899"/>
   </g>
   <g id="patch_7">
    <path d="M 65.746955 21.1062 
L -1093.103029 21.1062 
L -1093.103029 391.938195 
L 65.746955 391.938195 
z
" clip-path="url(#p73045f18a8)" style="fill: #ffffff; stroke: #ffffff; stroke-width: 1.5; stroke-linejoin: miter"/>
   </g>
   <g id="line2d_10">
    <path d="M 234.475513 276.053196 
L 234.475513 183.345198 
" clip-path="url(#p73045f18a8)" style="fill: none; stroke: #002d9c; stroke-width: 2; stroke-linecap: square"/>
   </g>
   <g id="line2d_11">
    <path d="M 327.183512 276.053196 
L 327.183512 183.345198 
" clip-path="url(#p73045f18a8)" style="fill: none; stroke: #002d9c; stroke-width: 2; stroke-linecap: square"/>
   </g>
   <g id="line2d_12">
    <path d="M 419.891511 276.053196 
L 419.891511 136.991198 
" clip-path="url(#p73045f18a8)" style="fill: none; stroke: #002d9c; stroke-width: 2; stroke-linecap: square"/>
   </g>
   <g id="line2d_13">
    <path d="M 512.599509 276.053196 
L 512.599509 136.991198 
" clip-path="url(#p73045f18a8)" style="fill: none; stroke: #002d9c; stroke-width: 2; stroke-linecap: square"/>
   </g>
   <g id="line2d_14">
    <path d="M 558.953509 276.053196 
L 558.953509 136.991198 
" clip-path="url(#p73045f18a8)" style="fill: none; stroke: #002d9c; stroke-width: 2; stroke-linecap: square"/>
   </g>
   <g id="line2d_15">
    <path d="M 651.661508 276.053196 
L 651.661508 136.991198 
" clip-path="url(#p73045f18a8)" style="fill: none; stroke: #002d9c; stroke-width: 2; stroke-linecap: square"/>
   </g>
   <g id="line2d_16">
    <path d="M 744.369506 276.053196 
L 744.369506 90.637199 
" clip-path="url(#p73045f18a8)" style="fill: none; stroke: #002d9c; stroke-width: 2; stroke-linecap: square"/>
   </g>
   <g id="line2d_17">
    <path d="M 837.077505 276.053196 
L 837.077505 90.637199 
" clip-path="url(#p73045f18a8)" style="fill: none; stroke: #002d9c; stroke-width: 2; stroke-linecap: square"/>
   </g>
   <g id="line2d_18">
    <path d="M 883.431505 276.053196 
L 883.431505 90.637199 
" clip-path="url(#p73045f18a8)" style="fill: none; stroke: #002d9c; stroke-width: 2; stroke-linecap: square"/>
   </g>
   <g id="line2d_19">
    <path d="M 976.139503 276.053196 
L 976.139503 90.637199 
" clip-path="url(#p73045f18a8)" style="fill: none; stroke: #002d9c; stroke-width: 2; stroke-linecap: square"/>
   </g>
   <g id="line2d_20">
    <path d="M 1022.493503 276.053196 
L 1022.493503 90.637199 
" clip-path="url(#p73045f18a8)" style="fill: none; stroke: #002d9c; stroke-width: 2; stroke-linecap: square"/>
   </g>
   <g id="line2d_21">
    <path d="M 1115.201501 276.053196 
L 1115.201501 90.637199 
" clip-path="url(#p73045f18a8)" style="fill: none; stroke: #002d9c; stroke-width: 2; stroke-linecap: square"/>
   </g>
   <g id="line2d_22">
    <path d="M 1207.9095 276.053196 
L 1207.9095 44.2832 
" clip-path="url(#p73045f18a8)" style="fill: none; stroke: #002d9c; stroke-width: 2; stroke-linecap: square"/>
   </g>
   <g id="line2d_23">
    <path d="M 1300.617499 276.053196 
L 1300.617499 44.2832 
" clip-path="url(#p73045f18a8)" style="fill: none; stroke: #002d9c; stroke-width: 2; stroke-linecap: square"/>
   </g>
   <g id="line2d_24">
    <path d="M 1346.971498 276.053196 
L 1346.971498 44.2832 
" clip-path="url(#p73045f18a8)" style="fill: none; stroke: #002d9c; stroke-width: 2; stroke-linecap: square"/>
   </g>
   <g id="line2d_25">
    <path d="M 1394.832003 229.699197 
L 1394.832003 311.861661 
" clip-path="url(#p73045f18a8)" style="fill: none; stroke: #778899; stroke-width: 2; stroke-linecap: square"/>
   </g>
   <g id="line2d_26">
    <path d="M 1391.818993 229.699197 
L 1391.818993 311.861661 
" clip-path="url(#p73045f18a8)" style="fill: none; stroke: #778899; stroke-width: 2; stroke-linecap: square"/>
   </g>
   <g id="line2d_27">
    <path d="M 1486.033497 276.053196 
L 1486.033497 44.2832 
" clip-path="url(#p73045f18a8)" style="fill: none; stroke: #002d9c; stroke-width: 2; stroke-linecap: square"/>
   </g>
   <g id="line2d_28">
    <path d="M 1532.387496 276.053196 
L 1532.387496 44.2832 
" clip-path="url(#p73045f18a8)" style="fill: none; stroke: #002d9c; stroke-width: 2; stroke-linecap: square"/>
   </g>
   <g id="line2d_29">
    <path d="M 1580.248 183.345198 
L 1580.248 311.861661 
" clip-path="url(#p73045f18a8)" style="fill: none; stroke: #778899; stroke-width: 2; stroke-linecap: square"/>
   </g>
   <g id="line2d_30">
    <path d="M 1577.23499 183.345198 
L 1577.23499 311.861661 
" clip-path="url(#p73045f18a8)" style="fill: none; stroke: #778899; stroke-width: 2; stroke-linecap: square"/>
   </g>
   <g id="line2d_31">
    <path d="M 1671.449494 276.053196 
L 1671.449494 44.2832 
" clip-path="url(#p73045f18a8)" style="fill: none; stroke: #002d9c; stroke-width: 2; stroke-linecap: square"/>
   </g>
   <g id="line2d_32">
    <path d="M 1717.803493 276.053196 
L 1717.803493 44.2832 
" clip-path="url(#p73045f18a8)" style="fill: none; stroke: #002d9c; stroke-width: 2; stroke-linecap: square"/>
   </g>
   <g id="line2d_33">
    <path d="M 1765.663998 136.991198 
L 1765.663998 311.861661 
" clip-path="url(#p73045f18a8)" style="fill: none; stroke: #778899; stroke-width: 2; stroke-linecap: square"/>
   </g>
   <g id="line2d_34">
    <path d="M 1762.650988 136.991198 
L 1762.650988 311.861661 
" clip-path="url(#p73045f18a8)" style="fill: none; stroke: #778899; stroke-width: 2; stroke-linecap: square"/>
   </g>
   <g id="line2d_35">
    <path d="M 1856.865492 276.053196 
L 1856.865492 44.2832 
" clip-path="url(#p73045f18a8)" style="fill: none; stroke: #002d9c; stroke-width: 2; stroke-linecap: square"/>
   </g>
   <g id="line2d_36">
    <path d="M 1904.725996 90.637199 
L 1904.725996 311.861661 
" clip-path="url(#p73045f18a8)" style="fill: none; stroke: #778899; stroke-width: 2; stroke-linecap: square"/>
   </g>
   <g id="line2d_37">
    <path d="M 1901.712986 90.637199 
L 1901.712986 311.861661 
" clip-path="url(#p73045f18a8)" style="fill: none; stroke: #778899; stroke-width: 2; stroke-linecap: square"/>
   </g>
   <g id="line2d_38">
    <path d="M 1951.079995 44.2832 
L 1951.079995 311.861661 
" clip-path="url(#p73045f18a8)" style="fill: none; stroke: #778899; stroke-width: 2; stroke-linecap: square"/>
   </g>
   <g id="line2d_39">
    <path d="M 1948.066985 44.2832 
L 1948.066985 311.861661 
" clip-path="url(#p73045f18a8)" style="fill: none; stroke: #778899; stroke-width: 2; stroke-linecap: square"/>
   </g>
   <g id="patch_8">
    <path d="M 80.348465 59.348249 
L 110.478565 59.348249 
L 110.478565 29.21815 
L 80.348465 29.21815 
z
" clip-path="url(#p73045f18a8)" style="fill: #fa4d56; stroke: #fa4d56; stroke-width: 1.5; stroke-linejoin: miter"/>
   </g>
   <g id="patch_9">
    <path d="M 80.348465 105.702249 
L 110.478565 105.702249 
L 110.478565 75.572149 
L 80.348465 75.572149 
z
" clip-path="url(#p73045f18a8)" style="fill: #fa4d56; stroke: #fa4d56; stroke-width: 1.5; stroke-linejoin: miter"/>
   </g>
   <g id="patch_10">
    <path d="M 80.348465 152.056248 
L 110.478565 152.056248 
L 110.478565 121.926148 
L 80.348465 121.926148 
z
" clip-path="url(#p73045f18a8)" style="fill: #fa4d56; stroke: #fa4d56; stroke-width: 1.5; stroke-linejoin: miter"/>
   </g>
   <g id="patch_11">
    <path d="M 80.348465 198.410247 
L 110.478565 198.410247 
L 110.478565 168.280148 
L 80.348465 168.280148 
z
" clip-path="url(#p73045f18a8)" style="fill: #fa4d56; stroke: #fa4d56; stroke-width: 1.5; stroke-linejoin: miter"/>
   </g>
   <g id="patch_12">
    <path d="M 80.348465 244.764247 
L 110.478565 244.764247 
L 110.478565 214.634147 
L 80.348465 214.634147 
z
" clip-path="url(#p73045f18a8)" style="fill: #fa4d56; stroke: #fa4d56; stroke-width: 1.5; stroke-linejoin: miter"/>
   </g>
   <g id="patch_13">
    <path d="M 126.702465 59.348249 
L 156.832564 59.348249 
L 156.832564 29.21815 
L 126.702465 29.21815 
z
" clip-path="url(#p73045f18a8)" style="fill: #33b1ff; stroke: #33b1ff; stroke-width: 1.5; stroke-linejoin: miter"/>
   </g>
   <g id="patch_14">
    <path d="M 126.702465 105.702249 
L 156.832564 105.702249 
L 156.832564 75.572149 
L 126.702465 75.572149 
z
" clip-path="url(#p73045f18a8)" style="fill: #33b1ff; stroke: #33b1ff; stroke-width: 1.5; stroke-linejoin: miter"/>
   </g>
   <g id="patch_15">
    <path d="M 126.702465 152.056248 
L 156.832564 152.056248 
L 156.832564 121.926148 
L 126.702465 121.926148 
z
" clip-path="url(#p73045f18a8)" style="fill: #33b1ff; stroke: #33b1ff; stroke-width: 1.5; stroke-linejoin: miter"/>
   </g>
   <g id="patch_16">
    <path d="M 126.702465 198.410247 
L 156.832564 198.410247 
L 156.832564 168.280148 
L 126.702465 168.280148 
z
" clip-path="url(#p73045f18a8)" style="fill: #33b1ff; stroke: #33b1ff; stroke-width: 1.5; stroke-linejoin: miter"/>
   </g>
   <g id="patch_17">
    <path d="M 126.702465 244.764247 
L 156.832564 244.764247 
L 156.832564 214.634147 
L 126.702465 214.634147 
z
" clip-path="url(#p73045f18a8)" style="fill: #33b1ff; stroke: #33b1ff; stroke-width: 1.5; stroke-linejoin: miter"/>
   </g>
   <g id="patch_18">
    <path d="M 173.056464 244.764247 
L 203.186564 244.764247 
L 203.186564 214.634147 
L 173.056464 214.634147 
z
" clip-path="url(#p73045f18a8)" style="fill: #fa4d56; stroke: #fa4d56; stroke-width: 1.5; stroke-linejoin: miter"/>
   </g>
   <g id="patch_19">
    <path d="M 234.475513 187.864713 
C 235.674103 187.864713 236.823762 187.388508 237.671293 186.540977 
C 238.518823 185.693447 238.995028 184.543787 238.995028 183.345198 
C 238.995028 182.146608 238.518823 180.996949 237.671293 180.149418 
C 236.823762 179.301887 235.674103 178.825683 234.475513 178.825683 
C 233.276924 178.825683 232.127264 179.301887 231.279733 180.149418 
C 230.432203 180.996949 229.955998 182.146608 229.955998 183.345198 
C 229.955998 184.543787 230.432203 185.693447 231.279733 186.540977 
C 232.127264 187.388508 233.276924 187.864713 234.475513 187.864713 
z
" clip-path="url(#p73045f18a8)" style="fill: #002d9c; stroke: #002d9c; stroke-width: 1.5; stroke-linejoin: miter"/>
   </g>
   <g id="patch_20">
    <path d="M 234.475513 234.218712 
C 235.674103 234.218712 236.823762 233.742507 237.671293 232.894977 
C 238.518823 232.047446 238.995028 230.897786 238.995028 229.699197 
C 238.995028 228.500608 238.518823 227.350948 237.671293 226.503417 
C 236.823762 225.655887 235.674103 225.179682 234.475513 225.179682 
C 233.276924 225.179682 232.127264 225.655887 231.279733 226.503417 
C 230.432203 227.350948 229.955998 228.500608 229.955998 229.699197 
C 229.955998 230.897786 230.432203 232.047446 231.279733 232.894977 
C 232.127264 233.742507 233.276924 234.218712 234.475513 234.218712 
z
" clip-path="url(#p73045f18a8)" style="fill: #002d9c; stroke: #002d9c; stroke-width: 1.5; stroke-linejoin: miter"/>
   </g>
   <g id="patch_21">
    <path d="M 234.475513 286.598731 
C 237.272222 286.598731 239.954761 285.487587 241.932332 283.510016 
C 243.909904 281.532444 245.021048 278.849905 245.021048 276.053196 
C 245.021048 273.256488 243.909904 270.573949 241.932332 268.596377 
C 239.954761 266.618806 237.272222 265.507662 234.475513 265.507662 
C 231.678805 265.507662 228.996265 266.618806 227.018694 268.596377 
C 225.041122 270.573949 223.929978 273.256488 223.929978 276.053196 
C 223.929978 278.849905 225.041122 281.532444 227.018694 283.510016 
C 228.996265 285.487587 231.678805 286.598731 234.475513 286.598731 
z
" clip-path="url(#p73045f18a8)" style="fill: #002d9c; stroke: #002d9c; stroke-width: 2; stroke-linejoin: miter"/>
   </g>
   <g id="patch_22">
    <path d="M 265.764463 291.118246 
L 295.894562 291.118246 
L 295.894562 260.988147 
L 265.764463 260.988147 
z
" clip-path="url(#p73045f18a8)" style="fill: #33b1ff; stroke: #33b1ff; stroke-width: 1.5; stroke-linejoin: miter"/>
   </g>
   <g id="patch_23">
    <path d="M 327.183512 187.864713 
C 328.382101 187.864713 329.531761 187.388508 330.379292 186.540977 
C 331.226822 185.693447 331.703027 184.543787 331.703027 183.345198 
C 331.703027 182.146608 331.226822 180.996949 330.379292 180.149418 
C 329.531761 179.301887 328.382101 178.825683 327.183512 178.825683 
C 325.984923 178.825683 324.835263 179.301887 323.987732 180.149418 
C 323.140202 180.996949 322.663997 182.146608 322.663997 183.345198 
C 322.663997 184.543787 323.140202 185.693447 323.987732 186.540977 
C 324.835263 187.388508 325.984923 187.864713 327.183512 187.864713 
z
" clip-path="url(#p73045f18a8)" style="fill: #002d9c; stroke: #002d9c; stroke-width: 1.5; stroke-linejoin: miter"/>
   </g>
   <g id="patch_24">
    <path d="M 327.183512 234.218712 
C 328.382101 234.218712 329.531761 233.742507 330.379292 232.894977 
C 331.226822 232.047446 331.703027 230.897786 331.703027 229.699197 
C 331.703027 228.500608 331.226822 227.350948 330.379292 226.503417 
C 329.531761 225.655887 328.382101 225.179682 327.183512 225.179682 
C 325.984923 225.179682 324.835263 225.655887 323.987732 226.503417 
C 323.140202 227.350948 322.663997 228.500608 322.663997 229.699197 
C 322.663997 230.897786 323.140202 232.047446 323.987732 232.894977 
C 324.835263 233.742507 325.984923 234.218712 327.183512 234.218712 
z
" clip-path="url(#p73045f18a8)" style="fill: #002d9c; stroke: #002d9c; stroke-width: 1.5; stroke-linejoin: miter"/>
   </g>
   <g id="patch_25">
    <path d="M 327.183512 286.598731 
C 329.98022 286.598731 332.66276 285.487587 334.640331 283.510016 
C 336.617903 281.532444 337.729047 278.849905 337.729047 276.053196 
C 337.729047 273.256488 336.617903 270.573949 334.640331 268.596377 
C 332.66276 266.618806 329.98022 265.507662 327.183512 265.507662 
C 324.386803 265.507662 321.704264 266.618806 319.726693 268.596377 
C 317.749121 270.573949 316.637977 273.256488 316.637977 276.053196 
C 316.637977 278.849905 317.749121 281.532444 319.726693 283.510016 
C 321.704264 285.487587 324.386803 286.598731 327.183512 286.598731 
z
" clip-path="url(#p73045f18a8)" style="fill: #002d9c; stroke: #002d9c; stroke-width: 2; stroke-linejoin: miter"/>
   </g>
   <g id="patch_26">
    <path d="M 358.472461 198.410247 
L 388.602561 198.410247 
L 388.602561 168.280148 
L 358.472461 168.280148 
z
" clip-path="url(#p73045f18a8)" style="fill: #fa4d56; stroke: #fa4d56; stroke-width: 1.5; stroke-linejoin: miter"/>
   </g>
   <g id="patch_27">
    <path d="M 419.891511 141.510713 
C 421.0901 141.510713 422.23976 141.034509 423.08729 140.186978 
C 423.934821 139.339447 424.411026 138.189788 424.411026 136.991198 
C 424.411026 135.792609 423.934821 134.642949 423.08729 133.795419 
C 422.23976 132.947888 421.0901 132.471683 419.891511 132.471683 
C 418.692921 132.471683 417.543262 132.947888 416.695731 133.795419 
C 415.8482 134.642949 415.371996 135.792609 415.371996 136.991198 
C 415.371996 138.189788 415.8482 139.339447 416.695731 140.186978 
C 417.543262 141.034509 418.692921 141.510713 419.891511 141.510713 
z
" clip-path="url(#p73045f18a8)" style="fill: #002d9c; stroke: #002d9c; stroke-width: 1.5; stroke-linejoin: miter"/>
   </g>
   <g id="patch_28">
    <path d="M 419.891511 234.218712 
C 421.0901 234.218712 422.23976 233.742507 423.08729 232.894977 
C 423.934821 232.047446 424.411026 230.897786 424.411026 229.699197 
C 424.411026 228.500608 423.934821 227.350948 423.08729 226.503417 
C 422.23976 225.655887 421.0901 225.179682 419.891511 225.179682 
C 418.692921 225.179682 417.543262 225.655887 416.695731 226.503417 
C 415.8482 227.350948 415.371996 228.500608 415.371996 229.699197 
C 415.371996 230.897786 415.8482 232.047446 416.695731 232.894977 
C 417.543262 233.742507 418.692921 234.218712 419.891511 234.218712 
z
" clip-path="url(#p73045f18a8)" style="fill: #002d9c; stroke: #002d9c; stroke-width: 1.5; stroke-linejoin: miter"/>
   </g>
   <g id="patch_29">
    <path d="M 419.891511 286.598731 
C 422.688219 286.598731 425.370758 285.487587 427.34833 283.510016 
C 429.325901 281.532444 430.437046 278.849905 430.437046 276.053196 
C 430.437046 273.256488 429.325901 270.573949 427.34833 268.596377 
C 425.370758 266.618806 422.688219 265.507662 419.891511 265.507662 
C 417.094802 265.507662 414.412263 266.618806 412.434691 268.596377 
C 410.45712 270.573949 409.345976 273.256488 409.345976 276.053196 
C 409.345976 278.849905 410.45712 281.532444 412.434691 283.510016 
C 414.412263 285.487587 417.094802 286.598731 419.891511 286.598731 
z
" clip-path="url(#p73045f18a8)" style="fill: #002d9c; stroke: #002d9c; stroke-width: 2; stroke-linejoin: miter"/>
   </g>
   <g id="patch_30">
    <path d="M 451.18046 291.118246 
L 481.31056 291.118246 
L 481.31056 260.988147 
L 451.18046 260.988147 
z
" clip-path="url(#p73045f18a8)" style="fill: #33b1ff; stroke: #33b1ff; stroke-width: 1.5; stroke-linejoin: miter"/>
   </g>
   <g id="patch_31">
    <path d="M 512.599509 141.510713 
C 513.798099 141.510713 514.947758 141.034509 515.795289 140.186978 
C 516.64282 139.339447 517.119024 138.189788 517.119024 136.991198 
C 517.119024 135.792609 516.64282 134.642949 515.795289 133.795419 
C 514.947758 132.947888 513.798099 132.471683 512.599509 132.471683 
C 511.40092 132.471683 510.25126 132.947888 509.40373 133.795419 
C 508.556199 134.642949 508.079995 135.792609 508.079995 136.991198 
C 508.079995 138.189788 508.556199 139.339447 509.40373 140.186978 
C 510.25126 141.034509 511.40092 141.510713 512.599509 141.510713 
z
" clip-path="url(#p73045f18a8)" style="fill: #002d9c; stroke: #002d9c; stroke-width: 1.5; stroke-linejoin: miter"/>
   </g>
   <g id="patch_32">
    <path d="M 512.599509 234.218712 
C 513.798099 234.218712 514.947758 233.742507 515.795289 232.894977 
C 516.64282 232.047446 517.119024 230.897786 517.119024 229.699197 
C 517.119024 228.500608 516.64282 227.350948 515.795289 226.503417 
C 514.947758 225.655887 513.798099 225.179682 512.599509 225.179682 
C 511.40092 225.179682 510.25126 225.655887 509.40373 226.503417 
C 508.556199 227.350948 508.079995 228.500608 508.079995 229.699197 
C 508.079995 230.897786 508.556199 232.047446 509.40373 232.894977 
C 510.25126 233.742507 511.40092 234.218712 512.599509 234.218712 
z
" clip-path="url(#p73045f18a8)" style="fill: #002d9c; stroke: #002d9c; stroke-width: 1.5; stroke-linejoin: miter"/>
   </g>
   <g id="patch_33">
    <path d="M 512.599509 286.598731 
C 515.396218 286.598731 518.078757 285.487587 520.056329 283.510016 
C 522.0339 281.532444 523.145044 278.849905 523.145044 276.053196 
C 523.145044 273.256488 522.0339 270.573949 520.056329 268.596377 
C 518.078757 266.618806 515.396218 265.507662 512.599509 265.507662 
C 509.802801 265.507662 507.120262 266.618806 505.14269 268.596377 
C 503.165119 270.573949 502.053975 273.256488 502.053975 276.053196 
C 502.053975 278.849905 503.165119 281.532444 505.14269 283.510016 
C 507.120262 285.487587 509.802801 286.598731 512.599509 286.598731 
z
" clip-path="url(#p73045f18a8)" style="fill: #002d9c; stroke: #002d9c; stroke-width: 2; stroke-linejoin: miter"/>
   </g>
   <g id="patch_34">
    <path d="M 558.953509 141.510713 
C 560.152098 141.510713 561.301758 141.034509 562.149288 140.186978 
C 562.996819 139.339447 563.473024 138.189788 563.473024 136.991198 
C 563.473024 135.792609 562.996819 134.642949 562.149288 133.795419 
C 561.301758 132.947888 560.152098 132.471683 558.953509 132.471683 
C 557.754919 132.471683 556.60526 132.947888 555.757729 133.795419 
C 554.910198 134.642949 554.433994 135.792609 554.433994 136.991198 
C 554.433994 138.189788 554.910198 139.339447 555.757729 140.186978 
C 556.60526 141.034509 557.754919 141.510713 558.953509 141.510713 
z
" clip-path="url(#p73045f18a8)" style="fill: #002d9c; stroke: #002d9c; stroke-width: 1.5; stroke-linejoin: miter"/>
   </g>
   <g id="patch_35">
    <path d="M 558.953509 187.864713 
C 560.152098 187.864713 561.301758 187.388508 562.149288 186.540977 
C 562.996819 185.693447 563.473024 184.543787 563.473024 183.345198 
C 563.473024 182.146608 562.996819 180.996949 562.149288 180.149418 
C 561.301758 179.301887 560.152098 178.825683 558.953509 178.825683 
C 557.754919 178.825683 556.60526 179.301887 555.757729 180.149418 
C 554.910198 180.996949 554.433994 182.146608 554.433994 183.345198 
C 554.433994 184.543787 554.910198 185.693447 555.757729 186.540977 
C 556.60526 187.388508 557.754919 187.864713 558.953509 187.864713 
z
" clip-path="url(#p73045f18a8)" style="fill: #002d9c; stroke: #002d9c; stroke-width: 1.5; stroke-linejoin: miter"/>
   </g>
   <g id="patch_36">
    <path d="M 558.953509 286.598731 
C 561.750217 286.598731 564.432756 285.487587 566.410328 283.510016 
C 568.3879 281.532444 569.499044 278.849905 569.499044 276.053196 
C 569.499044 273.256488 568.3879 270.573949 566.410328 268.596377 
C 564.432756 266.618806 561.750217 265.507662 558.953509 265.507662 
C 556.1568 265.507662 553.474261 266.618806 551.49669 268.596377 
C 549.519118 270.573949 548.407974 273.256488 548.407974 276.053196 
C 548.407974 278.849905 549.519118 281.532444 551.49669 283.510016 
C 553.474261 285.487587 556.1568 286.598731 558.953509 286.598731 
z
" clip-path="url(#p73045f18a8)" style="fill: #002d9c; stroke: #002d9c; stroke-width: 2; stroke-linejoin: miter"/>
   </g>
   <g id="patch_37">
    <path d="M 590.242458 291.118246 
L 620.372558 291.118246 
L 620.372558 260.988147 
L 590.242458 260.988147 
z
" clip-path="url(#p73045f18a8)" style="fill: #33b1ff; stroke: #33b1ff; stroke-width: 1.5; stroke-linejoin: miter"/>
   </g>
   <g id="patch_38">
    <path d="M 651.661508 141.510713 
C 652.860097 141.510713 654.009757 141.034509 654.857287 140.186978 
C 655.704818 139.339447 656.181023 138.189788 656.181023 136.991198 
C 656.181023 135.792609 655.704818 134.642949 654.857287 133.795419 
C 654.009757 132.947888 652.860097 132.471683 651.661508 132.471683 
C 650.462918 132.471683 649.313259 132.947888 648.465728 133.795419 
C 647.618197 134.642949 647.141993 135.792609 647.141993 136.991198 
C 647.141993 138.189788 647.618197 139.339447 648.465728 140.186978 
C 649.313259 141.034509 650.462918 141.510713 651.661508 141.510713 
z
" clip-path="url(#p73045f18a8)" style="fill: #002d9c; stroke: #002d9c; stroke-width: 1.5; stroke-linejoin: miter"/>
   </g>
   <g id="patch_39">
    <path d="M 651.661508 187.864713 
C 652.860097 187.864713 654.009757 187.388508 654.857287 186.540977 
C 655.704818 185.693447 656.181023 184.543787 656.181023 183.345198 
C 656.181023 182.146608 655.704818 180.996949 654.857287 180.149418 
C 654.009757 179.301887 652.860097 178.825683 651.661508 178.825683 
C 650.462918 178.825683 649.313259 179.301887 648.465728 180.149418 
C 647.618197 180.996949 647.141993 182.146608 647.141993 183.345198 
C 647.141993 184.543787 647.618197 185.693447 648.465728 186.540977 
C 649.313259 187.388508 650.462918 187.864713 651.661508 187.864713 
z
" clip-path="url(#p73045f18a8)" style="fill: #002d9c; stroke: #002d9c; stroke-width: 1.5; stroke-linejoin: miter"/>
   </g>
   <g id="patch_40">
    <path d="M 651.661508 286.598731 
C 654.458216 286.598731 657.140755 285.487587 659.118327 283.510016 
C 661.095898 281.532444 662.207042 278.849905 662.207042 276.053196 
C 662.207042 273.256488 661.095898 270.573949 659.118327 268.596377 
C 657.140755 266.618806 654.458216 265.507662 651.661508 265.507662 
C 648.864799 265.507662 646.18226 266.618806 644.204688 268.596377 
C 642.227117 270.573949 641.115973 273.256488 641.115973 276.053196 
C 641.115973 278.849905 642.227117 281.532444 644.204688 283.510016 
C 646.18226 285.487587 648.864799 286.598731 651.661508 286.598731 
z
" clip-path="url(#p73045f18a8)" style="fill: #002d9c; stroke: #002d9c; stroke-width: 2; stroke-linejoin: miter"/>
   </g>
   <g id="patch_41">
    <path d="M 682.950457 152.056248 
L 713.080557 152.056248 
L 713.080557 121.926148 
L 682.950457 121.926148 
z
" clip-path="url(#p73045f18a8)" style="fill: #fa4d56; stroke: #fa4d56; stroke-width: 1.5; stroke-linejoin: miter"/>
   </g>
   <g id="patch_42">
    <path d="M 744.369506 95.156714 
C 745.568096 95.156714 746.717755 94.680509 747.565286 93.832979 
C 748.412817 92.985448 748.889021 91.835788 748.889021 90.637199 
C 748.889021 89.43861 748.412817 88.28895 747.565286 87.441419 
C 746.717755 86.593889 745.568096 86.117684 744.369506 86.117684 
C 743.170917 86.117684 742.021257 86.593889 741.173727 87.441419 
C 740.326196 88.28895 739.849991 89.43861 739.849991 90.637199 
C 739.849991 91.835788 740.326196 92.985448 741.173727 93.832979 
C 742.021257 94.680509 743.170917 95.156714 744.369506 95.156714 
z
" clip-path="url(#p73045f18a8)" style="fill: #002d9c; stroke: #002d9c; stroke-width: 1.5; stroke-linejoin: miter"/>
   </g>
   <g id="patch_43">
    <path d="M 744.369506 234.218712 
C 745.568096 234.218712 746.717755 233.742507 747.565286 232.894977 
C 748.412817 232.047446 748.889021 230.897786 748.889021 229.699197 
C 748.889021 228.500608 748.412817 227.350948 747.565286 226.503417 
C 746.717755 225.655887 745.568096 225.179682 744.369506 225.179682 
C 743.170917 225.179682 742.021257 225.655887 741.173727 226.503417 
C 740.326196 227.350948 739.849991 228.500608 739.849991 229.699197 
C 739.849991 230.897786 740.326196 232.047446 741.173727 232.894977 
C 742.021257 233.742507 743.170917 234.218712 744.369506 234.218712 
z
" clip-path="url(#p73045f18a8)" style="fill: #002d9c; stroke: #002d9c; stroke-width: 1.5; stroke-linejoin: miter"/>
   </g>
   <g id="patch_44">
    <path d="M 744.369506 286.598731 
C 747.166215 286.598731 749.848754 285.487587 751.826326 283.510016 
C 753.803897 281.532444 754.915041 278.849905 754.915041 276.053196 
C 754.915041 273.256488 753.803897 270.573949 751.826326 268.596377 
C 749.848754 266.618806 747.166215 265.507662 744.369506 265.507662 
C 741.572798 265.507662 738.890259 266.618806 736.912687 268.596377 
C 734.935116 270.573949 733.823972 273.256488 733.823972 276.053196 
C 733.823972 278.849905 734.935116 281.532444 736.912687 283.510016 
C 738.890259 285.487587 741.572798 286.598731 744.369506 286.598731 
z
" clip-path="url(#p73045f18a8)" style="fill: #002d9c; stroke: #002d9c; stroke-width: 2; stroke-linejoin: miter"/>
   </g>
   <g id="patch_45">
    <path d="M 775.658456 291.118246 
L 805.788556 291.118246 
L 805.788556 260.988147 
L 775.658456 260.988147 
z
" clip-path="url(#p73045f18a8)" style="fill: #33b1ff; stroke: #33b1ff; stroke-width: 1.5; stroke-linejoin: miter"/>
   </g>
   <g id="patch_46">
    <path d="M 837.077505 95.156714 
C 838.276095 95.156714 839.425754 94.680509 840.273285 93.832979 
C 841.120815 92.985448 841.59702 91.835788 841.59702 90.637199 
C 841.59702 89.43861 841.120815 88.28895 840.273285 87.441419 
C 839.425754 86.593889 838.276095 86.117684 837.077505 86.117684 
C 835.878916 86.117684 834.729256 86.593889 833.881725 87.441419 
C 833.034195 88.28895 832.55799 89.43861 832.55799 90.637199 
C 832.55799 91.835788 833.034195 92.985448 833.881725 93.832979 
C 834.729256 94.680509 835.878916 95.156714 837.077505 95.156714 
z
" clip-path="url(#p73045f18a8)" style="fill: #002d9c; stroke: #002d9c; stroke-width: 1.5; stroke-linejoin: miter"/>
   </g>
   <g id="patch_47">
    <path d="M 837.077505 234.218712 
C 838.276095 234.218712 839.425754 233.742507 840.273285 232.894977 
C 841.120815 232.047446 841.59702 230.897786 841.59702 229.699197 
C 841.59702 228.500608 841.120815 227.350948 840.273285 226.503417 
C 839.425754 225.655887 838.276095 225.179682 837.077505 225.179682 
C 835.878916 225.179682 834.729256 225.655887 833.881725 226.503417 
C 833.034195 227.350948 832.55799 228.500608 832.55799 229.699197 
C 832.55799 230.897786 833.034195 232.047446 833.881725 232.894977 
C 834.729256 233.742507 835.878916 234.218712 837.077505 234.218712 
z
" clip-path="url(#p73045f18a8)" style="fill: #002d9c; stroke: #002d9c; stroke-width: 1.5; stroke-linejoin: miter"/>
   </g>
   <g id="patch_48">
    <path d="M 837.077505 286.598731 
C 839.874214 286.598731 842.556753 285.487587 844.534324 283.510016 
C 846.511896 281.532444 847.62304 278.849905 847.62304 276.053196 
C 847.62304 273.256488 846.511896 270.573949 844.534324 268.596377 
C 842.556753 266.618806 839.874214 265.507662 837.077505 265.507662 
C 834.280797 265.507662 831.598257 266.618806 829.620686 268.596377 
C 827.643114 270.573949 826.53197 273.256488 826.53197 276.053196 
C 826.53197 278.849905 827.643114 281.532444 829.620686 283.510016 
C 831.598257 285.487587 834.280797 286.598731 837.077505 286.598731 
z
" clip-path="url(#p73045f18a8)" style="fill: #002d9c; stroke: #002d9c; stroke-width: 2; stroke-linejoin: miter"/>
   </g>
   <g id="patch_49">
    <path d="M 883.431505 95.156714 
C 884.630094 95.156714 885.779754 94.680509 886.627284 93.832979 
C 887.474815 92.985448 887.951019 91.835788 887.951019 90.637199 
C 887.951019 89.43861 887.474815 88.28895 886.627284 87.441419 
C 885.779754 86.593889 884.630094 86.117684 883.431505 86.117684 
C 882.232915 86.117684 881.083256 86.593889 880.235725 87.441419 
C 879.388194 88.28895 878.91199 89.43861 878.91199 90.637199 
C 878.91199 91.835788 879.388194 92.985448 880.235725 93.832979 
C 881.083256 94.680509 882.232915 95.156714 883.431505 95.156714 
z
" clip-path="url(#p73045f18a8)" style="fill: #002d9c; stroke: #002d9c; stroke-width: 1.5; stroke-linejoin: miter"/>
   </g>
   <g id="patch_50">
    <path d="M 883.431505 187.864713 
C 884.630094 187.864713 885.779754 187.388508 886.627284 186.540977 
C 887.474815 185.693447 887.951019 184.543787 887.951019 183.345198 
C 887.951019 182.146608 887.474815 180.996949 886.627284 180.149418 
C 885.779754 179.301887 884.630094 178.825683 883.431505 178.825683 
C 882.232915 178.825683 881.083256 179.301887 880.235725 180.149418 
C 879.388194 180.996949 878.91199 182.146608 878.91199 183.345198 
C 878.91199 184.543787 879.388194 185.693447 880.235725 186.540977 
C 881.083256 187.388508 882.232915 187.864713 883.431505 187.864713 
z
" clip-path="url(#p73045f18a8)" style="fill: #002d9c; stroke: #002d9c; stroke-width: 1.5; stroke-linejoin: miter"/>
   </g>
   <g id="patch_51">
    <path d="M 883.431505 286.598731 
C 886.228213 286.598731 888.910752 285.487587 890.888324 283.510016 
C 892.865895 281.532444 893.977039 278.849905 893.977039 276.053196 
C 893.977039 273.256488 892.865895 270.573949 890.888324 268.596377 
C 888.910752 266.618806 886.228213 265.507662 883.431505 265.507662 
C 880.634796 265.507662 877.952257 266.618806 875.974685 268.596377 
C 873.997114 270.573949 872.88597 273.256488 872.88597 276.053196 
C 872.88597 278.849905 873.997114 281.532444 875.974685 283.510016 
C 877.952257 285.487587 880.634796 286.598731 883.431505 286.598731 
z
" clip-path="url(#p73045f18a8)" style="fill: #002d9c; stroke: #002d9c; stroke-width: 2; stroke-linejoin: miter"/>
   </g>
   <g id="patch_52">
    <path d="M 914.720454 291.118246 
L 944.850554 291.118246 
L 944.850554 260.988147 
L 914.720454 260.988147 
z
" clip-path="url(#p73045f18a8)" style="fill: #33b1ff; stroke: #33b1ff; stroke-width: 1.5; stroke-linejoin: miter"/>
   </g>
   <g id="patch_53">
    <path d="M 976.139503 95.156714 
C 977.338093 95.156714 978.487752 94.680509 979.335283 93.832979 
C 980.182814 92.985448 980.659018 91.835788 980.659018 90.637199 
C 980.659018 89.43861 980.182814 88.28895 979.335283 87.441419 
C 978.487752 86.593889 977.338093 86.117684 976.139503 86.117684 
C 974.940914 86.117684 973.791254 86.593889 972.943724 87.441419 
C 972.096193 88.28895 971.619988 89.43861 971.619988 90.637199 
C 971.619988 91.835788 972.096193 92.985448 972.943724 93.832979 
C 973.791254 94.680509 974.940914 95.156714 976.139503 95.156714 
z
" clip-path="url(#p73045f18a8)" style="fill: #002d9c; stroke: #002d9c; stroke-width: 1.5; stroke-linejoin: miter"/>
   </g>
   <g id="patch_54">
    <path d="M 976.139503 187.864713 
C 977.338093 187.864713 978.487752 187.388508 979.335283 186.540977 
C 980.182814 185.693447 980.659018 184.543787 980.659018 183.345198 
C 980.659018 182.146608 980.182814 180.996949 979.335283 180.149418 
C 978.487752 179.301887 977.338093 178.825683 976.139503 178.825683 
C 974.940914 178.825683 973.791254 179.301887 972.943724 180.149418 
C 972.096193 180.996949 971.619988 182.146608 971.619988 183.345198 
C 971.619988 184.543787 972.096193 185.693447 972.943724 186.540977 
C 973.791254 187.388508 974.940914 187.864713 976.139503 187.864713 
z
" clip-path="url(#p73045f18a8)" style="fill: #002d9c; stroke: #002d9c; stroke-width: 1.5; stroke-linejoin: miter"/>
   </g>
   <g id="patch_55">
    <path d="M 976.139503 286.598731 
C 978.936212 286.598731 981.618751 285.487587 983.596322 283.510016 
C 985.573894 281.532444 986.685038 278.849905 986.685038 276.053196 
C 986.685038 273.256488 985.573894 270.573949 983.596322 268.596377 
C 981.618751 266.618806 978.936212 265.507662 976.139503 265.507662 
C 973.342795 265.507662 970.660256 266.618806 968.682684 268.596377 
C 966.705113 270.573949 965.593968 273.256488 965.593968 276.053196 
C 965.593968 278.849905 966.705113 281.532444 968.682684 283.510016 
C 970.660256 285.487587 973.342795 286.598731 976.139503 286.598731 
z
" clip-path="url(#p73045f18a8)" style="fill: #002d9c; stroke: #002d9c; stroke-width: 2; stroke-linejoin: miter"/>
   </g>
   <g id="patch_56">
    <path d="M 1022.493503 95.156714 
C 1023.692092 95.156714 1024.841752 94.680509 1025.689282 93.832979 
C 1026.536813 92.985448 1027.013018 91.835788 1027.013018 90.637199 
C 1027.013018 89.43861 1026.536813 88.28895 1025.689282 87.441419 
C 1024.841752 86.593889 1023.692092 86.117684 1022.493503 86.117684 
C 1021.294913 86.117684 1020.145254 86.593889 1019.297723 87.441419 
C 1018.450192 88.28895 1017.973988 89.43861 1017.973988 90.637199 
C 1017.973988 91.835788 1018.450192 92.985448 1019.297723 93.832979 
C 1020.145254 94.680509 1021.294913 95.156714 1022.493503 95.156714 
z
" clip-path="url(#p73045f18a8)" style="fill: #002d9c; stroke: #002d9c; stroke-width: 1.5; stroke-linejoin: miter"/>
   </g>
   <g id="patch_57">
    <path d="M 1022.493503 141.510713 
C 1023.692092 141.510713 1024.841752 141.034509 1025.689282 140.186978 
C 1026.536813 139.339447 1027.013018 138.189788 1027.013018 136.991198 
C 1027.013018 135.792609 1026.536813 134.642949 1025.689282 133.795419 
C 1024.841752 132.947888 1023.692092 132.471683 1022.493503 132.471683 
C 1021.294913 132.471683 1020.145254 132.947888 1019.297723 133.795419 
C 1018.450192 134.642949 1017.973988 135.792609 1017.973988 136.991198 
C 1017.973988 138.189788 1018.450192 139.339447 1019.297723 140.186978 
C 1020.145254 141.034509 1021.294913 141.510713 1022.493503 141.510713 
z
" clip-path="url(#p73045f18a8)" style="fill: #002d9c; stroke: #002d9c; stroke-width: 1.5; stroke-linejoin: miter"/>
   </g>
   <g id="patch_58">
    <path d="M 1022.493503 286.598731 
C 1025.290211 286.598731 1027.97275 285.487587 1029.950322 283.510016 
C 1031.927893 281.532444 1033.039038 278.849905 1033.039038 276.053196 
C 1033.039038 273.256488 1031.927893 270.573949 1029.950322 268.596377 
C 1027.97275 266.618806 1025.290211 265.507662 1022.493503 265.507662 
C 1019.696794 265.507662 1017.014255 266.618806 1015.036683 268.596377 
C 1013.059112 270.573949 1011.947968 273.256488 1011.947968 276.053196 
C 1011.947968 278.849905 1013.059112 281.532444 1015.036683 283.510016 
C 1017.014255 285.487587 1019.696794 286.598731 1022.493503 286.598731 
z
" clip-path="url(#p73045f18a8)" style="fill: #002d9c; stroke: #002d9c; stroke-width: 2; stroke-linejoin: miter"/>
   </g>
   <g id="patch_59">
    <path d="M 1053.782452 291.118246 
L 1083.912552 291.118246 
L 1083.912552 260.988147 
L 1053.782452 260.988147 
z
" clip-path="url(#p73045f18a8)" style="fill: #33b1ff; stroke: #33b1ff; stroke-width: 1.5; stroke-linejoin: miter"/>
   </g>
   <g id="patch_60">
    <path d="M 1115.201501 95.156714 
C 1116.400091 95.156714 1117.54975 94.680509 1118.397281 93.832979 
C 1119.244812 92.985448 1119.721016 91.835788 1119.721016 90.637199 
C 1119.721016 89.43861 1119.244812 88.28895 1118.397281 87.441419 
C 1117.54975 86.593889 1116.400091 86.117684 1115.201501 86.117684 
C 1114.002912 86.117684 1112.853252 86.593889 1112.005722 87.441419 
C 1111.158191 88.28895 1110.681986 89.43861 1110.681986 90.637199 
C 1110.681986 91.835788 1111.158191 92.985448 1112.005722 93.832979 
C 1112.853252 94.680509 1114.002912 95.156714 1115.201501 95.156714 
z
" clip-path="url(#p73045f18a8)" style="fill: #002d9c; stroke: #002d9c; stroke-width: 1.5; stroke-linejoin: miter"/>
   </g>
   <g id="patch_61">
    <path d="M 1115.201501 141.510713 
C 1116.400091 141.510713 1117.54975 141.034509 1118.397281 140.186978 
C 1119.244812 139.339447 1119.721016 138.189788 1119.721016 136.991198 
C 1119.721016 135.792609 1119.244812 134.642949 1118.397281 133.795419 
C 1117.54975 132.947888 1116.400091 132.471683 1115.201501 132.471683 
C 1114.002912 132.471683 1112.853252 132.947888 1112.005722 133.795419 
C 1111.158191 134.642949 1110.681986 135.792609 1110.681986 136.991198 
C 1110.681986 138.189788 1111.158191 139.339447 1112.005722 140.186978 
C 1112.853252 141.034509 1114.002912 141.510713 1115.201501 141.510713 
z
" clip-path="url(#p73045f18a8)" style="fill: #002d9c; stroke: #002d9c; stroke-width: 1.5; stroke-linejoin: miter"/>
   </g>
   <g id="patch_62">
    <path d="M 1115.201501 286.598731 
C 1117.99821 286.598731 1120.680749 285.487587 1122.658321 283.510016 
C 1124.635892 281.532444 1125.747036 278.849905 1125.747036 276.053196 
C 1125.747036 273.256488 1124.635892 270.573949 1122.658321 268.596377 
C 1120.680749 266.618806 1117.99821 265.507662 1115.201501 265.507662 
C 1112.404793 265.507662 1109.722254 266.618806 1107.744682 268.596377 
C 1105.767111 270.573949 1104.655967 273.256488 1104.655967 276.053196 
C 1104.655967 278.849905 1105.767111 281.532444 1107.744682 283.510016 
C 1109.722254 285.487587 1112.404793 286.598731 1115.201501 286.598731 
z
" clip-path="url(#p73045f18a8)" style="fill: #002d9c; stroke: #002d9c; stroke-width: 2; stroke-linejoin: miter"/>
   </g>
   <g id="patch_63">
    <path d="M 1146.490451 105.702249 
L 1176.620551 105.702249 
L 1176.620551 75.572149 
L 1146.490451 75.572149 
z
" clip-path="url(#p73045f18a8)" style="fill: #fa4d56; stroke: #fa4d56; stroke-width: 1.5; stroke-linejoin: miter"/>
   </g>
   <g id="patch_64">
    <path d="M 1207.9095 48.802714 
C 1209.10809 48.802714 1210.257749 48.32651 1211.10528 47.478979 
C 1211.952811 46.631448 1212.429015 45.481789 1212.429015 44.2832 
C 1212.429015 43.08461 1211.952811 41.934951 1211.10528 41.08742 
C 1210.257749 40.239889 1209.10809 39.763685 1207.9095 39.763685 
C 1206.710911 39.763685 1205.561251 40.239889 1204.713721 41.08742 
C 1203.86619 41.934951 1203.389985 43.08461 1203.389985 44.2832 
C 1203.389985 45.481789 1203.86619 46.631448 1204.713721 47.478979 
C 1205.561251 48.32651 1206.710911 48.802714 1207.9095 48.802714 
z
" clip-path="url(#p73045f18a8)" style="fill: #002d9c; stroke: #002d9c; stroke-width: 1.5; stroke-linejoin: miter"/>
   </g>
   <g id="patch_65">
    <path d="M 1207.9095 234.218712 
C 1209.10809 234.218712 1210.257749 233.742507 1211.10528 232.894977 
C 1211.952811 232.047446 1212.429015 230.897786 1212.429015 229.699197 
C 1212.429015 228.500608 1211.952811 227.350948 1211.10528 226.503417 
C 1210.257749 225.655887 1209.10809 225.179682 1207.9095 225.179682 
C 1206.710911 225.179682 1205.561251 225.655887 1204.713721 226.503417 
C 1203.86619 227.350948 1203.389985 228.500608 1203.389985 229.699197 
C 1203.389985 230.897786 1203.86619 232.047446 1204.713721 232.894977 
C 1205.561251 233.742507 1206.710911 234.218712 1207.9095 234.218712 
z
" clip-path="url(#p73045f18a8)" style="fill: #002d9c; stroke: #002d9c; stroke-width: 1.5; stroke-linejoin: miter"/>
   </g>
   <g id="patch_66">
    <path d="M 1207.9095 286.598731 
C 1210.706209 286.598731 1213.388748 285.487587 1215.366319 283.510016 
C 1217.343891 281.532444 1218.455035 278.849905 1218.455035 276.053196 
C 1218.455035 273.256488 1217.343891 270.573949 1215.366319 268.596377 
C 1213.388748 266.618806 1210.706209 265.507662 1207.9095 265.507662 
C 1205.112792 265.507662 1202.430253 266.618806 1200.452681 268.596377 
C 1198.475109 270.573949 1197.363965 273.256488 1197.363965 276.053196 
C 1197.363965 278.849905 1198.475109 281.532444 1200.452681 283.510016 
C 1202.430253 285.487587 1205.112792 286.598731 1207.9095 286.598731 
z
" clip-path="url(#p73045f18a8)" style="fill: #002d9c; stroke: #002d9c; stroke-width: 2; stroke-linejoin: miter"/>
   </g>
   <g id="patch_67">
    <path d="M 1239.19845 291.118246 
L 1269.328549 291.118246 
L 1269.328549 260.988147 
L 1239.19845 260.988147 
z
" clip-path="url(#p73045f18a8)" style="fill: #33b1ff; stroke: #33b1ff; stroke-width: 1.5; stroke-linejoin: miter"/>
   </g>
   <g id="patch_68">
    <path d="M 1300.617499 48.802714 
C 1301.816088 48.802714 1302.965748 48.32651 1303.813279 47.478979 
C 1304.660809 46.631448 1305.137014 45.481789 1305.137014 44.2832 
C 1305.137014 43.08461 1304.660809 41.934951 1303.813279 41.08742 
C 1302.965748 40.239889 1301.816088 39.763685 1300.617499 39.763685 
C 1299.41891 39.763685 1298.26925 40.239889 1297.421719 41.08742 
C 1296.574189 41.934951 1296.097984 43.08461 1296.097984 44.2832 
C 1296.097984 45.481789 1296.574189 46.631448 1297.421719 47.478979 
C 1298.26925 48.32651 1299.41891 48.802714 1300.617499 48.802714 
z
" clip-path="url(#p73045f18a8)" style="fill: #002d9c; stroke: #002d9c; stroke-width: 1.5; stroke-linejoin: miter"/>
   </g>
   <g id="patch_69">
    <path d="M 1300.617499 234.218712 
C 1301.816088 234.218712 1302.965748 233.742507 1303.813279 232.894977 
C 1304.660809 232.047446 1305.137014 230.897786 1305.137014 229.699197 
C 1305.137014 228.500608 1304.660809 227.350948 1303.813279 226.503417 
C 1302.965748 225.655887 1301.816088 225.179682 1300.617499 225.179682 
C 1299.41891 225.179682 1298.26925 225.655887 1297.421719 226.503417 
C 1296.574189 227.350948 1296.097984 228.500608 1296.097984 229.699197 
C 1296.097984 230.897786 1296.574189 232.047446 1297.421719 232.894977 
C 1298.26925 233.742507 1299.41891 234.218712 1300.617499 234.218712 
z
" clip-path="url(#p73045f18a8)" style="fill: #002d9c; stroke: #002d9c; stroke-width: 1.5; stroke-linejoin: miter"/>
   </g>
   <g id="patch_70">
    <path d="M 1300.617499 286.598731 
C 1303.414208 286.598731 1306.096747 285.487587 1308.074318 283.510016 
C 1310.05189 281.532444 1311.163034 278.849905 1311.163034 276.053196 
C 1311.163034 273.256488 1310.05189 270.573949 1308.074318 268.596377 
C 1306.096747 266.618806 1303.414208 265.507662 1300.617499 265.507662 
C 1297.82079 265.507662 1295.138251 266.618806 1293.16068 268.596377 
C 1291.183108 270.573949 1290.071964 273.256488 1290.071964 276.053196 
C 1290.071964 278.849905 1291.183108 281.532444 1293.16068 283.510016 
C 1295.138251 285.487587 1297.82079 286.598731 1300.617499 286.598731 
z
" clip-path="url(#p73045f18a8)" style="fill: #002d9c; stroke: #002d9c; stroke-width: 2; stroke-linejoin: miter"/>
   </g>
   <g id="patch_71">
    <path d="M 1346.971498 48.802714 
C 1348.170088 48.802714 1349.319747 48.32651 1350.167278 47.478979 
C 1351.014809 46.631448 1351.491013 45.481789 1351.491013 44.2832 
C 1351.491013 43.08461 1351.014809 41.934951 1350.167278 41.08742 
C 1349.319747 40.239889 1348.170088 39.763685 1346.971498 39.763685 
C 1345.772909 39.763685 1344.623249 40.239889 1343.775719 41.08742 
C 1342.928188 41.934951 1342.451983 43.08461 1342.451983 44.2832 
C 1342.451983 45.481789 1342.928188 46.631448 1343.775719 47.478979 
C 1344.623249 48.32651 1345.772909 48.802714 1346.971498 48.802714 
z
" clip-path="url(#p73045f18a8)" style="fill: #002d9c; stroke: #002d9c; stroke-width: 1.5; stroke-linejoin: miter"/>
   </g>
   <g id="patch_72">
    <path d="M 1346.971498 187.864713 
C 1348.170088 187.864713 1349.319747 187.388508 1350.167278 186.540977 
C 1351.014809 185.693447 1351.491013 184.543787 1351.491013 183.345198 
C 1351.491013 182.146608 1351.014809 180.996949 1350.167278 180.149418 
C 1349.319747 179.301887 1348.170088 178.825683 1346.971498 178.825683 
C 1345.772909 178.825683 1344.623249 179.301887 1343.775719 180.149418 
C 1342.928188 180.996949 1342.451983 182.146608 1342.451983 183.345198 
C 1342.451983 184.543787 1342.928188 185.693447 1343.775719 186.540977 
C 1344.623249 187.388508 1345.772909 187.864713 1346.971498 187.864713 
z
" clip-path="url(#p73045f18a8)" style="fill: #002d9c; stroke: #002d9c; stroke-width: 1.5; stroke-linejoin: miter"/>
   </g>
   <g id="patch_73">
    <path d="M 1346.971498 286.598731 
C 1349.768207 286.598731 1352.450746 285.487587 1354.428318 283.510016 
C 1356.405889 281.532444 1357.517033 278.849905 1357.517033 276.053196 
C 1357.517033 273.256488 1356.405889 270.573949 1354.428318 268.596377 
C 1352.450746 266.618806 1349.768207 265.507662 1346.971498 265.507662 
C 1344.17479 265.507662 1341.492251 266.618806 1339.514679 268.596377 
C 1337.537108 270.573949 1336.425963 273.256488 1336.425963 276.053196 
C 1336.425963 278.849905 1337.537108 281.532444 1339.514679 283.510016 
C 1341.492251 285.487587 1344.17479 286.598731 1346.971498 286.598731 
z
" clip-path="url(#p73045f18a8)" style="fill: #002d9c; stroke: #002d9c; stroke-width: 2; stroke-linejoin: miter"/>
   </g>
   <g id="patch_74">
    <path d="M 1378.260448 244.764247 
L 1408.390548 244.764247 
L 1408.390548 214.634147 
L 1378.260448 214.634147 
z
" clip-path="url(#p73045f18a8)" style="fill: #a8a8a8; stroke: #a8a8a8; stroke-width: 1.5; stroke-linejoin: miter"/>
   </g>
   <g id="patch_75">
    <path d="M 1403.871033 234.218712 
C 1403.871033 231.422935 1402.75923 228.738806 1400.782317 226.761893 
C 1398.805404 224.78498 1396.121275 223.673177 1393.325498 223.673177 
C 1390.529721 223.673177 1387.845591 224.78498 1385.868679 226.761893 
C 1383.891766 228.738806 1382.779963 231.422935 1382.779963 234.218712 
" clip-path="url(#p73045f18a8)" style="fill: none; stroke: #000000; stroke-width: 2; stroke-linejoin: miter"/>
   </g>
   <g id="line2d_40">
    <path d="M 1393.325498 234.218712 
L 1403.871033 223.673177 
" clip-path="url(#p73045f18a8)" style="fill: none; stroke: #000000; stroke-width: 2; stroke-linecap: square"/>
   </g>
   <g id="patch_76">
    <path d="M 1424.614447 291.118246 
L 1454.744547 291.118246 
L 1454.744547 260.988147 
L 1424.614447 260.988147 
z
" clip-path="url(#p73045f18a8)" style="fill: #33b1ff; stroke: #33b1ff; stroke-width: 1.5; stroke-linejoin: miter"/>
   </g>
   <g id="patch_77">
    <path d="M 1486.033497 48.802714 
C 1487.232086 48.802714 1488.381745 48.32651 1489.229276 47.478979 
C 1490.076807 46.631448 1490.553011 45.481789 1490.553011 44.2832 
C 1490.553011 43.08461 1490.076807 41.934951 1489.229276 41.08742 
C 1488.381745 40.239889 1487.232086 39.763685 1486.033497 39.763685 
C 1484.834907 39.763685 1483.685248 40.239889 1482.837717 41.08742 
C 1481.990186 41.934951 1481.513982 43.08461 1481.513982 44.2832 
C 1481.513982 45.481789 1481.990186 46.631448 1482.837717 47.478979 
C 1483.685248 48.32651 1484.834907 48.802714 1486.033497 48.802714 
z
" clip-path="url(#p73045f18a8)" style="fill: #002d9c; stroke: #002d9c; stroke-width: 1.5; stroke-linejoin: miter"/>
   </g>
   <g id="patch_78">
    <path d="M 1486.033497 187.864713 
C 1487.232086 187.864713 1488.381745 187.388508 1489.229276 186.540977 
C 1490.076807 185.693447 1490.553011 184.543787 1490.553011 183.345198 
C 1490.553011 182.146608 1490.076807 180.996949 1489.229276 180.149418 
C 1488.381745 179.301887 1487.232086 178.825683 1486.033497 178.825683 
C 1484.834907 178.825683 1483.685248 179.301887 1482.837717 180.149418 
C 1481.990186 180.996949 1481.513982 182.146608 1481.513982 183.345198 
C 1481.513982 184.543787 1481.990186 185.693447 1482.837717 186.540977 
C 1483.685248 187.388508 1484.834907 187.864713 1486.033497 187.864713 
z
" clip-path="url(#p73045f18a8)" style="fill: #002d9c; stroke: #002d9c; stroke-width: 1.5; stroke-linejoin: miter"/>
   </g>
   <g id="patch_79">
    <path d="M 1486.033497 286.598731 
C 1488.830205 286.598731 1491.512744 285.487587 1493.490316 283.510016 
C 1495.467887 281.532444 1496.579031 278.849905 1496.579031 276.053196 
C 1496.579031 273.256488 1495.467887 270.573949 1493.490316 268.596377 
C 1491.512744 266.618806 1488.830205 265.507662 1486.033497 265.507662 
C 1483.236788 265.507662 1480.554249 266.618806 1478.576677 268.596377 
C 1476.599106 270.573949 1475.487962 273.256488 1475.487962 276.053196 
C 1475.487962 278.849905 1476.599106 281.532444 1478.576677 283.510016 
C 1480.554249 285.487587 1483.236788 286.598731 1486.033497 286.598731 
z
" clip-path="url(#p73045f18a8)" style="fill: #002d9c; stroke: #002d9c; stroke-width: 2; stroke-linejoin: miter"/>
   </g>
   <g id="patch_80">
    <path d="M 1532.387496 48.802714 
C 1533.586085 48.802714 1534.735745 48.32651 1535.583276 47.478979 
C 1536.430806 46.631448 1536.907011 45.481789 1536.907011 44.2832 
C 1536.907011 43.08461 1536.430806 41.934951 1535.583276 41.08742 
C 1534.735745 40.239889 1533.586085 39.763685 1532.387496 39.763685 
C 1531.188907 39.763685 1530.039247 40.239889 1529.191716 41.08742 
C 1528.344186 41.934951 1527.867981 43.08461 1527.867981 44.2832 
C 1527.867981 45.481789 1528.344186 46.631448 1529.191716 47.478979 
C 1530.039247 48.32651 1531.188907 48.802714 1532.387496 48.802714 
z
" clip-path="url(#p73045f18a8)" style="fill: #002d9c; stroke: #002d9c; stroke-width: 1.5; stroke-linejoin: miter"/>
   </g>
   <g id="patch_81">
    <path d="M 1532.387496 141.510713 
C 1533.586085 141.510713 1534.735745 141.034509 1535.583276 140.186978 
C 1536.430806 139.339447 1536.907011 138.189788 1536.907011 136.991198 
C 1536.907011 135.792609 1536.430806 134.642949 1535.583276 133.795419 
C 1534.735745 132.947888 1533.586085 132.471683 1532.387496 132.471683 
C 1531.188907 132.471683 1530.039247 132.947888 1529.191716 133.795419 
C 1528.344186 134.642949 1527.867981 135.792609 1527.867981 136.991198 
C 1527.867981 138.189788 1528.344186 139.339447 1529.191716 140.186978 
C 1530.039247 141.034509 1531.188907 141.510713 1532.387496 141.510713 
z
" clip-path="url(#p73045f18a8)" style="fill: #002d9c; stroke: #002d9c; stroke-width: 1.5; stroke-linejoin: miter"/>
   </g>
   <g id="patch_82">
    <path d="M 1532.387496 286.598731 
C 1535.184204 286.598731 1537.866744 285.487587 1539.844315 283.510016 
C 1541.821887 281.532444 1542.933031 278.849905 1542.933031 276.053196 
C 1542.933031 273.256488 1541.821887 270.573949 1539.844315 268.596377 
C 1537.866744 266.618806 1535.184204 265.507662 1532.387496 265.507662 
C 1529.590787 265.507662 1526.908248 266.618806 1524.930677 268.596377 
C 1522.953105 270.573949 1521.841961 273.256488 1521.841961 276.053196 
C 1521.841961 278.849905 1522.953105 281.532444 1524.930677 283.510016 
C 1526.908248 285.487587 1529.590787 286.598731 1532.387496 286.598731 
z
" clip-path="url(#p73045f18a8)" style="fill: #002d9c; stroke: #002d9c; stroke-width: 2; stroke-linejoin: miter"/>
   </g>
   <g id="patch_83">
    <path d="M 1563.676445 198.410247 
L 1593.806545 198.410247 
L 1593.806545 168.280148 
L 1563.676445 168.280148 
z
" clip-path="url(#p73045f18a8)" style="fill: #a8a8a8; stroke: #a8a8a8; stroke-width: 1.5; stroke-linejoin: miter"/>
   </g>
   <g id="patch_84">
    <path d="M 1589.28703 187.864713 
C 1589.28703 185.068936 1588.175227 182.384806 1586.198314 180.407893 
C 1584.221402 178.43098 1581.537272 177.319178 1578.741495 177.319178 
C 1575.945718 177.319178 1573.261589 178.43098 1571.284676 180.407893 
C 1569.307763 182.384806 1568.19596 185.068936 1568.19596 187.864713 
" clip-path="url(#p73045f18a8)" style="fill: none; stroke: #000000; stroke-width: 2; stroke-linejoin: miter"/>
   </g>
   <g id="line2d_41">
    <path d="M 1578.741495 187.864713 
L 1589.28703 177.319178 
" clip-path="url(#p73045f18a8)" style="fill: none; stroke: #000000; stroke-width: 2; stroke-linecap: square"/>
   </g>
   <g id="patch_85">
    <path d="M 1610.030445 291.118246 
L 1640.160544 291.118246 
L 1640.160544 260.988147 
L 1610.030445 260.988147 
z
" clip-path="url(#p73045f18a8)" style="fill: #33b1ff; stroke: #33b1ff; stroke-width: 1.5; stroke-linejoin: miter"/>
   </g>
   <g id="patch_86">
    <path d="M 1671.449494 48.802714 
C 1672.648083 48.802714 1673.797743 48.32651 1674.645274 47.478979 
C 1675.492804 46.631448 1675.969009 45.481789 1675.969009 44.2832 
C 1675.969009 43.08461 1675.492804 41.934951 1674.645274 41.08742 
C 1673.797743 40.239889 1672.648083 39.763685 1671.449494 39.763685 
C 1670.250905 39.763685 1669.101245 40.239889 1668.253714 41.08742 
C 1667.406184 41.934951 1666.929979 43.08461 1666.929979 44.2832 
C 1666.929979 45.481789 1667.406184 46.631448 1668.253714 47.478979 
C 1669.101245 48.32651 1670.250905 48.802714 1671.449494 48.802714 
z
" clip-path="url(#p73045f18a8)" style="fill: #002d9c; stroke: #002d9c; stroke-width: 1.5; stroke-linejoin: miter"/>
   </g>
   <g id="patch_87">
    <path d="M 1671.449494 141.510713 
C 1672.648083 141.510713 1673.797743 141.034509 1674.645274 140.186978 
C 1675.492804 139.339447 1675.969009 138.189788 1675.969009 136.991198 
C 1675.969009 135.792609 1675.492804 134.642949 1674.645274 133.795419 
C 1673.797743 132.947888 1672.648083 132.471683 1671.449494 132.471683 
C 1670.250905 132.471683 1669.101245 132.947888 1668.253714 133.795419 
C 1667.406184 134.642949 1666.929979 135.792609 1666.929979 136.991198 
C 1666.929979 138.189788 1667.406184 139.339447 1668.253714 140.186978 
C 1669.101245 141.034509 1670.250905 141.510713 1671.449494 141.510713 
z
" clip-path="url(#p73045f18a8)" style="fill: #002d9c; stroke: #002d9c; stroke-width: 1.5; stroke-linejoin: miter"/>
   </g>
   <g id="patch_88">
    <path d="M 1671.449494 286.598731 
C 1674.246203 286.598731 1676.928742 285.487587 1678.906313 283.510016 
C 1680.883885 281.532444 1681.995029 278.849905 1681.995029 276.053196 
C 1681.995029 273.256488 1680.883885 270.573949 1678.906313 268.596377 
C 1676.928742 266.618806 1674.246203 265.507662 1671.449494 265.507662 
C 1668.652786 265.507662 1665.970246 266.618806 1663.992675 268.596377 
C 1662.015103 270.573949 1660.903959 273.256488 1660.903959 276.053196 
C 1660.903959 278.849905 1662.015103 281.532444 1663.992675 283.510016 
C 1665.970246 285.487587 1668.652786 286.598731 1671.449494 286.598731 
z
" clip-path="url(#p73045f18a8)" style="fill: #002d9c; stroke: #002d9c; stroke-width: 2; stroke-linejoin: miter"/>
   </g>
   <g id="patch_89">
    <path d="M 1717.803493 48.802714 
C 1719.002083 48.802714 1720.151742 48.32651 1720.999273 47.478979 
C 1721.846804 46.631448 1722.323008 45.481789 1722.323008 44.2832 
C 1722.323008 43.08461 1721.846804 41.934951 1720.999273 41.08742 
C 1720.151742 40.239889 1719.002083 39.763685 1717.803493 39.763685 
C 1716.604904 39.763685 1715.455244 40.239889 1714.607714 41.08742 
C 1713.760183 41.934951 1713.283978 43.08461 1713.283978 44.2832 
C 1713.283978 45.481789 1713.760183 46.631448 1714.607714 47.478979 
C 1715.455244 48.32651 1716.604904 48.802714 1717.803493 48.802714 
z
" clip-path="url(#p73045f18a8)" style="fill: #002d9c; stroke: #002d9c; stroke-width: 1.5; stroke-linejoin: miter"/>
   </g>
   <g id="patch_90">
    <path d="M 1717.803493 95.156714 
C 1719.002083 95.156714 1720.151742 94.680509 1720.999273 93.832979 
C 1721.846804 92.985448 1722.323008 91.835788 1722.323008 90.637199 
C 1722.323008 89.43861 1721.846804 88.28895 1720.999273 87.441419 
C 1720.151742 86.593889 1719.002083 86.117684 1717.803493 86.117684 
C 1716.604904 86.117684 1715.455244 86.593889 1714.607714 87.441419 
C 1713.760183 88.28895 1713.283978 89.43861 1713.283978 90.637199 
C 1713.283978 91.835788 1713.760183 92.985448 1714.607714 93.832979 
C 1715.455244 94.680509 1716.604904 95.156714 1717.803493 95.156714 
z
" clip-path="url(#p73045f18a8)" style="fill: #002d9c; stroke: #002d9c; stroke-width: 1.5; stroke-linejoin: miter"/>
   </g>
   <g id="patch_91">
    <path d="M 1717.803493 286.598731 
C 1720.600202 286.598731 1723.282741 285.487587 1725.260313 283.510016 
C 1727.237884 281.532444 1728.349028 278.849905 1728.349028 276.053196 
C 1728.349028 273.256488 1727.237884 270.573949 1725.260313 268.596377 
C 1723.282741 266.618806 1720.600202 265.507662 1717.803493 265.507662 
C 1715.006785 265.507662 1712.324246 266.618806 1710.346674 268.596377 
C 1708.369103 270.573949 1707.257959 273.256488 1707.257959 276.053196 
C 1707.257959 278.849905 1708.369103 281.532444 1710.346674 283.510016 
C 1712.324246 285.487587 1715.006785 286.598731 1717.803493 286.598731 
z
" clip-path="url(#p73045f18a8)" style="fill: #002d9c; stroke: #002d9c; stroke-width: 2; stroke-linejoin: miter"/>
   </g>
   <g id="patch_92">
    <path d="M 1749.092443 152.056248 
L 1779.222543 152.056248 
L 1779.222543 121.926148 
L 1749.092443 121.926148 
z
" clip-path="url(#p73045f18a8)" style="fill: #a8a8a8; stroke: #a8a8a8; stroke-width: 1.5; stroke-linejoin: miter"/>
   </g>
   <g id="patch_93">
    <path d="M 1774.703028 141.510713 
C 1774.703028 138.714936 1773.591225 136.030807 1771.614312 134.053894 
C 1769.637399 132.076981 1766.95327 130.965178 1764.157493 130.965178 
C 1761.361716 130.965178 1758.677587 132.076981 1756.700674 134.053894 
C 1754.723761 136.030807 1753.611958 138.714936 1753.611958 141.510713 
" clip-path="url(#p73045f18a8)" style="fill: none; stroke: #000000; stroke-width: 2; stroke-linejoin: miter"/>
   </g>
   <g id="line2d_42">
    <path d="M 1764.157493 141.510713 
L 1774.703028 130.965178 
" clip-path="url(#p73045f18a8)" style="fill: none; stroke: #000000; stroke-width: 2; stroke-linecap: square"/>
   </g>
   <g id="patch_94">
    <path d="M 1795.446442 291.118246 
L 1825.576542 291.118246 
L 1825.576542 260.988147 
L 1795.446442 260.988147 
z
" clip-path="url(#p73045f18a8)" style="fill: #33b1ff; stroke: #33b1ff; stroke-width: 1.5; stroke-linejoin: miter"/>
   </g>
   <g id="patch_95">
    <path d="M 1856.865492 48.802714 
C 1858.064081 48.802714 1859.213741 48.32651 1860.061271 47.478979 
C 1860.908802 46.631448 1861.385007 45.481789 1861.385007 44.2832 
C 1861.385007 43.08461 1860.908802 41.934951 1860.061271 41.08742 
C 1859.213741 40.239889 1858.064081 39.763685 1856.865492 39.763685 
C 1855.666902 39.763685 1854.517243 40.239889 1853.669712 41.08742 
C 1852.822181 41.934951 1852.345977 43.08461 1852.345977 44.2832 
C 1852.345977 45.481789 1852.822181 46.631448 1853.669712 47.478979 
C 1854.517243 48.32651 1855.666902 48.802714 1856.865492 48.802714 
z
" clip-path="url(#p73045f18a8)" style="fill: #002d9c; stroke: #002d9c; stroke-width: 1.5; stroke-linejoin: miter"/>
   </g>
   <g id="patch_96">
    <path d="M 1856.865492 95.156714 
C 1858.064081 95.156714 1859.213741 94.680509 1860.061271 93.832979 
C 1860.908802 92.985448 1861.385007 91.835788 1861.385007 90.637199 
C 1861.385007 89.43861 1860.908802 88.28895 1860.061271 87.441419 
C 1859.213741 86.593889 1858.064081 86.117684 1856.865492 86.117684 
C 1855.666902 86.117684 1854.517243 86.593889 1853.669712 87.441419 
C 1852.822181 88.28895 1852.345977 89.43861 1852.345977 90.637199 
C 1852.345977 91.835788 1852.822181 92.985448 1853.669712 93.832979 
C 1854.517243 94.680509 1855.666902 95.156714 1856.865492 95.156714 
z
" clip-path="url(#p73045f18a8)" style="fill: #002d9c; stroke: #002d9c; stroke-width: 1.5; stroke-linejoin: miter"/>
   </g>
   <g id="patch_97">
    <path d="M 1856.865492 286.598731 
C 1859.6622 286.598731 1862.344739 285.487587 1864.322311 283.510016 
C 1866.299882 281.532444 1867.411026 278.849905 1867.411026 276.053196 
C 1867.411026 273.256488 1866.299882 270.573949 1864.322311 268.596377 
C 1862.344739 266.618806 1859.6622 265.507662 1856.865492 265.507662 
C 1854.068783 265.507662 1851.386244 266.618806 1849.408672 268.596377 
C 1847.431101 270.573949 1846.319957 273.256488 1846.319957 276.053196 
C 1846.319957 278.849905 1847.431101 281.532444 1849.408672 283.510016 
C 1851.386244 285.487587 1854.068783 286.598731 1856.865492 286.598731 
z
" clip-path="url(#p73045f18a8)" style="fill: #002d9c; stroke: #002d9c; stroke-width: 2; stroke-linejoin: miter"/>
   </g>
   <g id="patch_98">
    <path d="M 1888.154441 59.348249 
L 1918.284541 59.348249 
L 1918.284541 29.21815 
L 1888.154441 29.21815 
z
" clip-path="url(#p73045f18a8)" style="fill: #fa4d56; stroke: #fa4d56; stroke-width: 1.5; stroke-linejoin: miter"/>
   </g>
   <g id="patch_99">
    <path d="M 1888.154441 105.702249 
L 1918.284541 105.702249 
L 1918.284541 75.572149 
L 1888.154441 75.572149 
z
" clip-path="url(#p73045f18a8)" style="fill: #a8a8a8; stroke: #a8a8a8; stroke-width: 1.5; stroke-linejoin: miter"/>
   </g>
   <g id="patch_100">
    <path d="M 1913.765026 95.156714 
C 1913.765026 92.360937 1912.653223 89.676808 1910.67631 87.699895 
C 1908.699397 85.722982 1906.015268 84.611179 1903.219491 84.611179 
C 1900.423714 84.611179 1897.739585 85.722982 1895.762672 87.699895 
C 1893.785759 89.676808 1892.673956 92.360937 1892.673956 95.156714 
" clip-path="url(#p73045f18a8)" style="fill: none; stroke: #000000; stroke-width: 2; stroke-linejoin: miter"/>
   </g>
   <g id="line2d_43">
    <path d="M 1903.219491 95.156714 
L 1913.765026 84.611179 
" clip-path="url(#p73045f18a8)" style="fill: none; stroke: #000000; stroke-width: 2; stroke-linecap: square"/>
   </g>
   <g id="patch_101">
    <path d="M 1934.508441 59.348249 
L 1964.63854 59.348249 
L 1964.63854 29.21815 
L 1934.508441 29.21815 
z
" clip-path="url(#p73045f18a8)" style="fill: #a8a8a8; stroke: #a8a8a8; stroke-width: 1.5; stroke-linejoin: miter"/>
   </g>
   <g id="patch_102">
    <path d="M 1960.119025 48.802714 
C 1960.119025 46.006937 1959.007222 43.322808 1957.03031 41.345895 
C 1955.053397 39.368982 1952.369267 38.25718 1949.57349 38.25718 
C 1946.777713 38.25718 1944.093584 39.368982 1942.116671 41.345895 
C 1940.139758 43.322808 1939.027955 46.006937 1939.027955 48.802714 
" clip-path="url(#p73045f18a8)" style="fill: none; stroke: #000000; stroke-width: 2; stroke-linejoin: miter"/>
   </g>
   <g id="line2d_44">
    <path d="M 1949.57349 48.802714 
L 1960.119025 38.25718 
" clip-path="url(#p73045f18a8)" style="fill: none; stroke: #000000; stroke-width: 2; stroke-linecap: square"/>
   </g>
   <g id="line2d_45">
    <path d="M 234.475513 282.079216 
L 234.475513 270.027177 
" clip-path="url(#p73045f18a8)" style="fill: none; stroke: #ffffff; stroke-width: 2; stroke-linecap: square"/>
   </g>
   <g id="line2d_46">
    <path d="M 228.449493 276.053196 
L 240.501533 276.053196 
" clip-path="url(#p73045f18a8)" style="fill: none; stroke: #ffffff; stroke-width: 2; stroke-linecap: square"/>
   </g>
   <g id="line2d_47">
    <path d="M 327.183512 282.079216 
L 327.183512 270.027177 
" clip-path="url(#p73045f18a8)" style="fill: none; stroke: #ffffff; stroke-width: 2; stroke-linecap: square"/>
   </g>
   <g id="line2d_48">
    <path d="M 321.157492 276.053196 
L 333.209532 276.053196 
" clip-path="url(#p73045f18a8)" style="fill: none; stroke: #ffffff; stroke-width: 2; stroke-linecap: square"/>
   </g>
   <g id="line2d_49">
    <path d="M 419.891511 282.079216 
L 419.891511 270.027177 
" clip-path="url(#p73045f18a8)" style="fill: none; stroke: #ffffff; stroke-width: 2; stroke-linecap: square"/>
   </g>
   <g id="line2d_50">
    <path d="M 413.865491 276.053196 
L 425.917531 276.053196 
" clip-path="url(#p73045f18a8)" style="fill: none; stroke: #ffffff; stroke-width: 2; stroke-linecap: square"/>
   </g>
   <g id="line2d_51">
    <path d="M 512.599509 282.079216 
L 512.599509 270.027177 
" clip-path="url(#p73045f18a8)" style="fill: none; stroke: #ffffff; stroke-width: 2; stroke-linecap: square"/>
   </g>
   <g id="line2d_52">
    <path d="M 506.57349 276.053196 
L 518.625529 276.053196 
" clip-path="url(#p73045f18a8)" style="fill: none; stroke: #ffffff; stroke-width: 2; stroke-linecap: square"/>
   </g>
   <g id="line2d_53">
    <path d="M 558.953509 282.079216 
L 558.953509 270.027177 
" clip-path="url(#p73045f18a8)" style="fill: none; stroke: #ffffff; stroke-width: 2; stroke-linecap: square"/>
   </g>
   <g id="line2d_54">
    <path d="M 552.927489 276.053196 
L 564.979529 276.053196 
" clip-path="url(#p73045f18a8)" style="fill: none; stroke: #ffffff; stroke-width: 2; stroke-linecap: square"/>
   </g>
   <g id="line2d_55">
    <path d="M 651.661508 282.079216 
L 651.661508 270.027177 
" clip-path="url(#p73045f18a8)" style="fill: none; stroke: #ffffff; stroke-width: 2; stroke-linecap: square"/>
   </g>
   <g id="line2d_56">
    <path d="M 645.635488 276.053196 
L 657.687528 276.053196 
" clip-path="url(#p73045f18a8)" style="fill: none; stroke: #ffffff; stroke-width: 2; stroke-linecap: square"/>
   </g>
   <g id="line2d_57">
    <path d="M 744.369506 282.079216 
L 744.369506 270.027177 
" clip-path="url(#p73045f18a8)" style="fill: none; stroke: #ffffff; stroke-width: 2; stroke-linecap: square"/>
   </g>
   <g id="line2d_58">
    <path d="M 738.343486 276.053196 
L 750.395526 276.053196 
" clip-path="url(#p73045f18a8)" style="fill: none; stroke: #ffffff; stroke-width: 2; stroke-linecap: square"/>
   </g>
   <g id="line2d_59">
    <path d="M 837.077505 282.079216 
L 837.077505 270.027177 
" clip-path="url(#p73045f18a8)" style="fill: none; stroke: #ffffff; stroke-width: 2; stroke-linecap: square"/>
   </g>
   <g id="line2d_60">
    <path d="M 831.051485 276.053196 
L 843.103525 276.053196 
" clip-path="url(#p73045f18a8)" style="fill: none; stroke: #ffffff; stroke-width: 2; stroke-linecap: square"/>
   </g>
   <g id="line2d_61">
    <path d="M 883.431505 282.079216 
L 883.431505 270.027177 
" clip-path="url(#p73045f18a8)" style="fill: none; stroke: #ffffff; stroke-width: 2; stroke-linecap: square"/>
   </g>
   <g id="line2d_62">
    <path d="M 877.405485 276.053196 
L 889.457524 276.053196 
" clip-path="url(#p73045f18a8)" style="fill: none; stroke: #ffffff; stroke-width: 2; stroke-linecap: square"/>
   </g>
   <g id="line2d_63">
    <path d="M 976.139503 282.079216 
L 976.139503 270.027177 
" clip-path="url(#p73045f18a8)" style="fill: none; stroke: #ffffff; stroke-width: 2; stroke-linecap: square"/>
   </g>
   <g id="line2d_64">
    <path d="M 970.113483 276.053196 
L 982.165523 276.053196 
" clip-path="url(#p73045f18a8)" style="fill: none; stroke: #ffffff; stroke-width: 2; stroke-linecap: square"/>
   </g>
   <g id="line2d_65">
    <path d="M 1022.493503 282.079216 
L 1022.493503 270.027177 
" clip-path="url(#p73045f18a8)" style="fill: none; stroke: #ffffff; stroke-width: 2; stroke-linecap: square"/>
   </g>
   <g id="line2d_66">
    <path d="M 1016.467483 276.053196 
L 1028.519523 276.053196 
" clip-path="url(#p73045f18a8)" style="fill: none; stroke: #ffffff; stroke-width: 2; stroke-linecap: square"/>
   </g>
   <g id="line2d_67">
    <path d="M 1115.201501 282.079216 
L 1115.201501 270.027177 
" clip-path="url(#p73045f18a8)" style="fill: none; stroke: #ffffff; stroke-width: 2; stroke-linecap: square"/>
   </g>
   <g id="line2d_68">
    <path d="M 1109.175482 276.053196 
L 1121.227521 276.053196 
" clip-path="url(#p73045f18a8)" style="fill: none; stroke: #ffffff; stroke-width: 2; stroke-linecap: square"/>
   </g>
   <g id="line2d_69">
    <path d="M 1207.9095 282.079216 
L 1207.9095 270.027177 
" clip-path="url(#p73045f18a8)" style="fill: none; stroke: #ffffff; stroke-width: 2; stroke-linecap: square"/>
   </g>
   <g id="line2d_70">
    <path d="M 1201.88348 276.053196 
L 1213.93552 276.053196 
" clip-path="url(#p73045f18a8)" style="fill: none; stroke: #ffffff; stroke-width: 2; stroke-linecap: square"/>
   </g>
   <g id="line2d_71">
    <path d="M 1300.617499 282.079216 
L 1300.617499 270.027177 
" clip-path="url(#p73045f18a8)" style="fill: none; stroke: #ffffff; stroke-width: 2; stroke-linecap: square"/>
   </g>
   <g id="line2d_72">
    <path d="M 1294.591479 276.053196 
L 1306.643519 276.053196 
" clip-path="url(#p73045f18a8)" style="fill: none; stroke: #ffffff; stroke-width: 2; stroke-linecap: square"/>
   </g>
   <g id="line2d_73">
    <path d="M 1346.971498 282.079216 
L 1346.971498 270.027177 
" clip-path="url(#p73045f18a8)" style="fill: none; stroke: #ffffff; stroke-width: 2; stroke-linecap: square"/>
   </g>
   <g id="line2d_74">
    <path d="M 1340.945478 276.053196 
L 1352.997518 276.053196 
" clip-path="url(#p73045f18a8)" style="fill: none; stroke: #ffffff; stroke-width: 2; stroke-linecap: square"/>
   </g>
   <g id="line2d_75">
    <path d="M 1486.033497 282.079216 
L 1486.033497 270.027177 
" clip-path="url(#p73045f18a8)" style="fill: none; stroke: #ffffff; stroke-width: 2; stroke-linecap: square"/>
   </g>
   <g id="line2d_76">
    <path d="M 1480.007477 276.053196 
L 1492.059516 276.053196 
" clip-path="url(#p73045f18a8)" style="fill: none; stroke: #ffffff; stroke-width: 2; stroke-linecap: square"/>
   </g>
   <g id="line2d_77">
    <path d="M 1532.387496 282.079216 
L 1532.387496 270.027177 
" clip-path="url(#p73045f18a8)" style="fill: none; stroke: #ffffff; stroke-width: 2; stroke-linecap: square"/>
   </g>
   <g id="line2d_78">
    <path d="M 1526.361476 276.053196 
L 1538.413516 276.053196 
" clip-path="url(#p73045f18a8)" style="fill: none; stroke: #ffffff; stroke-width: 2; stroke-linecap: square"/>
   </g>
   <g id="line2d_79">
    <path d="M 1671.449494 282.079216 
L 1671.449494 270.027177 
" clip-path="url(#p73045f18a8)" style="fill: none; stroke: #ffffff; stroke-width: 2; stroke-linecap: square"/>
   </g>
   <g id="line2d_80">
    <path d="M 1665.423474 276.053196 
L 1677.475514 276.053196 
" clip-path="url(#p73045f18a8)" style="fill: none; stroke: #ffffff; stroke-width: 2; stroke-linecap: square"/>
   </g>
   <g id="line2d_81">
    <path d="M 1717.803493 282.079216 
L 1717.803493 270.027177 
" clip-path="url(#p73045f18a8)" style="fill: none; stroke: #ffffff; stroke-width: 2; stroke-linecap: square"/>
   </g>
   <g id="line2d_82">
    <path d="M 1711.777474 276.053196 
L 1723.829513 276.053196 
" clip-path="url(#p73045f18a8)" style="fill: none; stroke: #ffffff; stroke-width: 2; stroke-linecap: square"/>
   </g>
   <g id="line2d_83">
    <path d="M 1856.865492 282.079216 
L 1856.865492 270.027177 
" clip-path="url(#p73045f18a8)" style="fill: none; stroke: #ffffff; stroke-width: 2; stroke-linecap: square"/>
   </g>
   <g id="line2d_84">
    <path d="M 1850.839472 276.053196 
L 1862.891511 276.053196 
" clip-path="url(#p73045f18a8)" style="fill: none; stroke: #ffffff; stroke-width: 2; stroke-linecap: square"/>
   </g>
   <g id="text_1">
    <g clip-path="url(#p73045f18a8)">
     <!-- ${q}_{0}$ -->
     <g transform="translate(43.074055 48.734176) scale(0.1625 -0.1625)">
      <defs>
       <path id="DejaVuSans-Oblique-71" d="M 2669 525 
Q 2438 222 2123 65 
Q 1809 -91 1428 -91 
Q 897 -91 595 267 
Q 294 625 294 1253 
Q 294 1759 480 2231 
Q 666 2703 1013 3078 
Q 1238 3322 1530 3453 
Q 1822 3584 2144 3584 
Q 2531 3584 2781 3431 
Q 3031 3278 3144 2969 
L 3244 3494 
L 3822 3494 
L 2888 -1319 
L 2309 -1319 
L 2669 525 
z
M 891 1338 
Q 891 875 1084 633 
Q 1278 391 1644 391 
Q 2188 391 2572 911 
Q 2956 1431 2956 2175 
Q 2956 2625 2757 2864 
Q 2559 3103 2188 3103 
Q 1916 3103 1684 2976 
Q 1453 2850 1281 2606 
Q 1100 2350 995 2006 
Q 891 1663 891 1338 
z
" transform="scale(0.015625)"/>
       <path id="DejaVuSans-30" d="M 2034 4250 
Q 1547 4250 1301 3770 
Q 1056 3291 1056 2328 
Q 1056 1369 1301 889 
Q 1547 409 2034 409 
Q 2525 409 2770 889 
Q 3016 1369 3016 2328 
Q 3016 3291 2770 3770 
Q 2525 4250 2034 4250 
z
M 2034 4750 
Q 2819 4750 3233 4129 
Q 3647 3509 3647 2328 
Q 3647 1150 3233 529 
Q 2819 -91 2034 -91 
Q 1250 -91 836 529 
Q 422 1150 422 2328 
Q 422 3509 836 4129 
Q 1250 4750 2034 4750 
z
" transform="scale(0.015625)"/>
      </defs>
      <use xlink:href="#DejaVuSans-Oblique-71"/>
      <use xlink:href="#DejaVuSans-30" transform="translate(63.476562 -16.40625) scale(0.7)"/>
     </g>
    </g>
   </g>
   <g id="text_2">
    <g clip-path="url(#p73045f18a8)">
     <!-- ${q}_{1}$ -->
     <g transform="translate(43.074055 95.088175) scale(0.1625 -0.1625)">
      <defs>
       <path id="DejaVuSans-31" d="M 794 531 
L 1825 531 
L 1825 4091 
L 703 3866 
L 703 4441 
L 1819 4666 
L 2450 4666 
L 2450 531 
L 3481 531 
L 3481 0 
L 794 0 
L 794 531 
z
" transform="scale(0.015625)"/>
      </defs>
      <use xlink:href="#DejaVuSans-Oblique-71"/>
      <use xlink:href="#DejaVuSans-31" transform="translate(63.476562 -16.40625) scale(0.7)"/>
     </g>
    </g>
   </g>
   <g id="text_3">
    <g clip-path="url(#p73045f18a8)">
     <!-- ${q}_{2}$ -->
     <g transform="translate(43.074055 141.442175) scale(0.1625 -0.1625)">
      <defs>
       <path id="DejaVuSans-32" d="M 1228 531 
L 3431 531 
L 3431 0 
L 469 0 
L 469 531 
Q 828 903 1448 1529 
Q 2069 2156 2228 2338 
Q 2531 2678 2651 2914 
Q 2772 3150 2772 3378 
Q 2772 3750 2511 3984 
Q 2250 4219 1831 4219 
Q 1534 4219 1204 4116 
Q 875 4013 500 3803 
L 500 4441 
Q 881 4594 1212 4672 
Q 1544 4750 1819 4750 
Q 2544 4750 2975 4387 
Q 3406 4025 3406 3419 
Q 3406 3131 3298 2873 
Q 3191 2616 2906 2266 
Q 2828 2175 2409 1742 
Q 1991 1309 1228 531 
z
" transform="scale(0.015625)"/>
      </defs>
      <use xlink:href="#DejaVuSans-Oblique-71"/>
      <use xlink:href="#DejaVuSans-32" transform="translate(63.476562 -16.40625) scale(0.7)"/>
     </g>
    </g>
   </g>
   <g id="text_4">
    <g clip-path="url(#p73045f18a8)">
     <!-- ${q}_{3}$ -->
     <g transform="translate(43.074055 187.796174) scale(0.1625 -0.1625)">
      <defs>
       <path id="DejaVuSans-33" d="M 2597 2516 
Q 3050 2419 3304 2112 
Q 3559 1806 3559 1356 
Q 3559 666 3084 287 
Q 2609 -91 1734 -91 
Q 1441 -91 1130 -33 
Q 819 25 488 141 
L 488 750 
Q 750 597 1062 519 
Q 1375 441 1716 441 
Q 2309 441 2620 675 
Q 2931 909 2931 1356 
Q 2931 1769 2642 2001 
Q 2353 2234 1838 2234 
L 1294 2234 
L 1294 2753 
L 1863 2753 
Q 2328 2753 2575 2939 
Q 2822 3125 2822 3475 
Q 2822 3834 2567 4026 
Q 2313 4219 1838 4219 
Q 1578 4219 1281 4162 
Q 984 4106 628 3988 
L 628 4550 
Q 988 4650 1302 4700 
Q 1616 4750 1894 4750 
Q 2613 4750 3031 4423 
Q 3450 4097 3450 3541 
Q 3450 3153 3228 2886 
Q 3006 2619 2597 2516 
z
" transform="scale(0.015625)"/>
      </defs>
      <use xlink:href="#DejaVuSans-Oblique-71"/>
      <use xlink:href="#DejaVuSans-33" transform="translate(63.476562 -16.40625) scale(0.7)"/>
     </g>
    </g>
   </g>
   <g id="text_5">
    <g clip-path="url(#p73045f18a8)">
     <!-- ${q}_{4}$ -->
     <g transform="translate(43.074055 234.150174) scale(0.1625 -0.1625)">
      <defs>
       <path id="DejaVuSans-34" d="M 2419 4116 
L 825 1625 
L 2419 1625 
L 2419 4116 
z
M 2253 4666 
L 3047 4666 
L 3047 1625 
L 3713 1625 
L 3713 1100 
L 3047 1100 
L 3047 0 
L 2419 0 
L 2419 1100 
L 313 1100 
L 313 1709 
L 2253 4666 
z
" transform="scale(0.015625)"/>
      </defs>
      <use xlink:href="#DejaVuSans-Oblique-71"/>
      <use xlink:href="#DejaVuSans-34" transform="translate(63.476562 -16.40625) scale(0.7)"/>
     </g>
    </g>
   </g>
   <g id="text_6">
    <g clip-path="url(#p73045f18a8)">
     <!-- ${q}_{5}$ -->
     <g transform="translate(43.074055 280.504173) scale(0.1625 -0.1625)">
      <defs>
       <path id="DejaVuSans-35" d="M 691 4666 
L 3169 4666 
L 3169 4134 
L 1269 4134 
L 1269 2991 
Q 1406 3038 1543 3061 
Q 1681 3084 1819 3084 
Q 2600 3084 3056 2656 
Q 3513 2228 3513 1497 
Q 3513 744 3044 326 
Q 2575 -91 1722 -91 
Q 1428 -91 1123 -41 
Q 819 9 494 109 
L 494 744 
Q 775 591 1075 516 
Q 1375 441 1709 441 
Q 2250 441 2565 725 
Q 2881 1009 2881 1497 
Q 2881 1984 2565 2268 
Q 2250 2553 1709 2553 
Q 1456 2553 1204 2497 
Q 953 2441 691 2322 
L 691 4666 
z
" transform="scale(0.015625)"/>
      </defs>
      <use xlink:href="#DejaVuSans-Oblique-71"/>
      <use xlink:href="#DejaVuSans-35" transform="translate(63.476562 -16.40625) scale(0.7)"/>
     </g>
    </g>
   </g>
   <g id="text_7">
    <g clip-path="url(#p73045f18a8)">
     <!-- 5 -->
     <g transform="translate(75.017755 315.608921) scale(0.104 -0.104)">
      <use xlink:href="#DejaVuSans-35"/>
     </g>
    </g>
   </g>
   <g id="text_8">
    <g clip-path="url(#p73045f18a8)">
     <!-- out -->
     <g transform="translate(34.499641 326.89118) scale(0.1625 -0.1625)">
      <defs>
       <path id="DejaVuSans-6f" d="M 1959 3097 
Q 1497 3097 1228 2736 
Q 959 2375 959 1747 
Q 959 1119 1226 758 
Q 1494 397 1959 397 
Q 2419 397 2687 759 
Q 2956 1122 2956 1747 
Q 2956 2369 2687 2733 
Q 2419 3097 1959 3097 
z
M 1959 3584 
Q 2709 3584 3137 3096 
Q 3566 2609 3566 1747 
Q 3566 888 3137 398 
Q 2709 -91 1959 -91 
Q 1206 -91 779 398 
Q 353 888 353 1747 
Q 353 2609 779 3096 
Q 1206 3584 1959 3584 
z
" transform="scale(0.015625)"/>
       <path id="DejaVuSans-75" d="M 544 1381 
L 544 3500 
L 1119 3500 
L 1119 1403 
Q 1119 906 1312 657 
Q 1506 409 1894 409 
Q 2359 409 2629 706 
Q 2900 1003 2900 1516 
L 2900 3500 
L 3475 3500 
L 3475 0 
L 2900 0 
L 2900 538 
Q 2691 219 2414 64 
Q 2138 -91 1772 -91 
Q 1169 -91 856 284 
Q 544 659 544 1381 
z
M 1991 3584 
L 1991 3584 
z
" transform="scale(0.015625)"/>
       <path id="DejaVuSans-74" d="M 1172 4494 
L 1172 3500 
L 2356 3500 
L 2356 3053 
L 1172 3053 
L 1172 1153 
Q 1172 725 1289 603 
Q 1406 481 1766 481 
L 2356 481 
L 2356 0 
L 1766 0 
Q 1100 0 847 248 
Q 594 497 594 1153 
L 594 3053 
L 172 3053 
L 172 3500 
L 594 3500 
L 594 4494 
L 1172 4494 
z
" transform="scale(0.015625)"/>
      </defs>
      <use xlink:href="#DejaVuSans-6f"/>
      <use xlink:href="#DejaVuSans-75" x="61.181641"/>
      <use xlink:href="#DejaVuSans-74" x="124.560547"/>
     </g>
    </g>
   </g>
   <g id="text_9">
    <g clip-path="url(#p73045f18a8)">
     <!-- H -->
     <g transform="translate(90.525312 47.870387) scale(0.13 -0.13)">
      <defs>
       <path id="DejaVuSans-48" d="M 628 4666 
L 1259 4666 
L 1259 2753 
L 3553 2753 
L 3553 4666 
L 4184 4666 
L 4184 0 
L 3553 0 
L 3553 2222 
L 1259 2222 
L 1259 0 
L 628 0 
L 628 4666 
z
" transform="scale(0.015625)"/>
      </defs>
      <use xlink:href="#DejaVuSans-48"/>
     </g>
    </g>
   </g>
   <g id="text_10">
    <g clip-path="url(#p73045f18a8)">
     <!-- H -->
     <g transform="translate(90.525312 94.224386) scale(0.13 -0.13)">
      <use xlink:href="#DejaVuSans-48"/>
     </g>
    </g>
   </g>
   <g id="text_11">
    <g clip-path="url(#p73045f18a8)">
     <!-- H -->
     <g transform="translate(90.525312 140.578386) scale(0.13 -0.13)">
      <use xlink:href="#DejaVuSans-48"/>
     </g>
    </g>
   </g>
   <g id="text_12">
    <g clip-path="url(#p73045f18a8)">
     <!-- H -->
     <g transform="translate(90.525312 186.932385) scale(0.13 -0.13)">
      <use xlink:href="#DejaVuSans-48"/>
     </g>
    </g>
   </g>
   <g id="text_13">
    <g clip-path="url(#p73045f18a8)">
     <!-- H -->
     <g transform="translate(90.525312 233.286385) scale(0.13 -0.13)">
      <use xlink:href="#DejaVuSans-48"/>
     </g>
    </g>
   </g>
   <g id="text_14">
    <g clip-path="url(#p73045f18a8)">
     <!-- 2$\pi$/3 -->
     <g transform="translate(132.887514 55.529729) scale(0.08 -0.08)">
      <defs>
       <path id="DejaVuSans-Oblique-3c0" d="M 584 3500 
L 3938 3500 
L 3825 2925 
L 3384 2925 
L 2966 775 
Q 2922 550 2981 450 
Q 3038 353 3209 353 
Q 3256 353 3325 363 
Q 3397 369 3419 372 
L 3338 -44 
Q 3222 -84 3103 -103 
Q 2981 -122 2866 -122 
Q 2491 -122 2388 81 
Q 2284 288 2391 838 
L 2797 2925 
L 1506 2925 
L 938 0 
L 350 0 
L 919 2925 
L 472 2925 
L 584 3500 
z
" transform="scale(0.015625)"/>
       <path id="DejaVuSans-2f" d="M 1625 4666 
L 2156 4666 
L 531 -594 
L 0 -594 
L 1625 4666 
z
" transform="scale(0.015625)"/>
      </defs>
      <use xlink:href="#DejaVuSans-32" transform="translate(0 0.78125)"/>
      <use xlink:href="#DejaVuSans-Oblique-3c0" transform="translate(63.623047 0.78125)"/>
      <use xlink:href="#DejaVuSans-2f" transform="translate(123.828125 0.78125)"/>
      <use xlink:href="#DejaVuSans-33" transform="translate(157.519531 0.78125)"/>
     </g>
    </g>
   </g>
   <g id="text_15">
    <g clip-path="url(#p73045f18a8)">
     <!-- P -->
     <g transform="translate(137.848217 43.350872) scale(0.13 -0.13)">
      <defs>
       <path id="DejaVuSans-50" d="M 1259 4147 
L 1259 2394 
L 2053 2394 
Q 2494 2394 2734 2622 
Q 2975 2850 2975 3272 
Q 2975 3691 2734 3919 
Q 2494 4147 2053 4147 
L 1259 4147 
z
M 628 4666 
L 2053 4666 
Q 2838 4666 3239 4311 
Q 3641 3956 3641 3272 
Q 3641 2581 3239 2228 
Q 2838 1875 2053 1875 
L 1259 1875 
L 1259 0 
L 628 0 
L 628 4666 
z
" transform="scale(0.015625)"/>
      </defs>
      <use xlink:href="#DejaVuSans-50"/>
     </g>
    </g>
   </g>
   <g id="text_16">
    <g clip-path="url(#p73045f18a8)">
     <!-- 4$\pi$/3 -->
     <g transform="translate(132.887514 101.883729) scale(0.08 -0.08)">
      <use xlink:href="#DejaVuSans-34" transform="translate(0 0.78125)"/>
      <use xlink:href="#DejaVuSans-Oblique-3c0" transform="translate(63.623047 0.78125)"/>
      <use xlink:href="#DejaVuSans-2f" transform="translate(123.828125 0.78125)"/>
      <use xlink:href="#DejaVuSans-33" transform="translate(157.519531 0.78125)"/>
     </g>
    </g>
   </g>
   <g id="text_17">
    <g clip-path="url(#p73045f18a8)">
     <!-- P -->
     <g transform="translate(137.848217 89.704871) scale(0.13 -0.13)">
      <use xlink:href="#DejaVuSans-50"/>
     </g>
    </g>
   </g>
   <g id="text_18">
    <g clip-path="url(#p73045f18a8)">
     <!-- 8$\pi$/3 -->
     <g transform="translate(132.887514 148.237728) scale(0.08 -0.08)">
      <defs>
       <path id="DejaVuSans-38" d="M 2034 2216 
Q 1584 2216 1326 1975 
Q 1069 1734 1069 1313 
Q 1069 891 1326 650 
Q 1584 409 2034 409 
Q 2484 409 2743 651 
Q 3003 894 3003 1313 
Q 3003 1734 2745 1975 
Q 2488 2216 2034 2216 
z
M 1403 2484 
Q 997 2584 770 2862 
Q 544 3141 544 3541 
Q 544 4100 942 4425 
Q 1341 4750 2034 4750 
Q 2731 4750 3128 4425 
Q 3525 4100 3525 3541 
Q 3525 3141 3298 2862 
Q 3072 2584 2669 2484 
Q 3125 2378 3379 2068 
Q 3634 1759 3634 1313 
Q 3634 634 3220 271 
Q 2806 -91 2034 -91 
Q 1263 -91 848 271 
Q 434 634 434 1313 
Q 434 1759 690 2068 
Q 947 2378 1403 2484 
z
M 1172 3481 
Q 1172 3119 1398 2916 
Q 1625 2713 2034 2713 
Q 2441 2713 2670 2916 
Q 2900 3119 2900 3481 
Q 2900 3844 2670 4047 
Q 2441 4250 2034 4250 
Q 1625 4250 1398 4047 
Q 1172 3844 1172 3481 
z
" transform="scale(0.015625)"/>
      </defs>
      <use xlink:href="#DejaVuSans-38" transform="translate(0 0.78125)"/>
      <use xlink:href="#DejaVuSans-Oblique-3c0" transform="translate(63.623047 0.78125)"/>
      <use xlink:href="#DejaVuSans-2f" transform="translate(123.828125 0.78125)"/>
      <use xlink:href="#DejaVuSans-33" transform="translate(157.519531 0.78125)"/>
     </g>
    </g>
   </g>
   <g id="text_19">
    <g clip-path="url(#p73045f18a8)">
     <!-- P -->
     <g transform="translate(137.848217 136.058871) scale(0.13 -0.13)">
      <use xlink:href="#DejaVuSans-50"/>
     </g>
    </g>
   </g>
   <g id="text_20">
    <g clip-path="url(#p73045f18a8)">
     <!-- 16$\pi$/3 -->
     <g transform="translate(130.367514 194.591728) scale(0.08 -0.08)">
      <defs>
       <path id="DejaVuSans-36" d="M 2113 2584 
Q 1688 2584 1439 2293 
Q 1191 2003 1191 1497 
Q 1191 994 1439 701 
Q 1688 409 2113 409 
Q 2538 409 2786 701 
Q 3034 994 3034 1497 
Q 3034 2003 2786 2293 
Q 2538 2584 2113 2584 
z
M 3366 4563 
L 3366 3988 
Q 3128 4100 2886 4159 
Q 2644 4219 2406 4219 
Q 1781 4219 1451 3797 
Q 1122 3375 1075 2522 
Q 1259 2794 1537 2939 
Q 1816 3084 2150 3084 
Q 2853 3084 3261 2657 
Q 3669 2231 3669 1497 
Q 3669 778 3244 343 
Q 2819 -91 2113 -91 
Q 1303 -91 875 529 
Q 447 1150 447 2328 
Q 447 3434 972 4092 
Q 1497 4750 2381 4750 
Q 2619 4750 2861 4703 
Q 3103 4656 3366 4563 
z
" transform="scale(0.015625)"/>
      </defs>
      <use xlink:href="#DejaVuSans-31" transform="translate(0 0.78125)"/>
      <use xlink:href="#DejaVuSans-36" transform="translate(63.623047 0.78125)"/>
      <use xlink:href="#DejaVuSans-Oblique-3c0" transform="translate(127.246094 0.78125)"/>
      <use xlink:href="#DejaVuSans-2f" transform="translate(187.451172 0.78125)"/>
      <use xlink:href="#DejaVuSans-33" transform="translate(221.142578 0.78125)"/>
     </g>
    </g>
   </g>
   <g id="text_21">
    <g clip-path="url(#p73045f18a8)">
     <!-- P -->
     <g transform="translate(137.848217 182.41287) scale(0.13 -0.13)">
      <use xlink:href="#DejaVuSans-50"/>
     </g>
    </g>
   </g>
   <g id="text_22">
    <g clip-path="url(#p73045f18a8)">
     <!-- 33.5 -->
     <g transform="translate(132.861264 240.945727) scale(0.08 -0.08)">
      <defs>
       <path id="DejaVuSans-2e" d="M 684 794 
L 1344 794 
L 1344 0 
L 684 0 
L 684 794 
z
" transform="scale(0.015625)"/>
      </defs>
      <use xlink:href="#DejaVuSans-33"/>
      <use xlink:href="#DejaVuSans-33" x="63.623047"/>
      <use xlink:href="#DejaVuSans-2e" x="127.246094"/>
      <use xlink:href="#DejaVuSans-35" x="159.033203"/>
     </g>
    </g>
   </g>
   <g id="text_23">
    <g clip-path="url(#p73045f18a8)">
     <!-- P -->
     <g transform="translate(137.848217 228.76687) scale(0.13 -0.13)">
      <use xlink:href="#DejaVuSans-50"/>
     </g>
    </g>
   </g>
   <g id="text_24">
    <g clip-path="url(#p73045f18a8)">
     <!-- H -->
     <g transform="translate(183.233311 233.286385) scale(0.13 -0.13)">
      <use xlink:href="#DejaVuSans-48"/>
     </g>
    </g>
   </g>
   <g id="text_25">
    <g clip-path="url(#p73045f18a8)">
     <!-- $-$$\pi$/2 -->
     <g transform="translate(271.309513 287.299726) scale(0.08 -0.08)">
      <defs>
       <path id="DejaVuSans-2212" d="M 678 2272 
L 4684 2272 
L 4684 1741 
L 678 1741 
L 678 2272 
z
" transform="scale(0.015625)"/>
      </defs>
      <use xlink:href="#DejaVuSans-2212" transform="translate(0 0.78125)"/>
      <use xlink:href="#DejaVuSans-Oblique-3c0" transform="translate(83.789062 0.78125)"/>
      <use xlink:href="#DejaVuSans-2f" transform="translate(143.994141 0.78125)"/>
      <use xlink:href="#DejaVuSans-32" transform="translate(174.060547 0.78125)"/>
     </g>
    </g>
   </g>
   <g id="text_26">
    <g clip-path="url(#p73045f18a8)">
     <!-- P -->
     <g transform="translate(276.910216 275.120869) scale(0.13 -0.13)">
      <use xlink:href="#DejaVuSans-50"/>
     </g>
    </g>
   </g>
   <g id="text_27">
    <g clip-path="url(#p73045f18a8)">
     <!-- H -->
     <g transform="translate(368.649308 186.932385) scale(0.13 -0.13)">
      <use xlink:href="#DejaVuSans-48"/>
     </g>
    </g>
   </g>
   <g id="text_28">
    <g clip-path="url(#p73045f18a8)">
     <!-- $-$$\pi$/4 -->
     <g transform="translate(456.56551 287.299726) scale(0.08 -0.08)">
      <use xlink:href="#DejaVuSans-2212" transform="translate(0 0.09375)"/>
      <use xlink:href="#DejaVuSans-Oblique-3c0" transform="translate(83.789062 0.09375)"/>
      <use xlink:href="#DejaVuSans-2f" transform="translate(143.994141 0.09375)"/>
      <use xlink:href="#DejaVuSans-34" transform="translate(177.685547 0.09375)"/>
     </g>
    </g>
   </g>
   <g id="text_29">
    <g clip-path="url(#p73045f18a8)">
     <!-- P -->
     <g transform="translate(462.326213 275.120869) scale(0.13 -0.13)">
      <use xlink:href="#DejaVuSans-50"/>
     </g>
    </g>
   </g>
   <g id="text_30">
    <g clip-path="url(#p73045f18a8)">
     <!-- $-$$\pi$/2 -->
     <g transform="translate(595.787508 287.299726) scale(0.08 -0.08)">
      <use xlink:href="#DejaVuSans-2212" transform="translate(0 0.78125)"/>
      <use xlink:href="#DejaVuSans-Oblique-3c0" transform="translate(83.789062 0.78125)"/>
      <use xlink:href="#DejaVuSans-2f" transform="translate(143.994141 0.78125)"/>
      <use xlink:href="#DejaVuSans-32" transform="translate(174.060547 0.78125)"/>
     </g>
    </g>
   </g>
   <g id="text_31">
    <g clip-path="url(#p73045f18a8)">
     <!-- P -->
     <g transform="translate(601.388211 275.120869) scale(0.13 -0.13)">
      <use xlink:href="#DejaVuSans-50"/>
     </g>
    </g>
   </g>
   <g id="text_32">
    <g clip-path="url(#p73045f18a8)">
     <!-- H -->
     <g transform="translate(693.127304 140.578386) scale(0.13 -0.13)">
      <use xlink:href="#DejaVuSans-48"/>
     </g>
    </g>
   </g>
   <g id="text_33">
    <g clip-path="url(#p73045f18a8)">
     <!-- $-$$\pi$/8 -->
     <g transform="translate(781.243506 287.299726) scale(0.08 -0.08)">
      <use xlink:href="#DejaVuSans-2212" transform="translate(0 0.78125)"/>
      <use xlink:href="#DejaVuSans-Oblique-3c0" transform="translate(83.789062 0.78125)"/>
      <use xlink:href="#DejaVuSans-2f" transform="translate(143.994141 0.78125)"/>
      <use xlink:href="#DejaVuSans-38" transform="translate(172.685547 0.78125)"/>
     </g>
    </g>
   </g>
   <g id="text_34">
    <g clip-path="url(#p73045f18a8)">
     <!-- P -->
     <g transform="translate(786.804209 275.120869) scale(0.13 -0.13)">
      <use xlink:href="#DejaVuSans-50"/>
     </g>
    </g>
   </g>
   <g id="text_35">
    <g clip-path="url(#p73045f18a8)">
     <!-- $-$$\pi$/4 -->
     <g transform="translate(920.105504 287.299726) scale(0.08 -0.08)">
      <use xlink:href="#DejaVuSans-2212" transform="translate(0 0.09375)"/>
      <use xlink:href="#DejaVuSans-Oblique-3c0" transform="translate(83.789062 0.09375)"/>
      <use xlink:href="#DejaVuSans-2f" transform="translate(143.994141 0.09375)"/>
      <use xlink:href="#DejaVuSans-34" transform="translate(177.685547 0.09375)"/>
     </g>
    </g>
   </g>
   <g id="text_36">
    <g clip-path="url(#p73045f18a8)">
     <!-- P -->
     <g transform="translate(925.866207 275.120869) scale(0.13 -0.13)">
      <use xlink:href="#DejaVuSans-50"/>
     </g>
    </g>
   </g>
   <g id="text_37">
    <g clip-path="url(#p73045f18a8)">
     <!-- $-$$\pi$/2 -->
     <g transform="translate(1059.327502 287.299726) scale(0.08 -0.08)">
      <use xlink:href="#DejaVuSans-2212" transform="translate(0 0.78125)"/>
      <use xlink:href="#DejaVuSans-Oblique-3c0" transform="translate(83.789062 0.78125)"/>
      <use xlink:href="#DejaVuSans-2f" transform="translate(143.994141 0.78125)"/>
      <use xlink:href="#DejaVuSans-32" transform="translate(174.060547 0.78125)"/>
     </g>
    </g>
   </g>
   <g id="text_38">
    <g clip-path="url(#p73045f18a8)">
     <!-- P -->
     <g transform="translate(1064.928205 275.120869) scale(0.13 -0.13)">
      <use xlink:href="#DejaVuSans-50"/>
     </g>
    </g>
   </g>
   <g id="text_39">
    <g clip-path="url(#p73045f18a8)">
     <!-- H -->
     <g transform="translate(1156.667298 94.224386) scale(0.13 -0.13)">
      <use xlink:href="#DejaVuSans-48"/>
     </g>
    </g>
   </g>
   <g id="text_40">
    <g clip-path="url(#p73045f18a8)">
     <!-- $-$$\pi$/16 -->
     <g transform="translate(1242.0635 287.299726) scale(0.08 -0.08)">
      <use xlink:href="#DejaVuSans-2212" transform="translate(0 0.78125)"/>
      <use xlink:href="#DejaVuSans-Oblique-3c0" transform="translate(83.789062 0.78125)"/>
      <use xlink:href="#DejaVuSans-2f" transform="translate(143.994141 0.78125)"/>
      <use xlink:href="#DejaVuSans-31" transform="translate(177.685547 0.78125)"/>
      <use xlink:href="#DejaVuSans-36" transform="translate(241.308594 0.78125)"/>
     </g>
    </g>
   </g>
   <g id="text_41">
    <g clip-path="url(#p73045f18a8)">
     <!-- P -->
     <g transform="translate(1250.344203 275.120869) scale(0.13 -0.13)">
      <use xlink:href="#DejaVuSans-50"/>
     </g>
    </g>
   </g>
   <g id="text_42">
    <g clip-path="url(#p73045f18a8)">
     <!-- 4 -->
     <g transform="translate(1404.913998 315.608921) scale(0.104 -0.104)">
      <use xlink:href="#DejaVuSans-34"/>
     </g>
    </g>
   </g>
   <g id="text_43">
    <g clip-path="url(#p73045f18a8)">
     <!-- $-$$\pi$/8 -->
     <g transform="translate(1430.199497 287.299726) scale(0.08 -0.08)">
      <use xlink:href="#DejaVuSans-2212" transform="translate(0 0.78125)"/>
      <use xlink:href="#DejaVuSans-Oblique-3c0" transform="translate(83.789062 0.78125)"/>
      <use xlink:href="#DejaVuSans-2f" transform="translate(143.994141 0.78125)"/>
      <use xlink:href="#DejaVuSans-38" transform="translate(172.685547 0.78125)"/>
     </g>
    </g>
   </g>
   <g id="text_44">
    <g clip-path="url(#p73045f18a8)">
     <!-- P -->
     <g transform="translate(1435.7602 275.120869) scale(0.13 -0.13)">
      <use xlink:href="#DejaVuSans-50"/>
     </g>
    </g>
   </g>
   <g id="text_45">
    <g clip-path="url(#p73045f18a8)">
     <!-- 3 -->
     <g transform="translate(1590.329995 315.608921) scale(0.104 -0.104)">
      <use xlink:href="#DejaVuSans-33"/>
     </g>
    </g>
   </g>
   <g id="text_46">
    <g clip-path="url(#p73045f18a8)">
     <!-- $-$$\pi$/4 -->
     <g transform="translate(1615.415495 287.299726) scale(0.08 -0.08)">
      <use xlink:href="#DejaVuSans-2212" transform="translate(0 0.09375)"/>
      <use xlink:href="#DejaVuSans-Oblique-3c0" transform="translate(83.789062 0.09375)"/>
      <use xlink:href="#DejaVuSans-2f" transform="translate(143.994141 0.09375)"/>
      <use xlink:href="#DejaVuSans-34" transform="translate(177.685547 0.09375)"/>
     </g>
    </g>
   </g>
   <g id="text_47">
    <g clip-path="url(#p73045f18a8)">
     <!-- P -->
     <g transform="translate(1621.176198 275.120869) scale(0.13 -0.13)">
      <use xlink:href="#DejaVuSans-50"/>
     </g>
    </g>
   </g>
   <g id="text_48">
    <g clip-path="url(#p73045f18a8)">
     <!-- 2 -->
     <g transform="translate(1775.745993 315.608921) scale(0.104 -0.104)">
      <use xlink:href="#DejaVuSans-32"/>
     </g>
    </g>
   </g>
   <g id="text_49">
    <g clip-path="url(#p73045f18a8)">
     <!-- $-$$\pi$/2 -->
     <g transform="translate(1800.991492 287.299726) scale(0.08 -0.08)">
      <use xlink:href="#DejaVuSans-2212" transform="translate(0 0.78125)"/>
      <use xlink:href="#DejaVuSans-Oblique-3c0" transform="translate(83.789062 0.78125)"/>
      <use xlink:href="#DejaVuSans-2f" transform="translate(143.994141 0.78125)"/>
      <use xlink:href="#DejaVuSans-32" transform="translate(174.060547 0.78125)"/>
     </g>
    </g>
   </g>
   <g id="text_50">
    <g clip-path="url(#p73045f18a8)">
     <!-- P -->
     <g transform="translate(1806.592195 275.120869) scale(0.13 -0.13)">
      <use xlink:href="#DejaVuSans-50"/>
     </g>
    </g>
   </g>
   <g id="text_51">
    <g clip-path="url(#p73045f18a8)">
     <!-- H -->
     <g transform="translate(1898.331288 47.870387) scale(0.13 -0.13)">
      <use xlink:href="#DejaVuSans-48"/>
     </g>
    </g>
   </g>
   <g id="text_52">
    <g clip-path="url(#p73045f18a8)">
     <!-- 1 -->
     <g transform="translate(1914.807991 315.608921) scale(0.104 -0.104)">
      <use xlink:href="#DejaVuSans-31"/>
     </g>
    </g>
   </g>
   <g id="text_53">
    <g clip-path="url(#p73045f18a8)">
     <!-- 0 -->
     <g transform="translate(1961.16199 315.608921) scale(0.104 -0.104)">
      <use xlink:href="#DejaVuSans-30"/>
     </g>
    </g>
   </g>
  </g>
 </g>
 <defs>
  <clipPath id="p73045f18a8">
   <rect x="7.2" y="7.2" width="1972.96713" height="343.019595"/>
  </clipPath>
 </defs>
</svg>
