<?xml version="1.0" encoding="utf-8" standalone="no"?>
<!DOCTYPE svg PUBLIC "-//W3C//DTD SVG 1.1//EN"
  "http://www.w3.org/Graphics/SVG/1.1/DTD/svg11.dtd">
<svg xmlns:xlink="http://www.w3.org/1999/xlink" width="457.68515pt" height="264.711597pt" viewBox="0 0 457.68515 264.711597" xmlns="http://www.w3.org/2000/svg" version="1.1">
 <metadata>
  <rdf:RDF xmlns:dc="http://purl.org/dc/elements/1.1/" xmlns:cc="http://creativecommons.org/ns#" xmlns:rdf="http://www.w3.org/1999/02/22-rdf-syntax-ns#">
   <cc:Work>
    <dc:type rdf:resource="http://purl.org/dc/dcmitype/StillImage"/>
    <dc:date>2025-02-18T17:29:49.753648</dc:date>
    <dc:format>image/svg+xml</dc:format>
    <dc:creator>
     <cc:Agent>
      <dc:title>Matplotlib v3.9.1, https://matplotlib.org/</dc:title>
     </cc:Agent>
    </dc:creator>
   </cc:Work>
  </rdf:RDF>
 </metadata>
 <defs>
  <style type="text/css">*{stroke-linejoin: round; stroke-linecap: butt}</style>
 </defs>
 <g id="figure_1">
  <g id="patch_1">
   <path d="M 0 264.711597 
L 457.68515 264.711597 
L 457.68515 0 
L 0 0 
z
" style="fill: #ffffff"/>
  </g>
  <g id="axes_1">
   <g id="line2d_1">
    <path d="M 70.382355 44.2832 
L 445.84975 44.2832 
" clip-path="url(#pd6ed97fbb7)" style="fill: none; stroke: #000000; stroke-width: 2; stroke-linecap: square"/>
   </g>
   <g id="line2d_2">
    <path d="M 70.382355 90.637199 
L 445.84975 90.637199 
" clip-path="url(#pd6ed97fbb7)" style="fill: none; stroke: #000000; stroke-width: 2; stroke-linecap: square"/>
   </g>
   <g id="line2d_3">
    <path d="M 70.382355 136.991198 
L 445.84975 136.991198 
" clip-path="url(#pd6ed97fbb7)" style="fill: none; stroke: #000000; stroke-width: 2; stroke-linecap: square"/>
   </g>
   <g id="line2d_4">
    <path d="M 70.382355 183.345198 
L 445.84975 183.345198 
" clip-path="url(#pd6ed97fbb7)" style="fill: none; stroke: #000000; stroke-width: 2; stroke-linecap: square"/>
   </g>
   <g id="line2d_5">
    <path d="M 79.653155 234.334597 
L 84.288555 225.063797 
" clip-path="url(#pd6ed97fbb7)" style="fill: none; stroke: #778899; stroke-width: 1.5; stroke-linecap: square"/>
   </g>
   <g id="line2d_6">
    <path d="M 70.382355 228.192692 
L 445.84975 228.192692 
" clip-path="url(#pd6ed97fbb7)" style="fill: none; stroke: #778899; stroke-width: 2; stroke-linecap: square"/>
   </g>
   <g id="line2d_7">
    <path d="M 70.382355 231.205702 
L 445.84975 231.205702 
" clip-path="url(#pd6ed97fbb7)" style="fill: none; stroke: #778899; stroke-width: 2; stroke-linecap: square"/>
   </g>
   <g id="patch_2">
    <path d="M 321.157492 219.153662 
L 333.209532 219.153662 
L 327.183512 227.845037 
z
" clip-path="url(#pd6ed97fbb7)" style="fill: #778899"/>
   </g>
   <g id="patch_3">
    <path d="M 367.511491 219.153662 
L 379.563531 219.153662 
L 373.537511 227.845037 
z
" clip-path="url(#pd6ed97fbb7)" style="fill: #778899"/>
   </g>
   <g id="patch_4">
    <path d="M 413.865491 219.153662 
L 425.917531 219.153662 
L 419.891511 227.845037 
z
" clip-path="url(#pd6ed97fbb7)" style="fill: #778899"/>
   </g>
   <g id="patch_5">
    <path d="M 65.746955 21.1062 
L -1093.103029 21.1062 
L -1093.103029 299.230196 
L 65.746955 299.230196 
z
" clip-path="url(#pd6ed97fbb7)" style="fill: #ffffff; stroke: #ffffff; stroke-width: 1.5; stroke-linejoin: miter"/>
   </g>
   <g id="line2d_8">
    <path d="M 141.767514 183.345198 
L 141.767514 44.2832 
" clip-path="url(#pd6ed97fbb7)" style="fill: none; stroke: #002d9c; stroke-width: 2; stroke-linecap: square"/>
   </g>
   <g id="line2d_9">
    <path d="M 234.475513 183.345198 
L 234.475513 44.2832 
" clip-path="url(#pd6ed97fbb7)" style="fill: none; stroke: #002d9c; stroke-width: 2; stroke-linecap: square"/>
   </g>
   <g id="line2d_10">
    <path d="M 328.690017 44.2832 
L 328.690017 219.153662 
" clip-path="url(#pd6ed97fbb7)" style="fill: none; stroke: #778899; stroke-width: 2; stroke-linecap: square"/>
   </g>
   <g id="line2d_11">
    <path d="M 325.677007 44.2832 
L 325.677007 219.153662 
" clip-path="url(#pd6ed97fbb7)" style="fill: none; stroke: #778899; stroke-width: 2; stroke-linecap: square"/>
   </g>
   <g id="line2d_12">
    <path d="M 375.044016 90.637199 
L 375.044016 219.153662 
" clip-path="url(#pd6ed97fbb7)" style="fill: none; stroke: #778899; stroke-width: 2; stroke-linecap: square"/>
   </g>
   <g id="line2d_13">
    <path d="M 372.031006 90.637199 
L 372.031006 219.153662 
" clip-path="url(#pd6ed97fbb7)" style="fill: none; stroke: #778899; stroke-width: 2; stroke-linecap: square"/>
   </g>
   <g id="line2d_14">
    <path d="M 421.398016 136.991198 
L 421.398016 219.153662 
" clip-path="url(#pd6ed97fbb7)" style="fill: none; stroke: #778899; stroke-width: 2; stroke-linecap: square"/>
   </g>
   <g id="line2d_15">
    <path d="M 418.385006 136.991198 
L 418.385006 219.153662 
" clip-path="url(#pd6ed97fbb7)" style="fill: none; stroke: #778899; stroke-width: 2; stroke-linecap: square"/>
   </g>
   <g id="patch_6">
    <path d="M 80.348465 59.348249 
L 110.478565 59.348249 
L 110.478565 29.21815 
L 80.348465 29.21815 
z
" clip-path="url(#pd6ed97fbb7)" style="fill: #fa4d56; stroke: #fa4d56; stroke-width: 1.5; stroke-linejoin: miter"/>
   </g>
   <g id="patch_7">
    <path d="M 80.348465 105.702249 
L 110.478565 105.702249 
L 110.478565 75.572149 
L 80.348465 75.572149 
z
" clip-path="url(#pd6ed97fbb7)" style="fill: #fa4d56; stroke: #fa4d56; stroke-width: 1.5; stroke-linejoin: miter"/>
   </g>
   <g id="patch_8">
    <path d="M 80.348465 152.056248 
L 110.478565 152.056248 
L 110.478565 121.926148 
L 80.348465 121.926148 
z
" clip-path="url(#pd6ed97fbb7)" style="fill: #fa4d56; stroke: #fa4d56; stroke-width: 1.5; stroke-linejoin: miter"/>
   </g>
   <g id="patch_9">
    <path d="M 141.767514 48.802714 
C 142.966104 48.802714 144.115763 48.32651 144.963294 47.478979 
C 145.810825 46.631448 146.287029 45.481789 146.287029 44.2832 
C 146.287029 43.08461 145.810825 41.934951 144.963294 41.08742 
C 144.115763 40.239889 142.966104 39.763685 141.767514 39.763685 
C 140.568925 39.763685 139.419265 40.239889 138.571735 41.08742 
C 137.724204 41.934951 137.247999 43.08461 137.247999 44.2832 
C 137.247999 45.481789 137.724204 46.631448 138.571735 47.478979 
C 139.419265 48.32651 140.568925 48.802714 141.767514 48.802714 
z
" clip-path="url(#pd6ed97fbb7)" style="fill: #ffffff; stroke: #002d9c; stroke-width: 1.5; stroke-linejoin: miter"/>
   </g>
   <g id="patch_10">
    <path d="M 141.767514 95.156714 
C 142.966104 95.156714 144.115763 94.680509 144.963294 93.832979 
C 145.810825 92.985448 146.287029 91.835788 146.287029 90.637199 
C 146.287029 89.43861 145.810825 88.28895 144.963294 87.441419 
C 144.115763 86.593889 142.966104 86.117684 141.767514 86.117684 
C 140.568925 86.117684 139.419265 86.593889 138.571735 87.441419 
C 137.724204 88.28895 137.247999 89.43861 137.247999 90.637199 
C 137.247999 91.835788 137.724204 92.985448 138.571735 93.832979 
C 139.419265 94.680509 140.568925 95.156714 141.767514 95.156714 
z
" clip-path="url(#pd6ed97fbb7)" style="fill: #002d9c; stroke: #002d9c; stroke-width: 1.5; stroke-linejoin: miter"/>
   </g>
   <g id="patch_11">
    <path d="M 141.767514 141.510713 
C 142.966104 141.510713 144.115763 141.034509 144.963294 140.186978 
C 145.810825 139.339447 146.287029 138.189788 146.287029 136.991198 
C 146.287029 135.792609 145.810825 134.642949 144.963294 133.795419 
C 144.115763 132.947888 142.966104 132.471683 141.767514 132.471683 
C 140.568925 132.471683 139.419265 132.947888 138.571735 133.795419 
C 137.724204 134.642949 137.247999 135.792609 137.247999 136.991198 
C 137.247999 138.189788 137.724204 139.339447 138.571735 140.186978 
C 139.419265 141.034509 140.568925 141.510713 141.767514 141.510713 
z
" clip-path="url(#pd6ed97fbb7)" style="fill: #ffffff; stroke: #002d9c; stroke-width: 1.5; stroke-linejoin: miter"/>
   </g>
   <g id="patch_12">
    <path d="M 141.767514 193.890733 
C 144.564223 193.890733 147.246762 192.779588 149.224334 190.802017 
C 151.201905 188.824445 152.313049 186.141906 152.313049 183.345198 
C 152.313049 180.548489 151.201905 177.86595 149.224334 175.888378 
C 147.246762 173.910807 144.564223 172.799663 141.767514 172.799663 
C 138.970806 172.799663 136.288267 173.910807 134.310695 175.888378 
C 132.333124 177.86595 131.22198 180.548489 131.22198 183.345198 
C 131.22198 186.141906 132.333124 188.824445 134.310695 190.802017 
C 136.288267 192.779588 138.970806 193.890733 141.767514 193.890733 
z
" clip-path="url(#pd6ed97fbb7)" style="fill: #002d9c; stroke: #002d9c; stroke-width: 2; stroke-linejoin: miter"/>
   </g>
   <g id="patch_13">
    <path d="M 173.056464 198.410247 
L 203.186564 198.410247 
L 203.186564 168.280148 
L 173.056464 168.280148 
z
" clip-path="url(#pd6ed97fbb7)" style="fill: #33b1ff; stroke: #33b1ff; stroke-width: 1.5; stroke-linejoin: miter"/>
   </g>
   <g id="patch_14">
    <path d="M 234.475513 48.802714 
C 235.674103 48.802714 236.823762 48.32651 237.671293 47.478979 
C 238.518823 46.631448 238.995028 45.481789 238.995028 44.2832 
C 238.995028 43.08461 238.518823 41.934951 237.671293 41.08742 
C 236.823762 40.239889 235.674103 39.763685 234.475513 39.763685 
C 233.276924 39.763685 232.127264 40.239889 231.279733 41.08742 
C 230.432203 41.934951 229.955998 43.08461 229.955998 44.2832 
C 229.955998 45.481789 230.432203 46.631448 231.279733 47.478979 
C 232.127264 48.32651 233.276924 48.802714 234.475513 48.802714 
z
" clip-path="url(#pd6ed97fbb7)" style="fill: #ffffff; stroke: #002d9c; stroke-width: 1.5; stroke-linejoin: miter"/>
   </g>
   <g id="patch_15">
    <path d="M 234.475513 95.156714 
C 235.674103 95.156714 236.823762 94.680509 237.671293 93.832979 
C 238.518823 92.985448 238.995028 91.835788 238.995028 90.637199 
C 238.995028 89.43861 238.518823 88.28895 237.671293 87.441419 
C 236.823762 86.593889 235.674103 86.117684 234.475513 86.117684 
C 233.276924 86.117684 232.127264 86.593889 231.279733 87.441419 
C 230.432203 88.28895 229.955998 89.43861 229.955998 90.637199 
C 229.955998 91.835788 230.432203 92.985448 231.279733 93.832979 
C 232.127264 94.680509 233.276924 95.156714 234.475513 95.156714 
z
" clip-path="url(#pd6ed97fbb7)" style="fill: #002d9c; stroke: #002d9c; stroke-width: 1.5; stroke-linejoin: miter"/>
   </g>
   <g id="patch_16">
    <path d="M 234.475513 141.510713 
C 235.674103 141.510713 236.823762 141.034509 237.671293 140.186978 
C 238.518823 139.339447 238.995028 138.189788 238.995028 136.991198 
C 238.995028 135.792609 238.518823 134.642949 237.671293 133.795419 
C 236.823762 132.947888 235.674103 132.471683 234.475513 132.471683 
C 233.276924 132.471683 232.127264 132.947888 231.279733 133.795419 
C 230.432203 134.642949 229.955998 135.792609 229.955998 136.991198 
C 229.955998 138.189788 230.432203 139.339447 231.279733 140.186978 
C 232.127264 141.034509 233.276924 141.510713 234.475513 141.510713 
z
" clip-path="url(#pd6ed97fbb7)" style="fill: #ffffff; stroke: #002d9c; stroke-width: 1.5; stroke-linejoin: miter"/>
   </g>
   <g id="patch_17">
    <path d="M 234.475513 193.890733 
C 237.272222 193.890733 239.954761 192.779588 241.932332 190.802017 
C 243.909904 188.824445 245.021048 186.141906 245.021048 183.345198 
C 245.021048 180.548489 243.909904 177.86595 241.932332 175.888378 
C 239.954761 173.910807 237.272222 172.799663 234.475513 172.799663 
C 231.678805 172.799663 228.996265 173.910807 227.018694 175.888378 
C 225.041122 177.86595 223.929978 180.548489 223.929978 183.345198 
C 223.929978 186.141906 225.041122 188.824445 227.018694 190.802017 
C 228.996265 192.779588 231.678805 193.890733 234.475513 193.890733 
z
" clip-path="url(#pd6ed97fbb7)" style="fill: #002d9c; stroke: #002d9c; stroke-width: 2; stroke-linejoin: miter"/>
   </g>
   <g id="patch_18">
    <path d="M 265.764463 59.348249 
L 295.894562 59.348249 
L 295.894562 29.21815 
L 265.764463 29.21815 
z
" clip-path="url(#pd6ed97fbb7)" style="fill: #fa4d56; stroke: #fa4d56; stroke-width: 1.5; stroke-linejoin: miter"/>
   </g>
   <g id="patch_19">
    <path d="M 265.764463 105.702249 
L 295.894562 105.702249 
L 295.894562 75.572149 
L 265.764463 75.572149 
z
" clip-path="url(#pd6ed97fbb7)" style="fill: #fa4d56; stroke: #fa4d56; stroke-width: 1.5; stroke-linejoin: miter"/>
   </g>
   <g id="patch_20">
    <path d="M 265.764463 152.056248 
L 295.894562 152.056248 
L 295.894562 121.926148 
L 265.764463 121.926148 
z
" clip-path="url(#pd6ed97fbb7)" style="fill: #fa4d56; stroke: #fa4d56; stroke-width: 1.5; stroke-linejoin: miter"/>
   </g>
   <g id="patch_21">
    <path d="M 312.118462 59.348249 
L 342.248562 59.348249 
L 342.248562 29.21815 
L 312.118462 29.21815 
z
" clip-path="url(#pd6ed97fbb7)" style="fill: #a8a8a8; stroke: #a8a8a8; stroke-width: 1.5; stroke-linejoin: miter"/>
   </g>
   <g id="patch_22">
    <path d="M 337.729047 48.802714 
C 337.729047 46.006937 336.617244 43.322808 334.640331 41.345895 
C 332.663418 39.368982 329.979289 38.25718 327.183512 38.25718 
C 324.387735 38.25718 321.703606 39.368982 319.726693 41.345895 
C 317.74978 43.322808 316.637977 46.006937 316.637977 48.802714 
" clip-path="url(#pd6ed97fbb7)" style="fill: none; stroke: #000000; stroke-width: 2; stroke-linejoin: miter"/>
   </g>
   <g id="line2d_16">
    <path d="M 327.183512 48.802714 
L 337.729047 38.25718 
" clip-path="url(#pd6ed97fbb7)" style="fill: none; stroke: #000000; stroke-width: 2; stroke-linecap: square"/>
   </g>
   <g id="patch_23">
    <path d="M 358.472461 105.702249 
L 388.602561 105.702249 
L 388.602561 75.572149 
L 358.472461 75.572149 
z
" clip-path="url(#pd6ed97fbb7)" style="fill: #a8a8a8; stroke: #a8a8a8; stroke-width: 1.5; stroke-linejoin: miter"/>
   </g>
   <g id="patch_24">
    <path d="M 384.083046 95.156714 
C 384.083046 92.360937 382.971243 89.676808 380.994331 87.699895 
C 379.017418 85.722982 376.333288 84.611179 373.537511 84.611179 
C 370.741734 84.611179 368.057605 85.722982 366.080692 87.699895 
C 364.103779 89.676808 362.991976 92.360937 362.991976 95.156714 
" clip-path="url(#pd6ed97fbb7)" style="fill: none; stroke: #000000; stroke-width: 2; stroke-linejoin: miter"/>
   </g>
   <g id="line2d_17">
    <path d="M 373.537511 95.156714 
L 384.083046 84.611179 
" clip-path="url(#pd6ed97fbb7)" style="fill: none; stroke: #000000; stroke-width: 2; stroke-linecap: square"/>
   </g>
   <g id="patch_25">
    <path d="M 404.826461 152.056248 
L 434.95656 152.056248 
L 434.95656 121.926148 
L 404.826461 121.926148 
z
" clip-path="url(#pd6ed97fbb7)" style="fill: #a8a8a8; stroke: #a8a8a8; stroke-width: 1.5; stroke-linejoin: miter"/>
   </g>
   <g id="patch_26">
    <path d="M 430.437046 141.510713 
C 430.437046 138.714936 429.325243 136.030807 427.34833 134.053894 
C 425.371417 132.076981 422.687288 130.965178 419.891511 130.965178 
C 417.095734 130.965178 414.411604 132.076981 412.434691 134.053894 
C 410.457779 136.030807 409.345976 138.714936 409.345976 141.510713 
" clip-path="url(#pd6ed97fbb7)" style="fill: none; stroke: #000000; stroke-width: 2; stroke-linejoin: miter"/>
   </g>
   <g id="line2d_18">
    <path d="M 419.891511 141.510713 
L 430.437046 130.965178 
" clip-path="url(#pd6ed97fbb7)" style="fill: none; stroke: #000000; stroke-width: 2; stroke-linecap: square"/>
   </g>
   <g id="line2d_19">
    <path d="M 141.767514 189.371218 
L 141.767514 177.319178 
" clip-path="url(#pd6ed97fbb7)" style="fill: none; stroke: #ffffff; stroke-width: 2; stroke-linecap: square"/>
   </g>
   <g id="line2d_20">
    <path d="M 135.741494 183.345198 
L 147.793534 183.345198 
" clip-path="url(#pd6ed97fbb7)" style="fill: none; stroke: #ffffff; stroke-width: 2; stroke-linecap: square"/>
   </g>
   <g id="line2d_21">
    <path d="M 234.475513 189.371218 
L 234.475513 177.319178 
" clip-path="url(#pd6ed97fbb7)" style="fill: none; stroke: #ffffff; stroke-width: 2; stroke-linecap: square"/>
   </g>
   <g id="line2d_22">
    <path d="M 228.449493 183.345198 
L 240.501533 183.345198 
" clip-path="url(#pd6ed97fbb7)" style="fill: none; stroke: #ffffff; stroke-width: 2; stroke-linecap: square"/>
   </g>
   <g id="text_1">
    <g clip-path="url(#pd6ed97fbb7)">
     <!-- ${q}_{0}$ -->
     <g transform="translate(43.074055 48.734176) scale(0.1625 -0.1625)">
      <defs>
       <path id="DejaVuSans-Oblique-71" d="M 2669 525 
Q 2438 222 2123 65 
Q 1809 -91 1428 -91 
Q 897 -91 595 267 
Q 294 625 294 1253 
Q 294 1759 480 2231 
Q 666 2703 1013 3078 
Q 1238 3322 1530 3453 
Q 1822 3584 2144 3584 
Q 2531 3584 2781 3431 
Q 3031 3278 3144 2969 
L 3244 3494 
L 3822 3494 
L 2888 -1319 
L 2309 -1319 
L 2669 525 
z
M 891 1338 
Q 891 875 1084 633 
Q 1278 391 1644 391 
Q 2188 391 2572 911 
Q 2956 1431 2956 2175 
Q 2956 2625 2757 2864 
Q 2559 3103 2188 3103 
Q 1916 3103 1684 2976 
Q 1453 2850 1281 2606 
Q 1100 2350 995 2006 
Q 891 1663 891 1338 
z
" transform="scale(0.015625)"/>
       <path id="DejaVuSans-30" d="M 2034 4250 
Q 1547 4250 1301 3770 
Q 1056 3291 1056 2328 
Q 1056 1369 1301 889 
Q 1547 409 2034 409 
Q 2525 409 2770 889 
Q 3016 1369 3016 2328 
Q 3016 3291 2770 3770 
Q 2525 4250 2034 4250 
z
M 2034 4750 
Q 2819 4750 3233 4129 
Q 3647 3509 3647 2328 
Q 3647 1150 3233 529 
Q 2819 -91 2034 -91 
Q 1250 -91 836 529 
Q 422 1150 422 2328 
Q 422 3509 836 4129 
Q 1250 4750 2034 4750 
z
" transform="scale(0.015625)"/>
      </defs>
      <use xlink:href="#DejaVuSans-Oblique-71"/>
      <use xlink:href="#DejaVuSans-30" transform="translate(63.476562 -16.40625) scale(0.7)"/>
     </g>
    </g>
   </g>
   <g id="text_2">
    <g clip-path="url(#pd6ed97fbb7)">
     <!-- ${q}_{1}$ -->
     <g transform="translate(43.074055 95.088175) scale(0.1625 -0.1625)">
      <defs>
       <path id="DejaVuSans-31" d="M 794 531 
L 1825 531 
L 1825 4091 
L 703 3866 
L 703 4441 
L 1819 4666 
L 2450 4666 
L 2450 531 
L 3481 531 
L 3481 0 
L 794 0 
L 794 531 
z
" transform="scale(0.015625)"/>
      </defs>
      <use xlink:href="#DejaVuSans-Oblique-71"/>
      <use xlink:href="#DejaVuSans-31" transform="translate(63.476562 -16.40625) scale(0.7)"/>
     </g>
    </g>
   </g>
   <g id="text_3">
    <g clip-path="url(#pd6ed97fbb7)">
     <!-- ${q}_{2}$ -->
     <g transform="translate(43.074055 141.442175) scale(0.1625 -0.1625)">
      <defs>
       <path id="DejaVuSans-32" d="M 1228 531 
L 3431 531 
L 3431 0 
L 469 0 
L 469 531 
Q 828 903 1448 1529 
Q 2069 2156 2228 2338 
Q 2531 2678 2651 2914 
Q 2772 3150 2772 3378 
Q 2772 3750 2511 3984 
Q 2250 4219 1831 4219 
Q 1534 4219 1204 4116 
Q 875 4013 500 3803 
L 500 4441 
Q 881 4594 1212 4672 
Q 1544 4750 1819 4750 
Q 2544 4750 2975 4387 
Q 3406 4025 3406 3419 
Q 3406 3131 3298 2873 
Q 3191 2616 2906 2266 
Q 2828 2175 2409 1742 
Q 1991 1309 1228 531 
z
" transform="scale(0.015625)"/>
      </defs>
      <use xlink:href="#DejaVuSans-Oblique-71"/>
      <use xlink:href="#DejaVuSans-32" transform="translate(63.476562 -16.40625) scale(0.7)"/>
     </g>
    </g>
   </g>
   <g id="text_4">
    <g clip-path="url(#pd6ed97fbb7)">
     <!-- ${q}_{3}$ -->
     <g transform="translate(43.074055 187.796174) scale(0.1625 -0.1625)">
      <defs>
       <path id="DejaVuSans-33" d="M 2597 2516 
Q 3050 2419 3304 2112 
Q 3559 1806 3559 1356 
Q 3559 666 3084 287 
Q 2609 -91 1734 -91 
Q 1441 -91 1130 -33 
Q 819 25 488 141 
L 488 750 
Q 750 597 1062 519 
Q 1375 441 1716 441 
Q 2309 441 2620 675 
Q 2931 909 2931 1356 
Q 2931 1769 2642 2001 
Q 2353 2234 1838 2234 
L 1294 2234 
L 1294 2753 
L 1863 2753 
Q 2328 2753 2575 2939 
Q 2822 3125 2822 3475 
Q 2822 3834 2567 4026 
Q 2313 4219 1838 4219 
Q 1578 4219 1281 4162 
Q 984 4106 628 3988 
L 628 4550 
Q 988 4650 1302 4700 
Q 1616 4750 1894 4750 
Q 2613 4750 3031 4423 
Q 3450 4097 3450 3541 
Q 3450 3153 3228 2886 
Q 3006 2619 2597 2516 
z
" transform="scale(0.015625)"/>
      </defs>
      <use xlink:href="#DejaVuSans-Oblique-71"/>
      <use xlink:href="#DejaVuSans-33" transform="translate(63.476562 -16.40625) scale(0.7)"/>
     </g>
    </g>
   </g>
   <g id="text_5">
    <g clip-path="url(#pd6ed97fbb7)">
     <!-- 3 -->
     <g transform="translate(75.017755 222.900922) scale(0.104 -0.104)">
      <use xlink:href="#DejaVuSans-33"/>
     </g>
    </g>
   </g>
   <g id="text_6">
    <g clip-path="url(#pd6ed97fbb7)">
     <!-- out -->
     <g transform="translate(34.499641 234.183181) scale(0.1625 -0.1625)">
      <defs>
       <path id="DejaVuSans-6f" d="M 1959 3097 
Q 1497 3097 1228 2736 
Q 959 2375 959 1747 
Q 959 1119 1226 758 
Q 1494 397 1959 397 
Q 2419 397 2687 759 
Q 2956 1122 2956 1747 
Q 2956 2369 2687 2733 
Q 2419 3097 1959 3097 
z
M 1959 3584 
Q 2709 3584 3137 3096 
Q 3566 2609 3566 1747 
Q 3566 888 3137 398 
Q 2709 -91 1959 -91 
Q 1206 -91 779 398 
Q 353 888 353 1747 
Q 353 2609 779 3096 
Q 1206 3584 1959 3584 
z
" transform="scale(0.015625)"/>
       <path id="DejaVuSans-75" d="M 544 1381 
L 544 3500 
L 1119 3500 
L 1119 1403 
Q 1119 906 1312 657 
Q 1506 409 1894 409 
Q 2359 409 2629 706 
Q 2900 1003 2900 1516 
L 2900 3500 
L 3475 3500 
L 3475 0 
L 2900 0 
L 2900 538 
Q 2691 219 2414 64 
Q 2138 -91 1772 -91 
Q 1169 -91 856 284 
Q 544 659 544 1381 
z
M 1991 3584 
L 1991 3584 
z
" transform="scale(0.015625)"/>
       <path id="DejaVuSans-74" d="M 1172 4494 
L 1172 3500 
L 2356 3500 
L 2356 3053 
L 1172 3053 
L 1172 1153 
Q 1172 725 1289 603 
Q 1406 481 1766 481 
L 2356 481 
L 2356 0 
L 1766 0 
Q 1100 0 847 248 
Q 594 497 594 1153 
L 594 3053 
L 172 3053 
L 172 3500 
L 594 3500 
L 594 4494 
L 1172 4494 
z
" transform="scale(0.015625)"/>
      </defs>
      <use xlink:href="#DejaVuSans-6f"/>
      <use xlink:href="#DejaVuSans-75" x="61.181641"/>
      <use xlink:href="#DejaVuSans-74" x="124.560547"/>
     </g>
    </g>
   </g>
   <g id="text_7">
    <g clip-path="url(#pd6ed97fbb7)">
     <!-- H -->
     <g transform="translate(90.525312 47.870387) scale(0.13 -0.13)">
      <defs>
       <path id="DejaVuSans-48" d="M 628 4666 
L 1259 4666 
L 1259 2753 
L 3553 2753 
L 3553 4666 
L 4184 4666 
L 4184 0 
L 3553 0 
L 3553 2222 
L 1259 2222 
L 1259 0 
L 628 0 
L 628 4666 
z
" transform="scale(0.015625)"/>
      </defs>
      <use xlink:href="#DejaVuSans-48"/>
     </g>
    </g>
   </g>
   <g id="text_8">
    <g clip-path="url(#pd6ed97fbb7)">
     <!-- H -->
     <g transform="translate(90.525312 94.224386) scale(0.13 -0.13)">
      <use xlink:href="#DejaVuSans-48"/>
     </g>
    </g>
   </g>
   <g id="text_9">
    <g clip-path="url(#pd6ed97fbb7)">
     <!-- H -->
     <g transform="translate(90.525312 140.578386) scale(0.13 -0.13)">
      <use xlink:href="#DejaVuSans-48"/>
     </g>
    </g>
   </g>
   <g id="text_10">
    <g clip-path="url(#pd6ed97fbb7)">
     <!-- Z -->
     <g transform="translate(183.669014 186.932385) scale(0.13 -0.13)">
      <defs>
       <path id="DejaVuSans-5a" d="M 359 4666 
L 4025 4666 
L 4025 4184 
L 1075 531 
L 4097 531 
L 4097 0 
L 288 0 
L 288 481 
L 3238 4134 
L 359 4134 
L 359 4666 
z
" transform="scale(0.015625)"/>
      </defs>
      <use xlink:href="#DejaVuSans-5a"/>
     </g>
    </g>
   </g>
   <g id="text_11">
    <g clip-path="url(#pd6ed97fbb7)">
     <!-- H -->
     <g transform="translate(275.941309 47.870387) scale(0.13 -0.13)">
      <use xlink:href="#DejaVuSans-48"/>
     </g>
    </g>
   </g>
   <g id="text_12">
    <g clip-path="url(#pd6ed97fbb7)">
     <!-- H -->
     <g transform="translate(275.941309 94.224386) scale(0.13 -0.13)">
      <use xlink:href="#DejaVuSans-48"/>
     </g>
    </g>
   </g>
   <g id="text_13">
    <g clip-path="url(#pd6ed97fbb7)">
     <!-- H -->
     <g transform="translate(275.941309 140.578386) scale(0.13 -0.13)">
      <use xlink:href="#DejaVuSans-48"/>
     </g>
    </g>
   </g>
   <g id="text_14">
    <g clip-path="url(#pd6ed97fbb7)">
     <!-- 0 -->
     <g transform="translate(338.772012 222.900922) scale(0.104 -0.104)">
      <use xlink:href="#DejaVuSans-30"/>
     </g>
    </g>
   </g>
   <g id="text_15">
    <g clip-path="url(#pd6ed97fbb7)">
     <!-- 1 -->
     <g transform="translate(385.126011 222.900922) scale(0.104 -0.104)">
      <use xlink:href="#DejaVuSans-31"/>
     </g>
    </g>
   </g>
   <g id="text_16">
    <g clip-path="url(#pd6ed97fbb7)">
     <!-- 2 -->
     <g transform="translate(431.480011 222.900922) scale(0.104 -0.104)">
      <use xlink:href="#DejaVuSans-32"/>
     </g>
    </g>
   </g>
  </g>
 </g>
 <defs>
  <clipPath id="pd6ed97fbb7">
   <rect x="7.2" y="7.2" width="443.28515" height="250.311597"/>
  </clipPath>
 </defs>
</svg>
