<?xml version="1.0" encoding="utf-8" standalone="no"?>
<!DOCTYPE svg PUBLIC "-//W3C//DTD SVG 1.1//EN"
  "http://www.w3.org/Graphics/SVG/1.1/DTD/svg11.dtd">
<svg xmlns:xlink="http://www.w3.org/1999/xlink" width="550.393149pt" height="311.065596pt" viewBox="0 0 550.393149 311.065596" xmlns="http://www.w3.org/2000/svg" version="1.1">
 <metadata>
  <rdf:RDF xmlns:dc="http://purl.org/dc/elements/1.1/" xmlns:cc="http://creativecommons.org/ns#" xmlns:rdf="http://www.w3.org/1999/02/22-rdf-syntax-ns#">
   <cc:Work>
    <dc:type rdf:resource="http://purl.org/dc/dcmitype/StillImage"/>
    <dc:date>2025-02-18T17:30:09.100090</dc:date>
    <dc:format>image/svg+xml</dc:format>
    <dc:creator>
     <cc:Agent>
      <dc:title>Matplotlib v3.9.1, https://matplotlib.org/</dc:title>
     </cc:Agent>
    </dc:creator>
   </cc:Work>
  </rdf:RDF>
 </metadata>
 <defs>
  <style type="text/css">*{stroke-linejoin: round; stroke-linecap: butt}</style>
 </defs>
 <g id="figure_1">
  <g id="patch_1">
   <path d="M 0 311.065596 
L 550.393149 311.065596 
L 550.393149 0 
L 0 0 
z
" style="fill: #ffffff"/>
  </g>
  <g id="axes_1">
   <g id="line2d_1">
    <path d="M 70.382355 44.2832 
L 538.557749 44.2832 
" clip-path="url(#p298d0ca993)" style="fill: none; stroke: #000000; stroke-width: 2; stroke-linecap: square"/>
   </g>
   <g id="line2d_2">
    <path d="M 70.382355 90.637199 
L 538.557749 90.637199 
" clip-path="url(#p298d0ca993)" style="fill: none; stroke: #000000; stroke-width: 2; stroke-linecap: square"/>
   </g>
   <g id="line2d_3">
    <path d="M 70.382355 136.991198 
L 538.557749 136.991198 
" clip-path="url(#p298d0ca993)" style="fill: none; stroke: #000000; stroke-width: 2; stroke-linecap: square"/>
   </g>
   <g id="line2d_4">
    <path d="M 70.382355 183.345198 
L 538.557749 183.345198 
" clip-path="url(#p298d0ca993)" style="fill: none; stroke: #000000; stroke-width: 2; stroke-linecap: square"/>
   </g>
   <g id="line2d_5">
    <path d="M 70.382355 229.699197 
L 538.557749 229.699197 
" clip-path="url(#p298d0ca993)" style="fill: none; stroke: #000000; stroke-width: 2; stroke-linecap: square"/>
   </g>
   <g id="line2d_6">
    <path d="M 79.653155 280.688596 
L 84.288555 271.417796 
" clip-path="url(#p298d0ca993)" style="fill: none; stroke: #778899; stroke-width: 1.5; stroke-linecap: square"/>
   </g>
   <g id="line2d_7">
    <path d="M 70.382355 274.546691 
L 538.557749 274.546691 
" clip-path="url(#p298d0ca993)" style="fill: none; stroke: #778899; stroke-width: 2; stroke-linecap: square"/>
   </g>
   <g id="line2d_8">
    <path d="M 70.382355 277.559701 
L 538.557749 277.559701 
" clip-path="url(#p298d0ca993)" style="fill: none; stroke: #778899; stroke-width: 2; stroke-linecap: square"/>
   </g>
   <g id="patch_2">
    <path d="M 228.449493 265.507662 
L 240.501533 265.507662 
L 234.475513 274.199036 
z
" clip-path="url(#p298d0ca993)" style="fill: #778899"/>
   </g>
   <g id="patch_3">
    <path d="M 367.511491 265.507662 
L 379.563531 265.507662 
L 373.537511 274.199036 
z
" clip-path="url(#p298d0ca993)" style="fill: #778899"/>
   </g>
   <g id="patch_4">
    <path d="M 413.865491 265.507662 
L 425.917531 265.507662 
L 419.891511 274.199036 
z
" clip-path="url(#p298d0ca993)" style="fill: #778899"/>
   </g>
   <g id="patch_5">
    <path d="M 460.21949 265.507662 
L 472.27153 265.507662 
L 466.24551 274.199036 
z
" clip-path="url(#p298d0ca993)" style="fill: #778899"/>
   </g>
   <g id="patch_6">
    <path d="M 506.57349 265.507662 
L 518.625529 265.507662 
L 512.599509 274.199036 
z
" clip-path="url(#p298d0ca993)" style="fill: #778899"/>
   </g>
   <g id="patch_7">
    <path d="M 65.746955 21.1062 
L -1093.103029 21.1062 
L -1093.103029 345.584196 
L 65.746955 345.584196 
z
" clip-path="url(#p298d0ca993)" style="fill: #ffffff; stroke: #ffffff; stroke-width: 1.5; stroke-linejoin: miter"/>
   </g>
   <g id="line2d_9">
    <path d="M 141.767514 90.637199 
L 141.767514 44.2832 
" clip-path="url(#p298d0ca993)" style="fill: none; stroke: #002d9c; stroke-width: 2; stroke-linecap: square"/>
   </g>
   <g id="line2d_10">
    <path d="M 188.121514 136.991198 
L 188.121514 90.637199 
" clip-path="url(#p298d0ca993)" style="fill: none; stroke: #002d9c; stroke-width: 2; stroke-linecap: square"/>
   </g>
   <g id="line2d_11">
    <path d="M 235.982018 44.2832 
L 235.982018 265.507662 
" clip-path="url(#p298d0ca993)" style="fill: none; stroke: #778899; stroke-width: 2; stroke-linecap: square"/>
   </g>
   <g id="line2d_12">
    <path d="M 232.969008 44.2832 
L 232.969008 265.507662 
" clip-path="url(#p298d0ca993)" style="fill: none; stroke: #778899; stroke-width: 2; stroke-linecap: square"/>
   </g>
   <g id="line2d_13">
    <path d="M 280.829513 183.345198 
L 280.829513 90.637199 
" clip-path="url(#p298d0ca993)" style="fill: none; stroke: #002d9c; stroke-width: 2; stroke-linecap: square"/>
   </g>
   <g id="line2d_14">
    <path d="M 327.183512 229.699197 
L 327.183512 136.991198 
" clip-path="url(#p298d0ca993)" style="fill: none; stroke: #002d9c; stroke-width: 2; stroke-linecap: square"/>
   </g>
   <g id="line2d_15">
    <path d="M 375.044016 229.699197 
L 375.044016 265.507662 
" clip-path="url(#p298d0ca993)" style="fill: none; stroke: #778899; stroke-width: 2; stroke-linecap: square"/>
   </g>
   <g id="line2d_16">
    <path d="M 372.031006 229.699197 
L 372.031006 265.507662 
" clip-path="url(#p298d0ca993)" style="fill: none; stroke: #778899; stroke-width: 2; stroke-linecap: square"/>
   </g>
   <g id="line2d_17">
    <path d="M 421.398016 90.637199 
L 421.398016 265.507662 
" clip-path="url(#p298d0ca993)" style="fill: none; stroke: #778899; stroke-width: 2; stroke-linecap: square"/>
   </g>
   <g id="line2d_18">
    <path d="M 418.385006 90.637199 
L 418.385006 265.507662 
" clip-path="url(#p298d0ca993)" style="fill: none; stroke: #778899; stroke-width: 2; stroke-linecap: square"/>
   </g>
   <g id="line2d_19">
    <path d="M 467.752015 183.345198 
L 467.752015 265.507662 
" clip-path="url(#p298d0ca993)" style="fill: none; stroke: #778899; stroke-width: 2; stroke-linecap: square"/>
   </g>
   <g id="line2d_20">
    <path d="M 464.739005 183.345198 
L 464.739005 265.507662 
" clip-path="url(#p298d0ca993)" style="fill: none; stroke: #778899; stroke-width: 2; stroke-linecap: square"/>
   </g>
   <g id="line2d_21">
    <path d="M 514.106014 136.991198 
L 514.106014 265.507662 
" clip-path="url(#p298d0ca993)" style="fill: none; stroke: #778899; stroke-width: 2; stroke-linecap: square"/>
   </g>
   <g id="line2d_22">
    <path d="M 511.093004 136.991198 
L 511.093004 265.507662 
" clip-path="url(#p298d0ca993)" style="fill: none; stroke: #778899; stroke-width: 2; stroke-linecap: square"/>
   </g>
   <g id="patch_8">
    <path d="M 80.348465 59.348249 
L 110.478565 59.348249 
L 110.478565 29.21815 
L 80.348465 29.21815 
z
" clip-path="url(#p298d0ca993)" style="fill: #fa4d56; stroke: #fa4d56; stroke-width: 1.5; stroke-linejoin: miter"/>
   </g>
   <g id="patch_9">
    <path d="M 141.767514 48.802714 
C 142.966104 48.802714 144.115763 48.32651 144.963294 47.478979 
C 145.810825 46.631448 146.287029 45.481789 146.287029 44.2832 
C 146.287029 43.08461 145.810825 41.934951 144.963294 41.08742 
C 144.115763 40.239889 142.966104 39.763685 141.767514 39.763685 
C 140.568925 39.763685 139.419265 40.239889 138.571735 41.08742 
C 137.724204 41.934951 137.247999 43.08461 137.247999 44.2832 
C 137.247999 45.481789 137.724204 46.631448 138.571735 47.478979 
C 139.419265 48.32651 140.568925 48.802714 141.767514 48.802714 
z
" clip-path="url(#p298d0ca993)" style="fill: #002d9c; stroke: #002d9c; stroke-width: 1.5; stroke-linejoin: miter"/>
   </g>
   <g id="patch_10">
    <path d="M 141.767514 101.182734 
C 144.564223 101.182734 147.246762 100.07159 149.224334 98.094018 
C 151.201905 96.116447 152.313049 93.433907 152.313049 90.637199 
C 152.313049 87.84049 151.201905 85.157951 149.224334 83.18038 
C 147.246762 81.202808 144.564223 80.091664 141.767514 80.091664 
C 138.970806 80.091664 136.288267 81.202808 134.310695 83.18038 
C 132.333124 85.157951 131.22198 87.84049 131.22198 90.637199 
C 131.22198 93.433907 132.333124 96.116447 134.310695 98.094018 
C 136.288267 100.07159 138.970806 101.182734 141.767514 101.182734 
z
" clip-path="url(#p298d0ca993)" style="fill: #002d9c; stroke: #002d9c; stroke-width: 2; stroke-linejoin: miter"/>
   </g>
   <g id="patch_11">
    <path d="M 188.121514 95.156714 
C 189.320103 95.156714 190.469763 94.680509 191.317293 93.832979 
C 192.164824 92.985448 192.641029 91.835788 192.641029 90.637199 
C 192.641029 89.43861 192.164824 88.28895 191.317293 87.441419 
C 190.469763 86.593889 189.320103 86.117684 188.121514 86.117684 
C 186.922924 86.117684 185.773265 86.593889 184.925734 87.441419 
C 184.078203 88.28895 183.601999 89.43861 183.601999 90.637199 
C 183.601999 91.835788 184.078203 92.985448 184.925734 93.832979 
C 185.773265 94.680509 186.922924 95.156714 188.121514 95.156714 
z
" clip-path="url(#p298d0ca993)" style="fill: #002d9c; stroke: #002d9c; stroke-width: 1.5; stroke-linejoin: miter"/>
   </g>
   <g id="patch_12">
    <path d="M 188.121514 147.536733 
C 190.918222 147.536733 193.600761 146.425589 195.578333 144.448017 
C 197.555905 142.470446 198.667049 139.787907 198.667049 136.991198 
C 198.667049 134.19449 197.555905 131.511951 195.578333 129.534379 
C 193.600761 127.556807 190.918222 126.445663 188.121514 126.445663 
C 185.324805 126.445663 182.642266 127.556807 180.664695 129.534379 
C 178.687123 131.511951 177.575979 134.19449 177.575979 136.991198 
C 177.575979 139.787907 178.687123 142.470446 180.664695 144.448017 
C 182.642266 146.425589 185.324805 147.536733 188.121514 147.536733 
z
" clip-path="url(#p298d0ca993)" style="fill: #002d9c; stroke: #002d9c; stroke-width: 2; stroke-linejoin: miter"/>
   </g>
   <g id="patch_13">
    <path d="M 219.410463 59.348249 
L 249.540563 59.348249 
L 249.540563 29.21815 
L 219.410463 29.21815 
z
" clip-path="url(#p298d0ca993)" style="fill: #a8a8a8; stroke: #a8a8a8; stroke-width: 1.5; stroke-linejoin: miter"/>
   </g>
   <g id="patch_14">
    <path d="M 245.021048 48.802714 
C 245.021048 46.006937 243.909245 43.322808 241.932332 41.345895 
C 239.955419 39.368982 237.27129 38.25718 234.475513 38.25718 
C 231.679736 38.25718 228.995607 39.368982 227.018694 41.345895 
C 225.041781 43.322808 223.929978 46.006937 223.929978 48.802714 
" clip-path="url(#p298d0ca993)" style="fill: none; stroke: #000000; stroke-width: 2; stroke-linejoin: miter"/>
   </g>
   <g id="line2d_23">
    <path d="M 234.475513 48.802714 
L 245.021048 38.25718 
" clip-path="url(#p298d0ca993)" style="fill: none; stroke: #000000; stroke-width: 2; stroke-linecap: square"/>
   </g>
   <g id="patch_15">
    <path d="M 280.829513 95.156714 
C 282.028102 95.156714 283.177762 94.680509 284.025292 93.832979 
C 284.872823 92.985448 285.349027 91.835788 285.349027 90.637199 
C 285.349027 89.43861 284.872823 88.28895 284.025292 87.441419 
C 283.177762 86.593889 282.028102 86.117684 280.829513 86.117684 
C 279.630923 86.117684 278.481264 86.593889 277.633733 87.441419 
C 276.786202 88.28895 276.309998 89.43861 276.309998 90.637199 
C 276.309998 91.835788 276.786202 92.985448 277.633733 93.832979 
C 278.481264 94.680509 279.630923 95.156714 280.829513 95.156714 
z
" clip-path="url(#p298d0ca993)" style="fill: #002d9c; stroke: #002d9c; stroke-width: 1.5; stroke-linejoin: miter"/>
   </g>
   <g id="patch_16">
    <path d="M 280.829513 193.890733 
C 283.626221 193.890733 286.30876 192.779588 288.286332 190.802017 
C 290.263903 188.824445 291.375047 186.141906 291.375047 183.345198 
C 291.375047 180.548489 290.263903 177.86595 288.286332 175.888378 
C 286.30876 173.910807 283.626221 172.799663 280.829513 172.799663 
C 278.032804 172.799663 275.350265 173.910807 273.372693 175.888378 
C 271.395122 177.86595 270.283978 180.548489 270.283978 183.345198 
C 270.283978 186.141906 271.395122 188.824445 273.372693 190.802017 
C 275.350265 192.779588 278.032804 193.890733 280.829513 193.890733 
z
" clip-path="url(#p298d0ca993)" style="fill: #002d9c; stroke: #002d9c; stroke-width: 2; stroke-linejoin: miter"/>
   </g>
   <g id="patch_17">
    <path d="M 327.183512 141.510713 
C 328.382101 141.510713 329.531761 141.034509 330.379292 140.186978 
C 331.226822 139.339447 331.703027 138.189788 331.703027 136.991198 
C 331.703027 135.792609 331.226822 134.642949 330.379292 133.795419 
C 329.531761 132.947888 328.382101 132.471683 327.183512 132.471683 
C 325.984923 132.471683 324.835263 132.947888 323.987732 133.795419 
C 323.140202 134.642949 322.663997 135.792609 322.663997 136.991198 
C 322.663997 138.189788 323.140202 139.339447 323.987732 140.186978 
C 324.835263 141.034509 325.984923 141.510713 327.183512 141.510713 
z
" clip-path="url(#p298d0ca993)" style="fill: #002d9c; stroke: #002d9c; stroke-width: 1.5; stroke-linejoin: miter"/>
   </g>
   <g id="patch_18">
    <path d="M 327.183512 240.244732 
C 329.98022 240.244732 332.66276 239.133588 334.640331 237.156016 
C 336.617903 235.178445 337.729047 232.495906 337.729047 229.699197 
C 337.729047 226.902489 336.617903 224.219949 334.640331 222.242378 
C 332.66276 220.264806 329.98022 219.153662 327.183512 219.153662 
C 324.386803 219.153662 321.704264 220.264806 319.726693 222.242378 
C 317.749121 224.219949 316.637977 226.902489 316.637977 229.699197 
C 316.637977 232.495906 317.749121 235.178445 319.726693 237.156016 
C 321.704264 239.133588 324.386803 240.244732 327.183512 240.244732 
z
" clip-path="url(#p298d0ca993)" style="fill: #002d9c; stroke: #002d9c; stroke-width: 2; stroke-linejoin: miter"/>
   </g>
   <g id="patch_19">
    <path d="M 358.472461 198.410247 
L 388.602561 198.410247 
L 388.602561 168.280148 
L 358.472461 168.280148 
z
" clip-path="url(#p298d0ca993)" style="fill: #fa4d56; stroke: #fa4d56; stroke-width: 1.5; stroke-linejoin: miter"/>
   </g>
   <g id="patch_20">
    <path d="M 358.472461 152.056248 
L 388.602561 152.056248 
L 388.602561 121.926148 
L 358.472461 121.926148 
z
" clip-path="url(#p298d0ca993)" style="fill: #002d9c; stroke: #002d9c; stroke-width: 1.5; stroke-linejoin: miter"/>
   </g>
   <g id="patch_21">
    <path d="M 358.472461 244.764247 
L 388.602561 244.764247 
L 388.602561 214.634147 
L 358.472461 214.634147 
z
" clip-path="url(#p298d0ca993)" style="fill: #a8a8a8; stroke: #a8a8a8; stroke-width: 1.5; stroke-linejoin: miter"/>
   </g>
   <g id="patch_22">
    <path d="M 384.083046 234.218712 
C 384.083046 231.422935 382.971243 228.738806 380.994331 226.761893 
C 379.017418 224.78498 376.333288 223.673177 373.537511 223.673177 
C 370.741734 223.673177 368.057605 224.78498 366.080692 226.761893 
C 364.103779 228.738806 362.991976 231.422935 362.991976 234.218712 
" clip-path="url(#p298d0ca993)" style="fill: none; stroke: #000000; stroke-width: 2; stroke-linejoin: miter"/>
   </g>
   <g id="line2d_24">
    <path d="M 373.537511 234.218712 
L 384.083046 223.673177 
" clip-path="url(#p298d0ca993)" style="fill: none; stroke: #000000; stroke-width: 2; stroke-linecap: square"/>
   </g>
   <g id="patch_23">
    <path d="M 404.826461 105.702249 
L 434.95656 105.702249 
L 434.95656 75.572149 
L 404.826461 75.572149 
z
" clip-path="url(#p298d0ca993)" style="fill: #a8a8a8; stroke: #a8a8a8; stroke-width: 1.5; stroke-linejoin: miter"/>
   </g>
   <g id="patch_24">
    <path d="M 430.437046 95.156714 
C 430.437046 92.360937 429.325243 89.676808 427.34833 87.699895 
C 425.371417 85.722982 422.687288 84.611179 419.891511 84.611179 
C 417.095734 84.611179 414.411604 85.722982 412.434691 87.699895 
C 410.457779 89.676808 409.345976 92.360937 409.345976 95.156714 
" clip-path="url(#p298d0ca993)" style="fill: none; stroke: #000000; stroke-width: 2; stroke-linejoin: miter"/>
   </g>
   <g id="line2d_25">
    <path d="M 419.891511 95.156714 
L 430.437046 84.611179 
" clip-path="url(#p298d0ca993)" style="fill: none; stroke: #000000; stroke-width: 2; stroke-linecap: square"/>
   </g>
   <g id="patch_25">
    <path d="M 451.18046 198.410247 
L 481.31056 198.410247 
L 481.31056 168.280148 
L 451.18046 168.280148 
z
" clip-path="url(#p298d0ca993)" style="fill: #a8a8a8; stroke: #a8a8a8; stroke-width: 1.5; stroke-linejoin: miter"/>
   </g>
   <g id="patch_26">
    <path d="M 476.791045 187.864713 
C 476.791045 185.068936 475.679242 182.384806 473.702329 180.407893 
C 471.725416 178.43098 469.041287 177.319178 466.24551 177.319178 
C 463.449733 177.319178 460.765604 178.43098 458.788691 180.407893 
C 456.811778 182.384806 455.699975 185.068936 455.699975 187.864713 
" clip-path="url(#p298d0ca993)" style="fill: none; stroke: #000000; stroke-width: 2; stroke-linejoin: miter"/>
   </g>
   <g id="line2d_26">
    <path d="M 466.24551 187.864713 
L 476.791045 177.319178 
" clip-path="url(#p298d0ca993)" style="fill: none; stroke: #000000; stroke-width: 2; stroke-linecap: square"/>
   </g>
   <g id="patch_27">
    <path d="M 497.53446 152.056248 
L 527.664559 152.056248 
L 527.664559 121.926148 
L 497.53446 121.926148 
z
" clip-path="url(#p298d0ca993)" style="fill: #a8a8a8; stroke: #a8a8a8; stroke-width: 1.5; stroke-linejoin: miter"/>
   </g>
   <g id="patch_28">
    <path d="M 523.145044 141.510713 
C 523.145044 138.714936 522.033242 136.030807 520.056329 134.053894 
C 518.079416 132.076981 515.395287 130.965178 512.599509 130.965178 
C 509.803732 130.965178 507.119603 132.076981 505.14269 134.053894 
C 503.165777 136.030807 502.053975 138.714936 502.053975 141.510713 
" clip-path="url(#p298d0ca993)" style="fill: none; stroke: #000000; stroke-width: 2; stroke-linejoin: miter"/>
   </g>
   <g id="line2d_27">
    <path d="M 512.599509 141.510713 
L 523.145044 130.965178 
" clip-path="url(#p298d0ca993)" style="fill: none; stroke: #000000; stroke-width: 2; stroke-linecap: square"/>
   </g>
   <g id="line2d_28">
    <path d="M 141.767514 96.663219 
L 141.767514 84.611179 
" clip-path="url(#p298d0ca993)" style="fill: none; stroke: #ffffff; stroke-width: 2; stroke-linecap: square"/>
   </g>
   <g id="line2d_29">
    <path d="M 135.741494 90.637199 
L 147.793534 90.637199 
" clip-path="url(#p298d0ca993)" style="fill: none; stroke: #ffffff; stroke-width: 2; stroke-linecap: square"/>
   </g>
   <g id="line2d_30">
    <path d="M 188.121514 143.017218 
L 188.121514 130.965178 
" clip-path="url(#p298d0ca993)" style="fill: none; stroke: #ffffff; stroke-width: 2; stroke-linecap: square"/>
   </g>
   <g id="line2d_31">
    <path d="M 182.095494 136.991198 
L 194.147534 136.991198 
" clip-path="url(#p298d0ca993)" style="fill: none; stroke: #ffffff; stroke-width: 2; stroke-linecap: square"/>
   </g>
   <g id="line2d_32">
    <path d="M 280.829513 189.371218 
L 280.829513 177.319178 
" clip-path="url(#p298d0ca993)" style="fill: none; stroke: #ffffff; stroke-width: 2; stroke-linecap: square"/>
   </g>
   <g id="line2d_33">
    <path d="M 274.803493 183.345198 
L 286.855532 183.345198 
" clip-path="url(#p298d0ca993)" style="fill: none; stroke: #ffffff; stroke-width: 2; stroke-linecap: square"/>
   </g>
   <g id="line2d_34">
    <path d="M 327.183512 235.725217 
L 327.183512 223.673177 
" clip-path="url(#p298d0ca993)" style="fill: none; stroke: #ffffff; stroke-width: 2; stroke-linecap: square"/>
   </g>
   <g id="line2d_35">
    <path d="M 321.157492 229.699197 
L 333.209532 229.699197 
" clip-path="url(#p298d0ca993)" style="fill: none; stroke: #ffffff; stroke-width: 2; stroke-linecap: square"/>
   </g>
   <g id="text_1">
    <g clip-path="url(#p298d0ca993)">
     <!-- ${q}_{0}$ -->
     <g transform="translate(43.074055 48.734176) scale(0.1625 -0.1625)">
      <defs>
       <path id="DejaVuSans-Oblique-71" d="M 2669 525 
Q 2438 222 2123 65 
Q 1809 -91 1428 -91 
Q 897 -91 595 267 
Q 294 625 294 1253 
Q 294 1759 480 2231 
Q 666 2703 1013 3078 
Q 1238 3322 1530 3453 
Q 1822 3584 2144 3584 
Q 2531 3584 2781 3431 
Q 3031 3278 3144 2969 
L 3244 3494 
L 3822 3494 
L 2888 -1319 
L 2309 -1319 
L 2669 525 
z
M 891 1338 
Q 891 875 1084 633 
Q 1278 391 1644 391 
Q 2188 391 2572 911 
Q 2956 1431 2956 2175 
Q 2956 2625 2757 2864 
Q 2559 3103 2188 3103 
Q 1916 3103 1684 2976 
Q 1453 2850 1281 2606 
Q 1100 2350 995 2006 
Q 891 1663 891 1338 
z
" transform="scale(0.015625)"/>
       <path id="DejaVuSans-30" d="M 2034 4250 
Q 1547 4250 1301 3770 
Q 1056 3291 1056 2328 
Q 1056 1369 1301 889 
Q 1547 409 2034 409 
Q 2525 409 2770 889 
Q 3016 1369 3016 2328 
Q 3016 3291 2770 3770 
Q 2525 4250 2034 4250 
z
M 2034 4750 
Q 2819 4750 3233 4129 
Q 3647 3509 3647 2328 
Q 3647 1150 3233 529 
Q 2819 -91 2034 -91 
Q 1250 -91 836 529 
Q 422 1150 422 2328 
Q 422 3509 836 4129 
Q 1250 4750 2034 4750 
z
" transform="scale(0.015625)"/>
      </defs>
      <use xlink:href="#DejaVuSans-Oblique-71"/>
      <use xlink:href="#DejaVuSans-30" transform="translate(63.476562 -16.40625) scale(0.7)"/>
     </g>
    </g>
   </g>
   <g id="text_2">
    <g clip-path="url(#p298d0ca993)">
     <!-- ${q}_{1}$ -->
     <g transform="translate(43.074055 95.088175) scale(0.1625 -0.1625)">
      <defs>
       <path id="DejaVuSans-31" d="M 794 531 
L 1825 531 
L 1825 4091 
L 703 3866 
L 703 4441 
L 1819 4666 
L 2450 4666 
L 2450 531 
L 3481 531 
L 3481 0 
L 794 0 
L 794 531 
z
" transform="scale(0.015625)"/>
      </defs>
      <use xlink:href="#DejaVuSans-Oblique-71"/>
      <use xlink:href="#DejaVuSans-31" transform="translate(63.476562 -16.40625) scale(0.7)"/>
     </g>
    </g>
   </g>
   <g id="text_3">
    <g clip-path="url(#p298d0ca993)">
     <!-- ${q}_{2}$ -->
     <g transform="translate(43.074055 141.442175) scale(0.1625 -0.1625)">
      <defs>
       <path id="DejaVuSans-32" d="M 1228 531 
L 3431 531 
L 3431 0 
L 469 0 
L 469 531 
Q 828 903 1448 1529 
Q 2069 2156 2228 2338 
Q 2531 2678 2651 2914 
Q 2772 3150 2772 3378 
Q 2772 3750 2511 3984 
Q 2250 4219 1831 4219 
Q 1534 4219 1204 4116 
Q 875 4013 500 3803 
L 500 4441 
Q 881 4594 1212 4672 
Q 1544 4750 1819 4750 
Q 2544 4750 2975 4387 
Q 3406 4025 3406 3419 
Q 3406 3131 3298 2873 
Q 3191 2616 2906 2266 
Q 2828 2175 2409 1742 
Q 1991 1309 1228 531 
z
" transform="scale(0.015625)"/>
      </defs>
      <use xlink:href="#DejaVuSans-Oblique-71"/>
      <use xlink:href="#DejaVuSans-32" transform="translate(63.476562 -16.40625) scale(0.7)"/>
     </g>
    </g>
   </g>
   <g id="text_4">
    <g clip-path="url(#p298d0ca993)">
     <!-- ${q}_{3}$ -->
     <g transform="translate(43.074055 187.796174) scale(0.1625 -0.1625)">
      <defs>
       <path id="DejaVuSans-33" d="M 2597 2516 
Q 3050 2419 3304 2112 
Q 3559 1806 3559 1356 
Q 3559 666 3084 287 
Q 2609 -91 1734 -91 
Q 1441 -91 1130 -33 
Q 819 25 488 141 
L 488 750 
Q 750 597 1062 519 
Q 1375 441 1716 441 
Q 2309 441 2620 675 
Q 2931 909 2931 1356 
Q 2931 1769 2642 2001 
Q 2353 2234 1838 2234 
L 1294 2234 
L 1294 2753 
L 1863 2753 
Q 2328 2753 2575 2939 
Q 2822 3125 2822 3475 
Q 2822 3834 2567 4026 
Q 2313 4219 1838 4219 
Q 1578 4219 1281 4162 
Q 984 4106 628 3988 
L 628 4550 
Q 988 4650 1302 4700 
Q 1616 4750 1894 4750 
Q 2613 4750 3031 4423 
Q 3450 4097 3450 3541 
Q 3450 3153 3228 2886 
Q 3006 2619 2597 2516 
z
" transform="scale(0.015625)"/>
      </defs>
      <use xlink:href="#DejaVuSans-Oblique-71"/>
      <use xlink:href="#DejaVuSans-33" transform="translate(63.476562 -16.40625) scale(0.7)"/>
     </g>
    </g>
   </g>
   <g id="text_5">
    <g clip-path="url(#p298d0ca993)">
     <!-- ${q}_{4}$ -->
     <g transform="translate(43.074055 234.150174) scale(0.1625 -0.1625)">
      <defs>
       <path id="DejaVuSans-34" d="M 2419 4116 
L 825 1625 
L 2419 1625 
L 2419 4116 
z
M 2253 4666 
L 3047 4666 
L 3047 1625 
L 3713 1625 
L 3713 1100 
L 3047 1100 
L 3047 0 
L 2419 0 
L 2419 1100 
L 313 1100 
L 313 1709 
L 2253 4666 
z
" transform="scale(0.015625)"/>
      </defs>
      <use xlink:href="#DejaVuSans-Oblique-71"/>
      <use xlink:href="#DejaVuSans-34" transform="translate(63.476562 -16.40625) scale(0.7)"/>
     </g>
    </g>
   </g>
   <g id="text_6">
    <g clip-path="url(#p298d0ca993)">
     <!-- 5 -->
     <g transform="translate(75.017755 269.254921) scale(0.104 -0.104)">
      <defs>
       <path id="DejaVuSans-35" d="M 691 4666 
L 3169 4666 
L 3169 4134 
L 1269 4134 
L 1269 2991 
Q 1406 3038 1543 3061 
Q 1681 3084 1819 3084 
Q 2600 3084 3056 2656 
Q 3513 2228 3513 1497 
Q 3513 744 3044 326 
Q 2575 -91 1722 -91 
Q 1428 -91 1123 -41 
Q 819 9 494 109 
L 494 744 
Q 775 591 1075 516 
Q 1375 441 1709 441 
Q 2250 441 2565 725 
Q 2881 1009 2881 1497 
Q 2881 1984 2565 2268 
Q 2250 2553 1709 2553 
Q 1456 2553 1204 2497 
Q 953 2441 691 2322 
L 691 4666 
z
" transform="scale(0.015625)"/>
      </defs>
      <use xlink:href="#DejaVuSans-35"/>
     </g>
    </g>
   </g>
   <g id="text_7">
    <g clip-path="url(#p298d0ca993)">
     <!-- out -->
     <g transform="translate(34.499641 280.537181) scale(0.1625 -0.1625)">
      <defs>
       <path id="DejaVuSans-6f" d="M 1959 3097 
Q 1497 3097 1228 2736 
Q 959 2375 959 1747 
Q 959 1119 1226 758 
Q 1494 397 1959 397 
Q 2419 397 2687 759 
Q 2956 1122 2956 1747 
Q 2956 2369 2687 2733 
Q 2419 3097 1959 3097 
z
M 1959 3584 
Q 2709 3584 3137 3096 
Q 3566 2609 3566 1747 
Q 3566 888 3137 398 
Q 2709 -91 1959 -91 
Q 1206 -91 779 398 
Q 353 888 353 1747 
Q 353 2609 779 3096 
Q 1206 3584 1959 3584 
z
" transform="scale(0.015625)"/>
       <path id="DejaVuSans-75" d="M 544 1381 
L 544 3500 
L 1119 3500 
L 1119 1403 
Q 1119 906 1312 657 
Q 1506 409 1894 409 
Q 2359 409 2629 706 
Q 2900 1003 2900 1516 
L 2900 3500 
L 3475 3500 
L 3475 0 
L 2900 0 
L 2900 538 
Q 2691 219 2414 64 
Q 2138 -91 1772 -91 
Q 1169 -91 856 284 
Q 544 659 544 1381 
z
M 1991 3584 
L 1991 3584 
z
" transform="scale(0.015625)"/>
       <path id="DejaVuSans-74" d="M 1172 4494 
L 1172 3500 
L 2356 3500 
L 2356 3053 
L 1172 3053 
L 1172 1153 
Q 1172 725 1289 603 
Q 1406 481 1766 481 
L 2356 481 
L 2356 0 
L 1766 0 
Q 1100 0 847 248 
Q 594 497 594 1153 
L 594 3053 
L 172 3053 
L 172 3500 
L 594 3500 
L 594 4494 
L 1172 4494 
z
" transform="scale(0.015625)"/>
      </defs>
      <use xlink:href="#DejaVuSans-6f"/>
      <use xlink:href="#DejaVuSans-75" x="61.181641"/>
      <use xlink:href="#DejaVuSans-74" x="124.560547"/>
     </g>
    </g>
   </g>
   <g id="text_8">
    <g clip-path="url(#p298d0ca993)">
     <!-- H -->
     <g transform="translate(90.525312 47.870387) scale(0.13 -0.13)">
      <defs>
       <path id="DejaVuSans-48" d="M 628 4666 
L 1259 4666 
L 1259 2753 
L 3553 2753 
L 3553 4666 
L 4184 4666 
L 4184 0 
L 3553 0 
L 3553 2222 
L 1259 2222 
L 1259 0 
L 628 0 
L 628 4666 
z
" transform="scale(0.015625)"/>
      </defs>
      <use xlink:href="#DejaVuSans-48"/>
     </g>
    </g>
   </g>
   <g id="text_9">
    <g clip-path="url(#p298d0ca993)">
     <!-- 0 -->
     <g transform="translate(246.064013 269.254921) scale(0.104 -0.104)">
      <use xlink:href="#DejaVuSans-30"/>
     </g>
    </g>
   </g>
   <g id="text_10">
    <g clip-path="url(#p298d0ca993)">
     <!-- H -->
     <g transform="translate(368.649308 186.932385) scale(0.13 -0.13)">
      <use xlink:href="#DejaVuSans-48"/>
     </g>
    </g>
   </g>
   <g id="text_11">
    <g clip-path="url(#p298d0ca993)">
     <!-- X -->
     <g style="fill: #ffffff" transform="translate(369.085011 140.578386) scale(0.13 -0.13)">
      <defs>
       <path id="DejaVuSans-58" d="M 403 4666 
L 1081 4666 
L 2241 2931 
L 3406 4666 
L 4084 4666 
L 2584 2425 
L 4184 0 
L 3506 0 
L 2194 1984 
L 872 0 
L 191 0 
L 1856 2491 
L 403 4666 
z
" transform="scale(0.015625)"/>
      </defs>
      <use xlink:href="#DejaVuSans-58"/>
     </g>
    </g>
   </g>
   <g id="text_12">
    <g clip-path="url(#p298d0ca993)">
     <!-- 4 -->
     <g transform="translate(385.126011 269.254921) scale(0.104 -0.104)">
      <use xlink:href="#DejaVuSans-34"/>
     </g>
    </g>
   </g>
   <g id="text_13">
    <g clip-path="url(#p298d0ca993)">
     <!-- 1 -->
     <g transform="translate(431.480011 269.254921) scale(0.104 -0.104)">
      <use xlink:href="#DejaVuSans-31"/>
     </g>
    </g>
   </g>
   <g id="text_14">
    <g clip-path="url(#p298d0ca993)">
     <!-- 2 -->
     <g transform="translate(477.83401 269.254921) scale(0.104 -0.104)">
      <use xlink:href="#DejaVuSans-32"/>
     </g>
    </g>
   </g>
   <g id="text_15">
    <g clip-path="url(#p298d0ca993)">
     <!-- 3 -->
     <g transform="translate(524.188009 269.254921) scale(0.104 -0.104)">
      <use xlink:href="#DejaVuSans-33"/>
     </g>
    </g>
   </g>
  </g>
 </g>
 <defs>
  <clipPath id="p298d0ca993">
   <rect x="7.2" y="7.2" width="535.993149" height="296.665596"/>
  </clipPath>
 </defs>
</svg>
