<?xml version="1.0" encoding="utf-8" standalone="no"?>
<!DOCTYPE svg PUBLIC "-//W3C//DTD SVG 1.1//EN"
  "http://www.w3.org/Graphics/SVG/1.1/DTD/svg11.dtd">
<svg xmlns:xlink="http://www.w3.org/1999/xlink" width="504.03915pt" height="218.357597pt" viewBox="0 0 504.03915 218.357597" xmlns="http://www.w3.org/2000/svg" version="1.1">
 <metadata>
  <rdf:RDF xmlns:dc="http://purl.org/dc/elements/1.1/" xmlns:cc="http://creativecommons.org/ns#" xmlns:rdf="http://www.w3.org/1999/02/22-rdf-syntax-ns#">
   <cc:Work>
    <dc:type rdf:resource="http://purl.org/dc/dcmitype/StillImage"/>
    <dc:date>2025-02-18T17:30:28.916321</dc:date>
    <dc:format>image/svg+xml</dc:format>
    <dc:creator>
     <cc:Agent>
      <dc:title>Matplotlib v3.9.1, https://matplotlib.org/</dc:title>
     </cc:Agent>
    </dc:creator>
   </cc:Work>
  </rdf:RDF>
 </metadata>
 <defs>
  <style type="text/css">*{stroke-linejoin: round; stroke-linecap: butt}</style>
 </defs>
 <g id="figure_1">
  <g id="patch_1">
   <path d="M 0 218.357597 
L 504.03915 218.357597 
L 504.03915 0 
L 0 0 
z
" style="fill: #ffffff"/>
  </g>
  <g id="axes_1">
   <g id="line2d_1">
    <path d="M 70.382355 44.2832 
L 492.20375 44.2832 
" clip-path="url(#p974109cafa)" style="fill: none; stroke: #000000; stroke-width: 2; stroke-linecap: square"/>
   </g>
   <g id="line2d_2">
    <path d="M 70.382355 90.637199 
L 492.20375 90.637199 
" clip-path="url(#p974109cafa)" style="fill: none; stroke: #000000; stroke-width: 2; stroke-linecap: square"/>
   </g>
   <g id="line2d_3">
    <path d="M 79.653155 141.626598 
L 84.288555 132.355798 
" clip-path="url(#p974109cafa)" style="fill: none; stroke: #778899; stroke-width: 1.5; stroke-linecap: square"/>
   </g>
   <g id="line2d_4">
    <path d="M 70.382355 135.484693 
L 492.20375 135.484693 
" clip-path="url(#p974109cafa)" style="fill: none; stroke: #778899; stroke-width: 2; stroke-linecap: square"/>
   </g>
   <g id="line2d_5">
    <path d="M 70.382355 138.497703 
L 492.20375 138.497703 
" clip-path="url(#p974109cafa)" style="fill: none; stroke: #778899; stroke-width: 2; stroke-linecap: square"/>
   </g>
   <g id="line2d_6">
    <path d="M 79.653155 187.980598 
L 84.288555 178.709798 
" clip-path="url(#p974109cafa)" style="fill: none; stroke: #778899; stroke-width: 1.5; stroke-linecap: square"/>
   </g>
   <g id="line2d_7">
    <path d="M 70.382355 181.838693 
L 492.20375 181.838693 
" clip-path="url(#p974109cafa)" style="fill: none; stroke: #778899; stroke-width: 2; stroke-linecap: square"/>
   </g>
   <g id="line2d_8">
    <path d="M 70.382355 184.851703 
L 492.20375 184.851703 
" clip-path="url(#p974109cafa)" style="fill: none; stroke: #778899; stroke-width: 2; stroke-linecap: square"/>
   </g>
   <g id="patch_2">
    <path d="M 89.387495 172.799663 
L 101.439535 172.799663 
L 95.413515 181.491038 
z
" clip-path="url(#p974109cafa)" style="fill: #778899"/>
   </g>
   <g id="patch_3">
    <path d="M 182.095494 172.799663 
L 194.147534 172.799663 
L 188.121514 181.491038 
z
" clip-path="url(#p974109cafa)" style="fill: #778899"/>
   </g>
   <g id="patch_4">
    <path d="M 274.803493 172.799663 
L 286.855532 172.799663 
L 280.829513 181.491038 
z
" clip-path="url(#p974109cafa)" style="fill: #778899"/>
   </g>
   <g id="patch_5">
    <path d="M 413.865491 126.445663 
L 425.917531 126.445663 
L 419.891511 135.137038 
z
" clip-path="url(#p974109cafa)" style="fill: #778899"/>
   </g>
   <g id="patch_6">
    <path d="M 460.21949 126.445663 
L 472.27153 126.445663 
L 466.24551 135.137038 
z
" clip-path="url(#p974109cafa)" style="fill: #778899"/>
   </g>
   <g id="patch_7">
    <path d="M 65.746955 21.1062 
L -1093.103029 21.1062 
L -1093.103029 252.876197 
L 65.746955 252.876197 
z
" clip-path="url(#p974109cafa)" style="fill: #ffffff; stroke: #ffffff; stroke-width: 1.5; stroke-linejoin: miter"/>
   </g>
   <g id="line2d_9">
    <path d="M 96.92002 90.637199 
L 96.92002 172.799663 
" clip-path="url(#p974109cafa)" style="fill: none; stroke: #778899; stroke-width: 2; stroke-linecap: square"/>
   </g>
   <g id="line2d_10">
    <path d="M 93.90701 90.637199 
L 93.90701 172.799663 
" clip-path="url(#p974109cafa)" style="fill: none; stroke: #778899; stroke-width: 2; stroke-linecap: square"/>
   </g>
   <g id="line2d_11">
    <path d="M 189.628019 90.637199 
L 189.628019 172.799663 
" clip-path="url(#p974109cafa)" style="fill: none; stroke: #778899; stroke-width: 2; stroke-linecap: square"/>
   </g>
   <g id="line2d_12">
    <path d="M 186.615009 90.637199 
L 186.615009 172.799663 
" clip-path="url(#p974109cafa)" style="fill: none; stroke: #778899; stroke-width: 2; stroke-linecap: square"/>
   </g>
   <g id="line2d_13">
    <path d="M 282.336018 90.637199 
L 282.336018 172.799663 
" clip-path="url(#p974109cafa)" style="fill: none; stroke: #778899; stroke-width: 2; stroke-linecap: square"/>
   </g>
   <g id="line2d_14">
    <path d="M 279.323008 90.637199 
L 279.323008 172.799663 
" clip-path="url(#p974109cafa)" style="fill: none; stroke: #778899; stroke-width: 2; stroke-linecap: square"/>
   </g>
   <g id="line2d_15">
    <path d="M 373.537511 90.637199 
L 373.537511 44.2832 
" clip-path="url(#p974109cafa)" style="fill: none; stroke: #002d9c; stroke-width: 2; stroke-linecap: square"/>
   </g>
   <g id="line2d_16">
    <path d="M 421.398016 44.2832 
L 421.398016 126.445663 
" clip-path="url(#p974109cafa)" style="fill: none; stroke: #778899; stroke-width: 2; stroke-linecap: square"/>
   </g>
   <g id="line2d_17">
    <path d="M 418.385006 44.2832 
L 418.385006 126.445663 
" clip-path="url(#p974109cafa)" style="fill: none; stroke: #778899; stroke-width: 2; stroke-linecap: square"/>
   </g>
   <g id="line2d_18">
    <path d="M 467.752015 90.637199 
L 467.752015 126.445663 
" clip-path="url(#p974109cafa)" style="fill: none; stroke: #778899; stroke-width: 2; stroke-linecap: square"/>
   </g>
   <g id="line2d_19">
    <path d="M 464.739005 90.637199 
L 464.739005 126.445663 
" clip-path="url(#p974109cafa)" style="fill: none; stroke: #778899; stroke-width: 2; stroke-linecap: square"/>
   </g>
   <g id="patch_8">
    <path d="M 80.348465 59.348249 
L 110.478565 59.348249 
L 110.478565 29.21815 
L 80.348465 29.21815 
z
" clip-path="url(#p974109cafa)" style="fill: #002d9c; stroke: #002d9c; stroke-width: 1.5; stroke-linejoin: miter"/>
   </g>
   <g id="patch_9">
    <path d="M 80.348465 105.702249 
L 110.478565 105.702249 
L 110.478565 75.572149 
L 80.348465 75.572149 
z
" clip-path="url(#p974109cafa)" style="fill: #a8a8a8; stroke: #a8a8a8; stroke-width: 1.5; stroke-linejoin: miter"/>
   </g>
   <g id="patch_10">
    <path d="M 105.95905 95.156714 
C 105.95905 92.360937 104.847247 89.676808 102.870334 87.699895 
C 100.893421 85.722982 98.209292 84.611179 95.413515 84.611179 
C 92.617738 84.611179 89.933609 85.722982 87.956696 87.699895 
C 85.979783 89.676808 84.86798 92.360937 84.86798 95.156714 
" clip-path="url(#p974109cafa)" style="fill: none; stroke: #000000; stroke-width: 2; stroke-linejoin: miter"/>
   </g>
   <g id="line2d_20">
    <path d="M 95.413515 95.156714 
L 105.95905 84.611179 
" clip-path="url(#p974109cafa)" style="fill: none; stroke: #000000; stroke-width: 2; stroke-linecap: square"/>
   </g>
   <g id="patch_11">
    <path d="M 126.702465 105.702249 
L 156.832564 105.702249 
L 156.832564 75.572149 
L 126.702465 75.572149 
z
" clip-path="url(#p974109cafa)" style="fill: #a8a8a8; stroke: #a8a8a8; stroke-width: 1.5; stroke-linejoin: miter"/>
   </g>
   <g id="patch_12">
    <path d="M 173.056464 105.702249 
L 203.186564 105.702249 
L 203.186564 75.572149 
L 173.056464 75.572149 
z
" clip-path="url(#p974109cafa)" style="fill: #a8a8a8; stroke: #a8a8a8; stroke-width: 1.5; stroke-linejoin: miter"/>
   </g>
   <g id="patch_13">
    <path d="M 198.667049 95.156714 
C 198.667049 92.360937 197.555246 89.676808 195.578333 87.699895 
C 193.60142 85.722982 190.917291 84.611179 188.121514 84.611179 
C 185.325737 84.611179 182.641607 85.722982 180.664695 87.699895 
C 178.687782 89.676808 177.575979 92.360937 177.575979 95.156714 
" clip-path="url(#p974109cafa)" style="fill: none; stroke: #000000; stroke-width: 2; stroke-linejoin: miter"/>
   </g>
   <g id="line2d_21">
    <path d="M 188.121514 95.156714 
L 198.667049 84.611179 
" clip-path="url(#p974109cafa)" style="fill: none; stroke: #000000; stroke-width: 2; stroke-linecap: square"/>
   </g>
   <g id="patch_14">
    <path d="M 219.410463 105.702249 
L 249.540563 105.702249 
L 249.540563 75.572149 
L 219.410463 75.572149 
z
" clip-path="url(#p974109cafa)" style="fill: #a8a8a8; stroke: #a8a8a8; stroke-width: 1.5; stroke-linejoin: miter"/>
   </g>
   <g id="patch_15">
    <path d="M 265.764463 105.702249 
L 295.894562 105.702249 
L 295.894562 75.572149 
L 265.764463 75.572149 
z
" clip-path="url(#p974109cafa)" style="fill: #a8a8a8; stroke: #a8a8a8; stroke-width: 1.5; stroke-linejoin: miter"/>
   </g>
   <g id="patch_16">
    <path d="M 291.375047 95.156714 
C 291.375047 92.360937 290.263245 89.676808 288.286332 87.699895 
C 286.309419 85.722982 283.62529 84.611179 280.829513 84.611179 
C 278.033735 84.611179 275.349606 85.722982 273.372693 87.699895 
C 271.39578 89.676808 270.283978 92.360937 270.283978 95.156714 
" clip-path="url(#p974109cafa)" style="fill: none; stroke: #000000; stroke-width: 2; stroke-linejoin: miter"/>
   </g>
   <g id="line2d_22">
    <path d="M 280.829513 95.156714 
L 291.375047 84.611179 
" clip-path="url(#p974109cafa)" style="fill: none; stroke: #000000; stroke-width: 2; stroke-linecap: square"/>
   </g>
   <g id="patch_17">
    <path d="M 312.118462 105.702249 
L 342.248562 105.702249 
L 342.248562 75.572149 
L 312.118462 75.572149 
z
" clip-path="url(#p974109cafa)" style="fill: #a8a8a8; stroke: #a8a8a8; stroke-width: 1.5; stroke-linejoin: miter"/>
   </g>
   <g id="patch_18">
    <path d="M 373.537511 48.802714 
C 374.736101 48.802714 375.88576 48.32651 376.733291 47.478979 
C 377.580822 46.631448 378.057026 45.481789 378.057026 44.2832 
C 378.057026 43.08461 377.580822 41.934951 376.733291 41.08742 
C 375.88576 40.239889 374.736101 39.763685 373.537511 39.763685 
C 372.338922 39.763685 371.189262 40.239889 370.341732 41.08742 
C 369.494201 41.934951 369.017996 43.08461 369.017996 44.2832 
C 369.017996 45.481789 369.494201 46.631448 370.341732 47.478979 
C 371.189262 48.32651 372.338922 48.802714 373.537511 48.802714 
z
" clip-path="url(#p974109cafa)" style="fill: #002d9c; stroke: #002d9c; stroke-width: 1.5; stroke-linejoin: miter"/>
   </g>
   <g id="patch_19">
    <path d="M 373.537511 101.182734 
C 376.33422 101.182734 379.016759 100.07159 380.994331 98.094018 
C 382.971902 96.116447 384.083046 93.433907 384.083046 90.637199 
C 384.083046 87.84049 382.971902 85.157951 380.994331 83.18038 
C 379.016759 81.202808 376.33422 80.091664 373.537511 80.091664 
C 370.740803 80.091664 368.058264 81.202808 366.080692 83.18038 
C 364.103121 85.157951 362.991976 87.84049 362.991976 90.637199 
C 362.991976 93.433907 364.103121 96.116447 366.080692 98.094018 
C 368.058264 100.07159 370.740803 101.182734 373.537511 101.182734 
z
" clip-path="url(#p974109cafa)" style="fill: #002d9c; stroke: #002d9c; stroke-width: 2; stroke-linejoin: miter"/>
   </g>
   <g id="patch_20">
    <path d="M 404.826461 59.348249 
L 434.95656 59.348249 
L 434.95656 29.21815 
L 404.826461 29.21815 
z
" clip-path="url(#p974109cafa)" style="fill: #a8a8a8; stroke: #a8a8a8; stroke-width: 1.5; stroke-linejoin: miter"/>
   </g>
   <g id="patch_21">
    <path d="M 430.437046 48.802714 
C 430.437046 46.006937 429.325243 43.322808 427.34833 41.345895 
C 425.371417 39.368982 422.687288 38.25718 419.891511 38.25718 
C 417.095734 38.25718 414.411604 39.368982 412.434691 41.345895 
C 410.457779 43.322808 409.345976 46.006937 409.345976 48.802714 
" clip-path="url(#p974109cafa)" style="fill: none; stroke: #000000; stroke-width: 2; stroke-linejoin: miter"/>
   </g>
   <g id="line2d_23">
    <path d="M 419.891511 48.802714 
L 430.437046 38.25718 
" clip-path="url(#p974109cafa)" style="fill: none; stroke: #000000; stroke-width: 2; stroke-linecap: square"/>
   </g>
   <g id="patch_22">
    <path d="M 451.18046 105.702249 
L 481.31056 105.702249 
L 481.31056 75.572149 
L 451.18046 75.572149 
z
" clip-path="url(#p974109cafa)" style="fill: #a8a8a8; stroke: #a8a8a8; stroke-width: 1.5; stroke-linejoin: miter"/>
   </g>
   <g id="patch_23">
    <path d="M 476.791045 95.156714 
C 476.791045 92.360937 475.679242 89.676808 473.702329 87.699895 
C 471.725416 85.722982 469.041287 84.611179 466.24551 84.611179 
C 463.449733 84.611179 460.765604 85.722982 458.788691 87.699895 
C 456.811778 89.676808 455.699975 92.360937 455.699975 95.156714 
" clip-path="url(#p974109cafa)" style="fill: none; stroke: #000000; stroke-width: 2; stroke-linejoin: miter"/>
   </g>
   <g id="line2d_24">
    <path d="M 466.24551 95.156714 
L 476.791045 84.611179 
" clip-path="url(#p974109cafa)" style="fill: none; stroke: #000000; stroke-width: 2; stroke-linecap: square"/>
   </g>
   <g id="line2d_25">
    <path d="M 373.537511 96.663219 
L 373.537511 84.611179 
" clip-path="url(#p974109cafa)" style="fill: none; stroke: #ffffff; stroke-width: 2; stroke-linecap: square"/>
   </g>
   <g id="line2d_26">
    <path d="M 367.511491 90.637199 
L 379.563531 90.637199 
" clip-path="url(#p974109cafa)" style="fill: none; stroke: #ffffff; stroke-width: 2; stroke-linecap: square"/>
   </g>
   <g id="text_1">
    <g clip-path="url(#p974109cafa)">
     <!-- ${q}_{0}$ -->
     <g transform="translate(43.074055 48.734176) scale(0.1625 -0.1625)">
      <defs>
       <path id="DejaVuSans-Oblique-71" d="M 2669 525 
Q 2438 222 2123 65 
Q 1809 -91 1428 -91 
Q 897 -91 595 267 
Q 294 625 294 1253 
Q 294 1759 480 2231 
Q 666 2703 1013 3078 
Q 1238 3322 1530 3453 
Q 1822 3584 2144 3584 
Q 2531 3584 2781 3431 
Q 3031 3278 3144 2969 
L 3244 3494 
L 3822 3494 
L 2888 -1319 
L 2309 -1319 
L 2669 525 
z
M 891 1338 
Q 891 875 1084 633 
Q 1278 391 1644 391 
Q 2188 391 2572 911 
Q 2956 1431 2956 2175 
Q 2956 2625 2757 2864 
Q 2559 3103 2188 3103 
Q 1916 3103 1684 2976 
Q 1453 2850 1281 2606 
Q 1100 2350 995 2006 
Q 891 1663 891 1338 
z
" transform="scale(0.015625)"/>
       <path id="DejaVuSans-30" d="M 2034 4250 
Q 1547 4250 1301 3770 
Q 1056 3291 1056 2328 
Q 1056 1369 1301 889 
Q 1547 409 2034 409 
Q 2525 409 2770 889 
Q 3016 1369 3016 2328 
Q 3016 3291 2770 3770 
Q 2525 4250 2034 4250 
z
M 2034 4750 
Q 2819 4750 3233 4129 
Q 3647 3509 3647 2328 
Q 3647 1150 3233 529 
Q 2819 -91 2034 -91 
Q 1250 -91 836 529 
Q 422 1150 422 2328 
Q 422 3509 836 4129 
Q 1250 4750 2034 4750 
z
" transform="scale(0.015625)"/>
      </defs>
      <use xlink:href="#DejaVuSans-Oblique-71"/>
      <use xlink:href="#DejaVuSans-30" transform="translate(63.476562 -16.40625) scale(0.7)"/>
     </g>
    </g>
   </g>
   <g id="text_2">
    <g clip-path="url(#p974109cafa)">
     <!-- ${q}_{1}$ -->
     <g transform="translate(43.074055 95.088175) scale(0.1625 -0.1625)">
      <defs>
       <path id="DejaVuSans-31" d="M 794 531 
L 1825 531 
L 1825 4091 
L 703 3866 
L 703 4441 
L 1819 4666 
L 2450 4666 
L 2450 531 
L 3481 531 
L 3481 0 
L 794 0 
L 794 531 
z
" transform="scale(0.015625)"/>
      </defs>
      <use xlink:href="#DejaVuSans-Oblique-71"/>
      <use xlink:href="#DejaVuSans-31" transform="translate(63.476562 -16.40625) scale(0.7)"/>
     </g>
    </g>
   </g>
   <g id="text_3">
    <g clip-path="url(#p974109cafa)">
     <!-- 2 -->
     <g transform="translate(75.017755 130.192923) scale(0.104 -0.104)">
      <defs>
       <path id="DejaVuSans-32" d="M 1228 531 
L 3431 531 
L 3431 0 
L 469 0 
L 469 531 
Q 828 903 1448 1529 
Q 2069 2156 2228 2338 
Q 2531 2678 2651 2914 
Q 2772 3150 2772 3378 
Q 2772 3750 2511 3984 
Q 2250 4219 1831 4219 
Q 1534 4219 1204 4116 
Q 875 4013 500 3803 
L 500 4441 
Q 881 4594 1212 4672 
Q 1544 4750 1819 4750 
Q 2544 4750 2975 4387 
Q 3406 4025 3406 3419 
Q 3406 3131 3298 2873 
Q 3191 2616 2906 2266 
Q 2828 2175 2409 1742 
Q 1991 1309 1228 531 
z
" transform="scale(0.015625)"/>
      </defs>
      <use xlink:href="#DejaVuSans-32"/>
     </g>
    </g>
   </g>
   <g id="text_4">
    <g clip-path="url(#p974109cafa)">
     <!-- out -->
     <g transform="translate(34.499641 141.475183) scale(0.1625 -0.1625)">
      <defs>
       <path id="DejaVuSans-6f" d="M 1959 3097 
Q 1497 3097 1228 2736 
Q 959 2375 959 1747 
Q 959 1119 1226 758 
Q 1494 397 1959 397 
Q 2419 397 2687 759 
Q 2956 1122 2956 1747 
Q 2956 2369 2687 2733 
Q 2419 3097 1959 3097 
z
M 1959 3584 
Q 2709 3584 3137 3096 
Q 3566 2609 3566 1747 
Q 3566 888 3137 398 
Q 2709 -91 1959 -91 
Q 1206 -91 779 398 
Q 353 888 353 1747 
Q 353 2609 779 3096 
Q 1206 3584 1959 3584 
z
" transform="scale(0.015625)"/>
       <path id="DejaVuSans-75" d="M 544 1381 
L 544 3500 
L 1119 3500 
L 1119 1403 
Q 1119 906 1312 657 
Q 1506 409 1894 409 
Q 2359 409 2629 706 
Q 2900 1003 2900 1516 
L 2900 3500 
L 3475 3500 
L 3475 0 
L 2900 0 
L 2900 538 
Q 2691 219 2414 64 
Q 2138 -91 1772 -91 
Q 1169 -91 856 284 
Q 544 659 544 1381 
z
M 1991 3584 
L 1991 3584 
z
" transform="scale(0.015625)"/>
       <path id="DejaVuSans-74" d="M 1172 4494 
L 1172 3500 
L 2356 3500 
L 2356 3053 
L 1172 3053 
L 1172 1153 
Q 1172 725 1289 603 
Q 1406 481 1766 481 
L 2356 481 
L 2356 0 
L 1766 0 
Q 1100 0 847 248 
Q 594 497 594 1153 
L 594 3053 
L 172 3053 
L 172 3500 
L 594 3500 
L 594 4494 
L 1172 4494 
z
" transform="scale(0.015625)"/>
      </defs>
      <use xlink:href="#DejaVuSans-6f"/>
      <use xlink:href="#DejaVuSans-75" x="61.181641"/>
      <use xlink:href="#DejaVuSans-74" x="124.560547"/>
     </g>
    </g>
   </g>
   <g id="text_5">
    <g clip-path="url(#p974109cafa)">
     <!-- 3 -->
     <g transform="translate(75.017755 176.546923) scale(0.104 -0.104)">
      <defs>
       <path id="DejaVuSans-33" d="M 2597 2516 
Q 3050 2419 3304 2112 
Q 3559 1806 3559 1356 
Q 3559 666 3084 287 
Q 2609 -91 1734 -91 
Q 1441 -91 1130 -33 
Q 819 25 488 141 
L 488 750 
Q 750 597 1062 519 
Q 1375 441 1716 441 
Q 2309 441 2620 675 
Q 2931 909 2931 1356 
Q 2931 1769 2642 2001 
Q 2353 2234 1838 2234 
L 1294 2234 
L 1294 2753 
L 1863 2753 
Q 2328 2753 2575 2939 
Q 2822 3125 2822 3475 
Q 2822 3834 2567 4026 
Q 2313 4219 1838 4219 
Q 1578 4219 1281 4162 
Q 984 4106 628 3988 
L 628 4550 
Q 988 4650 1302 4700 
Q 1616 4750 1894 4750 
Q 2613 4750 3031 4423 
Q 3450 4097 3450 3541 
Q 3450 3153 3228 2886 
Q 3006 2619 2597 2516 
z
" transform="scale(0.015625)"/>
      </defs>
      <use xlink:href="#DejaVuSans-33"/>
     </g>
    </g>
   </g>
   <g id="text_6">
    <g clip-path="url(#p974109cafa)">
     <!-- err -->
     <g transform="translate(38.036555 187.829182) scale(0.1625 -0.1625)">
      <defs>
       <path id="DejaVuSans-65" d="M 3597 1894 
L 3597 1613 
L 953 1613 
Q 991 1019 1311 708 
Q 1631 397 2203 397 
Q 2534 397 2845 478 
Q 3156 559 3463 722 
L 3463 178 
Q 3153 47 2828 -22 
Q 2503 -91 2169 -91 
Q 1331 -91 842 396 
Q 353 884 353 1716 
Q 353 2575 817 3079 
Q 1281 3584 2069 3584 
Q 2775 3584 3186 3129 
Q 3597 2675 3597 1894 
z
M 3022 2063 
Q 3016 2534 2758 2815 
Q 2500 3097 2075 3097 
Q 1594 3097 1305 2825 
Q 1016 2553 972 2059 
L 3022 2063 
z
" transform="scale(0.015625)"/>
       <path id="DejaVuSans-72" d="M 2631 2963 
Q 2534 3019 2420 3045 
Q 2306 3072 2169 3072 
Q 1681 3072 1420 2755 
Q 1159 2438 1159 1844 
L 1159 0 
L 581 0 
L 581 3500 
L 1159 3500 
L 1159 2956 
Q 1341 3275 1631 3429 
Q 1922 3584 2338 3584 
Q 2397 3584 2469 3576 
Q 2541 3569 2628 3553 
L 2631 2963 
z
" transform="scale(0.015625)"/>
      </defs>
      <use xlink:href="#DejaVuSans-65"/>
      <use xlink:href="#DejaVuSans-72" x="61.523438"/>
      <use xlink:href="#DejaVuSans-72" x="100.886719"/>
     </g>
    </g>
   </g>
   <g id="text_7">
    <g clip-path="url(#p974109cafa)">
     <!-- X -->
     <g style="fill: #ffffff" transform="translate(90.961015 47.870387) scale(0.13 -0.13)">
      <defs>
       <path id="DejaVuSans-58" d="M 403 4666 
L 1081 4666 
L 2241 2931 
L 3406 4666 
L 4084 4666 
L 2584 2425 
L 4184 0 
L 3506 0 
L 2194 1984 
L 872 0 
L 191 0 
L 1856 2491 
L 403 4666 
z
" transform="scale(0.015625)"/>
      </defs>
      <use xlink:href="#DejaVuSans-58"/>
     </g>
    </g>
   </g>
   <g id="text_8">
    <g clip-path="url(#p974109cafa)">
     <!-- 0 -->
     <g transform="translate(107.002015 176.546923) scale(0.104 -0.104)">
      <use xlink:href="#DejaVuSans-30"/>
     </g>
    </g>
   </g>
   <g id="text_9">
    <g clip-path="url(#p974109cafa)">
     <!-- $\mathrm{\left|0\right\rangle}$ -->
     <g transform="translate(133.382514 94.224386) scale(0.13 -0.13)">
      <defs>
       <path id="DejaVuSans-7c" d="M 1344 4891 
L 1344 -1509 
L 813 -1509 
L 813 4891 
L 1344 4891 
z
" transform="scale(0.015625)"/>
       <path id="DejaVuSans-27e9" d="M 1925 2006 
L 1044 -844 
L 513 -844 
L 1394 2006 
L 513 4856 
L 1044 4856 
L 1925 2006 
z
" transform="scale(0.015625)"/>
      </defs>
      <use xlink:href="#DejaVuSans-7c" transform="translate(0 16.625) scale(0.756406)"/>
      <use xlink:href="#DejaVuSans-30" transform="translate(25.479126 0.125)"/>
      <use xlink:href="#DejaVuSans-27e9" transform="translate(89.102173 0.125)"/>
     </g>
    </g>
   </g>
   <g id="text_10">
    <g clip-path="url(#p974109cafa)">
     <!-- 1 -->
     <g transform="translate(199.710014 176.546923) scale(0.104 -0.104)">
      <use xlink:href="#DejaVuSans-31"/>
     </g>
    </g>
   </g>
   <g id="text_11">
    <g clip-path="url(#p974109cafa)">
     <!-- $\mathrm{\left|0\right\rangle}$ -->
     <g transform="translate(226.090513 94.224386) scale(0.13 -0.13)">
      <use xlink:href="#DejaVuSans-7c" transform="translate(0 16.625) scale(0.756406)"/>
      <use xlink:href="#DejaVuSans-30" transform="translate(25.479126 0.125)"/>
      <use xlink:href="#DejaVuSans-27e9" transform="translate(89.102173 0.125)"/>
     </g>
    </g>
   </g>
   <g id="text_12">
    <g clip-path="url(#p974109cafa)">
     <!-- 2 -->
     <g transform="translate(292.418012 176.546923) scale(0.104 -0.104)">
      <use xlink:href="#DejaVuSans-32"/>
     </g>
    </g>
   </g>
   <g id="text_13">
    <g clip-path="url(#p974109cafa)">
     <!-- $\mathrm{\left|0\right\rangle}$ -->
     <g transform="translate(318.798512 94.224386) scale(0.13 -0.13)">
      <use xlink:href="#DejaVuSans-7c" transform="translate(0 16.625) scale(0.756406)"/>
      <use xlink:href="#DejaVuSans-30" transform="translate(25.479126 0.125)"/>
      <use xlink:href="#DejaVuSans-27e9" transform="translate(89.102173 0.125)"/>
     </g>
    </g>
   </g>
   <g id="text_14">
    <g clip-path="url(#p974109cafa)">
     <!-- 0 -->
     <g transform="translate(431.480011 130.192923) scale(0.104 -0.104)">
      <use xlink:href="#DejaVuSans-30"/>
     </g>
    </g>
   </g>
   <g id="text_15">
    <g clip-path="url(#p974109cafa)">
     <!-- 1 -->
     <g transform="translate(477.83401 130.192923) scale(0.104 -0.104)">
      <use xlink:href="#DejaVuSans-31"/>
     </g>
    </g>
   </g>
  </g>
 </g>
 <defs>
  <clipPath id="p974109cafa">
   <rect x="7.2" y="7.2" width="489.63915" height="203.957597"/>
  </clipPath>
 </defs>
</svg>
