<?xml version="1.0" encoding="utf-8" standalone="no"?>
<!DOCTYPE svg PUBLIC "-//W3C//DTD SVG 1.1//EN"
  "http://www.w3.org/Graphics/SVG/1.1/DTD/svg11.dtd">
<svg xmlns:xlink="http://www.w3.org/1999/xlink" width="504.03915pt" height="264.711597pt" viewBox="0 0 504.03915 264.711597" xmlns="http://www.w3.org/2000/svg" version="1.1">
 <metadata>
  <rdf:RDF xmlns:dc="http://purl.org/dc/elements/1.1/" xmlns:cc="http://creativecommons.org/ns#" xmlns:rdf="http://www.w3.org/1999/02/22-rdf-syntax-ns#">
   <cc:Work>
    <dc:type rdf:resource="http://purl.org/dc/dcmitype/StillImage"/>
    <dc:date>2025-02-18T17:32:11.760096</dc:date>
    <dc:format>image/svg+xml</dc:format>
    <dc:creator>
     <cc:Agent>
      <dc:title>Matplotlib v3.9.1, https://matplotlib.org/</dc:title>
     </cc:Agent>
    </dc:creator>
   </cc:Work>
  </rdf:RDF>
 </metadata>
 <defs>
  <style type="text/css">*{stroke-linejoin: round; stroke-linecap: butt}</style>
 </defs>
 <g id="figure_1">
  <g id="patch_1">
   <path d="M 0 264.711597 
L 504.03915 264.711597 
L 504.03915 0 
L 0 0 
z
" style="fill: #ffffff"/>
  </g>
  <g id="axes_1">
   <g id="line2d_1">
    <path d="M 70.382355 44.2832 
L 492.20375 44.2832 
" clip-path="url(#p6cb22291a6)" style="fill: none; stroke: #000000; stroke-width: 2; stroke-linecap: square"/>
   </g>
   <g id="line2d_2">
    <path d="M 70.382355 90.637199 
L 492.20375 90.637199 
" clip-path="url(#p6cb22291a6)" style="fill: none; stroke: #000000; stroke-width: 2; stroke-linecap: square"/>
   </g>
   <g id="line2d_3">
    <path d="M 70.382355 136.991198 
L 492.20375 136.991198 
" clip-path="url(#p6cb22291a6)" style="fill: none; stroke: #000000; stroke-width: 2; stroke-linecap: square"/>
   </g>
   <g id="line2d_4">
    <path d="M 70.382355 183.345198 
L 492.20375 183.345198 
" clip-path="url(#p6cb22291a6)" style="fill: none; stroke: #000000; stroke-width: 2; stroke-linecap: square"/>
   </g>
   <g id="line2d_5">
    <path d="M 79.653155 234.334597 
L 84.288555 225.063797 
" clip-path="url(#p6cb22291a6)" style="fill: none; stroke: #778899; stroke-width: 1.5; stroke-linecap: square"/>
   </g>
   <g id="line2d_6">
    <path d="M 70.382355 228.192692 
L 492.20375 228.192692 
" clip-path="url(#p6cb22291a6)" style="fill: none; stroke: #778899; stroke-width: 2; stroke-linecap: square"/>
   </g>
   <g id="line2d_7">
    <path d="M 70.382355 231.205702 
L 492.20375 231.205702 
" clip-path="url(#p6cb22291a6)" style="fill: none; stroke: #778899; stroke-width: 2; stroke-linecap: square"/>
   </g>
   <g id="patch_2">
    <path d="M 460.21949 219.153662 
L 472.27153 219.153662 
L 466.24551 227.845037 
z
" clip-path="url(#p6cb22291a6)" style="fill: #778899"/>
   </g>
   <g id="patch_3">
    <path d="M 65.746955 21.1062 
L -1093.103029 21.1062 
L -1093.103029 299.230196 
L 65.746955 299.230196 
z
" clip-path="url(#p6cb22291a6)" style="fill: #ffffff; stroke: #ffffff; stroke-width: 1.5; stroke-linejoin: miter"/>
   </g>
   <g id="line2d_8">
    <path d="M 141.767514 136.991198 
L 141.767514 44.2832 
" clip-path="url(#p6cb22291a6)" style="fill: none; stroke: #002d9c; stroke-width: 2; stroke-linecap: square"/>
   </g>
   <g id="line2d_9">
    <path d="M 188.121514 183.345198 
L 188.121514 90.637199 
" clip-path="url(#p6cb22291a6)" style="fill: none; stroke: #002d9c; stroke-width: 2; stroke-linecap: square"/>
   </g>
   <g id="line2d_10">
    <path d="M 188.121514 90.637199 
L 188.121514 183.345198 
" clip-path="url(#p6cb22291a6)" style="fill: none; stroke: #002d9c; stroke-width: 2; stroke-linecap: square"/>
   </g>
   <g id="line2d_11">
    <path d="M 373.537511 183.345198 
L 373.537511 44.2832 
" clip-path="url(#p6cb22291a6)" style="fill: none; stroke: #002d9c; stroke-width: 2; stroke-linecap: square"/>
   </g>
   <g id="line2d_12">
    <path d="M 373.537511 183.345198 
L 373.537511 90.637199 
" clip-path="url(#p6cb22291a6)" style="fill: none; stroke: #002d9c; stroke-width: 2; stroke-linecap: square"/>
   </g>
   <g id="line2d_13">
    <path d="M 467.752015 90.637199 
L 467.752015 219.153662 
" clip-path="url(#p6cb22291a6)" style="fill: none; stroke: #778899; stroke-width: 2; stroke-linecap: square"/>
   </g>
   <g id="line2d_14">
    <path d="M 464.739005 90.637199 
L 464.739005 219.153662 
" clip-path="url(#p6cb22291a6)" style="fill: none; stroke: #778899; stroke-width: 2; stroke-linecap: square"/>
   </g>
   <g id="line2d_15">
    <path d="M 182.095494 96.663219 
L 194.147534 84.611179 
" clip-path="url(#p6cb22291a6)" style="fill: none; stroke: #002d9c; stroke-width: 2; stroke-linecap: square"/>
   </g>
   <g id="line2d_16">
    <path d="M 182.095494 84.611179 
L 194.147534 96.663219 
" clip-path="url(#p6cb22291a6)" style="fill: none; stroke: #002d9c; stroke-width: 2; stroke-linecap: square"/>
   </g>
   <g id="line2d_17">
    <path d="M 182.095494 189.371218 
L 194.147534 177.319178 
" clip-path="url(#p6cb22291a6)" style="fill: none; stroke: #002d9c; stroke-width: 2; stroke-linecap: square"/>
   </g>
   <g id="line2d_18">
    <path d="M 182.095494 177.319178 
L 194.147534 189.371218 
" clip-path="url(#p6cb22291a6)" style="fill: none; stroke: #002d9c; stroke-width: 2; stroke-linecap: square"/>
   </g>
   <g id="line2d_19">
    <path d="M 367.511491 189.371218 
L 379.563531 177.319178 
" clip-path="url(#p6cb22291a6)" style="fill: none; stroke: #002d9c; stroke-width: 2; stroke-linecap: square"/>
   </g>
   <g id="line2d_20">
    <path d="M 367.511491 177.319178 
L 379.563531 189.371218 
" clip-path="url(#p6cb22291a6)" style="fill: none; stroke: #002d9c; stroke-width: 2; stroke-linecap: square"/>
   </g>
   <g id="line2d_21">
    <path d="M 367.511491 96.663219 
L 379.563531 84.611179 
" clip-path="url(#p6cb22291a6)" style="fill: none; stroke: #002d9c; stroke-width: 2; stroke-linecap: square"/>
   </g>
   <g id="line2d_22">
    <path d="M 367.511491 84.611179 
L 379.563531 96.663219 
" clip-path="url(#p6cb22291a6)" style="fill: none; stroke: #002d9c; stroke-width: 2; stroke-linecap: square"/>
   </g>
   <g id="patch_4">
    <path d="M 80.348465 152.056248 
L 110.478565 152.056248 
L 110.478565 121.926148 
L 80.348465 121.926148 
z
" clip-path="url(#p6cb22291a6)" style="fill: #fa4d56; stroke: #fa4d56; stroke-width: 1.5; stroke-linejoin: miter"/>
   </g>
   <g id="patch_5">
    <path d="M 80.348465 198.410247 
L 110.478565 198.410247 
L 110.478565 168.280148 
L 80.348465 168.280148 
z
" clip-path="url(#p6cb22291a6)" style="fill: #002d9c; stroke: #002d9c; stroke-width: 1.5; stroke-linejoin: miter"/>
   </g>
   <g id="patch_6">
    <path d="M 80.348465 59.348249 
L 110.478565 59.348249 
L 110.478565 29.21815 
L 80.348465 29.21815 
z
" clip-path="url(#p6cb22291a6)" style="fill: #002d9c; stroke: #002d9c; stroke-width: 1.5; stroke-linejoin: miter"/>
   </g>
   <g id="patch_7">
    <path d="M 141.767514 141.510713 
C 142.966104 141.510713 144.115763 141.034509 144.963294 140.186978 
C 145.810825 139.339447 146.287029 138.189788 146.287029 136.991198 
C 146.287029 135.792609 145.810825 134.642949 144.963294 133.795419 
C 144.115763 132.947888 142.966104 132.471683 141.767514 132.471683 
C 140.568925 132.471683 139.419265 132.947888 138.571735 133.795419 
C 137.724204 134.642949 137.247999 135.792609 137.247999 136.991198 
C 137.247999 138.189788 137.724204 139.339447 138.571735 140.186978 
C 139.419265 141.034509 140.568925 141.510713 141.767514 141.510713 
z
" clip-path="url(#p6cb22291a6)" style="fill: #ffffff; stroke: #002d9c; stroke-width: 1.5; stroke-linejoin: miter"/>
   </g>
   <g id="patch_8">
    <path d="M 141.767514 54.828734 
C 144.564223 54.828734 147.246762 53.71759 149.224334 51.740019 
C 151.201905 49.762447 152.313049 47.079908 152.313049 44.2832 
C 152.313049 41.486491 151.201905 38.803952 149.224334 36.82638 
C 147.246762 34.848809 144.564223 33.737665 141.767514 33.737665 
C 138.970806 33.737665 136.288267 34.848809 134.310695 36.82638 
C 132.333124 38.803952 131.22198 41.486491 131.22198 44.2832 
C 131.22198 47.079908 132.333124 49.762447 134.310695 51.740019 
C 136.288267 53.71759 138.970806 54.828734 141.767514 54.828734 
z
" clip-path="url(#p6cb22291a6)" style="fill: #002d9c; stroke: #002d9c; stroke-width: 2; stroke-linejoin: miter"/>
   </g>
   <g id="patch_9">
    <path d="M 188.121514 141.510713 
C 189.320103 141.510713 190.469763 141.034509 191.317293 140.186978 
C 192.164824 139.339447 192.641029 138.189788 192.641029 136.991198 
C 192.641029 135.792609 192.164824 134.642949 191.317293 133.795419 
C 190.469763 132.947888 189.320103 132.471683 188.121514 132.471683 
C 186.922924 132.471683 185.773265 132.947888 184.925734 133.795419 
C 184.078203 134.642949 183.601999 135.792609 183.601999 136.991198 
C 183.601999 138.189788 184.078203 139.339447 184.925734 140.186978 
C 185.773265 141.034509 186.922924 141.510713 188.121514 141.510713 
z
" clip-path="url(#p6cb22291a6)" style="fill: #ffffff; stroke: #002d9c; stroke-width: 1.5; stroke-linejoin: miter"/>
   </g>
   <g id="patch_10">
    <path d="M 219.410463 152.056248 
L 249.540563 152.056248 
L 249.540563 121.926148 
L 219.410463 121.926148 
z
" clip-path="url(#p6cb22291a6)" style="fill: #a8a8a8; stroke: #a8a8a8; stroke-width: 1.5; stroke-linejoin: miter"/>
   </g>
   <g id="patch_11">
    <path d="M 219.410463 198.410247 
L 249.540563 198.410247 
L 249.540563 168.280148 
L 219.410463 168.280148 
z
" clip-path="url(#p6cb22291a6)" style="fill: #a8a8a8; stroke: #a8a8a8; stroke-width: 1.5; stroke-linejoin: miter"/>
   </g>
   <g id="patch_12">
    <path d="M 265.764463 198.410247 
L 295.894562 198.410247 
L 295.894562 168.280148 
L 265.764463 168.280148 
z
" clip-path="url(#p6cb22291a6)" style="fill: #002d9c; stroke: #002d9c; stroke-width: 1.5; stroke-linejoin: miter"/>
   </g>
   <g id="patch_13">
    <path d="M 312.118462 198.410247 
L 342.248562 198.410247 
L 342.248562 168.280148 
L 312.118462 168.280148 
z
" clip-path="url(#p6cb22291a6)" style="fill: #fa4d56; stroke: #fa4d56; stroke-width: 1.5; stroke-linejoin: miter"/>
   </g>
   <g id="patch_14">
    <path d="M 373.537511 48.802714 
C 374.736101 48.802714 375.88576 48.32651 376.733291 47.478979 
C 377.580822 46.631448 378.057026 45.481789 378.057026 44.2832 
C 378.057026 43.08461 377.580822 41.934951 376.733291 41.08742 
C 375.88576 40.239889 374.736101 39.763685 373.537511 39.763685 
C 372.338922 39.763685 371.189262 40.239889 370.341732 41.08742 
C 369.494201 41.934951 369.017996 43.08461 369.017996 44.2832 
C 369.017996 45.481789 369.494201 46.631448 370.341732 47.478979 
C 371.189262 48.32651 372.338922 48.802714 373.537511 48.802714 
z
" clip-path="url(#p6cb22291a6)" style="fill: #002d9c; stroke: #002d9c; stroke-width: 1.5; stroke-linejoin: miter"/>
   </g>
   <g id="patch_15">
    <path d="M 404.826461 59.348249 
L 434.95656 59.348249 
L 434.95656 29.21815 
L 404.826461 29.21815 
z
" clip-path="url(#p6cb22291a6)" style="fill: #a8a8a8; stroke: #a8a8a8; stroke-width: 1.5; stroke-linejoin: miter"/>
   </g>
   <g id="patch_16">
    <path d="M 404.826461 198.410247 
L 434.95656 198.410247 
L 434.95656 168.280148 
L 404.826461 168.280148 
z
" clip-path="url(#p6cb22291a6)" style="fill: #a8a8a8; stroke: #a8a8a8; stroke-width: 1.5; stroke-linejoin: miter"/>
   </g>
   <g id="patch_17">
    <path d="M 451.18046 105.702249 
L 481.31056 105.702249 
L 481.31056 75.572149 
L 451.18046 75.572149 
z
" clip-path="url(#p6cb22291a6)" style="fill: #a8a8a8; stroke: #a8a8a8; stroke-width: 1.5; stroke-linejoin: miter"/>
   </g>
   <g id="patch_18">
    <path d="M 476.791045 95.156714 
C 476.791045 92.360937 475.679242 89.676808 473.702329 87.699895 
C 471.725416 85.722982 469.041287 84.611179 466.24551 84.611179 
C 463.449733 84.611179 460.765604 85.722982 458.788691 87.699895 
C 456.811778 89.676808 455.699975 92.360937 455.699975 95.156714 
" clip-path="url(#p6cb22291a6)" style="fill: none; stroke: #000000; stroke-width: 2; stroke-linejoin: miter"/>
   </g>
   <g id="line2d_23">
    <path d="M 466.24551 95.156714 
L 476.791045 84.611179 
" clip-path="url(#p6cb22291a6)" style="fill: none; stroke: #000000; stroke-width: 2; stroke-linecap: square"/>
   </g>
   <g id="line2d_24">
    <path d="M 141.767514 50.309219 
L 141.767514 38.25718 
" clip-path="url(#p6cb22291a6)" style="fill: none; stroke: #ffffff; stroke-width: 2; stroke-linecap: square"/>
   </g>
   <g id="line2d_25">
    <path d="M 135.741494 44.2832 
L 147.793534 44.2832 
" clip-path="url(#p6cb22291a6)" style="fill: none; stroke: #ffffff; stroke-width: 2; stroke-linecap: square"/>
   </g>
   <g id="text_1">
    <g clip-path="url(#p6cb22291a6)">
     <!-- ${q}_{0}$ -->
     <g transform="translate(43.074055 48.734176) scale(0.1625 -0.1625)">
      <defs>
       <path id="DejaVuSans-Oblique-71" d="M 2669 525 
Q 2438 222 2123 65 
Q 1809 -91 1428 -91 
Q 897 -91 595 267 
Q 294 625 294 1253 
Q 294 1759 480 2231 
Q 666 2703 1013 3078 
Q 1238 3322 1530 3453 
Q 1822 3584 2144 3584 
Q 2531 3584 2781 3431 
Q 3031 3278 3144 2969 
L 3244 3494 
L 3822 3494 
L 2888 -1319 
L 2309 -1319 
L 2669 525 
z
M 891 1338 
Q 891 875 1084 633 
Q 1278 391 1644 391 
Q 2188 391 2572 911 
Q 2956 1431 2956 2175 
Q 2956 2625 2757 2864 
Q 2559 3103 2188 3103 
Q 1916 3103 1684 2976 
Q 1453 2850 1281 2606 
Q 1100 2350 995 2006 
Q 891 1663 891 1338 
z
" transform="scale(0.015625)"/>
       <path id="DejaVuSans-30" d="M 2034 4250 
Q 1547 4250 1301 3770 
Q 1056 3291 1056 2328 
Q 1056 1369 1301 889 
Q 1547 409 2034 409 
Q 2525 409 2770 889 
Q 3016 1369 3016 2328 
Q 3016 3291 2770 3770 
Q 2525 4250 2034 4250 
z
M 2034 4750 
Q 2819 4750 3233 4129 
Q 3647 3509 3647 2328 
Q 3647 1150 3233 529 
Q 2819 -91 2034 -91 
Q 1250 -91 836 529 
Q 422 1150 422 2328 
Q 422 3509 836 4129 
Q 1250 4750 2034 4750 
z
" transform="scale(0.015625)"/>
      </defs>
      <use xlink:href="#DejaVuSans-Oblique-71"/>
      <use xlink:href="#DejaVuSans-30" transform="translate(63.476562 -16.40625) scale(0.7)"/>
     </g>
    </g>
   </g>
   <g id="text_2">
    <g clip-path="url(#p6cb22291a6)">
     <!-- ${q}_{1}$ -->
     <g transform="translate(43.074055 95.088175) scale(0.1625 -0.1625)">
      <defs>
       <path id="DejaVuSans-31" d="M 794 531 
L 1825 531 
L 1825 4091 
L 703 3866 
L 703 4441 
L 1819 4666 
L 2450 4666 
L 2450 531 
L 3481 531 
L 3481 0 
L 794 0 
L 794 531 
z
" transform="scale(0.015625)"/>
      </defs>
      <use xlink:href="#DejaVuSans-Oblique-71"/>
      <use xlink:href="#DejaVuSans-31" transform="translate(63.476562 -16.40625) scale(0.7)"/>
     </g>
    </g>
   </g>
   <g id="text_3">
    <g clip-path="url(#p6cb22291a6)">
     <!-- ${q}_{2}$ -->
     <g transform="translate(43.074055 141.442175) scale(0.1625 -0.1625)">
      <defs>
       <path id="DejaVuSans-32" d="M 1228 531 
L 3431 531 
L 3431 0 
L 469 0 
L 469 531 
Q 828 903 1448 1529 
Q 2069 2156 2228 2338 
Q 2531 2678 2651 2914 
Q 2772 3150 2772 3378 
Q 2772 3750 2511 3984 
Q 2250 4219 1831 4219 
Q 1534 4219 1204 4116 
Q 875 4013 500 3803 
L 500 4441 
Q 881 4594 1212 4672 
Q 1544 4750 1819 4750 
Q 2544 4750 2975 4387 
Q 3406 4025 3406 3419 
Q 3406 3131 3298 2873 
Q 3191 2616 2906 2266 
Q 2828 2175 2409 1742 
Q 1991 1309 1228 531 
z
" transform="scale(0.015625)"/>
      </defs>
      <use xlink:href="#DejaVuSans-Oblique-71"/>
      <use xlink:href="#DejaVuSans-32" transform="translate(63.476562 -16.40625) scale(0.7)"/>
     </g>
    </g>
   </g>
   <g id="text_4">
    <g clip-path="url(#p6cb22291a6)">
     <!-- ${q}_{3}$ -->
     <g transform="translate(43.074055 187.796174) scale(0.1625 -0.1625)">
      <defs>
       <path id="DejaVuSans-33" d="M 2597 2516 
Q 3050 2419 3304 2112 
Q 3559 1806 3559 1356 
Q 3559 666 3084 287 
Q 2609 -91 1734 -91 
Q 1441 -91 1130 -33 
Q 819 25 488 141 
L 488 750 
Q 750 597 1062 519 
Q 1375 441 1716 441 
Q 2309 441 2620 675 
Q 2931 909 2931 1356 
Q 2931 1769 2642 2001 
Q 2353 2234 1838 2234 
L 1294 2234 
L 1294 2753 
L 1863 2753 
Q 2328 2753 2575 2939 
Q 2822 3125 2822 3475 
Q 2822 3834 2567 4026 
Q 2313 4219 1838 4219 
Q 1578 4219 1281 4162 
Q 984 4106 628 3988 
L 628 4550 
Q 988 4650 1302 4700 
Q 1616 4750 1894 4750 
Q 2613 4750 3031 4423 
Q 3450 4097 3450 3541 
Q 3450 3153 3228 2886 
Q 3006 2619 2597 2516 
z
" transform="scale(0.015625)"/>
      </defs>
      <use xlink:href="#DejaVuSans-Oblique-71"/>
      <use xlink:href="#DejaVuSans-33" transform="translate(63.476562 -16.40625) scale(0.7)"/>
     </g>
    </g>
   </g>
   <g id="text_5">
    <g clip-path="url(#p6cb22291a6)">
     <!-- 1 -->
     <g transform="translate(75.017755 222.900922) scale(0.104 -0.104)">
      <use xlink:href="#DejaVuSans-31"/>
     </g>
    </g>
   </g>
   <g id="text_6">
    <g clip-path="url(#p6cb22291a6)">
     <!-- out -->
     <g transform="translate(34.499641 234.183181) scale(0.1625 -0.1625)">
      <defs>
       <path id="DejaVuSans-6f" d="M 1959 3097 
Q 1497 3097 1228 2736 
Q 959 2375 959 1747 
Q 959 1119 1226 758 
Q 1494 397 1959 397 
Q 2419 397 2687 759 
Q 2956 1122 2956 1747 
Q 2956 2369 2687 2733 
Q 2419 3097 1959 3097 
z
M 1959 3584 
Q 2709 3584 3137 3096 
Q 3566 2609 3566 1747 
Q 3566 888 3137 398 
Q 2709 -91 1959 -91 
Q 1206 -91 779 398 
Q 353 888 353 1747 
Q 353 2609 779 3096 
Q 1206 3584 1959 3584 
z
" transform="scale(0.015625)"/>
       <path id="DejaVuSans-75" d="M 544 1381 
L 544 3500 
L 1119 3500 
L 1119 1403 
Q 1119 906 1312 657 
Q 1506 409 1894 409 
Q 2359 409 2629 706 
Q 2900 1003 2900 1516 
L 2900 3500 
L 3475 3500 
L 3475 0 
L 2900 0 
L 2900 538 
Q 2691 219 2414 64 
Q 2138 -91 1772 -91 
Q 1169 -91 856 284 
Q 544 659 544 1381 
z
M 1991 3584 
L 1991 3584 
z
" transform="scale(0.015625)"/>
       <path id="DejaVuSans-74" d="M 1172 4494 
L 1172 3500 
L 2356 3500 
L 2356 3053 
L 1172 3053 
L 1172 1153 
Q 1172 725 1289 603 
Q 1406 481 1766 481 
L 2356 481 
L 2356 0 
L 1766 0 
Q 1100 0 847 248 
Q 594 497 594 1153 
L 594 3053 
L 172 3053 
L 172 3500 
L 594 3500 
L 594 4494 
L 1172 4494 
z
" transform="scale(0.015625)"/>
      </defs>
      <use xlink:href="#DejaVuSans-6f"/>
      <use xlink:href="#DejaVuSans-75" x="61.181641"/>
      <use xlink:href="#DejaVuSans-74" x="124.560547"/>
     </g>
    </g>
   </g>
   <g id="text_7">
    <g clip-path="url(#p6cb22291a6)">
     <!-- H -->
     <g transform="translate(90.525312 140.578386) scale(0.13 -0.13)">
      <defs>
       <path id="DejaVuSans-48" d="M 628 4666 
L 1259 4666 
L 1259 2753 
L 3553 2753 
L 3553 4666 
L 4184 4666 
L 4184 0 
L 3553 0 
L 3553 2222 
L 1259 2222 
L 1259 0 
L 628 0 
L 628 4666 
z
" transform="scale(0.015625)"/>
      </defs>
      <use xlink:href="#DejaVuSans-48"/>
     </g>
    </g>
   </g>
   <g id="text_8">
    <g clip-path="url(#p6cb22291a6)">
     <!-- X -->
     <g style="fill: #ffffff" transform="translate(90.961015 186.932385) scale(0.13 -0.13)">
      <defs>
       <path id="DejaVuSans-58" d="M 403 4666 
L 1081 4666 
L 2241 2931 
L 3406 4666 
L 4084 4666 
L 2584 2425 
L 4184 0 
L 3506 0 
L 2194 1984 
L 872 0 
L 191 0 
L 1856 2491 
L 403 4666 
z
" transform="scale(0.015625)"/>
      </defs>
      <use xlink:href="#DejaVuSans-58"/>
     </g>
    </g>
   </g>
   <g id="text_9">
    <g clip-path="url(#p6cb22291a6)">
     <!-- X -->
     <g style="fill: #ffffff" transform="translate(90.961015 47.870387) scale(0.13 -0.13)">
      <use xlink:href="#DejaVuSans-58"/>
     </g>
    </g>
   </g>
   <g id="text_10">
    <g clip-path="url(#p6cb22291a6)">
     <!-- $\mathrm{\left|0\right\rangle}$ -->
     <g transform="translate(226.090513 140.578386) scale(0.13 -0.13)">
      <defs>
       <path id="DejaVuSans-7c" d="M 1344 4891 
L 1344 -1509 
L 813 -1509 
L 813 4891 
L 1344 4891 
z
" transform="scale(0.015625)"/>
       <path id="DejaVuSans-27e9" d="M 1925 2006 
L 1044 -844 
L 513 -844 
L 1394 2006 
L 513 4856 
L 1044 4856 
L 1925 2006 
z
" transform="scale(0.015625)"/>
      </defs>
      <use xlink:href="#DejaVuSans-7c" transform="translate(0 16.625) scale(0.756406)"/>
      <use xlink:href="#DejaVuSans-30" transform="translate(25.479126 0.125)"/>
      <use xlink:href="#DejaVuSans-27e9" transform="translate(89.102173 0.125)"/>
     </g>
    </g>
   </g>
   <g id="text_11">
    <g clip-path="url(#p6cb22291a6)">
     <!-- $\mathrm{\left|0\right\rangle}$ -->
     <g transform="translate(226.090513 186.932385) scale(0.13 -0.13)">
      <use xlink:href="#DejaVuSans-7c" transform="translate(0 16.625) scale(0.756406)"/>
      <use xlink:href="#DejaVuSans-30" transform="translate(25.479126 0.125)"/>
      <use xlink:href="#DejaVuSans-27e9" transform="translate(89.102173 0.125)"/>
     </g>
    </g>
   </g>
   <g id="text_12">
    <g clip-path="url(#p6cb22291a6)">
     <!-- X -->
     <g style="fill: #ffffff" transform="translate(276.377013 186.932385) scale(0.13 -0.13)">
      <use xlink:href="#DejaVuSans-58"/>
     </g>
    </g>
   </g>
   <g id="text_13">
    <g clip-path="url(#p6cb22291a6)">
     <!-- H -->
     <g transform="translate(322.295309 186.932385) scale(0.13 -0.13)">
      <use xlink:href="#DejaVuSans-48"/>
     </g>
    </g>
   </g>
   <g id="text_14">
    <g clip-path="url(#p6cb22291a6)">
     <!-- $\mathrm{\left|0\right\rangle}$ -->
     <g transform="translate(411.506511 47.870387) scale(0.13 -0.13)">
      <use xlink:href="#DejaVuSans-7c" transform="translate(0 16.625) scale(0.756406)"/>
      <use xlink:href="#DejaVuSans-30" transform="translate(25.479126 0.125)"/>
      <use xlink:href="#DejaVuSans-27e9" transform="translate(89.102173 0.125)"/>
     </g>
    </g>
   </g>
   <g id="text_15">
    <g clip-path="url(#p6cb22291a6)">
     <!-- $\mathrm{\left|0\right\rangle}$ -->
     <g transform="translate(411.506511 186.932385) scale(0.13 -0.13)">
      <use xlink:href="#DejaVuSans-7c" transform="translate(0 16.625) scale(0.756406)"/>
      <use xlink:href="#DejaVuSans-30" transform="translate(25.479126 0.125)"/>
      <use xlink:href="#DejaVuSans-27e9" transform="translate(89.102173 0.125)"/>
     </g>
    </g>
   </g>
   <g id="text_16">
    <g clip-path="url(#p6cb22291a6)">
     <!-- 0 -->
     <g transform="translate(477.83401 222.900922) scale(0.104 -0.104)">
      <use xlink:href="#DejaVuSans-30"/>
     </g>
    </g>
   </g>
  </g>
 </g>
 <defs>
  <clipPath id="p6cb22291a6">
   <rect x="7.2" y="7.2" width="489.63915" height="250.311597"/>
  </clipPath>
 </defs>
</svg>
